<svg width="231" height="61" viewBox="0 0 231 61" fill="none" xmlns="http://www.w3.org/2000/svg">
<path d="M114.739 38.7193C115.523 38.7193 116.29 38.8537 117.041 39.1223C117.791 39.391 118.467 39.7856 119.068 40.3061C119.685 40.8266 120.168 41.4562 120.519 42.195C120.886 42.917 121.069 43.7482 121.069 44.6885C121.069 45.8302 120.777 46.8461 120.194 47.736C119.626 48.6091 118.867 49.2975 117.917 49.8013C116.966 50.305 115.931 50.5568 114.814 50.5568C114.063 50.5568 113.388 50.4813 112.787 50.3302C112.186 50.179 111.686 50.0027 111.286 49.8013V55.5941H107.808V38.7193H114.739ZM111.286 41.9935V46.9804C111.653 47.1315 112.095 47.2658 112.612 47.3834C113.146 47.4841 113.688 47.5345 114.238 47.5345C115.239 47.5345 116.032 47.2575 116.615 46.7034C117.216 46.1325 117.516 45.4608 117.516 44.6885C117.516 43.7986 117.183 43.1269 116.515 42.6736C115.848 42.2202 115.064 41.9935 114.163 41.9935H111.286Z" fill="white"/>
<path d="M129.151 38.3919C130.119 38.3919 131.003 38.5263 131.804 38.7949C132.604 39.0636 133.28 39.3742 133.831 39.7268V43.1773C133.23 42.8079 132.588 42.4637 131.904 42.1447C131.22 41.8256 130.444 41.6661 129.577 41.6661C129.143 41.6661 128.709 41.7333 128.276 41.8676C127.859 42.0019 127.508 42.2034 127.225 42.4721C126.958 42.7407 126.824 43.0849 126.824 43.5047C126.824 44.0588 127.066 44.4786 127.55 44.764C128.034 45.0495 128.626 45.3349 129.327 45.6204L131.378 46.4767C132.546 46.9804 133.405 47.5933 133.956 48.3153C134.506 49.0373 134.781 49.86 134.781 50.7835C134.781 51.791 134.489 52.6809 133.906 53.4532C133.338 54.2088 132.571 54.8049 131.604 55.2415C130.653 55.678 129.593 55.8963 128.426 55.8963C127.442 55.8963 126.499 55.7284 125.598 55.3926C124.697 55.0568 123.913 54.6454 123.246 54.1585V50.708C123.98 51.2453 124.789 51.6986 125.673 52.068C126.557 52.4374 127.5 52.6221 128.501 52.6221C129.201 52.6221 129.802 52.4878 130.302 52.2191C130.803 51.9337 131.053 51.5139 131.053 50.9598C131.053 50.5233 130.845 50.1707 130.428 49.902C130.027 49.6166 129.585 49.3815 129.101 49.1968L126.524 48.1893C125.223 47.6856 124.339 47.0308 123.872 46.2248C123.421 45.4021 123.196 44.4954 123.196 43.5047C123.196 42.4805 123.471 41.5906 124.022 40.835C124.589 40.0626 125.323 39.4665 126.224 39.0468C127.125 38.6102 128.1 38.3919 129.151 38.3919Z" fill="white"/>
<path d="M153.873 46.4515H159.578V53.3273C158.878 54.0661 157.985 54.6958 156.901 55.2163C155.833 55.72 154.624 55.9719 153.273 55.9719C152.072 55.9719 150.937 55.762 149.87 55.3422C148.802 54.9057 147.86 54.3012 147.042 53.5288C146.225 52.7396 145.583 51.8078 145.115 50.7331C144.648 49.6585 144.415 48.4664 144.415 47.1567C144.415 45.847 144.648 44.6549 145.115 43.5803C145.583 42.5057 146.225 41.5822 147.042 40.8098C147.86 40.0206 148.802 39.4162 149.87 38.9964C150.937 38.5598 152.072 38.3416 153.273 38.3416C154.324 38.3416 155.233 38.4927 156 38.7949C156.767 39.0803 157.435 39.4749 158.002 39.9787V43.5047C157.601 43.2025 157.184 42.9086 156.751 42.6232C156.317 42.3378 155.825 42.1027 155.274 41.918C154.741 41.7333 154.107 41.6409 153.373 41.6409C152.372 41.6409 151.463 41.8844 150.645 42.3713C149.828 42.8583 149.177 43.5131 148.694 44.3359C148.21 45.1586 147.968 46.0989 147.968 47.1567C147.968 48.1977 148.21 49.138 148.694 49.9776C149.177 50.8003 149.828 51.4551 150.645 51.9421C151.463 52.4122 152.372 52.6473 153.373 52.6473C154.14 52.6473 154.757 52.5549 155.224 52.3702C155.691 52.1855 156.058 51.9841 156.325 51.7658L156.35 48.9701H153.873V46.4515Z" fill="white"/>
<path d="M170.188 38.7193C170.972 38.7193 171.739 38.8285 172.49 39.0468C173.24 39.265 173.916 39.6009 174.516 40.0542C175.134 40.5076 175.617 41.0784 175.968 41.7669C176.335 42.4385 176.518 43.2445 176.518 44.1847C176.518 45.1754 176.268 46.0317 175.767 46.7537C175.284 47.4589 174.641 48.013 173.841 48.416C173.04 48.8022 172.173 49.0289 171.238 49.096L177.269 55.5941H172.69L166.86 48.6931V55.5941H163.382V38.7193H170.188ZM166.86 41.9935V46.25C167.26 46.3843 167.702 46.4935 168.186 46.5774C168.686 46.6446 169.187 46.6782 169.687 46.6782C170.688 46.6782 171.48 46.4767 172.064 46.0737C172.665 45.6539 172.965 45.0663 172.965 44.3107C172.965 43.4879 172.648 42.9002 172.014 42.5476C171.397 42.1782 170.638 41.9935 169.737 41.9935H166.86Z" fill="white"/>
<path d="M186.377 38.3416C187.578 38.3416 188.704 38.5598 189.755 38.9964C190.806 39.4162 191.731 40.0206 192.532 40.8098C193.35 41.5822 193.983 42.5057 194.434 43.5803C194.901 44.6549 195.134 45.847 195.134 47.1567C195.134 48.4664 194.901 49.6585 194.434 50.7331C193.983 51.8078 193.35 52.7396 192.532 53.5288C191.731 54.3012 190.806 54.9057 189.755 55.3422C188.704 55.762 187.578 55.9719 186.377 55.9719C185.176 55.9719 184.041 55.762 182.974 55.3422C181.923 54.9057 180.989 54.3012 180.171 53.5288C179.371 52.7396 178.737 51.8078 178.27 50.7331C177.819 49.6585 177.594 48.4664 177.594 47.1567C177.594 45.847 177.819 44.6549 178.27 43.5803C178.737 42.5057 179.371 41.5822 180.171 40.8098C180.989 40.0206 181.923 39.4162 182.974 38.9964C184.041 38.5598 185.176 38.3416 186.377 38.3416ZM186.377 41.6409C185.376 41.6409 184.475 41.8844 183.674 42.3713C182.89 42.8583 182.273 43.5131 181.823 44.3359C181.372 45.1586 181.147 46.0989 181.147 47.1567C181.147 48.1977 181.372 49.138 181.823 49.9776C182.273 50.8003 182.89 51.4551 183.674 51.9421C184.475 52.4122 185.376 52.6473 186.377 52.6473C187.378 52.6473 188.27 52.4122 189.054 51.9421C189.838 51.4551 190.455 50.8003 190.906 49.9776C191.356 49.138 191.581 48.1977 191.581 47.1567C191.581 46.0989 191.356 45.1586 190.906 44.3359C190.455 43.5131 189.838 42.8583 189.054 42.3713C188.27 41.8844 187.378 41.6409 186.377 41.6409Z" fill="white"/>
<path d="M213 38.669V48.9197C213 50.3805 212.675 51.6398 212.024 52.6977C211.39 53.7387 210.523 54.5446 209.422 55.1155C208.338 55.6696 207.12 55.9467 205.769 55.9467C204.418 55.9467 203.192 55.6696 202.091 55.1155C200.99 54.5446 200.114 53.7387 199.463 52.6977C198.829 51.6398 198.512 50.3805 198.512 48.9197V38.669H201.99V48.7183C201.99 50.0111 202.332 50.985 203.016 51.6398C203.717 52.2779 204.634 52.5885 205.769 52.5717C206.886 52.5717 207.796 52.2527 208.496 51.6147C209.197 50.9766 209.547 50.0111 209.547 48.7183V38.669H213Z" fill="white"/>
<path d="M224.56 38.7193C225.344 38.7193 226.112 38.8537 226.862 39.1223C227.613 39.391 228.289 39.7856 228.889 40.3061C229.506 40.8266 229.99 41.4562 230.34 42.195C230.707 42.917 230.891 43.7482 230.891 44.6885C230.891 45.8302 230.599 46.8461 230.015 47.736C229.448 48.6091 228.689 49.2975 227.738 49.8013C226.787 50.305 225.753 50.5568 224.635 50.5568C223.885 50.5568 223.209 50.4813 222.609 50.3302C222.008 50.179 221.508 50.0027 221.107 49.8013V55.5941H217.629V38.7193H224.56ZM221.107 41.9935V46.9804C221.474 47.1315 221.916 47.2658 222.433 47.3834C222.967 47.4841 223.509 47.5345 224.06 47.5345C225.061 47.5345 225.853 47.2575 226.437 46.7034C227.038 46.1325 227.338 45.4608 227.338 44.6885C227.338 43.7986 227.004 43.1269 226.337 42.6736C225.67 42.2202 224.886 41.9935 223.985 41.9935H221.107Z" fill="white"/>
<path d="M110.688 29.8014V19.5233C110.319 20.2289 109.941 20.9067 109.553 21.5566C109.185 22.188 108.816 22.745 108.447 23.2278C108.151 22.9679 107.736 22.6893 107.201 22.3922C106.685 22.0765 106.242 21.8259 105.873 21.6402C106.353 21.0645 106.832 20.396 107.312 19.6347C107.81 18.8548 108.271 18.047 108.696 17.2114C109.138 16.3572 109.526 15.5216 109.858 14.7045C110.19 13.8875 110.439 13.1447 110.605 12.4762H106.786V9.63514H110.688V4.53788H113.732V9.63514H116.831V12.4762H113.732V14.231C114.046 14.6767 114.442 15.2059 114.922 15.8187C115.402 16.4315 115.9 17.0257 116.416 17.6014C116.951 18.177 117.422 18.6505 117.828 19.0219V9.41231H121.674C121.84 8.94808 122.015 8.41886 122.2 7.82464C122.384 7.21186 122.55 6.61764 122.698 6.04199C122.845 5.44778 122.947 4.96498 123.002 4.59359L126.544 4.89998C126.452 5.30851 126.323 5.79131 126.157 6.34839C126.009 6.8869 125.843 7.4254 125.659 7.96391C125.493 8.50242 125.327 8.98522 125.161 9.41231H131.027V29.2721H117.828V19.3004C117.625 19.4676 117.385 19.6811 117.108 19.9411C116.831 20.1825 116.573 20.4239 116.333 20.6653C116.093 20.9067 115.909 21.1109 115.78 21.2781C115.521 20.9995 115.208 20.6374 114.839 20.1918C114.47 19.7275 114.101 19.2354 113.732 18.7155V29.8014H110.688ZM121.01 26.3753H127.873V20.6096H121.01V26.3753ZM121.01 17.6849H127.873V12.3091H121.01V17.6849Z" fill="white"/>
<path d="M139.467 29.2721V26.431H142.788V20.2475H159.834C159.115 19.8761 158.432 19.4676 157.786 19.0219C157.159 18.5577 156.56 18.047 155.988 17.4899C155.287 18.0099 154.558 18.4927 153.802 18.9383C153.045 19.384 152.27 19.7647 151.477 20.0803C151.403 19.8761 151.265 19.6161 151.062 19.3004C150.878 18.9848 150.675 18.6691 150.453 18.3534C150.232 18.0377 150.02 17.787 149.817 17.6014C149.558 18.2884 149.171 18.7341 148.655 18.9383C148.156 19.1426 147.474 19.2447 146.607 19.2447H145.195C145.159 18.8548 145.076 18.372 144.946 17.7963C144.836 17.2021 144.716 16.7472 144.587 16.4315H146.053C146.422 16.4315 146.69 16.3944 146.856 16.3201C147.04 16.2272 147.169 16.023 147.243 15.7073C147.317 15.373 147.363 14.8531 147.382 14.1475H143.646C143.535 15.6702 143.286 17.035 142.899 18.242C142.511 19.449 141.958 20.591 141.238 21.668C140.888 21.4081 140.427 21.1388 139.855 20.8603C139.301 20.5817 138.831 20.3867 138.443 20.2753C139.329 19.0498 139.928 17.7406 140.242 16.3479C140.556 14.9552 140.713 13.349 140.713 11.5292V7.29542H151.256C151.2 6.81262 151.154 6.32053 151.117 5.81916C151.08 5.29922 151.053 4.77928 151.034 4.25935H154.078C154.097 5.33636 154.18 6.34839 154.327 7.29542H157.786C157.436 6.99831 157.058 6.71049 156.652 6.43195C156.264 6.15341 155.914 5.92129 155.6 5.7356L157.288 3.84154C157.749 4.08294 158.294 4.42647 158.921 4.87213C159.567 5.29922 160.102 5.70775 160.526 6.0977C160.397 6.22769 160.231 6.40409 160.028 6.62693C159.825 6.83119 159.631 7.05402 159.447 7.29542H164.013V9.91368H159.198L161.577 11.2507C161.172 11.9934 160.683 12.7269 160.111 13.4511C159.557 14.1568 158.949 14.8345 158.284 15.4845C159.17 16.2644 160.194 16.9329 161.356 17.4899C161.541 16.9886 161.716 16.4593 161.882 15.9023C162.048 15.3452 162.159 14.9274 162.214 14.6488C162.564 14.8345 162.989 15.0388 163.487 15.2616C164.003 15.4845 164.455 15.6516 164.843 15.763C164.769 16.153 164.64 16.645 164.455 17.2393C164.271 17.8335 164.077 18.4091 163.874 18.9662C163.69 19.5233 163.524 19.9318 163.376 20.1918C163.173 20.6003 162.869 20.851 162.463 20.9438C162.076 21.0367 161.614 20.9902 161.079 20.8045V26.431H164.4V29.2721H139.467ZM149.844 17.5178C150.601 17.2578 151.339 16.9421 152.058 16.5708C152.778 16.1808 153.479 15.7444 154.161 15.2616C153.128 13.7389 152.335 11.9563 151.781 9.91368H143.756V11.5571H150.453C150.435 13.0426 150.379 14.2682 150.287 15.2338C150.195 16.1808 150.047 16.9421 149.844 17.5178ZM156.43 13.3676C156.965 12.8291 157.454 12.272 157.897 11.6963C158.358 11.1021 158.746 10.5079 159.059 9.91368H154.881C155.065 10.5636 155.287 11.1764 155.545 11.752C155.803 12.3277 156.098 12.8662 156.43 13.3676ZM145.998 26.431H148.101V22.8379H145.998V26.431ZM150.924 26.431H153.027V22.8379H150.924V26.431ZM155.822 26.431H157.925V22.8379H155.822V26.431Z" fill="white"/>
<path d="M183.024 29.8849V24.537C182.156 25.224 181.17 25.8925 180.063 26.5424C178.974 27.1924 177.84 27.7866 176.659 28.3251C175.478 28.8636 174.344 29.3093 173.255 29.6621C173.108 29.3464 172.886 28.9286 172.591 28.4087C172.296 27.8887 172.01 27.4802 171.733 27.1831C172.582 26.9603 173.495 26.6631 174.473 26.2918C175.469 25.9018 176.456 25.4747 177.434 25.0105C178.43 24.5277 179.352 24.0449 180.201 23.5621H172.259V21.1945H183.024V19.8854H175.718V11.7242C175.312 12.1884 174.897 12.6341 174.473 13.0612C174.048 13.4883 173.624 13.8689 173.2 14.2032C172.978 13.9432 172.646 13.6182 172.204 13.2283C171.761 12.8198 171.346 12.5227 170.958 12.337C171.789 11.7242 172.619 10.9443 173.449 9.99725C174.298 9.03164 175.082 8.01962 175.801 6.96117C176.521 5.88416 177.092 4.87213 177.517 3.9251L180.395 5.0114C180.247 5.34565 180.063 5.69846 179.841 6.06985C179.62 6.44123 179.38 6.84047 179.122 7.26757H183.245C183.503 6.78476 183.761 6.26483 184.02 5.70775C184.278 5.1321 184.472 4.62145 184.601 4.17579L187.811 4.39861C187.663 4.80714 187.47 5.28065 187.23 5.81916C187.008 6.3391 186.787 6.8219 186.566 7.26757H195.144V9.60729H186.261V10.805H193.345V12.9498H186.261V14.1753H193.345V16.3201H186.261V17.5456H195.448V19.8854H186.261V21.1945H196.915V23.5621H189.001C189.868 24.0449 190.79 24.5184 191.768 24.9826C192.764 25.4283 193.76 25.8275 194.757 26.1803C195.771 26.5332 196.703 26.821 197.552 27.0438C197.367 27.2481 197.164 27.5173 196.943 27.8516C196.74 28.1858 196.546 28.5108 196.362 28.8265C196.177 29.1607 196.039 29.4392 195.947 29.6621C194.877 29.3278 193.76 28.8915 192.598 28.353C191.436 27.833 190.311 27.2481 189.222 26.5982C188.134 25.9482 187.147 25.289 186.261 24.6205V29.8849H183.024ZM178.817 17.5456H183.024V16.3201H178.817V17.5456ZM178.817 14.1753H183.024V12.9498H178.817V14.1753ZM178.817 10.805H183.024V9.60729H178.817V10.805Z" fill="white"/>
<path d="M205.383 29.495V4.81642H229.043V29.495H205.383ZM208.344 26.9603H218.084C218.066 26.6446 218.02 26.301 217.946 25.9297C217.891 25.5397 217.817 25.1962 217.725 24.8991H218.97C219.173 24.8991 219.311 24.8712 219.385 24.8155C219.477 24.7598 219.523 24.6112 219.523 24.3698V23.2835H215.068C215.382 23.5807 215.677 23.887 215.954 24.2027C216.23 24.5184 216.47 24.8155 216.673 25.094C216.544 25.1683 216.35 25.2983 216.092 25.484C215.852 25.6697 215.612 25.8647 215.373 26.0689C215.133 26.2546 214.939 26.4125 214.791 26.5424C214.496 26.0782 214.137 25.5954 213.712 25.094C213.306 24.5927 212.882 24.1377 212.439 23.7292L213.048 23.2835H208.925V21.3338H219.523V20.4146C218.472 20.4517 217.365 20.4982 216.203 20.5539C215.04 20.591 213.897 20.6281 212.771 20.6653C211.664 20.7024 210.65 20.7303 209.727 20.7488L209.506 18.8548C210.244 18.8548 211.185 18.8548 212.329 18.8548C213.472 18.8362 214.672 18.8176 215.926 18.7991V17.852H210.198V11.3064H215.926V10.4986H208.98V8.52099H215.926V7.37898H208.344V26.9603ZM220.63 26.9603H226.109V7.37898H218.472V8.52099H225.473V10.4986H218.472V11.3064H224.2V17.852H223.01C223.398 18.1491 223.766 18.4648 224.117 18.7991C224.486 19.1333 224.809 19.449 225.086 19.7461C224.901 19.8947 224.652 20.1175 224.338 20.4146C224.025 20.7117 223.766 20.9717 223.564 21.1945C223.453 21.0459 223.324 20.8881 223.176 20.721C223.029 20.5539 222.872 20.3867 222.706 20.2196L221.931 20.2753V21.3338H225.528V23.2835H221.931V25.1498C221.931 26.1339 221.497 26.7374 220.63 26.9603ZM212.744 16.2365H215.926V15.3173H212.744V16.2365ZM218.472 16.2365H221.654V15.3173H218.472V16.2365ZM212.744 13.8132H215.926V12.9219H212.744V13.8132ZM218.472 13.8132H221.654V12.9219H218.472V13.8132ZM218.472 18.7434C218.915 18.7434 219.348 18.7434 219.772 18.7434C220.197 18.7248 220.603 18.7155 220.99 18.7155C220.769 18.5112 220.529 18.3256 220.271 18.1584L220.63 17.852H218.472V18.7434Z" fill="white"/>
<g clip-path="url(#clip0_466_6695)">
<path d="M0.890625 30.0876C0.890625 13.5347 14.1779 0.0875854 30.5341 0.0875854C32.5569 0.0875854 34.5448 0.299351 36.4978 0.687587C37.6137 0.899351 38.7298 1.217 39.8109 1.56995C40.6828 1.85229 41.5895 2.20524 42.4265 2.59347C41.1361 3.15818 39.8806 3.82876 38.6949 4.60524C35.5213 3.58171 32.1035 3.12288 28.7904 3.29935C25.0588 3.47582 21.397 4.39347 18.0141 6.017C14.6661 7.60524 11.5972 9.86407 9.12107 12.6523C6.64497 15.4052 4.69197 18.6876 3.43648 22.1817C2.18099 25.6759 1.623 29.4523 1.79737 33.1583C1.97174 36.8641 2.87849 40.5347 4.44785 43.8876C5.28485 45.6523 6.26134 47.3465 7.44708 48.8994C3.36673 43.7465 0.9255 37.2523 0.9255 30.1583L0.890625 30.0876ZM42.3915 42.3699C42.3915 43.2876 42.0079 44.1347 41.3453 44.7347C41.3453 44.7347 41.1361 44.9112 41.1013 44.9465C38.1717 47.0994 34.6145 48.3699 30.7434 48.4052C30.6737 48.4052 30.604 48.4052 30.569 48.4052C20.5949 48.4052 12.469 40.1817 12.469 30.0876C12.469 19.9935 20.56 11.7699 30.5341 11.7699C30.604 11.7699 30.7434 11.7699 30.8132 11.7699C31.1968 11.2758 31.4758 10.8523 31.9641 10.2876H31.8943C28.8253 9.47583 25.6517 9.61701 22.5129 10.2876C18.8512 11.0994 15.3985 12.8994 12.6434 15.5112C12.6434 15.5112 11.6321 16.3229 10.4114 17.9112C8.03995 21.017 4.86635 27.1935 6.64497 36.5112C5.52897 32.8052 5.38947 28.7465 6.36596 24.9347C7.30758 21.1229 9.29544 17.5581 12.0506 14.7699C14.8057 11.9817 18.3629 9.93465 22.1992 8.98171C25.7215 8.06407 29.453 8.09936 33.0103 9.017H33.08C34.196 7.8876 35.3818 6.82876 36.6722 5.87582C34.1263 5.16994 31.4409 4.817 28.7904 4.88759C25.2681 4.99347 21.7806 5.76995 18.5722 7.217C15.3636 8.66407 12.3993 10.7464 9.95807 13.3581C7.51684 15.9699 5.59871 19.0405 4.30835 22.4288C3.01799 25.7817 2.39024 29.417 2.49486 33.017C2.59949 36.617 3.40161 40.2523 4.83148 43.5699C6.29621 46.8876 8.3887 49.923 11.0043 52.4288C11.911 53.3112 12.8527 54.0876 13.8641 54.8288C18.607 58.0759 24.3265 60.017 30.4993 60.017C34.7192 60.017 38.6949 59.1347 42.3218 57.5112C46.4023 55.7112 49.9943 52.9935 52.8889 49.6406C53.2725 49.1817 53.9352 48.2994 53.9352 48.2994C54.4582 47.3817 54.7721 46.2876 54.7721 45.1583V30.017H42.3568V42.2641L42.3915 42.3699Z" fill="url(#paint0_linear_466_6695)"/>
<path d="M83.8786 30.017C83.8786 46.5701 70.5913 60.0171 54.2351 60.0171C52.2123 60.0171 50.2245 59.8053 48.2715 59.4171C47.1555 59.2053 46.0394 58.8877 44.9583 58.5348C44.0865 58.2524 43.1798 57.8994 42.3427 57.5112C43.6331 56.9465 44.8886 56.2759 46.0743 55.4994C49.248 56.523 52.6657 56.9817 55.9788 56.8053C59.7104 56.6288 63.3722 55.7112 66.7551 54.0877C70.1031 52.4994 73.172 50.2406 75.6481 47.4524C78.1243 44.6994 80.0773 41.417 81.3327 37.923C82.5882 34.4288 83.1463 30.6523 82.9718 26.9465C82.7975 23.2406 81.8907 19.5699 80.3214 16.217C79.4844 14.4523 78.5079 12.7583 77.3221 11.2053C81.4024 16.3583 83.8438 22.8523 83.8438 29.9465L83.8786 30.017ZM42.3777 17.7347C42.3777 16.817 42.7613 15.9699 43.4239 15.3699C43.4239 15.3699 43.6331 15.1935 43.668 15.1583C46.5975 13.0052 50.1547 11.7347 54.0258 11.6994C54.0955 11.6994 54.1652 11.6994 54.2002 11.6994C64.1743 11.6994 72.3001 19.923 72.3001 30.017C72.3001 40.1112 64.2092 48.3348 54.2351 48.3348C54.1652 48.3348 54.0258 48.3348 53.9561 48.3348C53.5724 48.8288 53.2934 49.2524 52.8051 49.817H52.875C55.9439 50.6288 59.1175 50.4877 62.2563 49.817C65.918 49.0053 69.3707 47.2053 72.1258 44.5935C72.1258 44.5935 73.1372 43.7817 74.3577 42.1935C76.7293 39.0877 79.9029 32.9112 78.1243 23.5935C79.2403 27.2994 79.3797 31.3583 78.4033 35.1701C77.4617 38.9817 75.4738 42.5465 72.7187 45.3348C69.9635 48.123 66.4063 50.1701 62.5702 51.123C59.0478 52.0406 55.3162 52.0053 51.7589 51.0877H51.6892C50.5732 52.2171 49.3874 53.2759 48.097 54.2288C50.6429 54.9348 53.3283 55.2877 55.9788 55.2171C59.5011 55.1112 62.9886 54.3348 66.1971 52.8877C69.4056 51.4406 72.37 49.3583 74.8112 46.7465C77.2524 44.1348 79.1705 41.0641 80.4609 37.6759C81.7513 34.323 82.3789 30.6877 82.2744 27.0877C82.1698 23.4877 81.3676 19.8523 79.9377 16.5347C78.473 13.217 76.3806 10.1817 73.7649 7.67585C72.8582 6.79351 71.9165 6.01703 70.9052 5.27585C66.1622 2.0288 60.4427 0.0876165 54.2699 0.087616C50.05 0.0876156 46.0743 0.969966 42.4474 2.59349C38.3671 4.39349 34.7749 7.11115 31.8803 10.4641C31.4967 10.9229 30.8341 11.8053 30.8341 11.8053C30.311 12.7229 29.9971 13.817 29.9971 14.9465V30.0877H42.4125V17.8406L42.3777 17.7347Z" fill="url(#paint1_linear_466_6695)"/>
<path fill-rule="evenodd" clip-rule="evenodd" d="M83.8781 30.1879C83.8785 30.131 83.8786 30.074 83.8786 30.017L83.8438 29.9465C83.8438 22.8523 81.4024 16.3583 77.3221 11.2053C78.5079 12.7583 79.4844 14.4523 80.3213 16.217C81.8907 19.5699 82.7975 23.2406 82.9718 26.9465C83.0225 28.0238 83.0114 29.1072 82.9391 30.1879H83.8781ZM78.6104 30.1879H72.2994C72.2999 30.131 72.3001 30.074 72.3001 30.017C72.3001 19.923 64.1743 11.6994 54.2002 11.6994H54.0258C50.1547 11.7347 46.5975 13.0052 43.668 15.1583C43.6331 15.1935 43.4239 15.3699 43.4239 15.3699C42.7613 15.9699 42.3777 16.817 42.3777 17.7347L42.4125 17.8406V30.0877H29.9971V14.9465C29.9971 13.817 30.311 12.7229 30.8341 11.8053C30.8341 11.8053 31.4967 10.9229 31.8803 10.4641C34.7749 7.11115 38.3671 4.39349 42.4474 2.59349C46.0743 0.969967 50.05 0.0876156 54.2699 0.087616C60.4427 0.0876165 66.1622 2.02879 70.9052 5.27585C71.9165 6.01703 72.8582 6.79351 73.7649 7.67585C76.3806 10.1817 78.473 13.217 79.9377 16.5347C81.3676 19.8523 82.1698 23.4877 82.2744 27.0877C82.3043 28.1207 82.2741 29.1566 82.1852 30.1879H79.0547C79.0815 27.9492 78.7626 25.7136 78.1243 23.5935C78.5838 26.001 78.7128 28.1987 78.6104 30.1879Z" fill="url(#paint2_linear_466_6695)"/>
</g>
<defs>
<linearGradient id="paint0_linear_466_6695" x1="22.9608" y1="53.7858" x2="3.49318" y2="23.5939" gradientUnits="userSpaceOnUse">
<stop stop-color="#EF2500"/>
<stop offset="1" stop-color="#FF9900"/>
</linearGradient>
<linearGradient id="paint1_linear_466_6695" x1="73.1041" y1="18.6697" x2="70.737" y2="54.6408" gradientUnits="userSpaceOnUse">
<stop stop-color="#EF2500"/>
<stop offset="1" stop-color="#FF9900"/>
</linearGradient>
<linearGradient id="paint2_linear_466_6695" x1="42.3398" y1="12.5174" x2="67.2551" y2="5.40754" gradientUnits="userSpaceOnUse">
<stop stop-color="#FFD707"/>
<stop offset="1" stop-color="#FFD707" stop-opacity="0"/>
</linearGradient>
<clipPath id="clip0_466_6695">
<rect width="83.0171" height="60" fill="white" transform="translate(0.890625 0.0875854)"/>
</clipPath>
</defs>
</svg>
