<?xml version="1.0" encoding="UTF-8"?>
<svg id="_圖層_2" data-name="圖層 2" xmlns="http://www.w3.org/2000/svg" xmlns:xlink="http://www.w3.org/1999/xlink" viewBox="0 0 346.43 87.57">
  <defs>
    <style>
      .cls-1 {
        fill: url(#_未命名漸層_2);
      }

      .cls-2 {
        fill: url(#_未命名漸層_2-2);
      }

      .cls-3 {
        fill: url(#_未命名漸層_3);
        fill-rule: evenodd;
      }
    </style>
    <linearGradient id="_未命名漸層_2" data-name="未命名漸層 2" x1="53.06" y1="1947.97" x2="24.77" y2="1992.3" gradientTransform="translate(0 2013.36) scale(1 -1)" gradientUnits="userSpaceOnUse">
      <stop offset="0" stop-color="#ef2500"/>
      <stop offset="1" stop-color="#f90"/>
    </linearGradient>
    <linearGradient id="_未命名漸層_2-2" data-name="未命名漸層 2" x1="83.14" y1="1987.65" x2="79.72" y2="1935.15" xlink:href="#_未命名漸層_2"/>
    <linearGradient id="_未命名漸層_3" data-name="未命名漸層 3" x1="64.92" y1="1981.9" x2="101.6" y2="1992.48" gradientTransform="translate(0 2013.36) scale(1 -1)" gradientUnits="userSpaceOnUse">
      <stop offset="0" stop-color="#ffd707"/>
      <stop offset="1" stop-color="#ffd707" stop-opacity="0"/>
    </linearGradient>
  </defs>
  <g id="_圖層_1-2" data-name="圖層 1">
    <g>
      <g>
        <path class="cls-1" d="m0,43.89C0,19.74,19.59.11,43.71.11c2.98,0,5.91.31,8.79.88,1.65.31,3.29.77,4.89,1.29,1.29.41,2.62.93,3.86,1.49-1.9.82-3.75,1.8-5.5,2.94-4.68-1.49-9.72-2.16-14.6-1.91-5.5.26-10.9,1.6-15.89,3.97-4.94,2.32-9.46,5.61-13.11,9.68-3.65,4.02-6.53,8.81-8.38,13.91-1.85,5.1-2.67,10.61-2.42,16.02.26,5.41,1.59,10.76,3.91,15.66,1.23,2.58,2.67,5.05,4.42,7.31C3.65,63.82.05,54.35.05,44l-.05-.1Zm61.19,17.92c0,1.34-.57,2.58-1.54,3.45,0,0-.31.26-.36.31-4.32,3.14-9.56,5-15.27,5.05h-.26c-14.71,0-26.69-12-26.69-26.73s11.93-26.73,26.64-26.73h.41c.57-.72.98-1.34,1.7-2.16h-.1c-4.53-1.18-9.2-.98-13.83,0-5.4,1.18-10.49,3.81-14.55,7.62,0,0-1.49,1.18-3.29,3.5-3.5,4.53-8.18,13.55-5.55,27.14-1.65-5.41-1.85-11.33-.41-16.89,1.39-5.56,4.32-10.76,8.38-14.83,4.06-4.07,9.31-7.06,14.96-8.45,5.19-1.34,10.7-1.29,15.94.05h.1c1.65-1.65,3.39-3.19,5.3-4.58-3.75-1.03-7.71-1.55-11.62-1.44-5.19.15-10.34,1.29-15.07,3.4-4.73,2.11-9.1,5.15-12.7,8.96-3.6,3.81-6.43,8.29-8.33,13.24-1.9,4.89-2.83,10.2-2.67,15.45.15,5.25,1.34,10.56,3.45,15.4,2.16,4.84,5.25,9.27,9.1,12.93,1.34,1.29,2.73,2.42,4.22,3.5,6.99,4.74,15.43,7.57,24.53,7.57,6.22,0,12.08-1.29,17.43-3.66,6.02-2.63,11.31-6.59,15.58-11.49.57-.67,1.54-1.96,1.54-1.96.77-1.34,1.23-2.94,1.23-4.58v-22.1h-18.31v17.87l.05.15Z"/>
        <path class="cls-2" d="m122.36,43.79c0,24.16-19.59,43.78-43.71,43.78-2.98,0-5.91-.31-8.79-.88-1.65-.31-3.29-.77-4.89-1.29-1.29-.41-2.62-.93-3.86-1.49,1.9-.82,3.75-1.8,5.5-2.94,4.68,1.49,9.72,2.16,14.6,1.91,5.5-.26,10.9-1.6,15.89-3.97,4.94-2.32,9.46-5.61,13.11-9.68,3.65-4.02,6.53-8.81,8.38-13.91,1.85-5.1,2.67-10.61,2.42-16.02-.26-5.41-1.59-10.76-3.91-15.66-1.23-2.58-2.67-5.05-4.42-7.31,6.02,7.52,9.62,17,9.62,27.35l.05.1Zm-61.19-17.92c0-1.34.57-2.58,1.54-3.45,0,0,.31-.26.36-.31,4.32-3.14,9.56-5,15.27-5.05h.26c14.71,0,26.69,12,26.69,26.73s-11.93,26.73-26.64,26.73h-.41c-.57.72-.98,1.34-1.7,2.16h.1c4.53,1.18,9.2.98,13.83,0,5.4-1.18,10.49-3.81,14.55-7.62,0,0,1.49-1.18,3.29-3.5,3.5-4.53,8.18-13.55,5.55-27.14,1.65,5.41,1.85,11.33.41,16.89-1.39,5.56-4.32,10.76-8.38,14.83-4.06,4.07-9.31,7.06-14.96,8.45-5.19,1.34-10.7,1.29-15.94-.05h-.1c-1.65,1.65-3.39,3.19-5.3,4.58,3.75,1.03,7.71,1.55,11.62,1.44,5.19-.15,10.34-1.29,15.07-3.4,4.73-2.11,9.1-5.15,12.7-8.96,3.6-3.81,6.43-8.29,8.33-13.24,1.9-4.89,2.83-10.2,2.67-15.45-.15-5.25-1.34-10.56-3.45-15.4-2.16-4.84-5.24-9.27-9.1-12.93-1.34-1.29-2.73-2.42-4.22-3.5C96.24,2.95,87.81.11,78.71.11c-6.22,0-12.08,1.29-17.43,3.66-6.02,2.63-11.31,6.59-15.58,11.49-.57.67-1.54,1.96-1.54,1.96-.77,1.34-1.23,2.94-1.23,4.58v22.1h18.31v-17.87l-.05-.15Z"/>
        <path class="cls-3" d="m122.36,44.04c0-.08,0-.17,0-.25l-.05-.1c0-10.35-3.6-19.83-9.62-27.35,1.75,2.27,3.19,4.74,4.42,7.31,2.31,4.89,3.65,10.25,3.91,15.66.07,1.57.06,3.15-.05,4.73h1.38Zm-7.77,0h-9.31c0-.08,0-.17,0-.25,0-14.73-11.98-26.73-26.69-26.73h-.26c-5.71.05-10.95,1.91-15.27,5.05-.05.05-.36.31-.36.31-.98.88-1.54,2.11-1.54,3.45l.05.15v17.87h-18.31v-22.1c0-1.65.46-3.24,1.23-4.58,0,0,.98-1.29,1.54-1.96,4.27-4.89,9.56-8.86,15.58-11.49C66.62,1.4,72.48.11,78.71.11c9.1,0,17.54,2.83,24.53,7.57,1.49,1.08,2.88,2.21,4.22,3.5,3.86,3.66,6.94,8.09,9.1,12.93,2.11,4.84,3.29,10.15,3.45,15.4.04,1.51,0,3.02-.13,4.52h-4.62c.04-3.27-.43-6.53-1.37-9.62.68,3.51.87,6.72.72,9.62Z"/>
      </g>
      <g>
        <g>
          <path d="m155.59,60.64c1.21,0,2.4.21,3.56.62,1.16.41,2.21,1.02,3.16,1.82.94.8,1.69,1.76,2.25,2.88.55,1.12.83,2.41.83,3.85,0,1.76-.45,3.31-1.34,4.67-.89,1.36-2.07,2.42-3.54,3.2-1.47.77-3.07,1.16-4.8,1.16-1.16,0-2.21-.12-3.14-.35-.93-.23-1.7-.5-2.32-.81v8.91h-5.38v-25.94h10.73Zm-5.34,5.03v7.67c.57.23,1.26.43,2.07.6.81.17,1.65.25,2.5.25,1.55,0,2.78-.43,3.7-1.3.92-.86,1.38-1.89,1.38-3.08,0-1.37-.52-2.4-1.55-3.1-1.03-.7-2.25-1.05-3.64-1.05h-4.45Z"/>
          <path d="m179.47,60.13c1.5,0,2.87.21,4.1.62s2.28.89,3.14,1.43v5.3c-.93-.57-1.92-1.1-2.98-1.59s-2.26-.74-3.6-.74c-.67,0-1.34.1-1.99.31-.66.21-1.2.52-1.63.93-.43.41-.64.94-.64,1.59,0,.85.37,1.5,1.12,1.94.75.44,1.67.88,2.75,1.32l3.17,1.32c1.81.77,3.14,1.72,3.99,2.83.85,1.11,1.28,2.38,1.28,3.79,0,1.55-.45,2.91-1.34,4.08s-2.08,2.1-3.56,2.77-3.13,1.01-4.94,1.01c-1.52,0-2.98-.26-4.38-.77-1.39-.52-2.61-1.15-3.64-1.9v-5.3c1.14.83,2.39,1.52,3.76,2.09,1.37.57,2.83.85,4.38.85,1.08,0,2.01-.21,2.79-.64.78-.43,1.16-1.06,1.16-1.92,0-.67-.32-1.22-.95-1.65s-1.32-.78-2.07-1.06l-3.99-1.55c-2.01-.77-3.38-1.79-4.08-3.04-.71-1.25-1.06-2.64-1.06-4.16s.43-2.95,1.3-4.12c.87-1.17,1.99-2.09,3.39-2.75,1.39-.66,2.9-.99,4.53-.99Z"/>
          <path d="m220.9,72.53h8.83v10.57c-1.08,1.14-2.46,2.1-4.12,2.88-1.67.79-3.54,1.18-5.63,1.18-1.86,0-3.61-.33-5.27-.99s-3.11-1.59-4.38-2.79c-1.27-1.2-2.26-2.63-2.98-4.28-.72-1.65-1.08-3.49-1.08-5.5s.36-3.85,1.08-5.5c.72-1.65,1.72-3.08,2.98-4.28,1.26-1.2,2.72-2.13,4.38-2.79s3.41-.99,5.27-.99c1.63,0,3.03.23,4.22.68,1.19.45,2.22,1.06,3.1,1.84v5.42c-.62-.46-1.26-.92-1.94-1.36-.67-.44-1.43-.8-2.27-1.08-.84-.28-1.83-.43-2.96-.43-1.55,0-2.96.38-4.22,1.12-1.27.75-2.27,1.76-3.02,3.02-.75,1.26-1.12,2.71-1.12,4.34s.37,3.04,1.12,4.32c.75,1.28,1.75,2.29,3.02,3.02,1.26.74,2.67,1.1,4.22,1.1,1.19,0,2.14-.14,2.87-.43.72-.28,1.29-.59,1.7-.93l.04-4.3h-3.83v-3.87Z"/>
          <path d="m247.73,60.64c1.21,0,2.4.17,3.56.5,1.16.34,2.21.85,3.16,1.55.94.7,1.69,1.57,2.25,2.61.55,1.05.83,2.29.83,3.74,0,1.52-.38,2.83-1.14,3.93-.76,1.1-1.76,1.95-3,2.56s-2.58.96-4.03,1.06l9.33,9.99h-7.09l-9.02-10.61v10.61h-5.38v-25.94h10.53Zm-5.15,5.03v6.54c.62.21,1.31.37,2.07.48s1.53.17,2.3.17c1.55,0,2.78-.32,3.7-.95.92-.63,1.38-1.53,1.38-2.69,0-1.26-.48-2.17-1.45-2.73-.97-.55-2.15-.83-3.54-.83h-4.45Z"/>
          <path d="m274.37,60.06c1.86,0,3.6.33,5.23.99,1.63.66,3.07,1.59,4.32,2.79,1.25,1.2,2.23,2.63,2.94,4.28.71,1.65,1.06,3.49,1.06,5.5s-.35,3.85-1.06,5.5-1.69,3.08-2.94,4.28c-1.25,1.2-2.69,2.13-4.32,2.79-1.63.66-3.37.99-5.23.99s-3.61-.33-5.25-.99c-1.64-.66-3.09-1.59-4.34-2.79s-2.23-2.63-2.94-4.28-1.07-3.49-1.07-5.5.36-3.85,1.07-5.5c.71-1.65,1.69-3.08,2.94-4.28s2.7-2.13,4.34-2.79c1.64-.66,3.39-.99,5.25-.99Zm0,5.07c-1.55,0-2.94.38-4.16,1.12-1.23.75-2.19,1.76-2.88,3.02-.7,1.26-1.05,2.71-1.05,4.34s.35,3.04,1.05,4.32c.7,1.28,1.66,2.29,2.88,3.02,1.22.74,2.61,1.1,4.16,1.1s2.93-.37,4.14-1.1,2.17-1.74,2.87-3.02c.7-1.28,1.05-2.72,1.05-4.32s-.35-3.07-1.05-4.34-1.65-2.27-2.87-3.02c-1.21-.75-2.59-1.12-4.14-1.12Z"/>
          <path d="m317.16,60.56v15.76c0,2.25-.5,4.18-1.49,5.79-.99,1.61-2.34,2.85-4.03,3.72s-3.58,1.3-5.67,1.3-3.99-.43-5.69-1.3-3.05-2.1-4.05-3.72c-.99-1.61-1.49-3.54-1.49-5.79v-15.76h5.38v15.45c0,1.99.54,3.48,1.61,4.47,1.07.99,2.48,1.48,4.24,1.45,1.73,0,3.14-.49,4.22-1.47,1.08-.98,1.63-2.46,1.63-4.45v-15.45h5.34Z"/>
          <path d="m336.63,60.64c1.21,0,2.4.21,3.56.62,1.16.41,2.21,1.02,3.16,1.82s1.69,1.76,2.25,2.88c.55,1.12.83,2.41.83,3.85,0,1.76-.45,3.31-1.34,4.67-.89,1.36-2.07,2.42-3.54,3.2-1.47.77-3.07,1.16-4.8,1.16-1.16,0-2.21-.12-3.14-.35-.93-.23-1.7-.5-2.32-.81v8.91h-5.38v-25.94h10.73Zm-5.34,5.03v7.67c.57.23,1.26.43,2.07.6.81.17,1.65.25,2.5.25,1.55,0,2.78-.43,3.7-1.3.92-.86,1.37-1.89,1.37-3.08,0-1.37-.52-2.4-1.55-3.1-1.03-.7-2.25-1.05-3.64-1.05h-4.45Z"/>
        </g>
        <g>
          <path d="m149.07,42.25v-16.73c-.61,1.15-1.22,2.24-1.84,3.29-.62,1.04-1.23,1.96-1.84,2.74-.48-.42-1.16-.88-2.02-1.38s-1.59-.9-2.2-1.2c.79-.94,1.58-2.03,2.38-3.29s1.56-2.57,2.27-3.94,1.34-2.73,1.88-4.06c.54-1.33.95-2.54,1.22-3.63h-6.25v-4.62h6.39V1.13h4.99v8.29h5.08v4.62h-5.08v2.86c.51.73,1.16,1.59,1.95,2.58s1.61,1.96,2.47,2.9c.86.94,1.62,1.71,2.29,2.31v-15.64h6.3c.27-.75.56-1.62.86-2.61.3-.98.57-1.95.82-2.9.24-.95.41-1.73.5-2.33l5.8.5c-.15.67-.36,1.44-.61,2.33-.26.89-.53,1.78-.82,2.65-.29.88-.57,1.66-.84,2.36h9.61v32.32h-21.62v-16.23c-.33.27-.73.61-1.18,1.02-.45.41-.88.81-1.27,1.2-.39.39-.7.73-.91,1-.42-.45-.94-1.05-1.54-1.79-.61-.74-1.21-1.53-1.81-2.38v18.04h-4.99Zm16.91-19.72h11.24v-8.75h-11.24v8.75Zm0,14.14h11.24v-9.38h-11.24v9.38Z"/>
          <path d="m195.98,41.38v-4.62h5.44v-10.06h27.92c-1.18-.6-2.29-1.28-3.33-2.02s-2.03-1.56-2.97-2.47c-1.15.85-2.34,1.63-3.58,2.36-1.24.72-2.51,1.34-3.81,1.86-.12-.33-.34-.75-.66-1.27-.32-.51-.66-1.03-1.02-1.54s-.71-.92-1.04-1.22c-.42,1.12-1.05,1.84-1.88,2.18-.83.33-1.96.5-3.38.5h-2.31c-.06-.63-.19-1.43-.38-2.38-.2-.95-.4-1.68-.61-2.2h2.4c.61,0,1.05-.07,1.34-.2.29-.14.49-.47.61-1,.12-.53.2-1.37.23-2.52h-6.12c-.18,2.48-.59,4.7-1.22,6.66-.63,1.96-1.54,3.82-2.72,5.58-.57-.42-1.32-.86-2.24-1.31-.92-.45-1.7-.77-2.33-.95,1.45-2,2.43-4.12,2.95-6.39.51-2.27.77-4.88.77-7.84v-6.89h17.27c-.09-.79-.17-1.59-.23-2.42-.06-.83-.11-1.67-.14-2.52h4.99c.03,1.75.17,3.4.41,4.94h5.67c-.57-.48-1.19-.95-1.84-1.41s-1.23-.83-1.75-1.13l2.77-3.08c.75.39,1.65.95,2.7,1.65,1.04.71,1.91,1.38,2.61,2.02-.21.21-.48.49-.82.84-.33.35-.65.72-.95,1.11h7.48v4.26h-7.89l3.9,2.18c-.67,1.21-1.46,2.4-2.38,3.56-.92,1.16-1.93,2.27-3.01,3.33,1.45,1.27,3.13,2.36,5.03,3.26.3-.82.59-1.68.86-2.58.27-.91.45-1.59.54-2.04.57.3,1.28.63,2.11,1,.83.36,1.56.63,2.2.82-.12.63-.33,1.44-.63,2.4-.3.97-.61,1.9-.93,2.81-.32.91-.6,1.57-.84,1.99-.33.67-.82,1.07-1.47,1.22s-1.41.08-2.29-.23v9.16h5.44v4.62h-40.84Zm17-19.13c1.24-.42,2.45-.94,3.63-1.56,1.18-.62,2.33-1.32,3.44-2.11-1.69-2.48-2.99-5.38-3.9-8.7h-13.15v2.67h10.97c-.03,2.42-.12,4.41-.27,5.96-.15,1.56-.39,2.8-.72,3.74Zm-6.3,14.5h3.45v-5.85h-3.45v5.85Zm8.07,0h3.45v-5.85h-3.45v5.85Zm9.02-21.26c.88-.88,1.69-1.79,2.43-2.74.74-.95,1.37-1.91,1.88-2.88h-6.84c.3,1.06.66,2.06,1.09,2.99.42.94.91,1.81,1.45,2.63Zm-1,21.26h3.44v-5.85h-3.44v5.85Z"/>
          <path d="m267.1,42.38v-8.7c-1.42,1.12-3.03,2.21-4.83,3.26-1.8,1.06-3.67,2.02-5.6,2.9-1.93.88-3.79,1.6-5.57,2.18-.24-.51-.61-1.19-1.09-2.04-.48-.85-.95-1.51-1.41-1.99,1.39-.36,2.89-.85,4.51-1.47,1.62-.62,3.23-1.31,4.85-2.08,1.62-.77,3.12-1.55,4.51-2.33h-13.01v-3.85h17.63v-2.13h-11.97v-13.28c-.66.76-1.34,1.48-2.04,2.18-.7.7-1.39,1.31-2.09,1.86-.36-.42-.91-.96-1.63-1.61-.73-.65-1.41-1.12-2.04-1.43,1.36-1,2.73-2.27,4.1-3.83,1.37-1.56,2.65-3.2,3.83-4.94,1.18-1.74,2.11-3.38,2.81-4.92l4.71,1.77c-.24.54-.54,1.12-.91,1.72-.36.6-.76,1.25-1.18,1.95h6.75c.42-.79.85-1.64,1.27-2.56s.74-1.75.95-2.47l5.26.36c-.24.67-.55,1.43-.93,2.29-.38.86-.75,1.65-1.11,2.38h14.05v3.81h-14.55v1.95h11.6v3.49h-11.6v2h11.6v3.49h-11.6v1.99h15.05v3.81h-15.05v2.13h17.45v3.85h-12.96c1.42.79,2.94,1.55,4.55,2.29,1.62.74,3.25,1.4,4.9,1.97,1.65.57,3.16,1.04,4.55,1.41-.3.33-.63.77-.97,1.31s-.67,1.08-.97,1.61c-.3.53-.53.97-.68,1.34-1.75-.54-3.58-1.25-5.48-2.11s-3.75-1.82-5.53-2.88c-1.78-1.06-3.4-2.13-4.85-3.22v8.57h-5.3Zm-6.89-31.05h6.89v-1.95h-6.89v1.95Zm0,5.49h6.89v-2h-6.89v2Zm0,5.48h6.89v-1.99h-6.89v1.99Z"/>
          <path d="m303.5,41.75V1.59h38.76v40.16h-38.76Zm4.85-4.12h15.96c-.03-.51-.1-1.08-.2-1.7-.11-.62-.23-1.17-.38-1.65h2.04c.33,0,.57-.05.7-.14.14-.09.2-.33.2-.72v-1.77h-7.3c.51.48,1,.98,1.45,1.5.45.51.84,1,1.18,1.45-.21.12-.52.33-.93.63-.41.3-.81.61-1.2.93s-.71.58-.95.79c-.48-.75-1.07-1.54-1.75-2.36-.68-.82-1.38-1.56-2.11-2.22l1-.73h-6.75v-3.17h17.36v-1.5c-1.72.06-3.54.13-5.44.2-1.9.08-3.77.14-5.6.2-1.83.06-3.5.11-5.01.14l-.36-3.08c1.21,0,2.75,0,4.62-.02,1.87-.01,3.84-.04,5.89-.07v-1.54h-9.38v-10.65h9.38v-1.31h-11.38v-3.22h11.38v-1.86h-12.42v31.87Zm7.21-21.39h5.21v-1.45h-5.21v1.45Zm0,3.94h5.21v-1.5h-5.21v1.5Zm12.92,17.45h8.98V5.76h-12.51v1.86h11.47v3.22h-11.47v1.31h9.38v10.65h-1.95c.63.48,1.25,1,1.83,1.54.59.54,1.11,1.06,1.56,1.54-.3.24-.71.6-1.22,1.09s-.94.91-1.27,1.27c-.18-.24-.39-.5-.63-.77-.24-.27-.5-.54-.77-.82l-1.27.09v1.72h5.89v3.17h-5.89v3.04c0,1.6-.71,2.58-2.13,2.95Zm-3.54-21.39h5.21v-1.45h-5.21v1.45Zm0,3.94h5.21v-1.5h-5.21v1.5Zm0,4.08c.73,0,1.44,0,2.13-.02.7-.01,1.36-.02,1.99-.02-.36-.33-.76-.63-1.18-.91l.59-.5h-3.54v1.45Z"/>
        </g>
      </g>
    </g>
  </g>
</svg>