<svg width="36" height="40" viewBox="0 0 36 40" fill="none" xmlns="http://www.w3.org/2000/svg">
<path d="M8.3486 37.9982C8.13961 37.9015 7.91393 37.8277 7.72337 37.7029C7.15258 37.3276 6.87948 36.781 6.87772 36.0998C6.87509 35.2324 6.88826 34.3659 6.86631 33.4993C6.86279 33.3429 6.76796 33.1346 6.6459 33.0432C4.84571 31.6959 3.54959 29.9751 2.78473 27.857C2.70657 27.6408 2.59329 27.5898 2.37639 27.5846C0.97049 27.5503 0.0203455 26.5774 0.00629526 25.1668C-0.000729848 24.4286 -0.00336426 23.6903 0.00629526 22.9521C0.0247362 21.5635 0.982782 20.5906 2.36848 20.5686C2.61349 20.5651 2.71184 20.4825 2.78912 20.2636C3.30458 18.8082 4.11598 17.5365 5.16448 16.4072C5.276 16.2868 5.34977 16.082 5.35152 15.9159C5.36557 14.2759 5.35855 12.6351 5.3603 10.9952C5.3603 10.1971 5.60531 9.96513 6.39651 10.0038C8.34422 10.0996 9.74661 11.1841 10.3543 13.0614C10.3789 13.1369 10.4096 13.2108 10.4342 13.2784C11.0383 13.1906 11.6241 13.0983 12.2115 13.0209C12.7094 12.955 13.0475 13.1703 13.1143 13.5764C13.1854 14.0079 12.9316 14.3392 12.4135 14.3937C11.0023 14.544 9.66582 14.9184 8.43203 15.6312C6.27796 16.8756 4.79742 18.6773 4.00007 21.0405C3.94738 21.1952 3.90611 21.3543 3.84464 21.5063C3.71819 21.821 3.48724 21.9853 3.14037 21.9765C2.86025 21.9695 2.57924 21.9607 2.29911 21.9713C1.81702 21.9897 1.42449 22.3588 1.41395 22.8422C1.39639 23.6622 1.39639 24.483 1.41395 25.3021C1.42449 25.7838 1.81351 26.1546 2.29648 26.1801C2.5406 26.1933 2.78736 26.1854 3.03236 26.1766C3.52412 26.1608 3.71116 26.2979 3.89645 26.7672C4.15374 27.4184 4.38733 28.0837 4.70521 28.7042C5.39455 30.0515 6.38685 31.1536 7.63731 31.9991C8.10448 32.3155 8.31524 32.6705 8.2889 33.2435C8.24675 34.1558 8.2766 35.0707 8.27836 35.9847C8.27924 36.4575 8.41184 36.5911 8.88076 36.592C9.88535 36.5946 10.8908 36.5946 11.8954 36.592C12.3459 36.5911 12.4803 36.4549 12.4846 36.0076C12.4882 35.6209 12.4802 35.2342 12.4873 34.8475C12.4987 34.2015 12.9026 33.7823 13.5367 33.7805C15.9199 33.7753 18.3041 33.7753 20.6873 33.7805C21.3231 33.7823 21.7279 34.2015 21.7385 34.8448C21.7455 35.2544 21.7341 35.6648 21.742 36.0752C21.749 36.4356 21.8974 36.5885 22.2583 36.5903C23.3095 36.5964 24.3615 36.5955 25.4135 36.5903C25.7972 36.5885 25.9439 36.4408 25.9456 36.0568C25.9509 35.061 25.9623 34.0644 25.9404 33.0695C25.9307 32.6336 26.094 32.3497 26.4479 32.1072C28.6319 30.6087 29.9842 28.5531 30.5313 25.956C31.3945 21.8579 29.2729 17.3941 25.5434 15.4888C25.3775 15.4035 25.2062 15.3262 25.0455 15.2321C24.6556 15.0054 24.5248 14.6407 24.696 14.2865C24.8699 13.927 25.2844 13.7732 25.6822 13.9965C26.4031 14.4007 27.1452 14.791 27.7967 15.2937C30.1212 17.0857 31.4849 19.4744 31.9934 22.3799C32.4509 21.5995 33.156 21.32 33.9964 21.4299C34.8912 21.5468 35.4488 22.118 35.7606 22.9468C35.8133 23.0874 35.8563 23.2315 35.9037 23.3748V24.0779C35.8818 24.1429 35.8563 24.2062 35.8379 24.2721C35.5094 25.47 34.6936 26.1274 33.4976 26.2663C32.9944 26.3243 32.4702 26.2021 31.9635 26.1626C31.7475 26.8384 31.5578 27.5872 31.2724 28.2982C30.5049 30.208 29.2773 31.7741 27.6185 32.9913C27.4191 33.1372 27.3384 33.2901 27.3436 33.5415C27.3603 34.3957 27.3515 35.25 27.3489 36.1042C27.3471 36.7713 27.0846 37.3109 26.5313 37.6853C26.3329 37.8198 26.0967 37.8962 25.8771 37.9991H21.8105C20.4098 37.5579 20.2246 36.4514 20.3519 35.2087H13.8844C13.8844 35.5585 13.8976 35.8854 13.8818 36.2106C13.8466 36.9198 13.5182 37.4551 12.8877 37.7908C12.7358 37.8716 12.5725 37.9305 12.4153 37.9999H8.3486V37.9982ZM6.77938 14.9852C6.89793 14.9166 6.98925 14.8639 7.08058 14.8112C7.54687 14.5466 8.0035 14.2645 8.4812 14.0237C9.15825 13.6827 9.18284 13.6801 8.83334 12.9805C8.41271 12.1394 7.74182 11.62 6.77938 11.4504V14.9843V14.9852ZM32.1154 22.8976C32.1154 23.359 32.1084 23.8582 32.1225 24.3565C32.1251 24.4426 32.2006 24.5472 32.2717 24.607C32.8381 25.0807 33.79 24.9796 34.259 24.4048C34.5628 24.0322 34.5804 23.5154 34.3011 23.1366C34.0473 22.7921 33.6811 22.7183 33.3185 22.9398C32.7064 23.3124 32.5896 23.3054 32.1154 22.8976Z" fill="black"/>
<path d="M17.534 2C17.9362 2.18192 18.0697 2.50447 18.0635 2.93159C18.0503 3.79639 18.0609 4.66207 18.0583 5.52687C18.0583 5.64288 18.0495 5.76153 18.0266 5.8749C17.9634 6.20008 17.6807 6.43034 17.3575 6.43034C17.0326 6.43034 16.734 6.2036 16.6936 5.87402C16.6541 5.5506 16.6603 5.22191 16.6576 4.89497C16.6532 4.24022 16.6664 3.58547 16.6532 2.93071C16.6445 2.50535 16.7779 2.18017 17.1828 2H17.5331L17.534 2Z" fill="black"/>
<path d="M17.3451 8.09658C19.4017 8.08691 21.0736 9.75763 21.0692 11.8177C21.0657 13.8628 19.4166 15.523 17.3732 15.5405C15.3438 15.5581 13.6446 13.8575 13.6472 11.8107C13.6499 9.7629 15.2999 8.10537 17.3451 8.0957V8.09658ZM17.3705 9.50452C16.0928 9.49661 15.0479 10.5407 15.0531 11.8203C15.0584 13.0868 16.0823 14.1177 17.3477 14.1308C18.6131 14.144 19.6695 13.085 19.6651 11.808C19.6598 10.5372 18.6394 9.51243 17.3705 9.50452Z" fill="black"/>
<path d="M16.2906 23.6718C16.598 23.6929 16.8263 23.8396 16.9448 24.1235C17.5578 25.5886 18.1725 27.0528 18.7714 28.524C18.9364 28.9291 18.7722 29.3193 18.4245 29.4705C18.0609 29.6287 17.6948 29.489 17.5007 29.0847C17.4182 28.9124 17.3312 28.8421 17.1354 28.8465C16.5637 28.8606 15.9912 28.8412 15.4204 28.8606C15.3141 28.8641 15.171 28.9581 15.1139 29.053C14.8584 29.4784 14.4992 29.6375 14.133 29.4564C13.7774 29.2807 13.6536 28.9036 13.8353 28.4607C14.4219 27.0352 15.0182 25.6141 15.6083 24.1894C15.7365 23.8801 15.9499 23.6946 16.2906 23.6709V23.6718ZM16.8034 27.4368C16.6348 27.0299 16.4785 26.6529 16.2924 26.2038C16.108 26.6538 15.9517 27.0334 15.7857 27.4368H16.8034Z" fill="black"/>
<path d="M22.665 27.8808C22.3752 28.3264 22.1241 28.7184 21.8668 29.1059C21.5805 29.5383 21.1853 29.6561 20.8314 29.4214C20.4784 29.1868 20.4205 28.7728 20.6953 28.3387C21.0071 27.8448 21.3206 27.3517 21.6525 26.871C21.7895 26.6724 21.8071 26.5256 21.6613 26.3173C21.3074 25.8093 20.9755 25.2864 20.647 24.7608C20.4802 24.4937 20.4275 24.1729 20.6585 23.947C20.82 23.7888 21.1046 23.6649 21.3215 23.6816C21.5111 23.6965 21.7245 23.8987 21.8562 24.0718C22.1425 24.4506 22.3822 24.8637 22.6624 25.2952C22.9706 24.825 23.2463 24.3935 23.5335 23.9707C23.7056 23.7167 23.9752 23.5621 24.2553 23.6754C24.4661 23.7607 24.6961 23.9672 24.7708 24.1729C24.8349 24.3513 24.7409 24.6325 24.6329 24.8197C24.3291 25.3453 23.9875 25.8489 23.6476 26.3525C23.5344 26.5194 23.5247 26.6434 23.6424 26.8165C24.0033 27.3482 24.3502 27.8887 24.6909 28.4345C24.8762 28.7315 24.8753 29.0339 24.6268 29.3045C24.4028 29.5489 24.1218 29.6113 23.8329 29.4636C23.6863 29.3889 23.5633 29.2422 23.4659 29.1024C23.1998 28.7192 22.9521 28.3229 22.6632 27.8808H22.665Z" fill="black"/>
<path d="M17.3566 16.9758C18.593 16.9758 19.8303 16.9758 21.0667 16.9758C21.1835 16.9758 21.3012 16.9714 21.4154 16.9899C21.7894 17.0487 22.0292 17.3273 22.0265 17.685C22.0239 18.0419 21.778 18.3152 21.4022 18.3697C21.2994 18.3846 21.1923 18.3811 21.0878 18.3811C18.6027 18.3811 16.1175 18.3811 13.6324 18.3811C13.5279 18.3811 13.4217 18.3855 13.318 18.3706C12.9422 18.3169 12.6946 18.0445 12.6893 17.6894C12.684 17.3194 12.9387 17.0356 13.3312 16.9846C13.4348 16.9714 13.5411 16.9758 13.6456 16.9758C14.882 16.9758 16.1193 16.9758 17.3557 16.9758H17.3566Z" fill="black"/>
<path d="M10.263 25.0756C10.0005 25.0475 9.78972 25.0431 9.58687 24.9991C9.25932 24.9279 9.04066 24.6282 9.05647 24.3101C9.07227 23.9867 9.31552 23.6729 9.63955 23.665C10.5256 23.6422 11.4125 23.643 12.2986 23.665C12.6217 23.6729 12.8667 23.9849 12.8851 24.3075C12.9027 24.6238 12.6858 24.9262 12.3583 24.9982C12.1449 25.0448 11.9227 25.0501 11.6654 25.0782C11.6654 25.29 11.6654 25.4983 11.6654 25.7057C11.6637 26.7472 11.6716 27.7895 11.6558 28.8301C11.6496 29.2379 11.3791 29.5024 11.0103 29.527C10.6398 29.5516 10.3447 29.2915 10.2815 28.8758C10.2639 28.7606 10.2639 28.6429 10.2639 28.526C10.263 27.5074 10.2639 26.4897 10.2639 25.4711C10.2639 25.3445 10.2639 25.218 10.2639 25.0738L10.263 25.0756Z" fill="black"/>
<path d="M11.4995 4.4248C11.7506 4.57773 11.9508 4.65595 12.094 4.79393C12.6753 5.35376 13.2435 5.92678 13.8063 6.50507C14.1444 6.85222 14.155 7.27759 13.8573 7.5641C13.5631 7.84709 13.1679 7.83391 12.8264 7.49994C12.2406 6.92868 11.6663 6.34424 11.0894 5.76331C10.8541 5.52602 10.7434 5.22281 10.9146 4.9363C11.0367 4.73241 11.287 4.60497 11.5004 4.42568L11.4995 4.4248Z" fill="black"/>
<path d="M21.3187 7.84606C21.1176 7.6949 20.8594 7.59119 20.7663 7.40487C20.6741 7.21855 20.6978 6.9338 20.7646 6.722C20.819 6.54974 21.0052 6.4144 21.1448 6.27378C21.6374 5.77458 22.1301 5.27451 22.6333 4.78499C22.9696 4.45717 23.3753 4.43871 23.6633 4.71643C23.9619 5.00382 23.9531 5.42919 23.6159 5.77546C23.0451 6.36254 22.4682 6.94347 21.8789 7.51122C21.7437 7.64217 21.5496 7.7116 21.3196 7.84606H21.3187Z" fill="black"/>
<path d="M23.4252 13.8147C23.4217 14.1953 23.1161 14.502 22.735 14.5073C22.3513 14.5125 22.0193 14.1786 22.0237 13.7936C22.029 13.4104 22.3337 13.1099 22.7166 13.1099C23.1205 13.1099 23.4287 13.4157 23.4252 13.8138V13.8147Z" fill="black"/>
<path d="M7.94912 20.7021C7.57679 20.7048 7.25012 20.384 7.24661 20.0131C7.2431 19.6492 7.57416 19.3126 7.93858 19.3091C8.30828 19.3047 8.62968 19.6264 8.63231 20.0025C8.63495 20.3831 8.32584 20.6995 7.94912 20.7021Z" fill="black"/>
</svg>
