<svg width="36" height="40" viewBox="0 0 36 40" fill="none" xmlns="http://www.w3.org/2000/svg">
<path d="M35.4087 27.4837C35.3859 27.5336 35.3541 27.582 35.3416 27.6339C35.1245 28.5075 34.6127 29.1367 33.7883 29.5007C29.8724 31.2298 25.9552 32.9561 22.0386 34.683C20.9867 35.1468 19.9507 35.6549 18.8026 35.8556C16.5508 36.2494 14.4545 35.8341 12.5014 34.6567C11.3866 33.9853 10.2682 33.3195 9.15614 32.6446C8.48252 32.2355 7.73627 32.0549 6.97136 31.9337C6.89113 31.9213 6.75144 31.996 6.71063 32.0694C6.25763 32.891 5.56395 33.2489 4.63513 33.235C3.39093 33.2163 2.14536 33.2177 0.901162 33.2371C0.485508 33.2433 0.188808 33.1118 0 32.7436V19.8678C0.209556 19.5002 0.520779 19.3722 0.944041 19.3784C2.1993 19.3985 3.45456 19.386 4.70982 19.3853C5.62135 19.3853 6.29705 19.7695 6.72792 20.5883C6.77772 20.6831 6.95477 20.7614 7.07372 20.7627C8.53647 20.7745 9.9992 20.7793 11.4613 20.7669C12.4523 20.7586 13.3708 20.9877 14.2318 21.4819C15.3294 22.1125 16.4325 22.7334 17.5439 23.3383C17.7555 23.4532 18.017 23.5266 18.257 23.53C19.6042 23.548 20.9528 23.5695 22.2994 23.5314C24.35 23.474 25.505 25.1615 25.2947 26.6594C25.2899 26.6912 25.303 26.7258 25.312 26.7867C26.3515 26.4296 27.382 26.0752 28.4125 25.7208C29.5543 25.3283 30.6927 24.9275 31.8387 24.5475C32.9459 24.18 34.1341 24.4679 34.7801 25.3269C35.0678 25.7097 35.2047 26.206 35.4101 26.6511V27.4817L35.4087 27.4837ZM6.93471 22.1651V30.5141C8.88434 30.8906 8.97632 30.9266 10.6887 31.9545C11.538 32.4646 12.3845 32.9789 13.2366 33.4828C15.494 34.818 17.8371 35.0028 20.2495 33.9563C22.8672 32.8197 25.4745 31.6596 28.086 30.5085C29.7915 29.7568 31.4984 29.0065 33.2011 28.2486C33.8326 27.9676 34.1341 27.3827 33.9889 26.766C33.798 25.9561 33.0732 25.5879 32.2066 25.8841C29.5605 26.7874 26.9068 27.6679 24.2801 28.6251C23.3707 28.9567 22.475 29.1014 21.5186 29.0868C19.6056 29.0577 17.6926 29.0785 15.7789 29.0778C15.6752 29.0778 15.5708 29.0827 15.4677 29.0737C15.1115 29.0432 14.8425 28.7677 14.8245 28.4209C14.8072 28.0935 15.0362 27.7883 15.3716 27.7177C15.5051 27.6893 15.6461 27.6949 15.7845 27.6949C18.0204 27.6935 20.2564 27.6955 22.4923 27.6928C23.1404 27.6921 23.6542 27.3342 23.85 26.7639C24.1619 25.8557 23.5062 24.9386 22.5131 24.9289C21.1071 24.9151 19.701 24.9151 18.295 24.9296C17.7708 24.9352 17.2991 24.812 16.8468 24.5531C15.7478 23.9239 14.6558 23.2781 13.5305 22.6987C13.0395 22.4461 12.4793 22.2101 11.9419 22.1886C10.2855 22.1229 8.62568 22.1644 6.93402 22.1644L6.93471 22.1651ZM1.40534 20.7731V31.8451C2.58037 31.8451 3.7312 31.8534 4.88203 31.8403C5.26725 31.8354 5.52729 31.5385 5.52798 31.126C5.53283 27.9198 5.53283 24.713 5.52798 21.5068C5.52798 21.0694 5.25272 20.7821 4.8184 20.7773C3.69039 20.7655 2.5617 20.7731 1.40534 20.7731Z" fill="black"/>
<path d="M20.4464 6.76475C21.0128 6.16532 21.5059 5.49115 22.1401 4.99901C24.6161 3.07961 28.2207 4.02997 29.5852 6.95994C30.6143 9.17005 30.3086 11.2902 28.9552 13.2809C28.0595 14.5981 26.917 15.6917 25.7344 16.7404C24.2253 18.079 22.6906 19.3886 21.1643 20.7072C20.759 21.0574 20.4554 21.0734 20.0881 20.7577C18.1648 19.1055 16.229 17.4671 14.3333 15.7831C13.6645 15.1892 13.0856 14.4908 12.4888 13.8194C12.1437 13.4304 12.1672 13.022 12.4916 12.752C12.8228 12.4759 13.2385 12.5555 13.5649 12.9618C14.7863 14.4832 16.2885 15.7097 17.7595 16.9688C18.6876 17.7634 19.6254 18.5448 20.5681 19.3402C20.6103 19.3208 20.658 19.3118 20.6891 19.2841C22.6491 17.5343 24.625 15.8025 26.5574 14.0222C27.3382 13.303 27.9807 12.4447 28.3984 11.4515C28.9822 10.0636 28.9545 8.68068 28.2352 7.35102C26.9551 4.98309 23.8587 4.71314 22.2238 6.84642C21.804 7.39393 21.5253 8.05634 21.2237 8.68622C21.0294 9.09114 20.8586 9.28495 20.5155 9.28633C20.1614 9.28772 19.9878 9.08353 19.7921 8.65992C19.5093 8.04804 19.2381 7.40778 18.8322 6.87965C17.9635 5.74933 16.7989 5.19351 15.3465 5.47176C13.9329 5.7424 13.0303 6.62838 12.5158 7.9442C12.4694 8.06187 12.4376 8.18578 12.3857 8.30068C12.228 8.65022 11.8726 8.80942 11.5323 8.69037C11.1872 8.56924 10.9866 8.22108 11.0904 7.85976C11.6921 5.7604 13.3187 4.35668 15.2462 4.08327C17.3501 3.78425 18.9428 4.62939 20.1497 6.31483C20.27 6.48303 20.3779 6.65954 20.4484 6.76613L20.4464 6.76475Z" fill="black"/>
<path d="M11.6742 11.494C11.3035 11.4878 11.0006 11.1832 10.9978 10.8129C10.9944 10.4336 11.3215 10.109 11.6984 10.1166C12.0657 10.1242 12.372 10.435 12.3748 10.8025C12.3776 11.1867 12.0601 11.5002 11.6742 11.494Z" fill="black"/>
<path d="M4.14527 22.8572C4.1425 23.2421 3.8209 23.5501 3.4343 23.539C3.06429 23.5279 2.76483 23.2178 2.7676 22.8475C2.77036 22.4682 3.10233 22.1477 3.47856 22.1616C3.8458 22.1747 4.14803 22.491 4.14527 22.8579V22.8572Z" fill="black"/>
</svg>
