<svg width="80" height="80" viewBox="0 0 80 80" fill="none" xmlns="http://www.w3.org/2000/svg">
<rect x="37.7949" y="5.67529" width="4.9091" height="13.3247" rx="1" fill="#FF9900"/>
<rect x="46.9126" y="9.8833" width="4.9091" height="13.3247" rx="1" transform="rotate(90 46.9126 9.8833)" fill="#FF9900"/>
<path d="M0 79.1715V29.7735C0.482204 28.5611 1.38399 28.1647 2.65317 28.1773C7.00136 28.2234 11.3496 28.1941 15.6998 28.1941H16.5494V24.9134C14.3659 24.4583 13.9672 23.9549 13.9651 21.7042C13.9651 20.4729 13.9651 19.2395 13.9651 18.0082C13.9651 15.8246 14.6895 15.1052 16.8834 15.1052C19.5136 15.1052 22.1438 15.1052 24.774 15.1052C25.0454 15.1052 25.3168 15.1052 25.6278 15.1052C25.6278 14.6836 25.6278 14.3962 25.6278 14.1088C25.6278 10.2031 25.6278 6.29535 25.6278 2.38966C25.6278 0.736773 26.3188 0.00681712 27.9261 0.00471955C35.9733 -0.00157318 44.0184 -0.00157318 52.0656 0.00471955C53.675 0.00471955 54.3743 0.738875 54.3743 2.38128C54.3764 6.31423 54.3743 10.2472 54.3743 14.1801C54.3743 14.4612 54.3743 14.7402 54.3743 15.1052C54.7375 15.1052 55.0172 15.1052 55.2969 15.1052C58.0837 15.1052 60.8705 15.0926 63.6551 15.1136C65.1101 15.1241 65.9701 15.9316 66.0098 17.3748C66.0578 19.1032 66.0557 20.8358 66.0098 22.5642C65.9743 23.8814 65.2479 24.6135 63.9474 24.8086C63.7783 24.8337 63.6113 24.8799 63.4694 24.9093V28.1941H64.3774C68.7256 28.1941 73.0759 28.1941 77.4241 28.1941C79.2882 28.1941 79.9979 28.9177 80 30.8181C80 46.6276 80 62.437 80 78.2464C80 79.6791 79.689 79.9937 78.257 79.9937C72.6584 79.9937 67.0598 79.9937 61.4612 79.9937C41.5927 79.9937 21.7222 79.9937 1.85367 80C1.08966 80 0.386181 79.9685 0 79.1673V79.1715ZM51.9862 22.4698V2.42323H28.0263V22.4698C28.3394 22.4698 28.5962 22.4698 28.8529 22.4698C31.8213 22.4698 34.7897 22.4614 37.7581 22.4782C38.6431 22.4824 39.1045 22.9312 39.0899 23.6738C39.0753 24.3744 38.6181 24.7834 37.7852 24.8253C37.5514 24.8379 37.3176 24.8295 37.0817 24.8295C31.3537 24.8295 25.6236 24.8295 19.8956 24.8316C19.595 24.8316 19.2944 24.8631 18.9333 24.882V25.893C18.9333 34.9902 18.9333 44.0874 18.9333 53.1846C18.9333 53.4468 18.9437 53.7111 18.9229 53.9712C18.8686 54.6508 18.4657 55.0367 17.8186 55.0724C17.1965 55.1081 16.7832 54.7473 16.6434 54.1348C16.5807 53.86 16.5933 53.5622 16.5933 53.2748C16.5912 48.3203 16.5933 43.3637 16.5933 38.4093C16.5933 38.1093 16.5933 37.8093 16.5933 37.5388H2.40476V77.5668H16.5933V76.56C16.5933 71.0811 16.5933 65.6022 16.5953 60.1213C16.5953 59.8087 16.587 59.4857 16.6621 59.1858C16.8166 58.5712 17.2592 58.246 17.8729 58.3027C18.4782 58.3593 18.8686 58.7327 18.9208 59.3787C18.9417 59.6388 18.9333 59.9031 18.9333 60.1653C18.9333 65.6715 18.9333 71.1755 18.9333 76.6816C18.9333 76.9816 18.9333 77.2815 18.9333 77.5773H26.5233C26.5233 77.2123 26.5233 76.904 26.5233 76.5956C26.5233 71.0643 26.5233 65.533 26.5233 59.9996C26.5233 58.0887 27.3395 57.2371 29.2078 57.235C36.3949 57.2287 43.5821 57.2287 50.7692 57.235C52.6479 57.235 53.4683 58.0824 53.4704 59.9828C53.4725 65.5414 53.4704 71.0979 53.4704 76.6565C53.4704 76.9606 53.4704 77.2669 53.4704 77.5878H61.0124V24.8211H60.0334C54.7479 24.8211 49.4604 24.8211 44.1749 24.8211C43.8639 24.8211 43.5445 24.8316 43.2418 24.7708C42.6177 24.6491 42.3004 24.2338 42.3192 23.5962C42.338 22.9942 42.6594 22.6145 43.2502 22.5096C43.5299 22.4593 43.8201 22.4656 44.1061 22.4635C46.4503 22.4593 48.7924 22.4635 51.1366 22.4635C51.4163 22.4635 51.6961 22.4635 51.9841 22.4635L51.9862 22.4698ZM63.461 37.5073V77.5836H77.6099V37.5073H63.461ZM28.9156 59.643V77.5815H38.8018V59.643H28.9156ZM51.0907 59.643H41.2149V77.5815H51.0907V59.643ZM2.36092 35.0657H16.5223V30.6189H2.36092V35.0657ZM77.6161 30.6042H63.4756V35.0783H77.6161V30.6042ZM54.4077 22.3985H63.6447V17.5132H54.4077V22.3985ZM25.5986 17.5237H16.3699V22.4089H25.5986V17.5237Z" fill="black"/>
<path d="M36.2551 16.1645C35.7437 16.1645 35.3283 16.1918 34.9171 16.1603C33.4704 16.0513 32.458 15.0277 32.3787 13.5677C32.339 12.8378 32.3495 12.1015 32.3724 11.3695C32.4225 9.76064 33.5018 8.69926 35.1049 8.6573C35.4619 8.64891 35.8188 8.6573 36.2572 8.6573C36.2572 8.15808 36.2405 7.74486 36.2593 7.33373C36.3282 5.87172 37.4241 4.78938 38.8791 4.75372C39.5804 4.73694 40.2839 4.74323 40.9853 4.75162C42.6177 4.7705 43.7074 5.86544 43.7429 7.51413C43.7491 7.85184 43.7429 8.19165 43.7429 8.65522C44.1374 8.65522 44.4881 8.64892 44.8409 8.65522C46.5296 8.69088 47.5963 9.76483 47.6318 11.4723C47.6443 12.0994 47.6464 12.7287 47.6318 13.358C47.5942 15.0528 46.5213 16.1226 44.8262 16.1729C44.4943 16.1834 44.1624 16.1729 43.7408 16.1729C43.7408 16.6596 43.7575 17.0728 43.7366 17.4839C43.6635 18.9249 42.6219 19.9884 41.194 20.0555C40.4405 20.0912 39.6848 20.0849 38.9312 20.0618C37.3364 20.0136 36.2843 18.9208 36.253 17.3014C36.2468 16.9637 36.253 16.6281 36.253 16.1624L36.2551 16.1645ZM45.2917 12.4078C45.2834 10.8556 45.4358 11.0213 43.9182 11.0129C43.6844 11.0129 43.4506 11.0129 43.2168 11.0129C41.7013 11.0108 41.4028 10.7087 41.4028 9.17121C41.4028 7.72109 40.6764 7.03309 39.2235 7.1072C39.1984 7.1072 39.1609 7.09671 39.1463 7.10929C38.9605 7.29388 38.6453 7.46798 38.6223 7.67354C38.5534 8.31959 38.6056 8.98034 38.5931 9.63478C38.5743 10.5472 38.1651 10.9751 37.255 11.0066C36.6058 11.0297 35.9545 11.0255 35.3053 11.0087C34.869 10.9982 34.6853 11.1891 34.7083 11.6191C34.7208 11.854 34.7083 12.091 34.7083 12.326C34.725 13.9264 34.4891 13.8132 36.1528 13.8152C38.5659 13.8152 38.5868 13.8446 38.5973 16.2736C38.6035 17.8321 38.3593 17.7105 39.9979 17.7105C41.599 17.7105 41.3944 17.8279 41.3986 16.3491C41.4042 14.6599 42.2448 13.8152 43.9203 13.8152C45.4901 13.8152 45.2771 13.8824 45.2917 12.4078Z" fill="black"/>
<path d="M50.93 40.7667C51.7879 40.7667 52.6459 40.7542 53.5038 40.7688C54.6018 40.7877 55.2782 41.4212 55.2949 42.5077C55.322 44.104 55.3199 45.7002 55.2949 47.2965C55.2782 48.3516 54.6478 49.0354 53.5978 49.0627C51.8046 49.1067 50.0094 49.1088 48.2163 49.0627C47.1621 49.0354 46.5651 48.3495 46.5526 47.2776C46.5359 45.7065 46.5359 44.1375 46.5526 42.5665C46.563 41.4128 47.1976 40.7877 48.354 40.7709C49.212 40.7563 50.0699 40.7688 50.9279 40.7688L50.93 40.7667ZM52.936 43.1832H48.9448V46.6609H52.936V43.1832Z" fill="black"/>
<path d="M29.0387 38.2624C28.2058 38.2624 27.3729 38.2729 26.5421 38.2603C25.4024 38.2435 24.7219 37.5995 24.7031 36.4752C24.6801 34.879 24.678 33.2806 24.7031 31.6844C24.7219 30.6356 25.3898 29.9623 26.4252 29.9476C28.1933 29.9224 29.9635 29.9224 31.7316 29.9476C32.7732 29.9623 33.4287 30.6377 33.4412 31.6886C33.4621 33.3121 33.4642 34.9356 33.4412 36.5592C33.4266 37.5618 32.7669 38.2246 31.7691 38.2561C30.859 38.2855 29.9489 38.2624 29.0387 38.2645V38.2624ZM27.089 32.3283V35.8439H31.0615V32.3283H27.089Z" fill="black"/>
<path d="M39.9935 38.2624C39.1355 38.2624 38.2755 38.2771 37.4175 38.2583C36.2882 38.2352 35.639 37.5765 35.6265 36.4313C35.6119 34.8602 35.6098 33.2891 35.6265 31.718C35.639 30.6252 36.2987 29.9581 37.3883 29.9435C39.1313 29.9225 40.8744 29.9225 42.6153 29.9435C43.6966 29.9581 44.3542 30.6336 44.3667 31.7285C44.3855 33.2996 44.3834 34.8707 44.3667 36.4418C44.3542 37.5807 43.6966 38.2268 42.5631 38.2604C42.5381 38.2604 42.511 38.2604 42.4859 38.2604C41.653 38.2604 40.8222 38.2604 39.9893 38.2604L39.9935 38.2624ZM41.9807 35.8649V32.3536H38.0083V35.8649H41.9807Z" fill="black"/>
<path d="M29.1368 40.767C29.9697 40.767 30.8005 40.7565 31.6334 40.7691C32.7941 40.788 33.4349 41.4068 33.4474 42.5542C33.4641 44.1253 33.4641 45.6963 33.4474 47.2653C33.437 48.3686 32.817 49.0441 31.7148 49.0671C29.9739 49.1049 28.2309 49.1028 26.4899 49.0671C25.3502 49.0462 24.7156 48.3707 24.7031 47.2276C24.6843 45.6837 24.6843 44.1378 24.7031 42.594C24.7177 41.4068 25.3669 40.7796 26.5651 40.7649C27.423 40.7544 28.281 40.7628 29.1389 40.7649L29.1368 40.767ZM27.0953 43.1583V46.657H31.0552V43.1583H27.0953Z" fill="black"/>
<path d="M40.0248 40.7693C40.9099 40.7693 41.7929 40.7525 42.6758 40.7735C43.6799 40.7987 44.3479 41.4405 44.3646 42.4452C44.3938 44.0939 44.3938 45.7447 44.3646 47.3934C44.3479 48.3562 43.7217 49.0316 42.7406 49.0589C40.9224 49.1092 39.1 49.1092 37.2818 49.0589C36.2339 49.0316 35.6369 48.3352 35.6265 47.2613C35.6119 45.6902 35.6098 44.1191 35.6265 42.5501C35.639 41.4384 36.2778 40.7945 37.3716 40.7693C38.2546 40.7504 39.1397 40.7651 40.0227 40.7672L40.0248 40.7693ZM38.0271 43.1626V46.6823H41.9786V43.1626H38.0271Z" fill="black"/>
<path d="M50.9406 38.2625C50.0827 38.2625 49.2247 38.2751 48.3668 38.2604C47.2187 38.2395 46.5674 37.6018 46.557 36.4586C46.5403 34.8875 46.5403 33.3165 46.557 31.7454C46.5695 30.6022 47.2166 29.954 48.3647 29.9436C50.0806 29.9268 51.7986 29.9247 53.5145 29.9436C54.6 29.9561 55.2784 30.619 55.2972 31.7034C55.3243 33.2997 55.3243 34.898 55.2972 36.4943C55.2784 37.5787 54.6 38.2332 53.5166 38.2583C52.6586 38.2772 51.8007 38.2625 50.9427 38.2625H50.9406ZM48.9534 32.318V35.8608H52.9008V32.318H48.9534Z" fill="black"/>
<path d="M9.475 58.3991C10.5396 58.3991 11.6042 58.3907 12.6688 58.4012C13.5017 58.4096 14.034 58.8899 14.0194 59.5905C14.0069 60.2576 13.4871 60.7463 12.7085 60.7505C10.5542 60.7652 8.39786 60.7652 6.2436 60.7505C5.44827 60.7442 4.95982 60.2785 4.94938 59.5905C4.93894 58.8669 5.43575 58.4096 6.28326 58.4012C7.34787 58.3886 8.41248 58.3991 9.47709 58.3991H9.475Z" fill="black"/>
<path d="M9.37246 45.2178C8.33499 45.2178 7.29543 45.2283 6.25796 45.2136C5.43341 45.2031 4.96999 44.7878 4.9512 44.0851C4.93241 43.3656 5.42715 42.8748 6.2684 42.8664C8.39762 42.8475 10.5247 42.8496 12.654 42.8664C13.4868 42.8727 14.0212 43.3719 14.0191 44.0578C14.015 44.7563 13.4931 45.2073 12.6435 45.2157C11.5539 45.2262 10.4621 45.2178 9.37246 45.2178Z" fill="black"/>
<path d="M9.50654 50.6465C10.5711 50.6465 11.6337 50.6318 12.6983 50.6507C13.4957 50.6633 14.0009 51.1185 14.0176 51.7855C14.0343 52.4462 13.527 52.9811 12.7526 52.9895C10.5732 53.0147 8.39393 53.0147 6.21461 52.9895C5.41094 52.9811 4.94751 52.4986 4.95169 51.8023C4.95586 51.0996 5.41511 50.6654 6.23757 50.6507C7.32723 50.6297 8.41688 50.6465 9.50654 50.6465Z" fill="black"/>
<path d="M9.45632 68.5012C8.39172 68.5012 7.32711 68.5117 6.2625 68.497C5.43587 68.4844 4.97246 68.0712 4.94949 67.3727C4.92653 66.6511 5.42334 66.1561 6.26041 66.1498C8.41468 66.133 10.5689 66.133 12.7232 66.1498C13.4997 66.1561 14.0154 66.6658 14.0174 67.3286C14.0174 68.004 13.5123 68.4802 12.7253 68.4928C11.6356 68.5117 10.5439 68.497 9.45423 68.4991L9.45632 68.5012Z" fill="black"/>
<path d="M70.5084 60.7591C69.4688 60.7591 68.4313 60.7674 67.3918 60.757C66.5109 60.7465 65.9577 60.2556 65.9828 59.5362C66.0078 58.8398 66.5297 58.4056 67.3876 58.4035C69.4918 58.3972 71.5939 58.3951 73.698 58.4035C74.5539 58.4077 75.0528 58.8524 75.0549 59.5718C75.0549 60.285 74.5497 60.7444 73.7022 60.757C72.6376 60.7716 71.573 60.7612 70.5084 60.7612V60.7591Z" fill="black"/>
<path d="M70.5482 45.216C69.4585 45.216 68.3668 45.2286 67.2772 45.2118C66.4923 45.1992 65.985 44.7272 65.9829 44.0539C65.9829 43.3911 66.4964 42.8772 67.273 42.8688C69.4523 42.8478 71.6337 42.8457 73.8151 42.8709C74.6021 42.8793 75.0717 43.3932 75.053 44.0875C75.0321 44.7881 74.5687 45.2034 73.7441 45.2139C72.6795 45.2286 71.6149 45.2181 70.5503 45.216H70.5482Z" fill="black"/>
<path d="M70.5523 50.6464C71.6169 50.6464 72.6794 50.6317 73.744 50.6505C74.5706 50.6652 75.0341 51.0847 75.0508 51.7811C75.0695 52.5027 74.5832 52.9872 73.7315 52.9935C71.6043 53.0145 69.4751 53.0124 67.348 52.9935C66.5109 52.9872 65.9807 52.4922 65.9849 51.8042C65.987 51.1141 66.5109 50.6568 67.3605 50.6464C68.4251 50.6317 69.4877 50.6422 70.5523 50.6443V50.6464Z" fill="black"/>
<path d="M70.4874 68.4992C69.4228 68.4992 68.3582 68.5117 67.2936 68.495C66.5003 68.4824 65.9952 68.023 65.9826 67.3518C65.9701 66.6889 66.4857 66.1604 67.2539 66.152C69.4353 66.131 71.6146 66.131 73.796 66.152C74.583 66.1604 75.061 66.6575 75.0506 67.3497C75.0402 68.0545 74.5767 68.4824 73.7585 68.495C72.6688 68.5117 71.5771 68.4992 70.4874 68.4992Z" fill="black"/>
<path d="M35.9567 69.3944C35.9567 69.9419 35.9797 70.4914 35.9505 71.0389C35.9171 71.7206 35.4432 72.1905 34.8253 72.2031C34.2262 72.2178 33.671 71.75 33.6438 71.0851C33.5979 69.9922 33.5979 68.8931 33.6438 67.7982C33.673 67.1123 34.1886 66.6823 34.8191 66.6885C35.4891 66.6969 35.9171 67.1521 35.9609 67.9051C35.963 67.9576 35.963 68.01 35.963 68.0625C35.963 68.505 35.963 68.9497 35.963 69.3923C35.963 69.3923 35.9588 69.3923 35.9567 69.3923V69.3944Z" fill="black"/>
<path d="M44.0456 69.3171C44.0456 68.7948 44.0206 68.2704 44.0519 67.7502C44.0915 67.0685 44.509 66.6972 45.1561 66.6658C45.7761 66.6364 46.275 66.9888 46.3147 67.5992C46.394 68.7927 46.3961 70.0009 46.323 71.1944C46.2834 71.8405 45.7761 72.2096 45.1186 72.1614C44.4673 72.1153 44.0748 71.7188 44.0498 71.0413C44.0268 70.4687 44.0456 69.8918 44.0456 69.3192C44.0456 69.3192 44.0456 69.3192 44.0477 69.3192L44.0456 69.3171Z" fill="black"/>
</svg>
