<svg width="80" height="71" viewBox="0 0 80 71" fill="none" xmlns="http://www.w3.org/2000/svg">
<path d="M52.8266 25.6735L65.679 30.5822L57.3192 38.6772L52.8266 25.6735Z" fill="#FF9900"/>
<path d="M80 51.2022C79.8813 51.5944 79.7719 51.9896 79.6406 52.3771C78.7531 54.9946 76.3813 56.7718 73.5156 56.9165C72.3984 56.9725 71.2766 56.9539 70.1578 56.9321C69.3203 56.9165 68.8203 56.4201 68.8469 55.7089C68.8734 55.0211 69.3484 54.618 70.1766 54.6087C71.1656 54.5978 72.1563 54.6211 73.1453 54.6009C75.8031 54.548 77.6391 52.6946 77.6531 50.0522C77.6625 48.2175 77.6547 46.3812 77.6547 44.5013H2.39844C2.38125 44.6911 2.34688 44.8888 2.34688 45.0864C2.34219 46.7718 2.33281 48.4587 2.34688 50.144C2.36875 52.6261 4.14531 54.464 6.63281 54.5947C6.94531 54.6103 7.25781 54.604 7.57031 54.604C26.3203 54.604 45.0688 54.604 63.8188 54.604C65.0406 54.604 65.5922 54.9526 65.6063 55.7323C65.6219 56.5415 65.0266 56.9368 63.7875 56.9368C59.4906 56.9368 55.1937 56.9368 50.8969 56.9368H49.9469C50.5078 59.3084 51.0484 61.5898 51.6031 63.9349C52.3109 63.9349 52.9844 63.9194 53.6578 63.938C55.2547 63.9816 56.3844 65.1129 56.4281 66.7096C56.4438 67.2792 56.45 67.8518 56.4172 68.4214C56.3391 69.7691 55.2656 70.8553 53.9219 70.9798C53.8188 70.9891 53.7141 70.9969 53.6094 70.9969C44.5469 70.9969 35.4844 70.9969 26.4234 71C25.5984 71 24.8984 70.7183 24.3297 70.1223C23.2359 68.9739 23.2203 65.9953 24.3062 64.8344C24.8453 64.257 25.5094 63.9396 26.3109 63.938C26.9859 63.938 27.6594 63.938 28.3953 63.938C28.9484 61.6115 29.4906 59.3286 30.0578 56.9399H29.0609C21.8469 56.9399 14.6344 56.9399 7.42031 56.9399C3.43438 56.9399 1.09844 55.1471 0.090625 51.3252C0.078125 51.28 0.03125 51.2427 0.0015625 51.2022C0.0015625 39.7892 0.0015625 28.3777 0.0015625 16.9646C0.426563 16.4868 0.876563 16.0527 1.59531 16.3406C2.30938 16.6269 2.37656 17.2385 2.34531 17.8921C2.3375 18.0726 2.34531 18.2547 2.34531 18.4367C2.34531 26.0091 2.34531 33.5815 2.34531 41.1524C2.34531 41.4527 2.34531 41.7531 2.34531 42.0581H6.41875C6.41875 41.683 6.41875 41.3749 6.41875 41.0652C6.41875 30.7711 6.41875 20.4753 6.41875 10.1812C6.41875 7.63682 7.65625 6.39343 10.1844 6.39343C30.05 6.39343 49.9156 6.39343 69.7797 6.39343C72.3594 6.39343 73.5844 7.62592 73.5844 10.2201C73.5844 20.5142 73.5844 30.81 73.5844 41.1041C73.5844 41.4107 73.5844 41.7173 73.5844 42.0721H77.6188C77.6328 41.8262 77.6547 41.6239 77.6547 41.4216C77.6562 29.8825 77.6609 18.3418 77.6516 6.8027C77.65 4.2101 75.7641 2.33645 73.1594 2.33645C51.0547 2.33023 28.95 2.33023 6.84687 2.33645C4.23906 2.33645 2.36719 4.20698 2.34531 6.79492C2.33281 8.32465 2.33281 9.85438 2.34688 11.3841C2.35313 12.0377 2.30156 12.6431 1.58438 12.9294C0.85625 13.222 0.420313 12.7753 0 12.296C0 10.1174 0 7.93871 0 5.7585C0.0234375 5.71181 0.05625 5.66824 0.0703125 5.62C1.20312 1.65484 3.40313 0.000614868 7.54844 0.000614868C29.2094 0.000614868 50.8719 0.000614868 72.5328 0.000614868C72.8453 0.000614868 73.1578 -0.00249769 73.4703 0.00528323C76.3031 0.0846487 78.8203 1.96764 79.675 4.64739C79.7922 5.01465 79.8922 5.38813 80 5.7585V51.2007V51.2022ZM8.75938 42.0612H71.2406V41.1477C71.2406 30.8535 71.2406 20.5594 71.2406 10.2668C71.2406 8.92378 71.0469 8.7277 69.725 8.7277C49.9141 8.7277 30.1031 8.7277 10.2922 8.7277C8.95156 8.7277 8.76094 8.91756 8.75938 10.2497C8.75938 20.5687 8.75938 30.8893 8.75938 41.2084V42.0612ZM30.8266 63.882H49.1734C48.6422 61.6255 48.1359 59.436 47.5938 57.2558C47.5594 57.1173 47.2516 56.9554 47.0703 56.9539C42.3609 56.9368 37.65 56.9368 32.9406 56.957C32.75 56.957 32.4313 57.1577 32.3906 57.3196C31.8531 59.4749 31.3531 61.6395 30.8266 63.882ZM39.9203 68.672C44.3203 68.672 48.7187 68.6766 53.1187 68.6626C53.4109 68.6626 53.9406 68.5677 53.9563 68.4588C54.0469 67.8301 54.0828 67.1718 53.9797 66.5509C53.9547 66.4046 53.3188 66.2816 52.9641 66.2816C44.3219 66.2676 35.6781 66.2708 27.0359 66.2708C26.8281 66.2708 26.5906 66.2147 26.4188 66.2957C26.2219 66.389 26.0016 66.5789 25.9391 66.775C25.8547 67.0348 25.9109 67.3383 25.9109 67.6246C25.9141 68.6502 25.9328 68.6735 26.9563 68.6735C31.2781 68.6751 35.5984 68.6735 39.9203 68.6735V68.672Z" fill="black"/>
<path d="M40.0124 53.708C37.6702 53.7127 35.7874 51.853 35.7827 49.5297C35.7765 47.2218 37.6765 45.314 39.9874 45.3062C42.2999 45.2984 44.2124 47.1954 44.2187 49.5032C44.2249 51.8282 42.3484 53.7033 40.014 53.708H40.0124ZM41.8734 49.5437C41.889 48.5259 41.028 47.6498 40.0077 47.6451C39.0187 47.6405 38.164 48.4621 38.1296 49.4503C38.0937 50.4836 38.9155 51.3488 39.9546 51.3706C41.0015 51.3924 41.8593 50.5754 41.8749 49.5437H41.8734Z" fill="black"/>
<path d="M63.1095 33.9611C64.0736 34.901 64.9158 35.7071 65.7408 36.5303C66.3861 37.1746 66.458 37.864 65.9642 38.3713C65.4298 38.9206 64.7689 38.8522 64.0642 38.1565C63.2345 37.3395 62.4173 36.5116 61.5002 35.5951C61.2439 36.4961 61.0017 37.2711 60.8048 38.0554C60.558 39.0405 60.0189 39.7547 59.0002 39.9897C58.0002 40.22 57.1752 39.9088 56.4908 39.1214C56.3127 38.9175 55.9142 38.8164 55.6158 38.8148C50.2533 38.7977 44.8923 38.7977 39.5298 38.807C38.7455 38.807 38.0236 38.7028 37.483 38.0663C36.9736 37.4671 36.7236 36.7342 37.0564 36.0401C38.2705 33.5082 37.9939 30.7678 38.2705 28.1083C38.4955 25.9436 38.5908 23.7665 38.772 21.5972C38.8908 20.1888 39.8658 19.3143 41.3095 19.2645C41.6673 19.252 42.0267 19.2629 42.4486 19.2629C42.5783 18.0086 42.7205 16.8321 42.8158 15.6525C43.0267 13.0195 44.6533 11.4913 47.2955 11.4944C47.9173 11.4944 48.558 11.468 49.1595 11.5971C50.9267 11.9753 52.1611 13.449 52.3423 15.2837C52.4517 16.3933 52.5845 17.4997 52.6595 18.6109C52.6923 19.1042 52.8658 19.2645 53.3689 19.2722C55.5877 19.3111 56.2408 19.9429 56.458 22.1683C56.4783 22.3753 56.5486 22.5869 56.5189 22.7861C56.2705 24.4403 57.1048 25.1671 58.6127 25.6837C61.1408 26.549 63.5939 27.6289 66.0642 28.6545C67.4127 29.2147 67.9783 30.5063 67.4814 31.7606C67.1845 32.5076 66.6252 32.9791 65.847 33.1939C64.9986 33.4288 64.1533 33.6701 63.1127 33.9626L63.1095 33.9611ZM54.0673 21.661H41.1283C41.108 21.9053 41.0986 22.0843 41.0783 22.2632C40.5158 26.9707 40.8048 31.7715 39.5627 36.4276H55.3095C55.1673 36.0588 55.0533 35.746 54.9283 35.4394C53.972 33.0896 53.0173 30.7398 52.0533 28.3946C51.6158 27.3317 51.597 26.2766 52.383 25.4036C52.8642 24.8698 53.547 24.5197 54.247 24.0077C54.1955 23.3463 54.133 22.5247 54.0658 21.661H54.0673ZM65.3127 30.925C65.0736 30.7973 64.9455 30.7149 64.8064 30.6588C61.608 29.3641 58.4127 28.0647 55.2048 26.7933C54.9345 26.6859 54.5861 26.773 54.2736 26.7699C54.2861 27.0812 54.2142 27.4251 54.322 27.699C55.2955 30.1515 56.2986 32.5932 57.2955 35.0364C57.6423 35.8892 57.9923 36.742 58.4298 37.8142C58.8236 36.4136 59.1908 35.2371 59.4783 34.0435C59.758 32.8811 60.4627 32.215 61.6048 31.9271C62.8095 31.6237 64.0033 31.2813 65.3127 30.925ZM44.8033 19.1975H50.3767C50.2314 17.8203 50.1361 16.5053 49.9408 15.2059C49.8173 14.3827 49.1314 13.8738 48.2814 13.8318C47.8142 13.81 47.3455 13.8085 46.8783 13.8334C46.0517 13.8785 45.4095 14.3407 45.2752 15.1624C45.0595 16.4836 44.958 17.8234 44.8033 19.1975Z" fill="black"/>
<path d="M23.2939 13.6097C25.1142 13.6097 26.936 13.6035 28.7564 13.6097C31.3814 13.6206 32.7564 14.9885 32.7642 17.5858C32.7657 18.3109 32.786 19.0377 32.7579 19.7613C32.6798 21.8046 31.286 23.2643 29.2532 23.2876C25.2735 23.3327 21.2923 23.3296 17.3126 23.2892C15.2454 23.2674 13.8235 21.7735 13.7782 19.7115C13.761 18.935 13.7704 18.1569 13.7751 17.3803C13.7923 15.0787 15.1907 13.6719 17.5189 13.6097C17.5704 13.6097 17.6235 13.6097 17.6751 13.6097C19.5485 13.6097 21.4204 13.6097 23.2939 13.6097ZM23.3032 15.9424C21.5095 15.9424 19.7157 15.9409 17.922 15.9424C16.4376 15.944 16.1204 16.2552 16.1189 17.704C16.1189 18.3514 16.1032 18.9988 16.1235 19.6461C16.1517 20.5114 16.5626 20.9596 17.4251 20.9627C21.3251 20.9798 25.2251 20.9798 29.1251 20.9627C29.9814 20.9596 30.3876 20.5114 30.4173 19.6352C30.4407 18.9365 30.4282 18.2362 30.422 17.5375C30.4126 16.319 30.0564 15.9502 28.8407 15.944C26.9954 15.9346 25.1485 15.9409 23.3032 15.9409V15.9424Z" fill="black"/>
<path d="M23.2563 34.1212C21.3313 34.1212 19.4063 34.1321 17.4813 34.1181C15.225 34.1026 13.7985 32.6662 13.7766 30.4082C13.7688 29.6052 13.7578 28.8006 13.7797 27.9992C13.8344 25.9466 15.2907 24.4713 17.3516 24.4573C21.3063 24.4309 25.261 24.4309 29.2141 24.4573C31.1282 24.4713 32.5516 25.7536 32.7157 27.6397C32.8125 28.7446 32.8125 29.8713 32.7125 30.9762C32.5438 32.8389 31.1438 34.0606 29.2657 34.1197C29.2141 34.1212 29.161 34.1212 29.1094 34.1212C27.1578 34.1212 25.2078 34.1212 23.2563 34.1212ZM23.2188 31.787C25.1688 31.787 27.1188 31.7963 29.0688 31.7823C29.9672 31.7761 30.3797 31.3964 30.4125 30.528C30.4438 29.7001 30.4453 28.8707 30.4125 28.0428C30.3813 27.2289 29.9469 26.7916 29.1313 26.7885C25.2313 26.7729 21.3313 26.7729 17.4313 26.7885C16.5735 26.7916 16.1516 27.2367 16.1235 28.0973C16.1016 28.7695 16.1172 29.4434 16.1188 30.1172C16.1219 31.4493 16.45 31.7854 17.7594 31.787C19.5797 31.7901 21.4 31.787 23.2203 31.787H23.2188Z" fill="black"/>
</svg>
