<svg width="80" height="80" viewBox="0 0 80 80" fill="none" xmlns="http://www.w3.org/2000/svg">
<rect x="34" y="34" width="12" height="12" rx="2" fill="#FF9900"/>
<path d="M14.5257 0C16.1912 0.448194 17.5886 1.2526 18.4262 2.8477C19.849 5.55839 18.71 8.89343 15.9055 10.146C15.563 10.2987 15.2909 10.3926 15.2929 10.8839C15.3144 16.7163 15.3066 22.5506 15.3086 28.383C15.3086 28.4809 15.332 28.5807 15.3497 28.7138H24.683C24.683 28.0288 24.6791 27.3379 24.683 26.647C24.6948 25.2613 25.2506 24.6938 26.6323 24.6918C30.2509 24.6859 33.8716 24.6898 37.4902 24.6898C37.772 24.6898 38.0539 24.6898 38.4316 24.6898C38.4316 24.1007 38.4316 23.5625 38.4316 23.0243C38.4316 20.6032 38.4218 18.1803 38.4414 15.7592C38.4453 15.2934 38.3513 15.037 37.8719 14.8296C35.5312 13.8236 34.2865 11.3438 34.8207 8.87581C35.3433 6.46065 37.5215 4.69528 39.9855 4.68941C42.4475 4.68353 44.6316 6.44108 45.1659 8.85624C45.71 11.3164 44.4516 13.7883 42.1501 14.855C41.9054 14.9685 41.5845 15.2817 41.5825 15.5048C41.5453 18.5247 41.5571 21.5446 41.5571 24.6272H48.1211C48.1211 24.3689 48.1211 24.0929 48.1211 23.8189C48.1211 20.6424 48.1211 17.4639 48.1211 14.2874C48.1211 12.7001 48.6398 12.1874 50.2368 12.1854C53.3094 12.1854 56.382 12.1815 59.4546 12.1893C59.8147 12.1893 60.1944 12.2069 60.5291 12.3185C61.1886 12.5397 61.5389 13.0622 61.537 13.7472C61.535 14.4323 61.1828 14.9529 60.5213 15.1701C60.1846 15.2817 59.8069 15.3012 59.4468 15.3032C56.7441 15.313 54.0413 15.3091 51.2916 15.3091V24.6879C51.9903 24.6879 52.6596 24.684 53.3309 24.6879C54.7498 24.6977 55.3056 25.2574 55.3076 26.6959C55.3115 30.2893 55.3076 33.8827 55.3076 37.4781C55.3076 37.7618 55.3076 38.0456 55.3076 38.3803C55.5405 38.4018 55.7381 38.4371 55.9358 38.4371C58.7227 38.441 61.5076 38.4312 64.2945 38.4488C64.7388 38.4508 64.9678 38.3353 65.1576 37.8969C66.1733 35.5444 68.6236 34.2996 71.0993 34.8222C73.5144 35.333 75.2875 37.5035 75.3051 39.9715C75.3227 42.4591 73.5281 44.6766 71.0817 45.1835C68.6001 45.6982 66.1988 44.4437 65.1263 42.1009C65.0284 41.8856 64.774 41.5901 64.5881 41.5881C61.5213 41.5568 58.4565 41.5646 55.3487 41.5646V48.1271C55.6109 48.1271 55.8849 48.1271 56.157 48.1271C59.3333 48.1271 62.5116 48.1271 65.688 48.1271C67.2889 48.1271 67.8095 48.6399 67.8095 50.2232C67.8095 56.4216 67.8173 62.618 67.7977 68.8164C67.7977 69.3781 67.923 69.66 68.4847 69.9066C70.7529 70.9067 71.9624 73.4413 71.4105 75.8584C70.8606 78.2696 68.6569 80.0233 66.2066 79.9998C63.7387 79.9743 61.5703 78.1972 61.0653 75.784C60.5526 73.3414 61.7953 70.8754 64.0734 69.8674C64.455 69.6991 64.7016 69.568 64.6997 69.0572C64.6762 63.2757 64.686 57.4941 64.684 51.7146C64.684 51.5893 64.6683 51.4641 64.6566 51.2977H55.3076C55.3076 51.8868 55.3076 52.4994 55.3076 53.1101C55.3076 54.8226 54.8222 55.3158 53.1372 55.3158C49.5948 55.3158 46.0545 55.3158 42.5121 55.3158H41.6197C41.5962 55.5272 41.559 55.6994 41.559 55.8716C41.5551 58.6841 41.5649 61.4966 41.5473 64.309C41.5434 64.7592 41.6725 64.9804 42.105 65.1682C44.4516 66.184 45.6983 68.6422 45.1718 71.1161C44.6571 73.5313 42.4847 75.3006 40.0188 75.3162C37.5294 75.3299 35.3159 73.5332 34.811 71.0868C34.2982 68.6031 35.5527 66.2134 37.8993 65.133C38.1243 65.0293 38.4061 64.7279 38.4081 64.5165C38.4375 61.522 38.4237 58.5275 38.4159 55.533C38.4159 55.488 38.3807 55.443 38.3435 55.3589H31.8655C31.8655 55.629 31.8655 55.903 31.8655 56.175C31.8655 59.3789 31.8675 62.5809 31.8655 65.7848C31.8655 67.2761 31.3254 67.8202 29.8419 67.8222C26.7164 67.8261 23.5929 67.8222 20.4675 67.8222C20.3892 67.8222 20.3109 67.8222 20.2326 67.8222C19.1542 67.7928 18.4438 67.1802 18.436 66.2721C18.4282 65.3659 19.1386 64.7103 20.2111 64.7024C22.7377 64.6868 25.2623 64.6966 27.7889 64.6966C28.0707 64.6966 28.3545 64.6966 28.6892 64.6966V55.3178C27.9827 55.3178 27.286 55.3236 26.5912 55.3178C25.2721 55.3041 24.683 54.7247 24.6791 53.4036C24.6713 49.7848 24.6772 46.164 24.6772 42.5452C24.6772 42.2594 24.6772 41.9757 24.6772 41.6312C24.456 41.6097 24.2603 41.5725 24.0626 41.5725C21.2757 41.5686 18.4908 41.5764 15.7039 41.5627C15.2714 41.5607 15.0248 41.6469 14.8291 42.099C13.8094 44.4632 11.3787 45.706 8.89714 45.1893C6.45273 44.6805 4.65808 42.461 4.67765 39.9735C4.69722 37.5055 6.4723 35.3369 8.88735 34.828C11.365 34.3055 13.7859 35.562 14.8526 37.8949C14.9524 38.1122 15.199 38.4175 15.381 38.4195C18.4477 38.4527 21.5164 38.4429 24.6302 38.4429V31.8805C23.7221 31.8805 22.8453 31.8805 21.9666 31.8805C19.3617 31.8805 16.7588 31.8844 14.1539 31.8805C12.7311 31.8766 12.1753 31.3149 12.1753 29.8783C12.1713 23.6799 12.1674 17.4835 12.185 11.2851C12.185 10.6803 12.0676 10.3476 11.4433 10.0717C9.49992 9.21049 8.29044 7.07717 8.44701 5.0143C8.61727 2.75962 10.0362 0.949233 12.1537 0.279877C12.4238 0.193761 12.69 0.0959019 12.9581 0.00391436C13.4787 0.00391436 13.9993 0.00391436 14.5199 0.00391436L14.5257 0ZM52.1312 52.1589V27.8781H27.8476V52.1589H52.1312ZM13.7312 3.13149C12.5393 3.13932 11.5549 4.13748 11.5627 5.3294C11.5705 6.52133 12.5686 7.50579 13.7605 7.496C14.9524 7.48817 15.9368 6.49001 15.929 5.29809C15.9211 4.10617 14.923 3.1217 13.7312 3.12953V3.13149ZM66.2555 76.88C67.4474 76.8761 68.4357 75.8819 68.4318 74.6919C68.4279 73.5 67.4357 72.5116 66.2438 72.5155C65.0519 72.5194 64.0636 73.5117 64.0675 74.7036C64.0714 75.8956 65.0637 76.8839 66.2555 76.88ZM42.1794 9.97184C42.1657 8.77991 41.1656 7.80328 39.9718 7.81698C38.7799 7.83068 37.7994 8.8308 37.8151 10.0227C37.8288 11.2146 38.8328 12.1972 40.0227 12.1815C41.2126 12.1658 42.1931 11.1638 42.1794 9.97184ZM12.1753 40.0302C12.189 38.8403 11.2085 37.8382 10.0166 37.8225C8.82472 37.8088 7.82465 38.7874 7.81095 39.9793C7.79725 41.1732 8.77383 42.1733 9.9657 42.187C11.1556 42.2007 12.1596 41.2202 12.1753 40.0302ZM72.1855 39.9813C72.1738 38.7894 71.1718 37.8088 69.9818 37.8225C68.79 37.8362 67.8075 38.8403 67.8212 40.0283C67.8349 41.2182 68.8389 42.2007 70.0288 42.187C71.2207 42.1733 72.1992 41.1752 72.1855 39.9813ZM42.1775 70.1258C42.2401 68.9378 41.3026 67.8966 40.1108 67.83C38.9267 67.7635 37.8816 68.7068 37.8171 69.8968C37.7525 71.0848 38.6938 72.128 39.8837 72.1887C41.0756 72.2493 42.1148 71.3158 42.1775 70.1238V70.1258Z" fill="black"/>
<path d="M80 14.5322C79.5401 16.2584 78.6809 17.6734 77.0115 18.5072C74.3421 19.84 71.0307 18.6227 69.8192 15.8396C68.6352 13.1171 70.0071 9.85059 72.7705 8.81132C75.5966 7.74857 78.7553 9.21059 79.683 12.0133C79.7886 12.3323 79.8943 12.6513 80 12.9723V14.5341V14.5322ZM76.8687 13.7473C76.8667 12.5554 75.8745 11.567 74.6826 11.569C73.4907 11.5709 72.5024 12.5632 72.5044 13.7552C72.5063 14.9471 73.4986 15.9355 74.6904 15.9335C75.8823 15.9315 76.8706 14.9393 76.8687 13.7473Z" fill="black"/>
<path d="M10.6133 66.2272C10.6368 69.1179 8.21784 71.5566 5.31743 71.5644C2.42289 71.5742 -0.0078095 69.1453 1.88566e-05 66.2487C0.00589013 63.3775 2.37788 60.9878 5.25676 60.9506C8.14347 60.9134 10.5898 63.3227 10.6133 66.2272ZM5.28416 64.0762C4.09229 64.088 3.1118 65.0881 3.12354 66.28C3.13528 67.4719 4.13536 68.4525 5.32723 68.4407C6.51909 68.429 7.49959 67.4289 7.48785 66.237C7.47611 65.045 6.47603 64.0645 5.28416 64.0762Z" fill="black"/>
<path d="M65.5353 15.2995C64.6977 15.2897 64.0166 14.5832 64.0225 13.7318C64.0303 12.8785 64.7231 12.1856 65.5627 12.1954C66.3964 12.2032 67.0873 12.9157 67.0795 13.7592C67.0716 14.6027 66.3632 15.3073 65.5353 15.2975V15.2995Z" fill="black"/>
<path d="M15.9759 66.2723C15.9701 67.1178 15.2714 67.8204 14.4396 67.8146C13.6059 67.8087 12.917 67.1002 12.9209 66.2547C12.9248 65.4131 13.6313 64.7046 14.4572 64.7105C15.287 64.7164 15.9818 65.4307 15.9759 66.2723Z" fill="black"/>
<path d="M47.1854 40.079C47.1854 41.7974 47.1912 43.5158 47.1854 45.2342C47.1795 46.6199 46.6178 47.1875 45.2361 47.1895C41.7466 47.1953 38.2571 47.1953 34.7676 47.1895C33.382 47.1875 32.8145 46.6219 32.8125 45.2401C32.8066 41.7505 32.8066 38.2608 32.8125 34.7712C32.8145 33.3855 33.3801 32.8179 34.7618 32.8159C38.2513 32.8101 41.7407 32.8101 45.2302 32.8159C46.6159 32.8179 47.1795 33.3835 47.1854 34.7653C47.1932 36.5365 47.1854 38.3078 47.1854 40.0771V40.079ZM44.0051 44.0325V36.0022H35.9752V44.0325H44.0051Z" fill="black"/>
</svg>
