<svg width="36" height="40" viewBox="0 0 36 40" fill="none" xmlns="http://www.w3.org/2000/svg">
<path d="M17.9735 2C22.5792 4.72117 27.4491 6.82948 32.5975 8.28784C33.4097 8.51777 33.5183 8.66442 33.5165 9.50177C33.5119 12.2601 33.5544 15.0192 33.492 17.7757C33.3573 23.6607 31.3004 28.7835 27.2655 33.0898C25.2955 35.1917 23.0369 36.9099 20.4365 38.1564C19.8006 38.4615 19.125 38.695 18.4493 38.9005C17.6352 39.1477 16.8556 38.8915 16.0994 38.5991C13.9205 37.7563 11.9984 36.4835 10.2292 34.9826C7.46233 32.6353 5.31142 29.8146 3.87327 26.4688C2.86656 24.1278 2.18999 21.6882 2.10316 19.1435C1.9901 15.8358 2.02266 12.5226 2.00005 9.21119C1.99643 8.72507 2.1918 8.50057 2.71099 8.35211C5.02289 7.69128 7.29952 6.92906 9.52549 6.01476C12.0861 4.96196 14.5581 3.73083 16.9532 2.34309C17.1495 2.22993 17.344 2.11497 17.5403 2.00091C17.685 2.00091 17.8288 2.00091 17.9735 2.00091V2ZM32.0267 14.4299C32.0096 14.4299 31.9915 14.429 31.9743 14.4281C31.9743 12.9707 31.968 11.5141 31.9806 10.0567C31.9824 9.80593 31.9064 9.70726 31.6668 9.63665C26.8946 8.23986 22.3504 6.30535 18.0377 3.83041C17.8351 3.71454 17.6814 3.71272 17.4788 3.83041C13.1833 6.3135 8.65355 8.25072 3.88593 9.62398C3.6191 9.70092 3.53227 9.80865 3.53408 10.0902C3.54674 12.3904 3.53318 14.6906 3.54313 16.9909C3.55489 19.6586 3.94834 22.263 4.87365 24.7769C5.98528 27.7977 7.70473 30.4256 10.0022 32.6697C11.9107 34.5336 14.0525 36.0653 16.5245 37.1109C17.2906 37.4349 18.0423 37.5472 18.821 37.1778C19.1575 37.0185 19.5103 36.8927 19.8422 36.7252C23.9061 34.6712 27.0782 31.6712 29.306 27.6954C30.7604 25.1001 31.6188 22.3056 31.8395 19.3382C31.9607 17.7069 31.9689 16.0675 32.0277 14.4317L32.0267 14.4299Z" fill="black"/>
<path d="M15.2385 21.7688C15.7088 21.289 16.1095 20.8735 16.5174 20.4643C18.652 18.3261 20.7867 16.187 22.9249 14.0524C23.8828 13.0956 25.055 12.9146 26.1431 13.5419C27.4293 14.2842 27.7685 16.0811 26.8396 17.2416C26.7274 17.3819 26.6089 17.5204 26.4823 17.6472C23.3871 20.7485 20.291 23.8499 17.1922 26.9477C16.2343 27.9054 15.0576 28.0964 13.9776 27.4637C13.7524 27.3315 13.5452 27.1568 13.3589 26.9721C11.899 25.521 10.4419 24.0672 8.99288 22.6052C7.81069 21.413 7.87401 19.7211 9.12493 18.7117C9.99597 18.0084 11.35 17.9694 12.1948 18.7163C13.0586 19.4803 13.8537 20.324 14.6731 21.1378C14.8604 21.3234 15.0268 21.5298 15.2394 21.7688H15.2385ZM15.2991 26.3756C15.5858 26.1809 15.8906 26.0352 16.1167 25.8107C19.2038 22.7374 22.2809 19.6532 25.3598 16.5708C25.4448 16.4857 25.5326 16.4025 25.6058 16.3074C26.0472 15.7353 25.7723 14.9441 25.0713 14.764C24.629 14.6508 24.3106 14.8626 24.0157 15.1578C21.3547 17.8237 18.6909 20.4869 16.0281 23.1511C15.4311 23.7476 15.0874 23.7458 14.4832 23.142C13.453 22.1128 12.4291 21.0781 11.3916 20.0551C10.9547 19.6242 10.3641 19.6242 9.97426 20.0244C9.59346 20.4154 9.59165 20.9966 10.0086 21.4175C11.5164 22.9392 13.0297 24.4555 14.5556 25.9591C14.7319 26.1329 15.0006 26.2126 15.2991 26.3756Z" fill="black"/>
<path d="M5.06373 12.9336C5.06373 12.4764 5.05559 12.0193 5.06554 11.563C5.07729 11.0606 5.25186 10.8397 5.74301 10.6659C7.06539 10.197 8.38777 9.7272 9.71014 9.26009C10.2592 9.06637 10.6852 9.21664 10.8561 9.66112C11.0253 10.1002 10.8001 10.5193 10.2592 10.7175C9.16744 11.1195 8.0739 11.516 6.97313 11.8925C6.71715 11.9804 6.61404 12.0845 6.62308 12.3651C6.64479 13.0377 6.63665 13.7121 6.6267 14.3856C6.62128 14.7332 6.48198 15.0175 6.14189 15.1614C5.8615 15.28 5.55939 15.2619 5.37578 15.0365C5.21478 14.8391 5.10352 14.5594 5.07729 14.3041C5.03026 13.8524 5.06373 13.3916 5.06463 12.9345L5.06373 12.9336Z" fill="black"/>
<path d="M26.6115 26.9947C27.242 27.0029 27.5757 27.6574 27.2094 28.2213C26.8693 28.7446 26.4985 29.2506 26.1113 29.7403C25.0621 31.0674 23.8401 32.2216 22.5159 33.2699C22.1116 33.5894 21.6775 33.5786 21.3853 33.25C21.0868 32.915 21.1257 32.4371 21.5047 32.0985C21.9524 31.6975 22.4273 31.3272 22.8732 30.9253C24.0029 29.9051 24.9852 28.7572 25.8355 27.4944C26.1032 27.0961 26.2796 26.992 26.6115 26.9965V26.9947Z" fill="black"/>
<path d="M19.2641 33.9905C19.2822 33.5578 19.6675 33.2102 20.1062 33.2328C20.5168 33.2536 20.8524 33.6166 20.8334 34.0222C20.8144 34.4485 20.4182 34.8197 19.9985 34.8052C19.5662 34.7907 19.2451 34.435 19.2632 33.9905H19.2641Z" fill="black"/>
<path d="M12.3267 9.78963C11.9315 9.79325 11.5751 9.43387 11.566 9.0247C11.5579 8.61734 11.9288 8.24166 12.3448 8.23713C12.7582 8.23261 13.1308 8.60647 13.1245 9.02017C13.1191 9.42753 12.7464 9.78691 12.3258 9.79053L12.3267 9.78963Z" fill="black"/>
</svg>
