<svg width="36" height="40" viewBox="0 0 36 40" fill="none" xmlns="http://www.w3.org/2000/svg">
<path d="M16.517 39C15.8468 38.9258 15.1748 38.8599 14.5056 38.7764C12.1456 38.4805 9.83757 37.961 7.7075 36.8747C6.10948 36.0601 5.38833 34.6417 5.38277 32.868C5.37072 28.8362 5.37999 24.8045 5.37814 20.7728C5.37814 19.7653 5.72666 18.9202 6.4821 18.2402C6.58777 18.1446 6.64339 17.9433 6.64432 17.7893C6.66193 15.7985 6.60817 13.8049 6.68696 11.8169C6.80746 8.77589 8.03192 6.20063 10.2306 4.11054C12.1493 2.28671 14.4444 1.2746 17.0815 1.04917C17.1408 1.04453 17.1992 1.0167 17.2576 1C17.7507 1 18.2448 1 18.7379 1C19.51 1.14472 20.2979 1.23564 21.0524 1.44437C23.8175 2.20971 25.9716 3.83687 27.5354 6.23959C28.8034 8.18866 29.366 10.3465 29.3466 12.6694C29.3317 14.3634 29.3466 16.0583 29.3401 17.7522C29.3392 17.9897 29.3957 18.1567 29.5848 18.3265C30.2856 18.9536 30.6146 19.7597 30.6146 20.6985C30.6165 24.7795 30.6378 28.8613 30.6053 32.9413C30.5896 34.9785 29.5765 36.3793 27.692 37.1678C25.1856 38.2161 22.5689 38.7495 19.8706 38.9304C19.739 38.9397 19.6092 38.9759 19.4785 38.9991H16.5179L16.517 39ZM18.0112 18.6873C14.9153 18.6873 11.8193 18.6845 8.72341 18.6892C7.39513 18.691 6.57665 19.4564 6.57294 20.7468C6.55997 24.8036 6.56738 28.8613 6.56831 32.9181C6.56831 33.8792 6.89181 34.7076 7.59534 35.3737C8.15984 35.908 8.8847 36.139 9.58638 36.3988C11.8129 37.2207 14.1209 37.6391 16.4864 37.7597C20.1895 37.9489 23.7924 37.5055 27.2397 36.0666C28.7329 35.4432 29.4244 34.4181 29.4254 32.7984C29.4291 28.8279 29.4281 24.8574 29.4235 20.8869C29.4235 20.641 29.4142 20.3878 29.3549 20.1521C29.1186 19.218 28.3575 18.6901 27.2619 18.6892C24.178 18.6864 21.0942 18.6883 18.0112 18.6883V18.6873ZM25.6111 17.4841C25.6176 17.3895 25.6259 17.3301 25.6259 17.2698C25.6259 15.5888 25.6528 13.9069 25.6166 12.2269C25.5212 7.82594 21.8255 4.46214 17.4476 4.76364C13.562 5.03174 10.4679 8.24711 10.3808 12.1462C10.3427 13.8513 10.3696 15.5573 10.3696 17.2633C10.3696 17.3329 10.3891 17.4034 10.4011 17.4841H25.612H25.6111ZM9.18131 17.4748C9.18131 17.3013 9.18131 17.1668 9.18131 17.0323C9.18131 15.548 9.1637 14.0637 9.18965 12.5794C9.20078 11.9152 9.23415 11.238 9.36948 10.5905C10.3446 5.94922 14.665 2.96856 19.3673 3.66247C23.4764 4.26918 26.6872 7.87232 26.7957 12.0404C26.8392 13.7214 26.8096 15.4042 26.8124 17.0871C26.8124 17.216 26.8124 17.345 26.8124 17.4758C27.2888 17.4989 27.7022 17.5194 28.1555 17.5416C28.1555 17.3867 28.1555 17.2531 28.1555 17.1205C28.1555 15.6362 28.1518 14.1518 28.1564 12.6675C28.1601 11.6369 28.0674 10.6192 27.7708 9.62658C26.8244 6.45574 24.8399 4.18012 21.7866 2.95C18.5655 1.65217 15.4075 1.9481 12.4923 3.84616C9.62067 5.71545 8.04861 8.42801 7.87249 11.8707C7.7798 13.6843 7.84468 15.5063 7.84005 17.3245C7.84005 17.395 7.85859 17.4656 7.86971 17.5426C8.30351 17.5203 8.71878 17.4989 9.18131 17.4748Z" fill="black"/>
<path d="M16.1414 29.9773C16.1414 29.9281 16.1377 29.878 16.1414 29.8288C16.1961 29.2481 16.0718 28.7926 15.626 28.3213C14.7853 27.4308 14.6537 26.3055 15.1171 25.1746C15.5778 24.0493 16.4445 23.3888 17.6699 23.2543C19.0352 23.104 20.3116 23.8499 20.8631 25.1069C21.3905 26.3073 21.0893 27.7397 20.0984 28.6358C19.914 28.8028 19.8407 28.9633 19.8472 29.2045C19.862 29.7361 19.862 30.2686 19.8472 30.8001C19.8194 31.8456 19.0269 32.6342 18.0119 32.6444C16.9867 32.6546 16.1766 31.8549 16.1441 30.7936C16.1358 30.5218 16.1432 30.2491 16.1432 29.9773H16.1414ZM17.3269 29.686C17.3269 30.019 17.3213 30.353 17.3278 30.686C17.3371 31.1629 17.592 31.4486 17.9971 31.4486C18.4003 31.4486 18.6589 31.1601 18.6645 30.6842C18.6709 30.1044 18.6941 29.5218 18.658 28.9438C18.6274 28.4475 18.7961 28.1182 19.2002 27.8232C20.0752 27.1849 20.1698 25.9019 19.4459 25.0689C18.7256 24.2395 17.44 24.1894 16.6456 24.9613C15.88 25.7043 15.8244 27.0671 16.6604 27.6961C17.2657 28.1506 17.3834 28.6609 17.3278 29.3167C17.3176 29.4392 17.326 29.5635 17.3269 29.6869V29.686Z" fill="black"/>
<path d="M7.91792 29.8363C7.91792 28.762 7.91792 27.6878 7.91792 26.6126C7.91792 26.4892 7.91236 26.363 7.93553 26.2434C7.98744 25.9725 8.15429 25.8055 8.43329 25.7758C8.72434 25.7452 8.94681 25.8621 9.04135 26.1432C9.09141 26.2907 9.10068 26.4576 9.10068 26.6163C9.10438 28.7648 9.10346 30.9143 9.10253 33.0628C9.10253 33.1491 9.10624 33.2363 9.09604 33.3216C9.04784 33.7038 8.80221 33.9293 8.46573 33.9079C8.14409 33.8875 7.92441 33.6547 7.92163 33.2808C7.91328 32.1323 7.91885 30.9839 7.91885 29.8354H7.91699L7.91792 29.8363Z" fill="black"/>
<path d="M28.0767 26.3742C28.0767 27.1655 28.0804 27.9568 28.0757 28.7472C28.073 29.198 27.8607 29.4615 27.5085 29.4726C27.1451 29.4847 26.8958 29.2055 26.8939 28.7463C26.8883 27.1395 26.8856 25.5327 26.8958 23.926C26.8995 23.3675 27.3694 23.0298 27.7634 23.3109C27.9293 23.4297 28.0544 23.7126 28.0637 23.9269C28.098 24.7414 28.0776 25.5578 28.0776 26.3742H28.0767Z" fill="black"/>
<path d="M28.0768 20.9546C28.0768 21.5678 27.9016 21.8452 27.5067 21.8563C27.0952 21.8684 26.8903 21.5678 26.8903 20.9528C26.8903 20.9036 26.8894 20.8544 26.8903 20.8053C26.9024 20.3117 27.122 20.0455 27.5086 20.0566C27.8756 20.0668 28.0684 20.3219 28.0758 20.808C28.0758 20.8572 28.0758 20.9064 28.0758 20.9555L28.0768 20.9546Z" fill="black"/>
</svg>
