<svg width="36" height="40" viewBox="0 0 36 40" fill="none" xmlns="http://www.w3.org/2000/svg">
<path d="M35.2125 28.0065C35.0726 28.4113 34.7866 28.6913 34.4596 28.9544C32.626 30.4238 30.8005 31.9014 28.9758 33.3816C28.6292 33.6633 28.2533 33.8221 27.8051 33.7347C27.1601 33.6089 26.76 33.1176 26.7467 32.4221C26.7351 31.8541 26.744 31.2852 26.744 30.7172C26.744 30.5959 26.744 30.4756 26.744 30.3106C22.0986 29.9932 18.7602 27.3458 15.6935 24.1517C15.5519 24.2757 15.428 24.3809 15.3069 24.4888C13.149 26.4139 10.7363 27.8727 7.90486 28.5781C6.15058 29.015 4.36779 29.1291 2.57075 29.0658C1.89184 29.0417 1.40806 28.6654 1.12919 28.0395C1.08464 27.9396 1.04277 27.8389 1 27.739C1 26.8473 1 25.9556 1 25.0639C1.02138 25.0265 1.049 24.9917 1.06237 24.9516C1.33856 24.1428 1.91144 23.73 2.77032 23.7264C3.08215 23.7246 3.39398 23.7264 3.70581 23.7264C5.83697 23.7211 7.82646 23.1959 9.62974 22.0518C10.404 21.5605 11.1292 20.9907 11.8936 20.4432C11.8072 20.3434 11.7832 20.3068 11.752 20.2792C10.6873 19.3554 9.53887 18.5591 8.2461 17.9831C6.57557 17.2385 4.81772 16.9871 3.00464 17.0352C2.78368 17.0415 2.55649 17.0388 2.34088 16.9978C1.61743 16.8587 1.23343 16.354 1.00089 15.7004V13.0253C1.34034 12.0097 2.06379 11.6066 3.10532 11.6833C3.49288 11.7119 3.88668 11.6682 4.27335 11.7012C5.15984 11.777 6.04367 11.8786 6.92838 11.9713C6.96134 11.9749 6.99342 11.9865 7.02549 11.9945C7.45671 12.0971 7.68034 12.3976 7.61263 12.7837C7.54937 13.1457 7.23486 13.3535 6.81077 13.3053C6.11494 13.2259 5.42089 13.1154 4.72328 13.0672C4.05774 13.0208 3.38864 13.0333 2.72042 13.028C2.43799 13.0253 2.33464 13.1974 2.33553 13.4622C2.3391 14.0525 2.33375 14.6437 2.33732 15.234C2.3391 15.5969 2.44779 15.6799 2.82377 15.703C3.9437 15.7735 5.0761 15.7717 6.1782 15.9545C8.42785 16.3263 10.3585 17.4177 12.1137 18.8418C12.3471 19.0308 12.5752 19.227 12.8069 19.4187C12.822 19.4312 12.847 19.4338 12.8603 19.4383C13.484 18.8311 14.105 18.2265 14.8151 17.5355C14.6796 17.4516 14.5709 17.3964 14.4765 17.3232C13.7023 16.724 12.9307 16.1212 12.1574 15.5211C11.8482 15.2813 11.7502 14.9852 11.8874 14.6767C12.0219 14.3735 12.332 14.2139 12.6572 14.3031C12.7819 14.337 12.9022 14.4092 13.0064 14.4886C13.9018 15.1671 14.7928 15.8502 15.804 16.6233C15.8432 16.5546 15.8922 16.4057 15.9902 16.3058C17.414 14.8559 18.9117 13.4943 20.657 12.4332C22.4425 11.3472 24.3714 10.682 26.4535 10.4769C26.5088 10.4715 26.564 10.4653 26.6184 10.4537C26.6504 10.4466 26.679 10.4287 26.7422 10.402C26.7422 9.73589 26.7404 9.05821 26.7422 8.37964C26.744 7.81966 26.9632 7.38362 27.4853 7.1393C27.961 6.91638 28.4288 6.95829 28.8368 7.28465C30.8085 8.8665 32.7775 10.4519 34.7323 12.0543C34.9425 12.2264 35.0539 12.5206 35.2107 12.7587V13.2937C35.045 13.5389 34.9256 13.8394 34.7073 14.0195C32.7704 15.6085 30.8183 17.1788 28.8653 18.7481C28.4484 19.0834 27.9762 19.144 27.487 18.9131C26.9952 18.6813 26.7574 18.2738 26.7458 17.7387C26.7342 17.2153 26.744 16.691 26.7413 16.1676C26.7413 16.0642 26.728 15.9598 26.7199 15.8404C23.6399 16.3442 21.5221 18.2925 19.4623 20.3844C21.5435 22.4807 23.6613 24.4335 26.7431 24.9284C26.7431 24.2828 26.7351 23.672 26.7449 23.0612C26.7565 22.3702 27.1574 21.8753 27.8016 21.746C28.2648 21.6524 28.6453 21.8316 28.999 22.1187C30.8067 23.5846 32.6154 25.0488 34.432 26.504C34.7679 26.7733 35.069 27.0551 35.2107 27.4733V28.0083L35.2125 28.0065ZM28.0786 8.37875C28.0786 9.29183 28.0813 10.105 28.0786 10.9174C28.076 11.4952 27.8541 11.7226 27.2768 11.7502C24.9906 11.8608 22.8951 12.5572 20.9787 13.8037C19.3331 14.8738 17.9361 16.23 16.5631 17.6166C15.3639 18.8266 14.1807 20.0554 12.9325 21.2137C11.155 22.8624 9.13615 24.1152 6.75019 24.701C5.46366 25.0176 4.15752 25.088 2.83981 25.0648C2.43977 25.0577 2.33999 25.1602 2.33821 25.5481C2.33554 26.1384 2.33821 26.7296 2.33732 27.3199C2.33732 27.5919 2.46294 27.7345 2.73914 27.739C4.23415 27.7648 5.71936 27.6935 7.18586 27.3698C9.77942 26.7974 12.0496 25.5749 14.0088 23.8183C15.5412 22.4451 16.9765 20.9622 18.4359 19.5096C19.669 18.2827 20.9145 17.0744 22.3846 16.1257C23.8787 15.1618 25.4993 14.559 27.2803 14.4333C27.8078 14.3958 28.0724 14.6526 28.0777 15.1796C28.0849 15.8707 28.0795 16.5617 28.0795 17.2519C28.0795 17.3651 28.0795 17.4775 28.0795 17.6692C30.0378 16.0874 31.9213 14.5661 33.8306 13.0244C31.9133 11.4756 30.0307 9.95435 28.0795 8.37875H28.0786ZM16.6584 23.2485C17.0041 23.59 17.3391 23.9279 17.6821 24.2587C19.0738 25.5989 20.5412 26.8393 22.2794 27.7167C23.8511 28.5103 25.5207 28.9294 27.2768 29.0141C27.8541 29.0417 28.0733 29.2682 28.0777 29.8469C28.0804 30.1144 28.0777 30.3819 28.0777 30.6486C28.0777 31.1996 28.0777 31.7507 28.0777 32.3847C30.0334 30.8046 31.9213 29.2789 33.8288 27.7381C31.9062 26.1857 30.0245 24.6671 28.0777 23.0951C28.0777 23.9493 28.0795 24.7135 28.0777 25.4777C28.076 26.1455 27.8167 26.4175 27.1529 26.315C26.3547 26.1919 25.5474 26.0537 24.7803 25.8067C22.8648 25.1906 21.3074 23.9859 19.8552 22.6341C19.4088 22.2186 18.9749 21.7906 18.5713 21.4027C17.9334 22.0179 17.3097 22.6189 16.6584 23.2476V23.2485Z" fill="black"/>
<path d="M10.5001 13.5273C10.4974 13.8983 10.2141 14.1801 9.84345 14.1809C9.47816 14.1818 9.18059 13.8947 9.17346 13.5327C9.16633 13.1635 9.48173 12.8514 9.85504 12.8586C10.2194 12.8657 10.5036 13.16 10.501 13.5273H10.5001Z" fill="black"/>
</svg>
