<svg width="36" height="40" viewBox="0 0 36 40" fill="none" xmlns="http://www.w3.org/2000/svg">
<path d="M0 31.0889C1.07127 27.8507 2.14394 24.6118 3.21451 21.3737C3.67142 19.992 4.4824 19.4058 5.94832 19.4058C9.05017 19.4058 12.1513 19.4058 15.2532 19.4058H15.6226C15.6296 19.3806 15.6366 19.3554 15.6443 19.3302C15.3504 19.1558 15.0545 18.9849 14.7627 18.8057C14.2722 18.5045 14.1742 18.1516 14.4597 17.6586C14.7578 17.1446 15.0482 16.6236 15.3847 16.1347C15.9417 15.3259 16.9528 15.0633 17.8309 15.501C18.3802 15.7748 18.9001 16.1074 19.4627 16.431C19.6215 16.1663 19.7706 15.9198 19.9175 15.6718C20.5228 14.6557 21.2715 14.4512 22.2952 15.0206C22.3357 15.043 22.3784 15.0612 22.4449 15.0927C22.5037 14.9933 22.5639 14.8959 22.6191 14.7965C23.0089 14.0927 23.3832 13.3805 23.7891 12.6872C24.5748 11.3447 24.8113 9.91121 24.6084 8.37616C24.2068 5.33338 26.4109 2.52449 29.4673 2.15263C32.2718 1.81089 34.8663 3.54832 35.5849 6.24866C36.3084 8.96791 34.9622 11.7922 32.3529 12.8651C30.7793 13.5121 29.5582 14.5052 28.7137 15.9842C28.3162 16.6803 27.8635 17.3456 27.415 18.0585C27.9853 18.3302 28.3876 18.7293 28.487 19.4051C28.9306 19.4051 29.37 19.4051 29.8088 19.4051C31.3733 19.4051 32.1402 19.957 32.6328 21.4395C33.6243 24.4241 34.6151 27.4081 35.6059 30.3935C35.6822 30.6239 35.7536 30.8564 35.827 31.0882V31.8585C35.7179 32.1386 35.6402 32.4376 35.4933 32.6967C34.9461 33.6583 34.0805 34.0014 33.0037 34C22.9438 33.9909 12.8846 33.9944 2.82477 33.9937C2.67363 33.9937 2.52179 33.9895 2.37065 33.9783C1.256 33.8985 0.368751 33.1652 0.0776678 32.0868C0.0566763 32.0091 0.0272904 31.9341 0.00140081 31.8578C0.00140081 31.6008 0.00140081 31.3445 0.00140081 31.0875L0 31.0889ZM27.7222 21.326C28.1882 21.6013 28.6542 21.866 29.109 22.1475C30.1502 22.7925 30.428 23.8933 29.822 24.9592C29.5862 25.3744 29.3399 25.7848 29.0957 26.1952C28.7291 26.8115 28.4282 26.8864 27.8055 26.5187C24.6861 24.6756 21.5682 22.8296 18.4439 20.9948C18.255 20.8841 18.0122 20.8141 17.7946 20.8134C13.8418 20.8029 9.88913 20.8057 5.93642 20.8057C5.10795 20.8057 4.80567 21.0235 4.54818 21.798C3.87645 23.8212 3.20261 25.8436 2.53298 27.8675C2.16703 28.9733 1.78849 30.0748 1.45472 31.1904C1.2532 31.862 1.71502 32.4923 2.40844 32.5728C2.55818 32.5903 2.71072 32.5931 2.86185 32.5931C12.9014 32.5938 22.9403 32.5938 32.9799 32.5938C33.0617 32.5938 33.1429 32.5959 33.2248 32.5924C34.1337 32.5518 34.6186 31.8739 34.3324 31.0048C33.3032 27.8857 32.2655 24.7694 31.225 21.6538C31.0249 21.0536 30.6848 20.8169 30.0509 20.8078C29.5261 20.8001 28.9992 20.8358 28.4772 20.7966C28.0727 20.7658 27.8383 20.9052 27.7222 21.326ZM26.2108 17.3344C26.6908 16.5752 27.1687 15.8581 27.6074 15.1179C28.5563 13.517 29.8731 12.3573 31.6098 11.676C32.5859 11.2929 33.371 10.664 33.8587 9.72634C34.6634 8.18008 34.5829 6.64503 33.5641 5.24094C32.5342 3.82284 31.0934 3.28081 29.3574 3.59524C27.592 3.91458 26.2248 5.33968 26.031 7.13314C25.9631 7.762 26.0429 8.40838 26.075 9.04565C26.1555 10.643 25.749 12.1101 24.9457 13.4848C24.5007 14.2453 24.0927 15.0276 23.6547 15.8238C24.5091 16.3287 25.3382 16.8189 26.2108 17.3344ZM28.1252 25.0824C28.261 24.8534 28.3855 24.6454 28.5087 24.4368C28.8809 23.8058 28.8298 23.6104 28.1924 23.2329C24.635 21.1286 21.077 19.0249 17.5196 16.9212C17.4195 16.8617 17.3216 16.793 17.2138 16.7538C16.964 16.6635 16.7128 16.6782 16.5512 16.9072C16.3343 17.2153 16.1516 17.5479 15.9487 17.8799C20.0281 20.2931 24.064 22.6797 28.1252 25.0817V25.0824ZM20.6669 17.1551C22.6163 18.3085 24.5378 19.445 26.483 20.5956C26.646 20.3218 26.7839 20.0522 26.9588 19.8085C27.1267 19.5746 27.0686 19.4597 26.8342 19.3225C25.0835 18.2994 23.3405 17.265 21.594 16.2349C21.508 16.1845 21.4149 16.1452 21.2988 16.0878C21.0839 16.4506 20.8845 16.7874 20.6669 17.1551Z" fill="black"/>
<path d="M16.24 29.4033C19.8064 29.4033 23.3722 29.4033 26.9387 29.4033C27.5901 29.4033 27.912 29.6288 27.9197 30.0888C27.9274 30.5594 27.5894 30.8032 26.9268 30.8032C19.7945 30.8032 12.6616 30.8032 5.52936 30.8018C5.36773 30.8018 5.20119 30.7947 5.04585 30.7562C4.70369 30.6708 4.51966 30.4047 4.53646 30.0608C4.55185 29.7464 4.76667 29.4887 5.08854 29.4278C5.23548 29.3998 5.39011 29.4047 5.54125 29.4047C9.10772 29.4033 12.6735 29.404 16.24 29.404V29.4033Z" fill="black"/>
<path d="M13.7518 27.3983C11.4672 27.3983 9.18191 27.4018 6.89732 27.392C6.68601 27.3913 6.4544 27.3437 6.26968 27.2463C6.02407 27.1168 5.9457 26.8654 5.99538 26.586C6.04436 26.3065 6.2053 26.1182 6.47749 26.0495C6.63353 26.0103 6.80006 26.0005 6.9617 26.0005C11.4728 25.9977 15.9846 25.9977 20.4957 26.0005C20.6573 26.0005 20.8231 26.0117 20.9799 26.0481C21.2885 26.1203 21.4914 26.4032 21.4858 26.7183C21.4795 27.0468 21.2486 27.3234 20.9197 27.3759C20.7714 27.3997 20.6181 27.3983 20.4663 27.3983C18.2279 27.3997 15.9902 27.399 13.7518 27.399V27.3983Z" fill="black"/>
<path d="M12.2032 22.6104C13.6488 22.6104 15.0951 22.6083 16.5407 22.6111C17.0109 22.6118 17.2894 22.8072 17.3545 23.1636C17.4245 23.5481 17.2355 23.8639 16.857 23.9626C16.7129 23.9998 16.5582 24.0082 16.4085 24.0082C13.5984 24.011 10.7876 24.0103 7.97756 24.0103C7.96566 24.0103 7.95446 24.0103 7.94257 24.0103C7.34221 24.0082 7.00355 23.7554 7.00075 23.3093C6.99795 22.8583 7.32822 22.6104 7.93557 22.6104C9.3581 22.6097 10.7806 22.6104 12.2032 22.6104Z" fill="black"/>
<path d="M33.5313 7.3005C33.5271 8.13595 33.3543 8.69759 33.0527 9.22141C32.8372 9.59467 32.4474 9.72213 32.1039 9.53865C31.7673 9.35937 31.6687 8.99942 31.8114 8.60375C31.9359 8.2578 32.0745 7.90416 32.1158 7.5435C32.1759 7.01478 31.9317 6.5974 31.4685 6.31938C31.3986 6.27737 31.3293 6.23465 31.2642 6.18633C30.9283 5.93492 30.8437 5.55886 31.0473 5.23743C31.2502 4.91809 31.6379 4.81935 31.9968 5.01333C32.9925 5.55256 33.5166 6.38451 33.532 7.2998L33.5313 7.3005Z" fill="black"/>
<path d="M30.2236 4.85364C30.2159 5.2318 29.9032 5.53433 29.5218 5.53223C29.1251 5.53013 28.8123 5.20379 28.8298 4.81093C28.8466 4.43277 29.165 4.13864 29.547 4.14985C29.927 4.16105 30.2313 4.47758 30.2236 4.85434V4.85364Z" fill="black"/>
</svg>
