<svg width="50" height="50" viewBox="0 0 50 50" fill="none" xmlns="http://www.w3.org/2000/svg">
<path d="M32.8135 0C33.6994 0.190104 34.6061 0.316408 35.4685 0.583335C38.5462 1.53516 40.9233 3.40885 42.5959 6.16666C42.896 6.66015 42.8359 7.07422 42.4472 7.31771C42.0571 7.5612 41.6657 7.41927 41.3538 6.9349C41.0733 6.5013 40.7824 6.07422 40.5071 5.66016C39.71 6.22657 38.9546 6.75391 38.2148 7.30209C38.1287 7.36589 38.0804 7.55338 38.0974 7.67187C38.284 9.02213 38.4862 10.3698 38.691 11.7695H42.8816C42.7759 11.138 42.6833 10.5312 42.5698 9.92708C42.4954 9.53255 42.5672 9.20573 42.9442 9.01562C43.3996 8.78515 43.8627 9.04557 43.9932 9.61328C44.5229 11.931 44.4759 14.2305 43.7009 16.4896C41.9918 21.4674 37.2311 24.9414 31.9668 25.0729C25.917 25.224 20.3213 20.431 19.4172 14.4427C18.3826 7.59635 23.2203 1.15885 30.0515 0.122396C30.2903 0.0859378 30.5277 0.0416667 30.7665 0C31.4501 0 32.1338 0 32.8174 0H32.8135ZM40.1523 19.7969C41.757 17.9284 42.6559 15.7786 42.8451 13.3008H38.6871C38.4497 14.9675 38.2174 16.6003 37.9813 18.2578C38.6506 18.7318 39.376 19.2474 40.1509 19.7969H40.1523ZM23.4512 19.7878C24.1597 19.3021 24.8498 18.845 25.5165 18.3568C25.6157 18.2839 25.6613 18.0547 25.6378 17.9128C25.5335 17.2721 25.3678 16.6419 25.2765 16C25.1499 15.1055 25.0716 14.2044 24.9725 13.3008H20.7662C20.9593 15.7943 21.8661 17.9427 23.4512 19.7891V19.7878ZM23.129 5.67057C21.7356 7.45573 20.9267 9.47005 20.7754 11.7734H24.9203C25.1329 10.3516 25.3417 8.97526 25.5348 7.59636C25.5478 7.50131 25.4735 7.35026 25.3926 7.29036C24.662 6.75521 23.9196 6.23307 23.129 5.67057ZM36.6218 17.5C36.8097 16.1432 37.0028 14.7422 37.2011 13.306H32.563V16.5937C33.9016 16.8932 35.1958 17.1823 36.6218 17.5013V17.5ZM31.0418 13.3021H26.4102C26.6137 14.7552 26.8107 16.1641 26.9986 17.5013C28.4207 17.1823 29.7123 16.8932 31.0431 16.5951V13.3021H31.0418ZM36.3583 6.73698C35.5298 4.5638 34.7744 2.57162 32.5735 1.55599V7.67318C33.8494 7.35807 35.0497 7.0612 36.3583 6.73828V6.73698ZM31.03 7.67578V1.55338C28.8238 2.60807 28.058 4.58593 27.2687 6.73567C28.5499 7.05599 29.7501 7.35547 31.03 7.67448V7.67578ZM32.5591 11.776H37.1815C37.0263 10.5247 36.8762 9.31901 36.7353 8.18359C35.2754 8.52083 33.9264 8.83334 32.5591 9.14974V11.776ZM26.4337 11.7786H31.0287V9.15105C29.6392 8.82422 28.3059 8.51172 26.8786 8.17708C26.7364 9.32291 26.5876 10.5326 26.4337 11.78V11.7786ZM32.5591 18.0664V23.418C33.8651 23.1979 35.7581 20.7839 36.0517 18.8958C34.9205 18.6276 33.779 18.3555 32.5591 18.0664ZM31.0287 23.4974V18.1719C29.7958 18.2826 28.6347 18.5143 27.5022 19.0312C28.2668 20.8685 29.0378 22.6224 31.0287 23.4974ZM24.1466 4.5612C24.7598 5.03256 25.3391 5.47787 25.9444 5.94271C26.2445 5.2474 26.4794 4.62761 26.7768 4.03906C27.0808 3.4362 27.4474 2.86589 27.8258 2.21354C26.4324 2.75521 25.2477 3.50782 24.1453 4.5612H24.1466ZM35.8834 2.25521C36.4888 3.45703 37.0954 4.66016 37.7256 5.91146C38.2866 5.47396 38.8632 5.02344 39.4673 4.55209C38.3609 3.51302 37.1868 2.76042 35.8847 2.25521H35.8834ZM35.8495 22.8177C35.8625 22.8568 35.8769 22.8958 35.8899 22.9362C36.9584 22.2878 38.0269 21.638 39.2051 20.9232C38.5319 20.4401 38.0048 20.0625 37.5103 19.7083C36.9323 20.7917 36.3909 21.8047 35.8495 22.8177ZM27.7044 22.9219C27.7201 22.8841 27.737 22.845 27.7527 22.8073C27.2087 21.7852 26.6659 20.763 26.0984 19.6953C25.5857 20.0729 25.0729 20.4492 24.4154 20.9336C25.5948 21.6458 26.6503 22.2839 27.7044 22.9219Z" fill="black"/>
<path d="M15.528 50C15.3205 49.8203 15.1 49.6524 14.9069 49.4596C12.7295 47.2878 10.5546 45.1107 8.37969 42.9349C8.26488 42.8203 8.13963 42.7096 8.0483 42.5781C7.83695 42.2721 7.85391 41.9557 8.1018 41.6836C8.36404 41.3945 8.69281 41.3477 9.0268 41.5573C9.17553 41.651 9.29949 41.7878 9.42604 41.9141C11.3961 43.8802 13.3648 45.8477 15.3297 47.819C15.4549 47.944 15.541 48.1081 15.6141 48.2096C16.6891 47.1367 17.6846 46.1419 18.6331 45.194C14.7295 41.2917 10.7672 37.3307 6.82844 33.3932C5.89822 34.3255 4.90146 35.3242 3.86817 36.3607C4.72011 37.2096 5.60467 38.0925 6.49054 38.9766C6.62883 39.1146 6.77496 39.2461 6.90021 39.3945C7.18723 39.7357 7.18461 40.1159 6.90672 40.4076C6.62361 40.7044 6.19047 40.724 5.8617 40.4076C5.24981 39.8229 4.66009 39.2162 4.06125 38.6185C3.53156 38.0899 3.00186 37.5599 2.47347 37.03C1.89159 36.4453 1.8955 36.1589 2.49174 35.5612C3.69986 34.3529 4.90798 33.1432 6.11741 31.9362C6.72538 31.3294 7.01762 31.3268 7.62429 31.9167C7.71561 32.0052 7.81347 32.0886 7.98699 32.2448C8.44101 31.763 8.87547 31.2826 9.32949 30.8229C9.80309 30.3451 10.1449 30.3464 10.6224 30.8229C11.2056 31.405 11.7757 32.0026 12.355 32.599C12.9108 31.8542 13.3792 31.1511 13.9232 30.5117C15.5123 28.6471 17.4236 27.2682 19.8621 26.7253C21.669 26.3229 23.4173 26.6146 25.1394 27.1875C25.4017 27.2747 25.677 27.3399 25.9183 27.4688C26.9138 28.0026 27.9758 28.1068 29.0808 28.0482C29.8114 28.0091 30.5473 28.0703 31.2779 28.0352C32.7796 27.9622 33.869 28.5274 34.4287 30.0117C34.6022 29.9167 34.7561 29.836 34.9075 29.7487C37.8077 28.0742 40.7106 26.4037 43.607 24.7201C44.4054 24.2565 45.2261 24.1497 46.0858 24.4805C47.7232 25.1094 48.2985 27.1354 47.2248 28.5221C46.9795 28.8385 46.6651 29.1133 46.3481 29.3633C42.3532 32.4961 38.3492 35.6159 34.353 38.7474C33.2349 39.6237 31.985 40.0768 30.559 40.0508C29.8101 40.0365 29.0613 40.0495 28.3124 40.0482C27.6418 40.0482 27.3091 39.8099 27.3026 39.3307C27.296 38.8399 27.6483 38.5846 28.3411 38.5833C29.1056 38.5833 29.8714 38.5742 30.636 38.5846C31.6523 38.599 32.5565 38.2904 33.3523 37.668C37.4163 34.4922 41.4804 31.3164 45.5392 28.1341C45.7532 27.9662 45.9475 27.7552 46.0963 27.5287C46.4042 27.0586 46.3676 26.5612 46.0402 26.1719C45.6984 25.7656 45.1295 25.6315 44.622 25.849C44.4733 25.9128 44.3324 25.9974 44.1928 26.0781C40.9402 27.9557 37.6864 29.832 34.4378 31.7175C34.2356 31.8346 34.049 32.0078 33.9042 32.194C33.3484 32.9128 32.6217 33.2904 31.7215 33.2943C28.8238 33.3047 25.9275 33.3008 23.0298 33.2969C22.4949 33.2969 22.1739 33.0156 22.1674 32.5768C22.1609 32.1159 22.4857 31.8372 23.0572 31.8359C25.8074 31.8333 28.559 31.8346 31.3092 31.8346C31.4723 31.8346 31.6354 31.8412 31.7971 31.8294C32.5082 31.7787 32.987 31.2643 32.9622 30.582C32.9387 29.931 32.4938 29.5169 31.7606 29.5104C30.3933 29.4987 29.026 29.5234 27.6587 29.4961C27.2647 29.4883 26.8629 29.3841 26.4819 29.2656C25.3051 28.9011 24.1596 28.4024 22.9606 28.1511C20.6918 27.6758 18.6487 28.3203 16.8326 29.7266C15.4497 30.7982 14.3759 32.1302 13.507 33.6693C13.6127 33.7865 13.704 33.8984 13.8045 33.9987C15.2305 35.4271 16.65 36.862 18.0929 38.2721C18.2652 38.4414 18.5613 38.5664 18.8027 38.5703C20.6736 38.5951 22.5458 38.5833 24.418 38.5833C24.5315 38.5833 24.6463 38.5794 24.7598 38.5846C25.2451 38.6094 25.57 38.9089 25.5674 39.3242C25.5647 39.7422 25.2425 40.0417 24.7506 40.0443C23.3181 40.0521 21.8856 40.0469 20.4531 40.0482C20.2978 40.0482 20.1426 40.0482 19.9873 40.0482C19.9547 40.0977 19.9234 40.1484 19.8908 40.1979C20.3174 40.5873 20.7571 40.9649 21.168 41.3711C21.716 41.9115 21.7108 42.2318 21.1811 42.7734C20.761 43.2044 20.3343 43.6302 19.9116 44.0573C19.8999 44.069 19.8947 44.0846 19.7394 44.2448C19.9103 44.3438 20.1126 44.4128 20.2456 44.5482C20.6749 44.9831 20.6866 45.3555 20.2665 45.7774C18.8562 47.1914 17.4341 48.5938 16.0172 50H15.5293H15.528ZM9.08944 33.2162C12.3289 36.4596 15.5945 39.7292 18.7818 42.9206C19.0845 42.6563 19.4211 42.3594 19.7081 42.1094C16.4451 38.8412 13.1978 35.5886 9.95834 32.3438C9.66479 32.6393 9.34776 32.9583 9.08944 33.2175V33.2162Z" fill="black"/>
</svg>
