<svg width="50" height="50" viewBox="0 0 50 50" fill="none" xmlns="http://www.w3.org/2000/svg">
<path d="M28.5384 45.7911C28.5384 46.3906 28.547 46.9269 28.537 47.4617C28.5168 48.4997 27.8052 49.22 26.768 49.2329C25.653 49.2459 24.5395 49.2459 23.4245 49.2329C22.3643 49.2214 21.6527 48.4925 21.6383 47.4243C21.6311 46.9053 21.6383 46.3877 21.6383 45.7925C21.0981 45.7925 20.5852 45.7954 20.0724 45.7925C18.8984 45.7839 18.1897 45.0838 18.1882 43.9178C18.1839 41.2452 18.181 38.5725 18.194 35.8999C18.1954 35.575 18.0975 35.3982 17.8108 35.2242C12.7531 32.1461 10.2394 27.629 10.454 21.733C10.7119 14.6281 16.4466 8.68902 23.547 7.99606C31.2495 7.24415 37.994 12.2501 39.5123 19.8454C40.6964 25.7672 37.8082 32.103 32.5229 35.1322C32.1325 35.355 31.9769 35.5836 31.9827 36.0451C32.0101 38.413 31.9337 40.7823 32.0144 43.1472C32.085 45.2089 31.3618 45.9449 29.371 45.7954C29.1232 45.7767 28.8712 45.7925 28.5442 45.7925L28.5384 45.7911ZM24.224 37.1679C24.224 35.8827 24.2327 34.6491 24.2125 33.4142C24.2096 33.2646 24.0742 33.095 23.959 32.9757C23.3064 32.3072 22.6366 31.6573 21.9826 30.9902C21.5706 30.569 21.5389 30.119 21.863 29.7438C22.2174 29.3355 22.7417 29.3297 23.1868 29.7653C23.8135 30.3778 24.4185 31.0104 25.0754 31.6789C25.7308 31.0204 26.3315 30.408 26.9423 29.807C27.4033 29.3542 27.893 29.3225 28.2705 29.7006C28.6464 30.0773 28.6119 30.5647 28.1595 31.0276C27.6698 31.5279 27.2016 32.057 26.6643 32.5027C26.0866 32.9814 25.8849 33.5306 25.9339 34.2725C25.9973 35.2285 25.9498 36.1932 25.9498 37.1377H30.2641C30.2641 36.5742 30.3131 36.048 30.2526 35.5347C30.1561 34.6966 30.5105 34.2466 31.2509 33.857C36.032 31.3454 38.7647 25.8319 37.8802 20.5887C36.7047 13.6131 30.6891 9.02256 23.6334 9.71552C17.4161 10.3265 12.3123 15.6948 12.1639 21.9243C12.0343 27.3472 14.4284 31.3942 19.1951 34.0166C19.7008 34.294 19.9428 34.629 19.9154 35.2055C19.8851 35.8582 19.9082 36.5138 19.9082 37.1679H24.2226H24.224ZM30.2425 38.942H19.9356V40.5954H30.2425V38.942ZM19.9341 44.0328H30.2209V42.3738H19.9341V44.0328ZM26.791 45.8314H23.3871V47.4833H26.791V45.8314Z" fill="black"/>
<path d="M10.3575 6.935C10.6831 7.12908 10.941 7.22685 11.1239 7.40224C11.8975 8.14552 12.6552 8.90605 13.4071 9.67233C13.8494 10.1223 13.8667 10.6313 13.4835 10.9936C13.1133 11.3429 12.6307 11.317 12.1971 10.8944C11.4178 10.131 10.6485 9.35604 9.87928 8.58257C9.60847 8.31085 9.43272 7.96869 9.65024 7.61933C9.81158 7.35911 10.0997 7.17653 10.3561 6.935H10.3575Z" fill="black"/>
<path d="M40.7094 7.85512C40.5423 8.15272 40.4616 8.4 40.2974 8.56964C39.5267 9.36755 38.7416 10.1496 37.9464 10.9231C37.5215 11.3357 37.0159 11.3357 36.6615 10.9662C36.3215 10.6111 36.3287 10.1252 36.722 9.72266C37.51 8.91756 38.3095 8.12396 39.1147 7.33468C39.3913 7.06296 39.7514 6.93069 40.0899 7.15928C40.3334 7.32318 40.4947 7.6064 40.7094 7.85656V7.85512Z" fill="black"/>
<path d="M10.3488 38.0981C10.1356 37.9314 9.80431 37.7948 9.70924 37.5619C9.60552 37.3088 9.60119 36.856 9.76109 36.6791C10.5937 35.7648 11.4782 34.895 12.38 34.0468C12.7055 33.7405 13.1276 33.8009 13.4546 34.1129C13.7989 34.4421 13.8752 34.8792 13.5526 35.2228C12.7055 36.1242 11.8138 36.9854 10.9265 37.848C10.8084 37.9615 10.6067 37.9903 10.3488 38.0967V38.0981Z" fill="black"/>
<path d="M25.9484 3.59814C25.9484 4.15452 25.9614 4.7109 25.9455 5.26584C25.9297 5.81647 25.5753 6.17733 25.0869 6.17733C24.5986 6.17733 24.237 5.8136 24.2313 5.26584C24.2183 4.15452 24.2169 3.04176 24.2313 1.93044C24.2385 1.37981 24.5986 1.02039 25.0884 1.02039C25.5782 1.02039 25.9311 1.38124 25.9469 1.93187C25.9628 2.48681 25.9498 3.0432 25.9498 3.59958L25.9484 3.59814Z" fill="black"/>
<path d="M6.08203 23.4022C5.54328 23.4022 5.00308 23.4122 4.46433 23.3993C3.88091 23.3863 3.50637 23.0269 3.5179 22.5209C3.52942 22.0349 3.89388 21.6913 4.45136 21.6856C5.5476 21.6741 6.64384 21.6741 7.74008 21.6856C8.32205 21.6913 8.69947 22.0579 8.68651 22.5625C8.67499 23.047 8.30909 23.3863 7.75305 23.3993C7.19556 23.4122 6.63952 23.4022 6.08203 23.4022Z" fill="black"/>
<path d="M44.0745 21.6827C44.632 21.6827 45.1895 21.6712 45.7455 21.6856C46.2958 21.7014 46.6574 22.0565 46.6545 22.5453C46.6516 23.0312 46.2886 23.3907 45.7369 23.3978C44.6233 23.4108 43.5084 23.4122 42.3949 23.3978C41.8446 23.3907 41.4844 23.0255 41.4873 22.5381C41.4902 22.0493 41.8503 21.7014 42.4035 21.687C42.9595 21.6726 43.517 21.6841 44.0745 21.6841V21.6827Z" fill="black"/>
<path d="M37.2435 33.7563C37.5517 33.9389 37.8096 34.0367 37.994 34.2121C38.7575 34.9438 39.5051 35.6943 40.2455 36.4505C40.669 36.8833 40.6906 37.3735 40.3334 37.7387C39.9747 38.1053 39.4705 38.0967 39.0441 37.6797C38.2605 36.9163 37.4898 36.14 36.7205 35.3608C36.4468 35.0833 36.3129 34.7253 36.5376 34.3846C36.6989 34.1402 36.9856 33.9777 37.2449 33.7549L37.2435 33.7563Z" fill="black"/>
</svg>
