<svg width="50" height="50" viewBox="0 0 50 50" fill="none" xmlns="http://www.w3.org/2000/svg">
<path d="M0 2.50089C0.030008 2.44513 0.0717582 2.39203 0.0900239 2.33229C0.537534 0.822914 1.59695 0.00782244 3.15997 0.00649493C9.27899 0.0025124 15.3993 0.00383991 21.5183 0.00383991C22.0232 0.00383991 22.5269 0.0025124 23.0318 0.00383991C23.6789 0.00649493 24.0312 0.277307 24.0207 0.761848C24.0103 1.24241 23.6632 1.49596 23.0044 1.49596C21.2626 1.49596 19.5208 1.49596 17.7804 1.49596C12.9621 1.49596 8.14521 1.49596 3.32697 1.49596C2.02097 1.49596 1.46517 2.06945 1.46517 3.40625C1.46517 13.8591 1.47561 24.3132 1.44821 34.766C1.4456 35.8227 2.04837 36.683 3.33741 36.679C12.9073 36.6471 22.4773 36.6617 32.0485 36.6617H32.5808C32.5469 36.0909 32.5156 35.5572 32.4804 34.9599H31.9389C23.9307 34.9599 15.9238 34.9599 7.91558 34.9599C6.72048 34.9599 6.45432 34.7567 6.10336 33.6045C5.82937 32.7071 5.23443 32.1495 4.34985 31.9039C3.45092 31.6543 3.13779 31.2495 3.13779 30.3109C3.13648 22.8277 3.13648 15.3446 3.13779 7.86138C3.13779 6.91353 3.45353 6.50333 4.34072 6.26173C5.28662 6.00286 5.88939 5.38955 6.1425 4.42578C6.38126 3.51643 6.77658 3.20049 7.71074 3.20049C19.2338 3.20049 30.7569 3.20049 42.2799 3.20049C43.235 3.20049 43.6094 3.50714 43.869 4.46162C44.1261 5.40415 44.7275 6.00153 45.6513 6.25907C46.5502 6.50997 46.8659 6.91221 46.8659 7.85076C46.8685 11.0036 46.8659 14.1564 46.8685 17.3093C46.8685 17.7128 46.819 18.0766 46.4015 18.2598C45.9487 18.4576 45.4608 18.1575 45.4112 17.6372C45.3877 17.3902 45.4021 17.1393 45.4021 16.8911C45.4021 14.0038 45.3981 11.1164 45.4073 8.2291C45.4073 7.89589 45.3564 7.71269 44.9859 7.59587C43.7542 7.20426 42.931 6.34403 42.5383 5.09617C42.43 4.75102 42.2734 4.68597 41.9551 4.6873C37.3325 4.69659 32.71 4.69394 28.0875 4.69394C21.4309 4.69394 14.7744 4.69659 8.1165 4.68464C7.73945 4.68464 7.55809 4.7696 7.43154 5.16387C7.02969 6.41439 6.16859 7.2255 4.9474 7.63172C4.72169 7.70606 4.59122 7.7711 4.59122 8.05652C4.60035 15.4574 4.59905 22.8569 4.60166 30.2578C4.60166 30.3056 4.62123 30.3534 4.63688 30.4291C5.60366 30.6866 6.42171 31.1977 6.98272 32.0659C7.17712 32.3672 7.34412 32.7004 7.4498 33.0429C7.54766 33.3615 7.66899 33.4783 8.01735 33.4783C15.8129 33.4664 23.6097 33.4691 31.4053 33.4691H31.7876C31.6427 32.504 31.8411 31.6743 32.5143 30.9906C32.5795 30.9242 32.5756 30.7503 32.5547 30.6361C32.2925 29.1626 32.9018 28.0979 34.3043 27.559C34.4387 27.5072 34.5718 27.3386 34.624 27.1926C35.1028 25.8545 36.217 25.204 37.5856 25.4562C37.7422 25.4854 37.9653 25.4137 38.0906 25.3075C39.1565 24.3982 40.4299 24.4048 41.5102 25.3235C41.6328 25.427 41.8611 25.4801 42.0203 25.4496C43.3432 25.196 44.4901 25.8664 44.9493 27.1687C45.0067 27.3333 45.1503 27.4674 45.2533 27.6147C45.3029 27.5922 45.3525 27.5696 45.4021 27.5457C45.4021 27.3705 45.4021 27.1952 45.4021 27.02C45.4021 25.0951 45.4007 23.1702 45.4021 21.2453C45.4021 20.6546 45.6682 20.3227 46.1222 20.3201C46.5776 20.3174 46.862 20.6559 46.8633 21.2347C46.8685 22.9764 46.849 24.7194 46.8711 26.4611C46.8842 27.5311 46.8672 28.5944 47.0251 29.6737C47.1386 30.4423 47.1999 31.13 47.6044 31.8415C48.1197 32.7469 47.8862 33.7133 47.213 34.5165C47.0394 34.7236 46.9938 34.8882 47.0342 35.1709C47.1021 35.6356 47.0525 36.1161 47.0525 36.602C47.7388 36.7002 48.4355 36.1015 48.5242 35.2546C48.5412 35.0899 48.5359 34.9227 48.5359 34.7567C48.5359 24.3039 48.5359 13.8498 48.5359 3.39696C48.5359 2.06546 47.9762 1.49331 46.665 1.49331C40.1546 1.49331 33.6442 1.49331 27.1337 1.49331C26.9876 1.49331 26.8402 1.5026 26.694 1.488C26.2687 1.44684 25.9817 1.14683 25.9778 0.751228C25.9739 0.338373 26.2778 0.0357002 26.7293 0.00383991C26.7945 -0.000142625 26.8597 0.00118489 26.925 0.00118489C33.5815 0.00118489 40.2381 -0.00279765 46.8959 0.00383991C48.4916 0.00516742 49.6932 1.02868 49.958 2.58054C49.9972 2.80754 49.9985 3.04251 49.9985 3.27483C49.9998 13.8113 50.0011 24.3477 49.9985 34.8842C49.9985 36.8794 48.7525 38.1472 46.7981 38.1525C46.3584 38.1525 45.9174 38.1724 45.4803 38.1459C45.175 38.1273 44.9806 38.199 44.9337 38.5335C44.888 38.8574 44.7862 39.18 44.7849 39.5026C44.7732 42.4563 44.7875 45.41 44.7667 48.3624C44.7641 48.7261 44.6832 49.1403 44.4979 49.4403C44.0934 50.0961 43.265 50.1771 42.6113 49.6753C41.6758 48.9571 40.756 48.2204 39.7958 47.465C38.9934 48.0942 38.1988 48.7195 37.4017 49.3434C37.2086 49.4948 37.0207 49.658 36.8133 49.7868C35.9978 50.2913 34.9906 49.8213 34.834 48.8629C34.8001 48.6518 34.8014 48.4328 34.8001 48.219C34.7975 45.3158 34.7988 42.4112 34.7988 39.5079C34.7988 39.3751 34.8053 39.2424 34.7962 39.1096C34.7466 38.337 34.5561 38.1525 33.8112 38.1525C23.7859 38.1525 13.7593 38.1313 3.73404 38.1711C1.94139 38.183 0.632777 37.6852 0 35.6555C0 24.6039 0 13.5524 0 2.50089ZM45.6225 30.141C45.633 29.4533 45.2925 29.0763 44.6727 28.9715C44.0034 28.8573 43.7294 28.5931 43.6055 27.936C43.4267 26.9948 42.9297 26.716 42.0151 27.0412C41.4828 27.2311 41.0718 27.1156 40.7091 26.6735C40.1102 25.9447 39.4787 25.9381 38.8903 26.6563C38.5198 27.1076 38.1153 27.2298 37.5895 27.0492C36.6228 26.7173 36.1844 26.9629 35.9704 27.9612C35.8295 28.617 35.5803 28.8586 34.9371 28.9688C34.1165 29.1082 33.7811 29.6923 34.0656 30.4835C34.2991 31.1353 34.2078 31.5083 33.7081 31.9371C33.0244 32.5252 33.0309 33.1531 33.7263 33.7598C34.1908 34.1647 34.2939 34.5536 34.093 35.1298C33.7785 36.0298 34.0917 36.5781 35.0128 36.7374C35.5829 36.8369 35.8569 37.1131 35.9704 37.7012C36.1583 38.6795 36.6606 38.9729 37.5778 38.6424C38.0971 38.4552 38.4989 38.5587 38.8512 38.9716C39.5335 39.7694 40.0606 39.7747 40.7299 38.9862C41.0926 38.5601 41.4801 38.4525 41.9955 38.6371C42.9427 38.9756 43.4111 38.6968 43.6225 37.6693C43.736 37.1171 44.0217 36.8343 44.5605 36.74C45.513 36.5741 45.8156 36.0418 45.4882 35.1032C45.3055 34.5789 45.4073 34.1647 45.8091 33.8049C46.5854 33.108 46.5893 32.5571 45.8235 31.8893C45.4151 31.5335 45.3055 31.1154 45.4803 30.5977C45.543 30.4118 45.5991 30.2233 45.6252 30.1397L45.6225 30.141ZM40.713 46.2702V40.9867H38.8747V46.2769C39.5022 45.8308 40.0946 45.8428 40.713 46.2702ZM36.2927 48.3199C36.5014 48.1646 36.6241 48.0531 36.7637 47.9734C37.2555 47.696 37.4043 47.2991 37.3912 46.7163C37.3495 44.7635 37.3756 42.8107 37.3756 40.8567C37.3756 40.6801 37.3756 40.5022 37.3756 40.315C36.9842 40.2858 36.6515 40.2606 36.2927 40.2327V48.3186V48.3199ZM43.2858 40.2301C42.9127 40.2606 42.5813 40.2885 42.2604 40.315C42.2382 40.3721 42.216 40.4026 42.216 40.4319C42.2121 42.7045 42.2095 44.9772 42.2121 47.2513C42.2121 47.3561 42.2486 47.4969 42.3191 47.5579C42.61 47.8102 42.9218 48.0385 43.2845 48.3212V40.2301H43.2858Z" fill="black"/>
<path d="M24.9705 12.7C22.9365 12.7 20.9025 12.7026 18.8697 12.7C17.5129 12.6973 16.8018 11.9632 16.7992 10.5746C16.7992 10.4087 16.7992 10.2427 16.7992 10.0768C16.8057 8.77319 17.5494 8.00589 18.8332 8.00457C22.1524 7.99926 25.4715 8.00324 28.7906 8.00324C29.6048 8.00324 30.4176 7.99527 31.2317 8.00457C32.4503 8.01917 33.1457 8.79576 33.2175 10.0383C33.331 12.0163 32.4647 12.7942 30.6329 12.7172C28.7489 12.6389 26.8584 12.7 24.9718 12.7H24.9705ZM24.9666 11.2065C27.0006 11.2065 29.0359 11.2078 31.0699 11.2065C31.6675 11.2065 31.7366 11.1295 31.7406 10.5149C31.7406 10.4326 31.7406 10.3489 31.7406 10.2666C31.7406 9.55908 31.6818 9.49801 30.993 9.49801C27.0058 9.49801 23.0187 9.49801 19.0315 9.49801C18.9337 9.49801 18.8358 9.49802 18.738 9.50067C18.4235 9.51129 18.2578 9.66926 18.2631 9.99849C18.2657 10.1644 18.2631 10.3304 18.2631 10.4963C18.2657 11.1415 18.327 11.2078 18.9624 11.2092C20.9638 11.2118 22.9665 11.2092 24.9679 11.2092L24.9666 11.2065Z" fill="black"/>
<path d="M25.0423 22.4957C28.8833 22.4957 32.723 22.4957 36.564 22.4957C36.7428 22.4957 36.9646 22.4359 37.0911 22.5209C37.326 22.6776 37.5947 22.886 37.6835 23.1355C37.8061 23.4767 37.6065 23.7913 37.2503 23.9121C37.0559 23.9785 36.8354 23.9865 36.6267 23.9865C28.8807 23.9905 21.1347 23.9891 13.3874 23.9865C13.1943 23.9865 12.9921 23.9865 12.8082 23.9347C12.4272 23.8259 12.251 23.5418 12.2954 23.1422C12.3372 22.7652 12.5629 22.5488 12.9321 22.5063C13.0926 22.4877 13.257 22.4957 13.4201 22.4957C17.2937 22.4957 21.166 22.4957 25.0397 22.4957H25.0423Z" fill="black"/>
<path d="M25.0032 19.3269C28.8769 19.3269 32.7492 19.3269 36.6228 19.3269C36.769 19.3269 36.9177 19.3123 37.0612 19.3349C37.4435 19.3946 37.6849 19.6163 37.707 20.0225C37.7318 20.454 37.5009 20.7088 37.1043 20.8004C36.949 20.8363 36.7807 20.819 36.6176 20.819C28.8717 20.819 21.1244 20.819 13.3784 20.819C13.2153 20.819 13.047 20.8363 12.8918 20.7991C12.4951 20.7062 12.2668 20.4486 12.2942 20.0172C12.3203 19.611 12.5617 19.3919 12.9452 19.3335C13.0888 19.3123 13.2375 19.3256 13.3836 19.3256C17.2573 19.3256 21.1296 19.3256 25.0032 19.3256V19.3269Z" fill="black"/>
<path d="M25.0293 27.0052C23.0762 27.0052 21.1244 27.0079 19.1712 27.0039C18.6076 27.0039 18.2658 26.7092 18.2723 26.2552C18.2788 25.7999 18.6181 25.5144 19.1882 25.5144C23.0605 25.5118 26.9342 25.5118 30.8065 25.5144C31.4119 25.5144 31.7824 25.8623 31.7237 26.3481C31.6728 26.765 31.3623 27.0026 30.8365 27.0039C28.9003 27.0079 26.9642 27.0052 25.028 27.0052H25.0293Z" fill="black"/>
<path d="M25.0397 15.1333C26.21 15.1333 27.3803 15.1307 28.5506 15.1333C29.126 15.1346 29.4613 15.4081 29.4678 15.8621C29.4743 16.3148 29.1273 16.6215 28.5702 16.6228C26.1969 16.6268 23.8224 16.6268 21.4492 16.6228C20.8829 16.6228 20.5385 16.3347 20.5306 15.882C20.5228 15.4267 20.8647 15.1346 21.4283 15.1333C22.6312 15.128 23.8341 15.132 25.0371 15.132L25.0397 15.1333Z" fill="black"/>
<path d="M44.4575 32.849C44.4536 35.4708 42.3831 37.5948 39.8115 37.616C37.2439 37.6373 35.1211 35.4721 35.1264 32.8383C35.1316 30.19 37.2243 28.0726 39.8233 28.0845C42.3935 28.0965 44.4614 30.2218 44.4575 32.8503V32.849ZM36.5902 32.8609C36.598 34.6544 38.0293 36.116 39.7841 36.1239C41.5546 36.1319 43.0002 34.6464 42.9924 32.8277C42.9845 31.0037 41.5481 29.5634 39.7502 29.578C37.9902 29.5926 36.5811 31.0555 36.5889 32.8609H36.5902Z" fill="black"/>
</svg>
