<svg width="50" height="50" viewBox="0 0 50 50" fill="none" xmlns="http://www.w3.org/2000/svg">
<path d="M41.2886 47.9592C40.5125 47.7493 39.7646 47.4936 39.1292 46.9611C37.6193 45.6967 37.1687 43.5119 38.0909 41.7943C39.0835 39.9481 41.088 39.084 43.0151 39.6765C44.8982 40.2549 46.102 41.9143 46.0474 43.8593C45.9929 45.799 44.6518 47.3914 42.6702 47.8728C42.5892 47.8922 42.5118 47.9292 42.4308 47.9592C42.0507 47.9592 41.6705 47.9592 41.2886 47.9592ZM43.9461 43.7182C43.9461 42.5385 43.0098 41.6039 41.8307 41.6057C40.6621 41.6057 39.71 42.5579 39.7118 43.7235C39.7135 44.8838 40.6762 45.8466 41.836 45.8449C43.001 45.8449 43.9479 44.8909 43.9461 43.7182Z" fill="black"/>
<path d="M33.1649 29.0538C32.9854 29.6375 32.8534 30.1965 32.637 30.7202C32.4258 31.2281 32.1284 31.7007 31.8063 32.3037C31.9013 32.3672 32.0562 32.4378 32.1688 32.5506C33.9639 34.3405 35.752 36.1356 37.5418 37.929C37.8744 38.2622 38.1296 38.6237 37.9818 39.1369C37.7829 39.8334 37.0121 40.1244 36.412 39.7188C36.2553 39.613 36.1163 39.4808 35.9826 39.3467C34.11 37.4705 32.2392 35.5925 30.372 33.7162C29.8334 33.9913 29.3266 34.2717 28.8021 34.5168C27.6529 35.0511 26.4386 35.1252 25.1943 35.0088C25.0289 34.9929 24.786 35.0687 24.6893 35.1904C23.445 36.7651 22.2236 38.3575 20.9846 39.9357C20.8333 40.1297 20.8439 40.2707 20.9354 40.4841C21.6393 42.1082 20.8491 43.988 19.23 44.5734C17.5458 45.1818 15.7665 44.2913 15.2491 42.579C14.7458 40.9144 15.756 39.1422 17.4789 38.763C17.933 38.6625 18.431 38.7719 18.908 38.763C19.047 38.7613 19.2441 38.7384 19.3145 38.6467C20.4039 37.2677 21.4774 35.8746 22.5527 34.4851C22.6143 34.4057 22.6724 34.3211 22.7287 34.2452C22.2219 33.8361 21.6992 33.4658 21.2381 33.0303C20.2085 32.0604 19.5609 30.8578 19.2776 29.4717C19.2124 29.1508 19.1068 29.0415 18.7724 29.045C16.4459 29.0609 14.1193 29.0591 11.7927 29.045C11.5005 29.045 11.3562 29.1173 11.2559 29.4082C10.647 31.1593 9.02787 32.2685 7.17997 32.2297C5.31799 32.1909 3.77808 30.9653 3.21315 29.0714C2.72742 27.4474 3.43666 25.5394 4.90794 24.5113C7.13773 22.9525 10.3443 23.9788 11.2401 26.5498C11.3421 26.8443 11.4689 26.9536 11.7909 26.9518C14.1175 26.9377 16.4441 26.9377 18.7707 26.9518C19.098 26.9536 19.2072 26.8584 19.274 26.5286C19.9498 23.2787 22.8818 20.9245 26.1852 20.9475C29.4885 20.9704 32.3923 23.3457 33.0259 26.5586C33.0858 26.8654 33.2037 26.9536 33.5134 26.9518C35.8541 26.9377 38.1965 26.9395 40.5372 26.9518C40.8293 26.9518 40.9701 26.8601 41.1004 26.6009C41.7304 25.3613 43.1559 24.7053 44.4582 25.028C45.8785 25.3807 46.8359 26.5921 46.8271 28.0222C46.8183 29.4206 45.8644 30.6303 44.5058 30.9671C43.1383 31.3057 41.7357 30.6514 41.0687 29.3818C40.9947 29.2425 40.817 29.0644 40.6868 29.0644C38.1859 29.045 35.6834 29.0503 33.1614 29.0503L33.1649 29.0538ZM26.157 32.9474C28.8303 32.9756 31.0724 30.7431 31.0935 28.0346C31.1129 25.3401 28.9095 23.0918 26.2151 23.0583C23.496 23.0248 21.2187 25.2519 21.2134 27.9517C21.2082 30.7096 23.3922 32.9174 26.157 32.9456L26.157 32.9474ZM5.17896 27.9869C5.17016 29.1684 6.09235 30.1118 7.27149 30.1242C8.44182 30.1365 9.40097 29.1966 9.40977 28.0275C9.41857 26.8619 8.47174 25.892 7.31196 25.8797C6.15394 25.8673 5.18776 26.8196 5.17896 27.9869ZM42.8761 27.9993C42.8743 28.5195 43.2615 28.9339 43.7631 28.948C44.284 28.9621 44.7222 28.5389 44.7257 28.0169C44.7293 27.4879 44.3104 27.0717 43.7807 27.0753C43.2668 27.0788 42.8796 27.4756 42.8761 27.9993ZM19.0892 41.7061C19.084 41.1983 18.6739 40.7839 18.1723 40.7786C17.6672 40.7733 17.2202 41.2212 17.2273 41.7308C17.2343 42.2193 17.6655 42.6566 18.1512 42.6654C18.6545 42.6742 19.0945 42.2263 19.0875 41.7079L19.0892 41.7061Z" fill="black"/>
<path d="M20.1733 2.90441C21.891 2.90794 23.5523 4.06826 24.0979 5.6465C24.7262 7.46456 24.2334 9.3161 22.7938 10.4341C22.5404 10.6298 22.4929 10.7833 22.5967 11.0813C23.408 13.4178 24.2017 15.7596 24.9955 18.1031C25.2454 18.8384 25.0148 19.4274 24.4182 19.6302C23.9254 19.7977 23.4239 19.6267 23.1845 19.1559C23.0068 18.8067 22.8871 18.4258 22.7586 18.0537C22.0441 15.9623 21.3278 13.8727 20.6309 11.7743C20.5253 11.4586 20.3775 11.3617 20.0466 11.3564C17.7728 11.3123 15.9091 9.38489 15.9249 7.12246C15.9407 4.82299 17.8766 2.90089 20.1698 2.90618L20.1733 2.90441ZM20.1663 9.25616C21.3366 9.25439 22.2887 8.29863 22.2817 7.13303C22.2746 5.96742 21.3137 5.01166 20.1522 5.01519C18.9942 5.01871 18.0262 5.99212 18.0315 7.14538C18.0368 8.30922 18.9977 9.25792 20.1663 9.25439L20.1663 9.25616Z" fill="black"/>
</svg>
