<svg width="40" height="40" viewBox="0 0 40 40" fill="none" xmlns="http://www.w3.org/2000/svg">
<path d="M16.7364 0C17.1687 0.185914 17.2989 0.506861 17.2827 0.924678C17.2612 1.49514 17.2774 2.06658 17.2774 2.69967C17.4924 2.69967 17.6731 2.69967 17.8527 2.69967C18.6829 2.69967 19.5132 2.69184 20.3423 2.70261C20.9725 2.71141 21.2177 2.94136 21.2242 3.51867C21.2328 4.28679 21.2263 5.05491 21.2263 5.82303C21.2263 5.96197 21.2263 6.1019 21.2263 6.26629H22.7244C22.7244 5.52263 22.7244 4.79854 22.7244 4.07348C22.7244 2.7163 22.7437 2.69771 24.2418 2.69771C28.4489 2.69771 32.6559 2.69771 36.863 2.69771C37.8502 2.69771 38.0298 2.86406 38.0298 3.77504C38.0298 15.2195 38.0298 26.665 38.0298 38.1095C38.0298 38.2758 38.0298 38.4431 38.0298 38.6584C38.4331 38.6584 38.8009 38.6516 39.1676 38.6604C39.672 38.6711 40.0021 38.9402 40 39.3267C39.9978 39.7113 39.6645 39.9794 39.1622 39.998C39.0482 40.0019 38.9332 39.9989 38.8192 39.9989C26.269 39.9989 13.7199 39.9989 1.16966 39.998C0.970709 39.998 0.765304 40.0038 0.572803 39.9657C0.214687 39.8962 -0.0391163 39.588 0.00497612 39.2797C0.0544456 38.9334 0.268459 38.6946 0.667441 38.6721C1.07825 38.6496 1.49229 38.6672 1.96762 38.6672C1.96762 38.4666 1.96762 38.3042 1.96762 38.1408C1.96762 29.9772 1.96762 21.8136 1.96762 13.65C1.96762 12.7498 2.15475 12.5795 3.14737 12.5795C5.03581 12.5795 6.92318 12.5795 8.88798 12.5795C8.88798 12.4112 8.88798 12.2625 8.88798 12.1148C8.88798 10.4875 8.88583 8.8593 8.88798 7.23206C8.88906 6.50406 9.11382 6.2976 9.90318 6.29368C10.5302 6.29075 11.1582 6.29368 11.8443 6.29368C11.8443 5.83673 11.8443 5.41304 11.8443 4.98935C11.8443 4.49423 11.8379 4.00009 11.8465 3.50497C11.8562 2.95897 12.1121 2.71337 12.71 2.70456C13.5682 2.69086 14.4275 2.70065 15.2857 2.69967C15.4405 2.69967 15.5943 2.69967 15.7943 2.69967C15.7943 2.10181 15.8137 1.54504 15.7879 0.990238C15.7685 0.564592 15.8933 0.227011 16.3052 0H16.7343H16.7364ZM36.5264 38.6408V4.07348H24.2246V20.6551H26.6174C26.7819 20.0239 26.9841 19.7969 27.382 19.7813C27.7993 19.7646 28.0273 20.0034 28.2144 20.6639H29.5888C29.6114 20.5513 29.6265 20.4496 29.6523 20.3508C29.7458 19.9916 30.0555 19.7607 30.4083 19.7813C30.7804 19.8028 31.0492 20.0474 31.0923 20.4183C31.1105 20.5729 31.1073 20.7304 31.1073 20.886C31.1073 26.6405 31.1073 32.3951 31.1073 38.1496V38.6398H36.5242L36.5264 38.6408ZM15.7685 38.6388V13.9543H3.4786V38.63H6.91457C6.91457 38.4588 6.91457 38.3179 6.91457 38.177C6.91457 37.4089 6.90705 36.6407 6.9178 35.8726C6.92533 35.3002 7.18236 35.0693 7.8104 35.0663C9.02671 35.0605 10.243 35.0595 11.4582 35.0663C12.0691 35.0693 12.3401 35.3217 12.3465 35.8863C12.3551 36.6672 12.3476 37.448 12.3498 38.2298C12.3498 38.3668 12.3637 38.5028 12.3713 38.6388H15.7675H15.7685ZM29.5963 38.6379V22.0533H17.3042V38.6379H29.5963ZM17.2774 18.4329C17.2774 19.0924 17.2935 19.702 17.2709 20.3106C17.2602 20.6022 17.3591 20.6903 17.6817 20.6864C19.1981 20.6727 20.7155 20.6678 22.2318 20.6883C22.6297 20.6942 22.7319 20.5885 22.7308 20.2314C22.7169 16.1824 22.7222 12.1333 22.7222 8.08531V7.67434H10.4043V12.5825C10.7915 12.5825 11.1474 12.5825 11.5034 12.5825C13.1058 12.5825 14.7082 12.5805 16.3106 12.5825C16.9676 12.5835 17.1763 12.7498 17.2817 13.331C17.2903 13.379 17.3215 13.423 17.3516 13.4886C18.0302 13.4886 18.7012 13.4817 19.3723 13.4905C19.9132 13.4983 20.2488 13.7684 20.2412 14.1647C20.2337 14.561 19.8939 14.8193 19.3529 14.833C19.1099 14.8389 18.8668 14.834 18.6227 14.834C18.1861 14.834 17.7484 14.834 17.2763 14.834C17.2763 15.5003 17.2935 16.1109 17.2688 16.7196C17.2559 17.0248 17.3828 17.0943 17.6914 17.0855C18.3055 17.0699 18.9217 17.0718 19.5358 17.0953C19.9433 17.111 20.2122 17.3732 20.238 17.7127C20.2617 18.0347 20.0014 18.3311 19.6153 18.4026C19.4766 18.428 19.3314 18.4261 19.1884 18.427C18.5743 18.429 17.9603 18.428 17.2763 18.428L17.2774 18.4329ZM13.3445 6.24769H19.7175V4.07935H13.3445V6.24769ZM8.42017 36.4206V38.6349H8.89013C8.89013 38.3022 8.88368 37.993 8.8912 37.6838C8.90411 37.1535 9.17512 36.8629 9.6397 36.8687C10.0946 36.8746 10.3624 37.1779 10.371 37.7083C10.3764 38.0165 10.371 38.3247 10.371 38.6633C10.5613 38.6516 10.6936 38.6437 10.8345 38.6349V36.4206H8.41909H8.42017Z" fill="#383961"/>
<path d="M32.615 20.8958C32.615 20.7265 32.6 20.5562 32.6183 20.3889C32.657 20.0239 32.9119 19.8341 33.2893 19.7862C33.6249 19.7441 33.9948 19.974 34.0357 20.3028C34.0841 20.6991 34.0841 21.1081 34.0324 21.5034C33.9894 21.8332 33.6195 22.0553 33.2796 22.0103C32.9011 21.9604 32.6516 21.7657 32.6172 21.4017C32.6011 21.2343 32.614 21.0641 32.615 20.8948V20.8958Z" fill="#383961"/>
<path d="M32.614 29.8872C32.614 29.7179 32.6 29.5476 32.6172 29.3803C32.6549 29.0153 32.9076 28.8245 33.2861 28.7756C33.626 28.7325 33.9927 28.9576 34.0346 29.2883C34.0841 29.6846 34.0841 30.0936 34.0346 30.4899C33.9927 30.8187 33.6228 31.0438 33.284 31.0007C32.9044 30.9518 32.6559 30.7571 32.6183 30.394C32.6011 30.2267 32.6151 30.0564 32.6162 29.8872H32.614Z" fill="#383961"/>
<path d="M31.1192 11.9259C31.1084 12.1001 31.1095 12.2831 31.0826 12.4621C31.031 12.8095 30.7739 12.9974 30.4169 13.0199C30.0566 13.0424 29.7394 12.8809 29.691 12.5404C29.634 12.1333 29.634 11.7126 29.6824 11.3046C29.7222 10.964 30.0276 10.7889 30.39 10.8006C30.7686 10.8134 31.032 11.0091 31.0847 11.3731C31.1105 11.5531 31.1084 11.7361 31.1192 11.9259Z" fill="#383961"/>
<path d="M34.0938 11.9279C34.0776 12.1216 34.0863 12.3202 34.0411 12.5081C33.9626 12.8359 33.6238 13.0668 33.2883 13.0238C32.9119 12.9749 32.6463 12.787 32.6194 12.42C32.5957 12.0962 32.5946 11.7693 32.614 11.4455C32.6366 11.0639 32.9399 10.7987 33.3227 10.7909C33.697 10.783 34.0196 11.0453 34.068 11.419C34.0895 11.5854 34.0712 11.7566 34.0712 11.9259C34.0787 11.9259 34.0852 11.9259 34.0927 11.9259L34.0938 11.9279Z" fill="#383961"/>
<path d="M28.166 11.9279C28.1488 12.1216 28.1552 12.3202 28.1101 12.5081C28.0305 12.8369 27.696 13.0678 27.3594 13.0248C26.983 12.9768 26.7185 12.788 26.6916 12.421C26.6679 12.0971 26.6658 11.7703 26.6862 11.4464C26.7099 11.0619 27.0099 10.7997 27.3938 10.7918C27.7649 10.784 28.0886 11.0482 28.1391 11.42C28.1617 11.5864 28.1434 11.7576 28.1434 11.9269C28.1509 11.9269 28.1585 11.9269 28.1671 11.9279H28.166Z" fill="#383961"/>
<path d="M32.6129 16.4172C32.6129 16.2479 32.5979 16.0786 32.6161 15.9113C32.6549 15.5551 32.8753 15.3408 33.2711 15.3037C33.6539 15.2675 33.9959 15.4749 34.0432 15.8311C34.0916 16.2019 34.0916 16.5845 34.0497 16.9563C34.0099 17.3135 33.6754 17.5278 33.2969 17.5112C32.9151 17.4945 32.6516 17.2587 32.614 16.8849C32.5989 16.7303 32.6118 16.5738 32.6118 16.4172C32.6118 16.4172 32.6129 16.4172 32.614 16.4172H32.6129Z" fill="#383961"/>
<path d="M32.615 25.3861C32.615 25.2178 32.5978 25.0465 32.6182 24.8802C32.6634 24.5221 32.8979 24.3156 33.2925 24.2921C33.6904 24.2686 33.9819 24.4565 34.0357 24.8019C34.0948 25.1835 34.0894 25.5808 34.0432 25.9644C34.0002 26.3205 33.6582 26.528 33.2743 26.4947C32.8763 26.4605 32.6559 26.2472 32.6161 25.891C32.5967 25.7237 32.6129 25.5534 32.6129 25.3851H32.615V25.3861Z" fill="#383961"/>
<path d="M34.0636 7.44734C34.0636 7.61565 34.0873 7.78786 34.0583 7.95225C33.9959 8.31038 33.6905 8.53347 33.3141 8.52369C32.9312 8.5139 32.6462 8.28004 32.6183 7.91115C32.5935 7.58825 32.5946 7.26143 32.6161 6.93755C32.6409 6.56376 32.9151 6.32794 33.2969 6.31033C33.6916 6.29174 34.0067 6.52462 34.0636 6.90232C34.0905 7.08041 34.0679 7.26534 34.0679 7.44734C34.0669 7.44734 34.0647 7.44734 34.0636 7.44734Z" fill="#383961"/>
<path d="M34.0927 34.399C34.0777 34.5928 34.0906 34.7924 34.04 34.9793C33.9465 35.3247 33.6841 35.5086 33.2872 35.4842C32.8915 35.4597 32.6506 35.2503 32.6194 34.8922C32.5914 34.5693 32.5936 34.2425 32.6129 33.9186C32.6366 33.5262 32.9237 33.2816 33.3217 33.2757C33.7131 33.2698 34.0153 33.5115 34.0658 33.8931C34.0873 34.0595 34.0691 34.2307 34.0691 34.399H34.0916H34.0927Z" fill="#383961"/>
<path d="M26.6915 7.42484C26.6915 7.24284 26.6711 7.05888 26.6958 6.87982C26.7442 6.54028 26.9711 6.34262 27.3475 6.31523C27.7207 6.28685 28.0337 6.4395 28.0853 6.77218C28.1498 7.19 28.1541 7.62739 28.0907 8.04521C28.038 8.39453 27.7175 8.55696 27.3239 8.51684C26.9496 8.47868 26.7335 8.27026 26.6926 7.9317C26.6722 7.76536 26.6894 7.59412 26.6894 7.42582C26.6894 7.42582 26.6915 7.42582 26.6926 7.42582L26.6915 7.42484Z" fill="#383961"/>
<path d="M26.6894 16.3917C26.6894 16.2234 26.6722 16.0522 26.6926 15.8859C26.7346 15.5463 26.9518 15.3408 27.3282 15.3056C27.7229 15.2684 28.038 15.4309 28.0928 15.7812C28.1563 16.1863 28.1563 16.6109 28.0971 17.017C28.0455 17.3663 27.7379 17.5376 27.3422 17.5063C26.9669 17.4769 26.7421 17.2753 26.6958 16.9368C26.6711 16.7577 26.6915 16.5738 26.6915 16.3917C26.6915 16.3917 26.6905 16.3917 26.6894 16.3917Z" fill="#383961"/>
<path d="M31.118 7.44832C31.1073 7.61662 31.1105 7.78688 31.0847 7.95323C31.032 8.29277 30.8061 8.4914 30.433 8.51782C30.0372 8.5462 29.7361 8.37202 29.6845 8.02074C29.6264 7.62739 29.6275 7.2174 29.6791 6.82306C29.7264 6.46983 30.0232 6.29174 30.4179 6.31327C30.8137 6.3348 31.047 6.54322 31.0879 6.90232C31.1083 7.08237 31.0911 7.26534 31.0911 7.44637C31.0997 7.44637 31.1094 7.44637 31.118 7.44637V7.44832Z" fill="#383961"/>
<path d="M31.1169 16.4182C31.1073 16.5835 31.1105 16.7665 31.0825 16.9456C31.0298 17.2851 30.804 17.4828 30.4287 17.5072C30.0329 17.5337 29.7329 17.3595 29.6823 17.0082C29.6253 16.6148 29.6253 16.2049 29.6791 15.8105C29.7275 15.4583 30.0243 15.2802 30.4201 15.3037C30.8158 15.3271 31.0427 15.5385 31.089 15.8957C31.1105 16.063 31.1073 16.2323 31.1169 16.4172V16.4182Z" fill="#383961"/>
<path d="M7.38024 22.6874C7.38024 22.8694 7.39852 23.0533 7.37594 23.2324C7.33292 23.5778 7.08342 23.7735 6.72423 23.8048C6.35966 23.8371 6.03596 23.6757 5.98434 23.343C5.91874 22.9252 5.91981 22.4878 5.97681 22.068C6.02306 21.7334 6.34138 21.5631 6.7038 21.5866C7.08235 21.611 7.33937 21.8146 7.38024 22.1796C7.39852 22.3469 7.38347 22.5171 7.38347 22.6864H7.38132L7.38024 22.6874Z" fill="#383961"/>
<path d="M8.88037 22.6757C8.89113 22.5044 8.89005 22.3214 8.91693 22.1424C8.96963 21.795 9.22773 21.6081 9.58477 21.5876C9.94504 21.567 10.2612 21.7304 10.3085 22.07C10.3645 22.477 10.3634 22.8988 10.315 23.3058C10.2741 23.6473 9.96655 23.8205 9.60521 23.8068C9.22666 23.7931 8.96318 23.5964 8.91371 23.2314C8.88897 23.0514 8.89113 22.8684 8.88037 22.6757Z" fill="#383961"/>
<path d="M13.309 22.7099C13.309 22.8792 13.3251 23.0494 13.3057 23.2168C13.2638 23.5817 13.0057 23.7833 12.6271 23.8068C12.2647 23.8283 11.9518 23.66 11.9045 23.3215C11.8475 22.9144 11.8485 22.4917 11.9002 22.0837C11.9432 21.7441 12.2507 21.5876 12.6142 21.5817C12.9648 21.5768 13.2606 21.8312 13.3036 22.1639C13.3262 22.343 13.3079 22.5269 13.3079 22.7089C13.3079 22.7089 13.309 22.7089 13.31 22.7089L13.309 22.7099Z" fill="#383961"/>
<path d="M7.38029 31.715C7.38029 31.8843 7.39857 32.0545 7.37599 32.2209C7.33082 32.5653 7.08562 32.762 6.72535 32.7933C6.35971 32.8256 6.03708 32.6632 5.98546 32.3324C5.91986 31.9146 5.92094 31.4772 5.97686 31.0574C6.02203 30.7218 6.34143 30.5535 6.70277 30.576C7.08024 30.6005 7.33942 30.803 7.37921 31.168C7.39857 31.3481 7.38244 31.532 7.38244 31.714C7.38244 31.714 7.38028 31.714 7.37921 31.714L7.38029 31.715Z" fill="#383961"/>
<path d="M8.87939 31.6925C8.89122 31.5007 8.89015 31.3177 8.91596 31.1377C8.96651 30.7903 9.22138 30.6044 9.5795 30.578C9.92148 30.5526 10.2484 30.7023 10.2925 31.0173C10.3549 31.4606 10.3559 31.9234 10.2893 32.3647C10.242 32.6759 9.9161 32.8246 9.56981 32.7962C9.22891 32.7679 8.98156 32.5917 8.92348 32.2659C8.88907 32.0751 8.89338 31.8774 8.88047 31.6925H8.87939Z" fill="#383961"/>
<path d="M13.3079 31.6719C13.3079 31.8539 13.3262 32.0379 13.3036 32.217C13.2617 32.5506 12.9681 32.8031 12.6164 32.8002C12.2497 32.7972 11.9486 32.6377 11.9002 32.3001C11.8443 31.9048 11.8442 31.4958 11.8905 31.0995C11.9292 30.7668 12.2862 30.5486 12.6272 30.5682C12.9982 30.5897 13.2756 30.8392 13.3122 31.2032C13.3283 31.3578 13.3144 31.5154 13.3144 31.671C13.3122 31.671 13.31 31.671 13.3079 31.671V31.6719Z" fill="#383961"/>
<path d="M7.38237 18.2147C7.38237 18.384 7.39957 18.5542 7.37914 18.7206C7.33612 19.0689 7.06834 19.2959 6.70162 19.3077C6.30156 19.3204 6.01443 19.1374 5.96173 18.791C5.90473 18.4094 5.90903 18.0121 5.95635 17.6286C6.00045 17.2714 6.34458 17.065 6.72743 17.1012C7.12426 17.1383 7.34365 17.3526 7.38237 17.7088C7.40065 17.8761 7.38559 18.0464 7.38559 18.2147C7.38559 18.2147 7.38344 18.2147 7.38237 18.2147Z" fill="#383961"/>
<path d="M7.38344 27.1973C7.38344 27.3666 7.40064 27.5368 7.38021 27.7032C7.33504 28.0603 7.1049 28.2697 6.70915 28.2942C6.31232 28.3177 6.0155 28.1347 5.96496 27.7863C5.90796 27.392 5.90796 26.98 5.96926 26.5867C6.02303 26.2403 6.32414 26.0593 6.72098 26.0896C7.11673 26.1199 7.3415 26.3342 7.38236 26.6914C7.40172 26.8587 7.38559 27.029 7.38559 27.1973C7.38559 27.1973 7.38559 27.1973 7.38451 27.1973H7.38344Z" fill="#383961"/>
<path d="M13.308 27.2149C13.308 27.3832 13.3274 27.5544 13.3037 27.7208C13.2564 28.0594 13.0348 28.2619 12.6584 28.2922C12.2638 28.3235 11.953 28.1572 11.9013 27.8059C11.8411 27.3998 11.8411 26.9752 11.9046 26.5701C11.9594 26.2208 12.2724 26.0544 12.667 26.0916C13.0413 26.1268 13.2628 26.3313 13.3037 26.6709C13.3263 26.8499 13.308 27.0339 13.3069 27.2159L13.308 27.2149Z" fill="#383961"/>
<path d="M13.3068 18.1951C13.3068 18.3771 13.3284 18.5611 13.3026 18.7392C13.2542 19.0777 13.0262 19.2764 12.6508 19.3047C12.2766 19.3331 11.9647 19.1775 11.9131 18.8468C11.8486 18.429 11.8486 17.9926 11.9077 17.5738C11.954 17.2411 12.2583 17.0796 12.6336 17.1002C13.009 17.1207 13.2412 17.3125 13.3004 17.6511C13.3316 17.8292 13.323 18.0131 13.3316 18.1951C13.323 18.1951 13.3144 18.1951 13.3058 18.1951H13.3068Z" fill="#383961"/>
<path d="M8.88037 27.1513C8.89113 26.983 8.88898 26.8127 8.91586 26.6464C8.97178 26.3068 9.19977 26.1131 9.57509 26.0886C9.95041 26.0642 10.2569 26.2247 10.3053 26.5564C10.3666 26.9742 10.3655 27.4106 10.3053 27.8284C10.2569 28.1611 9.94827 28.3177 9.57402 28.2932C9.19977 28.2687 8.96855 28.075 8.91693 27.7345C8.8879 27.5427 8.8922 27.346 8.88145 27.1513H8.88037Z" fill="#383961"/>
<path d="M10.3871 18.2773C10.3688 18.4231 10.372 18.6491 10.3053 18.8566C10.1999 19.1834 9.92677 19.3361 9.55252 19.3038C9.19763 19.2734 8.95781 19.0885 8.92233 18.7666C8.88469 18.4192 8.88361 18.066 8.90834 17.7176C8.93523 17.3389 9.21161 17.111 9.59339 17.0973C9.97732 17.0836 10.2666 17.292 10.3419 17.6599C10.3774 17.837 10.3698 18.021 10.3871 18.2783V18.2773Z" fill="#383961"/>
<path d="M27.1552 30.3118C27.1552 32.3011 27.1552 34.2914 27.1552 36.2807C27.1552 36.4363 27.1573 36.5948 27.1283 36.7474C27.0691 37.0693 26.8465 37.2513 26.4916 37.2817C26.1378 37.312 25.8722 37.1731 25.7528 36.8687C25.6915 36.7141 25.6786 36.538 25.6786 36.3717C25.6743 32.353 25.6754 28.3343 25.6786 24.3166C25.6786 24.162 25.6904 24.0025 25.7367 23.8557C25.841 23.523 26.1163 23.3596 26.4787 23.388C26.8369 23.4154 27.0863 23.6072 27.1347 23.9536C27.1562 24.1072 27.1562 24.2647 27.1562 24.4203C27.1573 26.3842 27.1562 28.348 27.1562 30.3118H27.1552Z" fill="#383961"/>
<path d="M21.2274 30.3588C21.2274 32.3354 21.2274 34.3119 21.2274 36.2885C21.2274 36.4441 21.2306 36.6026 21.2016 36.7552C21.1424 37.0566 20.9359 37.2376 20.5993 37.2777C20.2466 37.3208 19.9713 37.1955 19.8401 36.8971C19.768 36.7347 19.7541 36.5429 19.753 36.3638C19.7487 32.3451 19.7487 28.3274 19.753 24.3088C19.753 24.1297 19.7702 23.9389 19.8412 23.7755C19.9627 23.4917 20.2326 23.3557 20.5596 23.388C20.9005 23.4213 21.1435 23.5984 21.2027 23.9232C21.2306 24.0759 21.2274 24.2344 21.2285 24.39C21.2295 26.3793 21.2285 28.3695 21.2285 30.3588H21.2274Z" fill="#383961"/>
<path d="M22.7244 30.3177C22.7244 28.3411 22.7244 26.3646 22.7244 24.387C22.7244 24.2315 22.7201 24.0729 22.7491 23.9203C22.8093 23.5954 23.0534 23.4193 23.3943 23.387C23.7213 23.3557 23.9912 23.4927 24.1117 23.7765C24.1816 23.9408 24.1977 24.1317 24.1977 24.3097C24.202 28.3284 24.202 32.3471 24.1977 36.3658C24.1977 36.5448 24.1826 36.7366 24.1106 36.8991C23.9783 37.1985 23.7019 37.3208 23.3503 37.2777C23.0126 37.2366 22.8072 37.0546 22.7491 36.7533C22.7201 36.6016 22.7244 36.4421 22.7244 36.2865C22.7233 34.2963 22.7244 32.307 22.7244 30.3167V30.3177Z" fill="#383961"/>
<path d="M16.5493 9.89259C17.4936 9.89259 18.4378 9.89259 19.3809 9.89259C19.795 9.89259 20.1058 10.0315 20.2133 10.4259C20.3327 10.8633 19.9746 11.2253 19.3874 11.237C18.7292 11.2507 18.0711 11.241 17.414 11.241C16.1977 11.241 14.9824 11.241 13.7661 11.241C13.4177 11.241 13.1101 11.1676 12.9316 10.8652C12.666 10.4151 13.0123 9.91216 13.6317 9.89944C14.6039 9.87889 15.5772 9.89357 16.5493 9.89357C16.5493 9.89357 16.5493 9.89259 16.5493 9.89161V9.89259Z" fill="#383961"/>
</svg>
