<svg width="24" height="24" viewBox="0 0 24 24" fill="none" xmlns="http://www.w3.org/2000/svg">
<path d="M24 21.931V22.5871C23.9724 22.6669 23.9425 22.7462 23.9178 22.8272C23.7187 23.4816 23.283 23.8642 22.6054 23.9681C22.5209 23.981 22.4345 23.9904 22.3488 23.9904C21.2942 23.9922 20.239 23.9933 19.1844 23.991C18.9143 23.9904 18.7481 23.8449 18.7546 23.6312C18.7611 23.4246 18.9196 23.2926 19.1785 23.2902C19.5849 23.2867 19.9912 23.2902 20.3976 23.2885C20.4645 23.2885 20.5314 23.2797 20.6072 23.2744C20.5103 21.4438 20.4152 19.635 20.3189 17.8267C20.3001 17.4681 20.2737 17.1095 20.2607 16.7509C20.2519 16.4997 20.3952 16.3354 20.6043 16.333C20.808 16.3307 20.9419 16.4704 20.9583 16.7169C20.9801 17.0361 20.9924 17.356 21.0112 17.6759C21.0182 17.7968 21.0323 17.9171 21.0435 18.0456C21.6495 17.9805 22.2214 17.9183 22.8209 17.8537C22.6911 16.7697 22.5766 15.7086 22.4316 14.6515C22.3705 14.2067 22.1163 13.8469 21.7258 13.6227C21.4193 13.4466 21.0834 13.3234 20.7604 13.1766C20.6765 13.6057 20.6272 13.986 20.5256 14.3522C20.2367 15.3922 19.4369 15.7731 18.4416 15.3605C18.2978 15.3013 18.1551 15.2338 18.0247 15.1498C17.7376 14.965 17.4587 14.7672 17.1674 14.5688C16.6794 14.9685 16.1586 15.3212 15.5233 15.4896C15.5362 15.5354 15.5462 15.5712 15.5567 15.6064C15.727 16.1634 15.5062 16.6952 14.9695 16.9229C14.73 17.0244 14.6249 17.1659 14.5538 17.4124C14.3718 18.0415 13.9872 18.5398 13.4211 18.8779C13.2262 18.9947 13.2761 19.159 13.2937 19.3075C13.3007 19.3656 13.4276 19.4313 13.5104 19.4542C13.9237 19.5687 14.3454 19.6543 14.7552 19.7794C15.4046 19.9777 15.8668 20.3845 16.0106 21.0694C16.0923 21.4573 16.1193 21.857 16.1692 22.2514C16.2126 22.5953 16.2531 22.9404 16.296 23.2902C16.6425 23.2902 16.9548 23.2902 17.2666 23.2902C17.6413 23.2902 17.8168 23.4076 17.8092 23.6518C17.8022 23.8859 17.6325 23.9933 17.2684 23.9933C13.6977 23.9933 10.1269 23.9933 6.55563 23.9933C6.47754 23.9933 6.39768 23.9986 6.32193 23.9845C6.12698 23.9487 6.01365 23.8255 6.0207 23.6277C6.02716 23.4416 6.1399 23.3266 6.32663 23.2979C6.40296 23.2861 6.48223 23.2914 6.56033 23.2908C6.93379 23.2908 7.30724 23.2908 7.69538 23.2908C7.70888 23.1875 7.72004 23.1042 7.73061 23.0203C7.80459 22.4163 7.86919 21.8106 7.95433 21.2085C8.04065 20.5987 8.36478 20.1356 8.93964 19.9143C9.43171 19.7248 9.95431 19.6144 10.4605 19.4601C10.5515 19.4325 10.6883 19.3726 10.7012 19.3075C10.7323 19.1502 10.7494 18.9894 10.5497 18.8685C9.95607 18.5105 9.57029 17.9781 9.39707 17.3085C9.34774 17.1171 9.26025 17.032 9.08233 16.961C8.34892 16.6682 8.15221 15.8183 8.61492 15.2924C8.66249 15.2379 8.703 15.1592 8.70887 15.0888C8.74117 14.6727 8.76231 14.2554 8.78697 13.8357C8.65661 14.0018 8.52215 14.1808 8.37946 14.3534C8.09115 14.702 7.66602 14.7355 7.32838 14.4414C7.28375 14.4027 7.23971 14.3634 7.15457 14.2888C7.15457 14.4144 7.15457 14.489 7.15457 14.5635C7.15457 15.0008 7.15809 15.438 7.15281 15.8758C7.14929 16.1575 7.0201 16.3096 6.80108 16.3119C6.58147 16.3137 6.45405 16.1617 6.45229 15.8811C6.44876 15.4204 6.45229 14.9597 6.45052 14.4989C6.45052 14.4426 6.43878 14.3868 6.43115 14.3152C6.38946 14.3422 6.36832 14.3528 6.35129 14.3675C5.89386 14.7689 5.51806 14.7355 5.14049 14.2571C4.84572 13.8833 4.5486 13.51 4.26205 13.1297C4.18454 13.027 4.11349 12.9953 3.98842 13.0293C3.66488 13.1174 3.33546 13.1837 3.01309 13.2752C2.14228 13.5212 1.58797 14.0494 1.49754 14.9902C1.44058 15.5806 1.37012 16.1693 1.30494 16.7591C1.26501 17.1207 1.22508 17.4816 1.18339 17.8596C1.79173 17.9236 2.37187 17.9846 2.97375 18.0474C2.98079 17.9253 2.98667 17.8255 2.99195 17.7258C3.00957 17.3824 3.02072 17.0391 3.04597 16.6963C3.063 16.4616 3.22096 16.3213 3.42471 16.3371C3.61907 16.3518 3.73886 16.498 3.74473 16.7274C3.74532 16.7585 3.74473 16.7902 3.74297 16.8213C3.65724 18.4353 3.57092 20.0493 3.48578 21.6633C3.4576 22.1986 3.43117 22.7333 3.4024 23.2914C3.8381 23.2914 4.24267 23.2885 4.64725 23.2926C4.90973 23.2949 5.05946 23.4229 5.06357 23.6353C5.06768 23.8501 4.91854 23.9916 4.66193 23.9928C3.65372 23.9963 2.64551 24.0092 1.63788 23.9886C0.651395 23.9663 0.0107658 23.302 0.000196343 22.3148C-0.00273963 22.0659 0.0277945 21.8165 0.0553926 21.5682C0.300253 19.3732 0.550984 17.1788 0.792321 14.9837C0.876877 14.2125 1.1511 13.5552 1.79525 13.078C2.20863 12.7717 2.69072 12.652 3.16987 12.5105C3.65372 12.3673 4.12876 12.193 4.61202 12.0486C4.96669 11.943 5.10291 11.7334 5.05065 11.3631C5.02893 11.2093 4.99722 11.1143 4.85747 11.0321C3.66546 10.3307 3.03364 9.27254 2.91503 7.90622C2.898 7.71137 2.83517 7.63155 2.65255 7.56875C1.99137 7.34162 1.60793 6.63205 1.86395 6.04279C1.99313 5.74582 2.00546 5.46117 2.00723 5.1595C2.0084 4.98754 2.00723 4.81557 2.01075 4.64419C2.04539 2.72677 3.37421 0.896794 5.1951 0.288758C5.57737 0.160226 5.97901 0.094492 6.37184 0C6.65311 0 6.93437 0 7.21564 0C7.27553 0.0146727 7.33425 0.0358013 7.39473 0.0422573C9.30194 0.240632 11.0406 1.75661 11.434 3.63706C11.5621 4.24862 11.5409 4.89128 11.5914 5.51927C11.5996 5.61787 11.5967 5.73291 11.646 5.81097C12.0242 6.4102 11.7729 7.27119 10.9208 7.58166C10.7494 7.64446 10.7 7.72193 10.6883 7.89214C10.6043 9.16455 10.0518 10.1957 8.97663 10.8783C8.60611 11.1137 8.538 11.3631 8.5791 11.7252C8.58498 11.7792 8.60964 11.859 8.64898 11.8778C8.9508 12.0216 9.25438 12.1654 9.56794 12.2799C9.6525 12.311 9.79871 12.2734 9.87328 12.2135C10.3008 11.8696 10.7682 11.6049 11.3119 11.521C11.7006 11.4605 12.0982 11.4547 12.4839 11.4253C12.4687 11.3625 12.4317 11.2657 12.4241 11.1665C12.3871 10.6999 12.3565 10.2321 12.3278 9.76496C12.252 8.54184 12.1721 7.31814 12.1046 6.09444C12.0512 5.13015 12.0976 4.17291 12.4223 3.25146C12.7088 2.43742 13.1845 1.78889 14.0359 1.4837C14.1175 1.45436 14.1944 1.38569 14.2502 1.31643C14.6366 0.835169 15.1193 0.482437 15.7006 0.285824C16.0658 0.162573 16.4504 0.0933182 16.8268 0C17.1392 0 17.4522 0 17.7646 0C17.9942 0.0387359 18.2285 0.0592776 18.4522 0.120316C19.8292 0.495936 20.8767 1.30469 21.5849 2.54483C21.8655 3.03666 22.054 3.5637 22.1474 4.12302C22.1867 4.35896 22.0916 4.53562 21.8973 4.58492C21.6947 4.63598 21.5262 4.5139 21.4621 4.26857C21.4445 4.20049 21.434 4.13124 21.4175 4.06316C21.0905 2.73733 20.3159 1.74781 19.1222 1.10456C18.2995 0.662031 17.4035 0.627403 16.4986 0.784108C15.7875 0.907358 15.1991 1.24307 14.747 1.81941C14.6436 1.95088 14.4869 2.07002 14.3301 2.1246C13.8515 2.29128 13.5151 2.60352 13.2796 3.03783C12.9238 3.69341 12.811 4.41237 12.804 5.14072C12.7969 5.88139 12.8498 6.62266 12.8897 7.36333C12.9537 8.5483 13.0259 9.73268 13.0999 10.9171C13.1169 11.1906 13.1768 11.2387 13.4493 11.2399C14.0429 11.2416 14.6372 11.241 15.2308 11.2399C15.289 11.2399 15.3477 11.2322 15.4058 11.2275C15.414 11.2082 15.4229 11.1882 15.4311 11.1688C15.3348 11.1049 15.2396 11.0403 15.1428 10.9775C14.0623 10.275 13.41 9.29602 13.3154 8.00306C13.2585 7.226 13.2843 6.44248 13.2837 5.66189C13.2837 5.24812 13.4411 5.04857 13.8486 4.94352C14.3859 4.80559 14.8374 4.53386 15.2232 4.13887C15.565 3.78907 15.909 3.80433 16.2208 4.17643C16.7628 4.8232 17.4322 5.29742 18.1991 5.639C18.892 5.94771 19.6225 6.09738 20.377 6.13846C20.8526 6.16487 21.0922 6.40902 21.0981 6.87738C21.101 7.1274 21.101 7.37742 21.0969 7.62686C21.0711 9.13168 20.4052 10.2685 19.1228 11.0503C19.0629 11.0867 19.0077 11.1307 18.8914 11.2117C19.0276 11.2269 19.0858 11.2387 19.1439 11.2387C19.7299 11.2399 20.3159 11.241 20.902 11.2387C21.1662 11.2375 21.2255 11.1794 21.2408 10.9071C21.3341 9.25494 21.4257 7.60221 21.5173 5.94948C21.5314 5.69828 21.6729 5.53571 21.8773 5.53923C22.0846 5.54334 22.2167 5.70532 22.2185 5.96004C22.2185 6.05395 22.2185 6.14785 22.2126 6.24117C22.1227 7.80821 22.0317 9.37466 21.9425 10.9411C21.9049 11.6026 21.5584 11.9383 20.899 11.9406C20.3289 11.943 19.7581 11.9406 19.1879 11.9418C19.1116 11.9418 19.0359 11.9541 18.9595 11.9606C18.9578 11.9835 18.9566 12.0064 18.9548 12.0292C19.0253 12.0515 19.0952 12.0768 19.1668 12.0956C19.936 12.2975 20.7152 12.4665 21.4721 12.7071C22.3259 12.9783 22.8978 13.5646 23.1004 14.4543C23.1867 14.8329 23.222 15.2238 23.266 15.6111C23.451 17.224 23.6283 18.8374 23.8127 20.4496C23.8691 20.9438 23.9366 21.4368 23.9988 21.9304L24 21.931ZM10.0077 7.07692C10.0077 6.5851 10.0142 6.23354 10.0031 5.88257C10.0007 5.80099 9.96253 5.69241 9.90264 5.64604C9.45696 5.30446 9.24146 4.84316 9.19742 4.29968C9.1798 4.07666 9.0929 4.01973 8.88445 4.05259C7.49984 4.27034 6.11465 4.22866 4.73005 4.05259C4.47168 4.01973 4.42705 4.05787 4.40298 4.31142C4.35307 4.83846 4.15342 5.28803 3.72418 5.62081C3.66899 5.66365 3.60322 5.73995 3.60322 5.79981C3.61027 6.59507 3.56447 7.39796 3.65783 8.18383C3.81989 9.54193 4.99781 10.6594 6.32663 10.8243C7.80401 11.0074 9.1798 10.2456 9.73999 8.93801C10.0154 8.29476 10.0166 7.61688 10.0077 7.07692ZM15.6994 4.65887C15.2396 5.12252 14.7253 5.43711 14.121 5.59205C13.986 5.62668 13.9801 5.71002 13.9795 5.81742C13.9772 6.36383 13.9631 6.91083 13.9701 7.45724C13.9883 8.82591 14.5603 9.87588 15.7887 10.5285C16.8615 11.0984 18.4228 10.8736 19.2966 10.0737C20.256 9.19507 20.5044 8.09814 20.37 6.84686C18.535 6.74239 16.9595 6.05864 15.6988 4.65945L15.6994 4.65887ZM10.8838 5.19706C10.9461 3.62356 10.4088 2.35408 9.10112 1.42677C7.83454 0.528216 6.03773 0.446049 4.67837 1.30411C3.25854 2.20031 2.64374 3.52614 2.71714 5.26808C2.9761 5.15422 3.21861 5.08966 3.40768 4.95232C3.63317 4.78857 3.67838 4.51097 3.70363 4.23923C3.7647 3.59598 4.10762 3.30605 4.75001 3.35828C5.09998 3.38645 5.44818 3.43399 5.79815 3.46921C6.81576 3.57192 7.82573 3.47801 8.83512 3.35652C9.4505 3.28257 9.82983 3.58776 9.88737 4.19756C9.9502 4.85959 10.1968 5.11313 10.8827 5.19589L10.8838 5.19706ZM8.40588 23.2744H9.3771C9.3771 23.1517 9.37416 23.0437 9.37769 22.9363C9.38121 22.8272 9.38826 22.718 9.4 22.6094C9.42995 22.3248 9.55972 22.191 9.78344 22.2091C10.0019 22.2268 10.1117 22.3887 10.0976 22.671C10.0876 22.8706 10.0794 23.0701 10.07 23.2709H13.9102C13.9102 23.0261 13.9067 22.7996 13.9114 22.5742C13.9161 22.357 14.0359 22.2185 14.2273 22.2097C14.4287 22.2003 14.555 22.3007 14.5914 22.4979C14.6125 22.6123 14.6143 22.7303 14.6225 22.8465C14.6325 22.9909 14.6407 23.1353 14.6495 23.2744H15.5843C15.5039 22.6065 15.4299 21.9562 15.3448 21.3077C15.2907 20.8951 15.0377 20.6257 14.6589 20.493C14.3436 20.3827 14.0142 20.3117 13.6877 20.2354C13.6348 20.2231 13.5503 20.2553 13.5098 20.2958C12.6936 21.1245 11.3178 21.1298 10.4922 20.3011C10.4481 20.2571 10.3536 20.2272 10.2937 20.2401C9.98954 20.3076 9.68479 20.3786 9.38884 20.4737C8.98838 20.6028 8.7124 20.8651 8.65368 21.2989C8.56501 21.9474 8.49044 22.5977 8.40706 23.2738L8.40588 23.2744ZM13.0518 14.6187C12.242 15.4985 11.1857 15.6798 10.0148 15.4808C10.0148 15.9222 9.99659 16.3418 10.0183 16.7597C10.0706 17.7627 10.9502 18.5944 11.9414 18.5985C13.0065 18.6032 13.9026 17.8132 13.9672 16.7885C13.996 16.3377 13.9813 15.8846 13.9778 15.4321C13.9778 15.3746 13.9396 15.3001 13.8944 15.2637C13.6231 15.0483 13.3454 14.8417 13.0512 14.6187H13.0518ZM14.5755 14.7707C14.5321 13.7025 14.0805 12.8826 13.1158 12.4084C12.1651 11.9412 11.2403 12.0721 10.4065 12.7018C9.71767 13.2218 9.40763 13.9426 9.42173 14.7901C9.58027 14.7636 9.71709 14.7161 9.84979 14.7249C10.043 14.7378 10.2321 14.8065 10.4252 14.8247C11.3295 14.9092 12.1346 14.7484 12.6748 13.915C12.8868 13.5881 13.3225 13.5969 13.5292 13.9437C13.7728 14.3528 14.0899 14.6445 14.5749 14.7719L14.5755 14.7707ZM2.68896 23.2814C2.76471 21.7678 2.83987 20.2606 2.91562 18.7476C2.29084 18.6824 1.70423 18.6214 1.10236 18.5586C1.03836 19.1361 0.9767 19.6854 0.916807 20.2354C0.845756 20.8868 0.767659 21.5377 0.70894 22.1904C0.654331 22.7961 0.976113 23.2356 1.51692 23.2761C1.89683 23.3049 2.28027 23.2814 2.68896 23.2814ZM21.3107 23.2832C21.7129 23.2832 22.0805 23.2996 22.4457 23.2791C22.8931 23.2538 23.182 22.9897 23.259 22.5454C23.2907 22.3641 23.2913 22.1716 23.2736 21.9879C23.2096 21.3358 23.1321 20.6849 23.0587 20.0335C23.0041 19.5469 22.9472 19.0604 22.8896 18.5551C22.2748 18.6214 21.6818 18.6848 21.0717 18.7505C21.1515 20.2735 21.2302 21.7684 21.3101 23.2832H21.3107ZM16.1504 11.4517C16.1204 11.7587 16.1263 12.0686 16.0535 12.3579C15.9619 12.7218 15.5855 12.7106 15.2984 12.8092C16.3401 14.1186 18.3177 13.8868 19.0558 12.8034C19.0182 12.791 18.9824 12.7734 18.9443 12.7676C18.2966 12.6701 18.2443 12.3168 18.249 11.8497C18.2502 11.7129 18.249 11.5762 18.249 11.4435C17.8715 11.4858 17.5315 11.5533 17.1909 11.5538C16.8433 11.5538 16.4957 11.4881 16.1504 11.4517ZM6.80108 12.9301C7.08411 12.6643 7.32897 12.3996 7.60965 12.1807C7.87036 11.977 7.91499 11.7381 7.83983 11.4165C7.15574 11.6037 6.4652 11.5961 5.71183 11.4124C5.75235 11.6407 5.72475 11.8755 5.82869 11.9952C6.11817 12.3274 6.46227 12.612 6.80108 12.9307V12.9301ZM18.0235 14.3552C18.333 14.5007 18.6166 14.6645 18.9208 14.7689C19.3383 14.9121 19.6025 14.7707 19.7857 14.3645C19.976 13.9431 19.9854 13.493 20.0235 12.963C19.8961 13.0381 19.8127 13.0704 19.7522 13.1262C19.4956 13.3627 19.2672 13.6374 18.9865 13.8393C18.7076 14.0394 18.3782 14.1697 18.0235 14.3552ZM11.2767 20.0088C11.6953 20.2994 12.3201 20.2976 12.7241 20.0012C12.6578 19.7435 12.5955 19.5035 12.5374 19.2764H11.4569C11.3994 19.5111 11.343 19.7394 11.2767 20.0082V20.0088ZM7.82397 13.9267C8.14164 13.52 8.44933 13.1256 8.76524 12.7212C8.62197 12.652 8.51334 12.588 8.39649 12.5475C8.34364 12.5293 8.2538 12.5363 8.21563 12.5704C7.9097 12.8462 7.612 13.132 7.30489 13.4208C7.4787 13.5898 7.64018 13.7471 7.82397 13.9261V13.9267ZM4.85394 12.7459C5.15928 13.1367 5.46756 13.5306 5.77466 13.9232C5.95728 13.7471 6.11935 13.591 6.29492 13.422C6.06591 13.206 5.8463 12.9976 5.62552 12.7899C5.40356 12.5813 5.15752 12.5547 4.88741 12.7101C4.88095 12.7136 4.87684 12.7206 4.85394 12.7459ZM15.3154 14.8575C15.6636 14.6873 15.9948 14.5248 16.3342 14.3587C15.8985 14.1292 15.5127 13.9255 15.1404 13.7295C15.1927 14.067 15.2479 14.425 15.3148 14.8581L15.3154 14.8575ZM13.7887 11.96C13.9261 12.0721 14.0336 12.1683 14.1504 12.2511C14.2021 12.2875 14.279 12.3256 14.3336 12.3133C14.6742 12.237 15.0112 12.146 15.3495 12.0604C15.3864 12.051 15.4229 12.041 15.4593 12.0316L15.4047 11.96H13.7881H13.7887ZM2.88215 5.9348C2.60851 6.0516 2.46935 6.24586 2.49284 6.45245C2.51691 6.66726 2.67487 6.8316 2.89389 6.86153C2.89389 6.58803 2.89389 6.31571 2.89389 6.04397C2.89389 6.01404 2.88802 5.98469 2.88273 5.9348H2.88215ZM10.7224 6.89029C11.0154 6.75002 11.1469 6.55634 11.0988 6.33859C11.0559 6.14315 10.9455 5.99995 10.7224 5.94126V6.89029ZM14.7018 15.6405V16.245C14.9819 16.0713 14.986 15.8688 14.7018 15.6405ZM9.26964 16.2597V15.6493C9.0101 15.8694 9.0101 16.046 9.26964 16.2597Z" fill="#FF9900"/>
</svg>
