<svg width="24" height="24" viewBox="0 0 24 24" fill="none" xmlns="http://www.w3.org/2000/svg">
<g clip-path="url(#clip0_852_17823)">
<path d="M10.0418 0C10.3012 0.111548 10.3793 0.304117 10.3696 0.554807C10.3567 0.897084 10.3664 1.23995 10.3664 1.6198C10.4954 1.6198 10.6039 1.6198 10.7116 1.6198C11.2097 1.6198 11.7079 1.6151 12.2054 1.62157C12.5835 1.62685 12.7306 1.76482 12.7345 2.1112C12.7397 2.57207 12.7358 3.03295 12.7358 3.49382C12.7358 3.57718 12.7358 3.66114 12.7358 3.75977H13.6346C13.6346 3.31358 13.6346 2.87912 13.6346 2.44409C13.6346 1.62978 13.6462 1.61863 14.5451 1.61863C17.0693 1.61863 19.5935 1.61863 22.1178 1.61863C22.7101 1.61863 22.8179 1.71844 22.8179 2.26502C22.8179 9.1317 22.8179 15.999 22.8179 22.8657C22.8179 22.9655 22.8179 23.0659 22.8179 23.195C23.0599 23.195 23.2805 23.191 23.5006 23.1962C23.8032 23.2027 24.0013 23.3641 24 23.596C23.9987 23.8268 23.7987 23.9876 23.4973 23.9988C23.4289 24.0011 23.3599 23.9993 23.2915 23.9993C15.7614 23.9993 8.23194 23.9993 0.701796 23.9988C0.582425 23.9988 0.459182 24.0023 0.343682 23.9794C0.128812 23.9377 -0.0234698 23.7528 0.00298568 23.5678C0.0326674 23.36 0.161075 23.2168 0.400465 23.2033C0.64695 23.1898 0.895374 23.2003 1.18057 23.2003C1.18057 23.08 1.18057 22.9825 1.18057 22.8845C1.18057 17.9863 1.18057 13.0882 1.18057 8.19C1.18057 7.64988 1.29285 7.5477 1.88842 7.5477C3.02149 7.5477 4.15391 7.5477 5.33279 7.5477C5.33279 7.44672 5.33279 7.3575 5.33279 7.26888C5.33279 6.2925 5.3315 5.31558 5.33279 4.33924C5.33344 3.90244 5.46829 3.77856 5.94191 3.77621C6.31812 3.77445 6.69492 3.77621 7.10658 3.77621C7.10658 3.50204 7.10658 3.24782 7.10658 2.99361C7.10658 2.69654 7.10274 2.40005 7.1079 2.10298C7.11372 1.77538 7.26726 1.62802 7.626 1.62274C8.14092 1.61452 8.6565 1.62039 9.17142 1.6198C9.2643 1.6198 9.35658 1.6198 9.47658 1.6198C9.47658 1.26109 9.48822 0.927024 9.47274 0.594143C9.4611 0.338755 9.53598 0.136207 9.78312 0H10.0406H10.0418ZM21.9158 23.1845V2.44409H14.5348V12.3931H15.9704C16.0691 12.0143 16.1905 11.8781 16.4292 11.8688C16.6796 11.8588 16.8164 12.002 16.9286 12.3983H17.7533C17.7668 12.3308 17.7759 12.2698 17.7914 12.2105C17.8475 11.995 18.0333 11.8564 18.245 11.8688C18.4682 11.8817 18.6295 12.0284 18.6554 12.251C18.6663 12.3437 18.6644 12.4382 18.6644 12.5316C18.6644 15.9843 18.6644 19.4371 18.6644 22.8898V23.1839H21.9145L21.9158 23.1845ZM9.4611 23.1833V8.37258H2.08716V23.178H4.14874C4.14874 23.0753 4.14874 22.9907 4.14874 22.9062C4.14874 22.4453 4.14423 21.9844 4.15068 21.5236C4.1552 21.1801 4.30942 21.0416 4.68624 21.0398C5.41603 21.0363 6.1458 21.0357 6.87492 21.0398C7.24146 21.0416 7.40406 21.193 7.4079 21.5318C7.41306 22.0003 7.40856 22.4688 7.40988 22.9379C7.40988 23.0201 7.41822 23.1017 7.42278 23.1833H9.4605H9.4611ZM17.7578 23.1827V13.232H10.3825V23.1827H17.7578ZM10.3664 11.0597C10.3664 11.4554 10.3761 11.8212 10.3625 12.1864C10.3561 12.3613 10.4155 12.4142 10.609 12.4118C11.5189 12.4036 12.4293 12.4007 13.3391 12.413C13.5778 12.4165 13.6391 12.3531 13.6385 12.1388C13.6301 9.70944 13.6333 7.27998 13.6333 4.85119V4.6046H6.24258V7.5495C6.4749 7.5495 6.68844 7.5495 6.90204 7.5495C7.86348 7.5495 8.82492 7.5483 9.78636 7.5495C10.1806 7.5501 10.3058 7.64988 10.369 7.9986C10.3742 8.0274 10.3929 8.0538 10.411 8.09316C10.8181 8.09316 11.2207 8.08902 11.6234 8.0943C11.9479 8.09898 12.1493 8.26104 12.1447 8.49882C12.1402 8.7366 11.9363 8.89158 11.6117 8.8998C11.4659 8.90334 11.3201 8.9004 11.1736 8.9004C10.9117 8.9004 10.649 8.9004 10.3658 8.9004C10.3658 9.30018 10.3761 9.66654 10.3613 10.0318C10.3535 10.2149 10.4297 10.2566 10.6148 10.2513C10.9833 10.2419 11.353 10.2431 11.7215 10.2572C11.966 10.2666 12.1273 10.4239 12.1428 10.6276C12.157 10.8208 12.0008 10.9987 11.7692 11.0416C11.686 11.0568 11.5988 11.0557 11.513 11.0562C11.1446 11.0574 10.7762 11.0568 10.3658 11.0568L10.3664 11.0597ZM8.0067 3.74861H11.8305V2.44761H8.0067V3.74861ZM5.0521 21.8524V23.1809H5.33408C5.33408 22.9813 5.33021 22.7958 5.33472 22.6103C5.34247 22.2921 5.50507 22.1177 5.78382 22.1212C6.05676 22.1248 6.21744 22.3067 6.2226 22.625C6.22584 22.8099 6.2226 22.9948 6.2226 23.198C6.33678 23.191 6.41616 23.1862 6.5007 23.1809V21.8524H5.05145H5.0521Z" fill="#FF9900"/>
<path d="M19.569 12.5379C19.569 12.4363 19.56 12.3341 19.571 12.2337C19.5942 12.0147 19.7471 11.9009 19.9736 11.8721C20.1749 11.8469 20.3969 11.9848 20.4214 12.1821C20.4505 12.4199 20.4505 12.6653 20.4194 12.9024C20.3936 13.1003 20.1717 13.2336 19.9678 13.2066C19.7407 13.1766 19.591 13.0598 19.5703 12.8414C19.5607 12.741 19.5684 12.6395 19.569 12.5379Z" fill="#FF9900"/>
<path d="M19.5684 17.9318C19.5684 17.8303 19.56 17.7281 19.5703 17.6277C19.5929 17.4087 19.7446 17.2942 19.9717 17.2649C20.1756 17.239 20.3956 17.3741 20.4208 17.5725C20.4505 17.8103 20.4505 18.0557 20.4208 18.2935C20.3956 18.4907 20.1737 18.6258 19.9704 18.5999C19.7426 18.5706 19.5935 18.4538 19.571 18.2359C19.5607 18.1355 19.5691 18.0334 19.5697 17.9318H19.5684Z" fill="#FF9900"/>
<path d="M18.6715 7.15598C18.665 7.2605 18.6657 7.3703 18.6496 7.4777C18.6186 7.68614 18.4643 7.79888 18.2501 7.81238C18.034 7.82588 17.8436 7.72898 17.8146 7.52468C17.7804 7.28042 17.7804 7.028 17.8094 6.7832C17.8333 6.57884 18.0166 6.47378 18.234 6.4808C18.4612 6.48848 18.6192 6.6059 18.6508 6.8243C18.6663 6.9323 18.665 7.0421 18.6715 7.15598Z" fill="#FF9900"/>
<path d="M20.4563 7.15691C20.4466 7.27313 20.4518 7.39229 20.4247 7.50503C20.3776 7.70171 20.1743 7.84025 19.973 7.81445C19.7471 7.78511 19.5878 7.67237 19.5716 7.45217C19.5574 7.25789 19.5568 7.06175 19.5684 6.86747C19.582 6.63851 19.7639 6.47939 19.9936 6.47471C20.2182 6.46997 20.4118 6.62735 20.4408 6.85157C20.4537 6.95141 20.4427 7.05413 20.4427 7.15571C20.4472 7.15571 20.4511 7.15571 20.4556 7.15571L20.4563 7.15691Z" fill="#FF9900"/>
<path d="M16.8996 7.15637C16.8893 7.27259 16.8931 7.39175 16.8661 7.50449C16.8183 7.70177 16.6176 7.84031 16.4156 7.81451C16.1898 7.78571 16.0311 7.67243 16.015 7.45223C16.0007 7.25789 15.9995 7.06181 16.0117 6.86747C16.0259 6.63677 16.2059 6.47945 16.4363 6.47471C16.6589 6.47003 16.8532 6.62855 16.8835 6.85163C16.897 6.95147 16.886 7.05419 16.886 7.15577C16.8905 7.15577 16.8951 7.15577 16.9003 7.15637H16.8996Z" fill="#FF9900"/>
<path d="M19.5677 9.85023C19.5677 9.74865 19.5587 9.64707 19.5697 9.54669C19.5929 9.33297 19.7252 9.20439 19.9627 9.18213C20.1923 9.16041 20.3975 9.28485 20.4259 9.49857C20.455 9.72105 20.455 9.95061 20.4298 10.1737C20.4059 10.388 20.2052 10.5166 19.9781 10.5066C19.7491 10.4966 19.591 10.3551 19.5684 10.1309C19.5593 10.0381 19.5671 9.94419 19.5671 9.85023H19.5684H19.5677Z" fill="#FF9900"/>
<path d="M19.569 15.2318C19.569 15.1308 19.5587 15.028 19.5709 14.9283C19.598 14.7134 19.7387 14.5895 19.9755 14.5754C20.2142 14.5613 20.3891 14.674 20.4214 14.8813C20.4569 15.1102 20.4536 15.3486 20.4259 15.5788C20.4001 15.7924 20.1949 15.9169 19.9646 15.897C19.7258 15.8764 19.5935 15.7485 19.5697 15.5347C19.558 15.4344 19.5677 15.3322 19.5677 15.2312H19.569V15.2318Z" fill="#FF9900"/>
<path d="M20.4382 4.46798C20.4382 4.56897 20.4524 4.6723 20.435 4.77093C20.3975 4.98581 20.2143 5.11966 19.9885 5.11379C19.7587 5.10792 19.5877 4.9676 19.571 4.74627C19.5561 4.55253 19.5568 4.35644 19.5697 4.16211C19.5845 3.93784 19.7491 3.79634 19.9781 3.78578C20.215 3.77462 20.404 3.91435 20.4382 4.14097C20.4543 4.24783 20.4407 4.35878 20.4407 4.46798H20.4382Z" fill="#FF9900"/>
<path d="M20.4556 20.6399C20.4466 20.7561 20.4544 20.8759 20.424 20.988C20.3679 21.1953 20.2105 21.3056 19.9723 21.291C19.7349 21.2763 19.5904 21.1506 19.5716 20.9358C19.5548 20.742 19.5562 20.546 19.5677 20.3516C19.582 20.1162 19.7542 19.9694 19.993 19.9659C20.2279 19.9623 20.4092 20.1074 20.4395 20.3363C20.4524 20.4362 20.4415 20.5389 20.4415 20.6399H20.455H20.4556Z" fill="#FF9900"/>
<path d="M16.0149 4.45488C16.0149 4.34568 16.0027 4.2353 16.0175 4.12787C16.0465 3.92414 16.1827 3.80555 16.4085 3.78911C16.6324 3.77208 16.8202 3.86367 16.8512 4.06328C16.8899 4.31397 16.8925 4.57641 16.8544 4.8271C16.8228 5.03669 16.6305 5.13415 16.3943 5.11008C16.1698 5.08718 16.0401 4.96213 16.0156 4.75899C16.0033 4.65919 16.0136 4.55645 16.0136 4.45547H16.0156L16.0149 4.45488Z" fill="#FF9900"/>
<path d="M16.0136 9.83545C16.0136 9.73447 16.0033 9.63175 16.0156 9.53197C16.0408 9.32821 16.1711 9.20491 16.3969 9.18379C16.6337 9.16147 16.8228 9.25897 16.8557 9.46915C16.8938 9.71221 16.8938 9.96697 16.8583 10.2106C16.8273 10.4202 16.6427 10.523 16.4053 10.5042C16.1801 10.4866 16.0453 10.3656 16.0175 10.1625C16.0027 10.055 16.0149 9.94471 16.0149 9.83545H16.0136Z" fill="#FF9900"/>
<path d="M18.6708 4.46919C18.6644 4.57017 18.6663 4.67232 18.6508 4.77213C18.6192 4.97586 18.4837 5.09503 18.2598 5.11089C18.0223 5.12791 17.8417 5.02341 17.8107 4.81264C17.7758 4.57663 17.7765 4.33063 17.8075 4.09403C17.8358 3.88209 18.0139 3.77524 18.2507 3.78816C18.4882 3.80107 18.6282 3.92613 18.6527 4.14159C18.665 4.24962 18.6547 4.3594 18.6547 4.46802C18.6598 4.46802 18.6656 4.46802 18.6708 4.46802V4.46919Z" fill="#FF9900"/>
<path d="M18.6701 9.8506C18.6644 9.94978 18.6663 10.0596 18.6495 10.167C18.6179 10.3707 18.4824 10.4894 18.2572 10.504C18.0197 10.5199 17.8397 10.4154 17.8094 10.2046C17.7752 9.96856 17.7752 9.72262 17.8075 9.48598C17.8365 9.27466 18.0146 9.1678 18.2521 9.1819C18.4895 9.19594 18.6256 9.32278 18.6534 9.5371C18.6663 9.63748 18.6644 9.73966 18.6701 9.8506Z" fill="#FF9900"/>
<path d="M4.42815 13.612C4.42815 13.7212 4.43912 13.8315 4.42557 13.939C4.39976 14.1462 4.25006 14.2636 4.03454 14.2824C3.8158 14.3018 3.62158 14.2049 3.59061 14.0053C3.55125 13.7546 3.55189 13.4922 3.58609 13.2403C3.61384 13.0396 3.80483 12.9374 4.02228 12.9515C4.24941 12.9661 4.40363 13.0883 4.42815 13.3073C4.43912 13.4077 4.43009 13.5098 4.43009 13.6114H4.4288L4.42815 13.612Z" fill="#FF9900"/>
<path d="M5.32822 13.6051C5.33467 13.5023 5.33402 13.3925 5.35015 13.2851C5.38177 13.0767 5.53663 12.9645 5.75086 12.9522C5.96702 12.9399 6.15671 13.0379 6.18509 13.2416C6.21869 13.4858 6.21803 13.7389 6.18899 13.9831C6.16445 14.188 5.97992 14.292 5.76312 14.2837C5.53599 14.2755 5.3779 14.1575 5.34822 13.9385C5.33338 13.8305 5.33467 13.7207 5.32822 13.6051Z" fill="#FF9900"/>
<path d="M7.9854 13.6262C7.9854 13.7278 7.99506 13.8299 7.98342 13.9303C7.95828 14.1493 7.80342 14.2702 7.57626 14.2843C7.35882 14.2972 7.17108 14.1962 7.1427 13.9931C7.1085 13.7489 7.1091 13.4953 7.14012 13.2505C7.16592 13.0467 7.35042 12.9528 7.56852 12.9493C7.77888 12.9463 7.95636 13.099 7.98216 13.2986C7.99572 13.406 7.98474 13.5164 7.98474 13.6256H7.986L7.9854 13.6262Z" fill="#FF9900"/>
<path d="M4.42817 19.0293C4.42817 19.1309 4.43914 19.233 4.42559 19.3329C4.39849 19.5395 4.25137 19.6575 4.03521 19.6763C3.81582 19.6957 3.62225 19.5982 3.59127 19.3998C3.55191 19.1491 3.55256 18.8866 3.58611 18.6348C3.61322 18.4334 3.80486 18.3324 4.02166 18.3459C4.24814 18.3606 4.40365 18.4821 4.42752 18.7011C4.43914 18.8092 4.42946 18.9195 4.42946 19.0287H4.42752L4.42817 19.0293Z" fill="#FF9900"/>
<path d="M5.32764 19.0151C5.33473 18.9 5.33409 18.7902 5.34958 18.6822C5.37991 18.4738 5.53283 18.3622 5.7477 18.3464C5.95289 18.3311 6.14904 18.421 6.1755 18.61C6.21294 18.8759 6.21354 19.1536 6.17358 19.4184C6.1452 19.6051 5.94966 19.6943 5.74189 19.6773C5.53735 19.6603 5.38894 19.5546 5.35409 19.3591C5.33344 19.2446 5.33603 19.126 5.32829 19.0151H5.32764Z" fill="#FF9900"/>
<path d="M7.98474 19.0028C7.98474 19.112 7.99572 19.2224 7.98216 19.3299C7.95702 19.53 7.78086 19.6815 7.56984 19.6798C7.34982 19.678 7.16916 19.5823 7.14012 19.3797C7.10658 19.1425 7.10652 18.8971 7.1343 18.6594C7.15752 18.4597 7.37172 18.3288 7.57632 18.3406C7.79892 18.3535 7.96536 18.5032 7.98732 18.7216C7.99698 18.8143 7.98864 18.9089 7.98864 19.0023C7.98732 19.0023 7.986 19.0028 7.98474 19.0028Z" fill="#FF9900"/>
<path d="M4.42943 10.9284C4.42943 11.0299 4.43975 11.1321 4.42749 11.2319C4.40168 11.4409 4.24101 11.5771 4.02098 11.5842C3.78094 11.5918 3.60866 11.482 3.57704 11.2741C3.54284 11.0452 3.54542 10.8068 3.57381 10.5767C3.60027 10.3624 3.80675 10.2385 4.03646 10.2603C4.27456 10.2825 4.40619 10.4111 4.42943 10.6248C4.44039 10.7252 4.43136 10.8274 4.43136 10.9284H4.42943Z" fill="#FF9900"/>
<path d="M4.43006 16.318C4.43006 16.4195 4.44038 16.5217 4.42812 16.6215C4.40102 16.8358 4.26293 16.9614 4.02548 16.9761C3.78739 16.9902 3.60929 16.8804 3.57897 16.6714C3.54477 16.4348 3.54477 16.1876 3.58155 15.9516C3.61381 15.7438 3.79448 15.6352 4.03258 15.6533C4.27003 15.6715 4.40489 15.8001 4.42941 16.0144C4.44103 16.1148 4.43135 16.217 4.43135 16.318H4.4307H4.43006Z" fill="#FF9900"/>
<path d="M7.9848 16.3294C7.9848 16.4304 7.99644 16.5331 7.98222 16.6329C7.95384 16.8361 7.82088 16.9576 7.59504 16.9758C7.35828 16.9946 7.1718 16.8948 7.14078 16.684C7.10466 16.4403 7.10466 16.1856 7.14276 15.9425C7.17564 15.7329 7.36344 15.6331 7.6002 15.6554C7.82478 15.6765 7.95768 15.7992 7.98222 16.003C7.99578 16.1104 7.9848 16.2208 7.98414 16.33L7.9848 16.3294Z" fill="#FF9900"/>
<path d="M7.98409 10.9168C7.98409 11.026 7.99705 11.1364 7.98157 11.2432C7.95253 11.4463 7.81573 11.5656 7.59049 11.5825C7.36597 11.5996 7.17883 11.5062 7.14787 11.3078C7.10917 11.0571 7.10917 10.7953 7.14463 10.544C7.17241 10.3444 7.35499 10.2475 7.58017 10.2598C7.80541 10.2721 7.94473 10.3872 7.98025 10.5904C7.99897 10.6972 7.99381 10.8076 7.99897 10.9168C7.99381 10.9168 7.98925 10.9168 7.98409 10.9168Z" fill="#FF9900"/>
<path d="M5.32822 16.2904C5.33467 16.1895 5.33338 16.0873 5.34951 15.9875C5.38306 15.7837 5.51986 15.6675 5.74505 15.6528C5.97024 15.6382 6.15413 15.7345 6.18317 15.9335C6.21995 16.1842 6.21929 16.446 6.18317 16.6967C6.15413 16.8963 5.96896 16.9903 5.74441 16.9756C5.51986 16.9609 5.38112 16.8447 5.35015 16.6404C5.33273 16.5253 5.33531 16.4073 5.32886 16.2904H5.32822Z" fill="#FF9900"/>
<path d="M6.23226 10.9662C6.22128 11.0537 6.2232 11.1893 6.18318 11.3138C6.11994 11.5099 5.95606 11.6015 5.73151 11.5821C5.51858 11.5639 5.37469 11.4529 5.3534 11.2598C5.33081 11.0513 5.33017 10.8394 5.345 10.6304C5.36114 10.4032 5.52697 10.2664 5.75603 10.2582C5.98639 10.25 6.15996 10.375 6.20514 10.5958C6.22644 10.702 6.22188 10.8118 6.23226 10.9662Z" fill="#FF9900"/>
<path d="M16.2931 18.1874C16.2931 19.381 16.2931 20.5752 16.2931 21.7688C16.2931 21.8621 16.2944 21.9572 16.277 22.0488C16.2415 22.2419 16.1079 22.3511 15.895 22.3694C15.6827 22.3875 15.5233 22.3042 15.4517 22.1216C15.4149 22.0288 15.4072 21.9231 15.4072 21.8234C15.4046 19.4121 15.4052 17.0009 15.4072 14.5903C15.4072 14.4975 15.4142 14.4018 15.442 14.3138C15.5046 14.1141 15.6698 14.0161 15.8872 14.0331C16.1021 14.0496 16.2518 14.1647 16.2808 14.3725C16.2937 14.4647 16.2937 14.5592 16.2937 14.6525C16.2944 15.8309 16.2937 17.0091 16.2937 18.1874H16.2931Z" fill="#FF9900"/>
<path d="M12.7364 18.2156C12.7364 19.4015 12.7364 20.5874 12.7364 21.7734C12.7364 21.8667 12.7384 21.9618 12.721 22.0534C12.6854 22.2342 12.5615 22.3428 12.3596 22.3669C12.148 22.3928 11.9828 22.3176 11.9041 22.1385C11.8608 22.0411 11.8525 21.926 11.8518 21.8186C11.8492 19.4073 11.8492 16.9967 11.8518 14.5856C11.8518 14.4781 11.8621 14.3636 11.9047 14.2656C11.9776 14.0953 12.1396 14.0137 12.3358 14.0331C12.5403 14.0531 12.6861 14.1593 12.7216 14.3542C12.7384 14.4458 12.7364 14.5409 12.7371 14.6343C12.7377 15.8279 12.7371 17.022 12.7371 18.2156H12.7364Z" fill="#FF9900"/>
<path d="M13.6346 18.1903C13.6346 17.0044 13.6346 15.8185 13.6346 14.6319C13.6346 14.5386 13.6321 14.4435 13.6495 14.3519C13.6856 14.157 13.832 14.0513 14.0366 14.0319C14.2328 14.0131 14.3947 14.0953 14.467 14.2656C14.509 14.3642 14.5186 14.4787 14.5186 14.5855C14.5212 16.9968 14.5212 19.408 14.5186 21.8192C14.5186 21.9266 14.5096 22.0417 14.4664 22.1392C14.387 22.3188 14.2211 22.3922 14.0102 22.3663C13.8076 22.3417 13.6843 22.2325 13.6495 22.0517C13.6321 21.9607 13.6346 21.865 13.6346 21.7716C13.634 20.5775 13.6346 19.3845 13.6346 18.1903Z" fill="#FF9900"/>
<path d="M9.92958 5.93508C10.4962 5.93508 11.0627 5.93508 11.6285 5.93508C11.877 5.93508 12.0635 6.01842 12.128 6.25506C12.1996 6.5175 11.9848 6.7347 11.6324 6.74172C11.2375 6.74994 10.8427 6.74412 10.4484 6.74412C9.71862 6.74412 8.98944 6.74412 8.25966 6.74412C8.05062 6.74412 7.86606 6.70008 7.75896 6.51864C7.5996 6.24858 7.80738 5.94682 8.17902 5.93919C8.76234 5.92686 9.34632 5.93508 9.92958 5.93508Z" fill="#FF9900"/>
</g>
<defs>
<clipPath id="clip0_852_17823">
<rect width="24" height="24" fill="white"/>
</clipPath>
</defs>
</svg>
