<svg width="40" height="40" viewBox="0 0 40 40" fill="none" xmlns="http://www.w3.org/2000/svg">
<path d="M40 36.5516V37.6452C39.954 37.7782 39.9041 37.9103 39.863 38.0453C39.5312 39.1359 38.8051 39.7737 37.6757 39.9468C37.5348 39.9684 37.3909 39.984 37.248 39.984C35.4903 39.9869 33.7317 39.9889 31.974 39.985C31.5239 39.984 31.2469 39.7414 31.2577 39.3854C31.2684 39.0411 31.5327 38.821 31.9642 38.817C32.6415 38.8112 33.3187 38.817 33.9959 38.8141C34.1075 38.8141 34.2191 38.7994 34.3453 38.7906C34.1838 35.7397 34.0253 32.725 33.8648 29.7112C33.8335 29.1135 33.7894 28.5159 33.7679 27.9182C33.7532 27.4995 33.992 27.2256 34.3404 27.2217C34.68 27.2178 34.9032 27.4506 34.9306 27.8614C34.9668 28.3936 34.9873 28.9267 35.0186 29.4598C35.0304 29.6613 35.0539 29.8618 35.0725 30.076C36.0824 29.9675 37.0356 29.8638 38.0349 29.7562C37.8186 27.9495 37.6277 26.1809 37.386 24.4192C37.2842 23.6778 36.8605 23.0782 36.2097 22.7045C35.6988 22.411 35.139 22.2056 34.6007 21.9611C34.4608 22.6761 34.3786 23.31 34.2093 23.9204C33.7278 25.6537 32.3949 26.2885 30.736 25.6009C30.4963 25.5021 30.2584 25.3896 30.0412 25.2497C29.5626 24.9416 29.0978 24.6119 28.6123 24.2813C27.7991 24.9475 26.931 25.5353 25.8721 25.8161C25.8936 25.8924 25.9103 25.952 25.9279 26.0107C26.2117 26.939 25.8437 27.8253 24.9492 28.2048C24.5499 28.374 24.3748 28.6098 24.2563 29.0206C23.953 30.0692 23.3119 30.8997 22.3685 31.4631C22.0436 31.6578 22.1268 31.9317 22.1561 32.1791C22.1679 32.276 22.3793 32.3855 22.5173 32.4237C23.2062 32.6144 23.9089 32.7572 24.592 32.9656C25.6744 33.2962 26.4446 33.9741 26.6844 35.1156C26.8204 35.7622 26.8654 36.4283 26.9486 37.0857C27.021 37.6589 27.0886 38.2341 27.16 38.817C27.7374 38.817 28.2581 38.817 28.7777 38.817C29.4021 38.817 29.6947 39.0127 29.682 39.4196C29.6703 39.8099 29.3874 39.9889 28.7807 39.9889C22.8295 39.9889 16.8782 39.9889 10.9261 39.9889C10.7959 39.9889 10.6628 39.9977 10.5365 39.9742C10.2116 39.9146 10.0228 39.7091 10.0345 39.3795C10.0453 39.0694 10.2332 38.8777 10.5444 38.8298C10.6716 38.8102 10.8037 38.819 10.9339 38.818C11.5563 38.818 12.1787 38.818 12.8256 38.818C12.8481 38.6459 12.8667 38.507 12.8843 38.3671C13.0077 37.3605 13.1153 36.3511 13.2572 35.3474C13.4011 34.3311 13.9413 33.5593 14.8994 33.1906C15.7195 32.8746 16.5905 32.6907 17.4341 32.4335C17.5858 32.3875 17.8138 32.2877 17.8354 32.1791C17.8872 31.917 17.9156 31.649 17.5829 31.4475C16.5935 30.8508 15.9505 29.9636 15.6618 28.8475C15.5796 28.5286 15.4337 28.3867 15.1372 28.2684C13.9149 27.7803 13.587 26.3639 14.3582 25.4874C14.4375 25.3964 14.505 25.2654 14.5148 25.148C14.5686 24.4545 14.6038 23.759 14.645 23.0596C14.4277 23.3364 14.2036 23.6347 13.9658 23.9223C13.4852 24.5034 12.7767 24.5591 12.214 24.0691C12.1396 24.0045 12.0662 23.939 11.9243 23.8147C11.9243 24.0241 11.9243 24.1483 11.9243 24.2725C11.9243 25.0013 11.9302 25.73 11.9213 26.4597C11.9155 26.9292 11.7002 27.1826 11.3351 27.1865C10.9691 27.1894 10.7567 26.9361 10.7538 26.4685C10.7479 25.7007 10.7538 24.9328 10.7509 24.1649C10.7509 24.071 10.7313 23.9781 10.7186 23.8587C10.6491 23.9037 10.6139 23.9213 10.5855 23.9458C9.82311 24.6149 9.19677 24.5591 8.56749 23.7619C8.07621 23.1388 7.581 22.5167 7.10342 21.8828C6.97424 21.7116 6.85582 21.6588 6.64737 21.7156C6.10813 21.8623 5.5591 21.9728 5.02182 22.1254C3.57047 22.5353 2.64662 23.4156 2.4959 24.9837C2.40097 25.9677 2.28353 26.9488 2.1749 27.9319C2.10835 28.5344 2.04181 29.136 1.97232 29.766C2.98621 29.8726 3.95312 29.9743 4.95625 30.079C4.96799 29.8755 4.97778 29.7092 4.98659 29.5429C5.01595 28.9707 5.03454 28.3985 5.07662 27.8272C5.105 27.4359 5.36826 27.2022 5.70786 27.2286C6.03179 27.253 6.23144 27.4966 6.24122 27.8791C6.2422 27.9309 6.24122 27.9837 6.23829 28.0356C6.0954 30.7256 5.95154 33.4155 5.80964 36.1055C5.76266 36.9976 5.71862 37.8888 5.67067 38.819C6.39683 38.819 7.07112 38.8141 7.74542 38.821C8.18288 38.8249 8.43244 39.0381 8.43929 39.3922C8.44614 39.7502 8.19756 39.986 7.76989 39.9879C6.08953 39.9938 4.40918 40.0153 2.7298 39.9811C1.08566 39.9439 0.0179431 38.8366 0.000327238 37.1913C-0.00456605 36.7766 0.0463241 36.3608 0.092321 35.9471C0.500421 32.2887 0.918308 28.6313 1.32054 24.9729C1.46146 23.6876 1.9185 22.592 2.99208 21.7967C3.68106 21.2861 4.48453 21.0866 5.28312 20.8508C6.08953 20.6122 6.88127 20.3217 7.6867 20.081C8.27781 19.9049 8.50486 19.5557 8.41776 18.9385C8.38155 18.6822 8.3287 18.5238 8.09578 18.3868C6.1091 17.2179 5.05607 15.4542 4.85838 13.177C4.83 12.8523 4.72528 12.7193 4.42092 12.6146C3.31895 12.236 2.67989 11.0534 3.10658 10.0713C3.32189 9.57636 3.34244 9.10195 3.34538 8.59917C3.34733 8.31256 3.34538 8.02595 3.35125 7.74032C3.40899 4.54462 5.62369 1.49466 8.65851 0.481264C9.29561 0.267043 9.96501 0.157487 10.6197 0C11.0885 0 11.5573 0 12.0261 0C12.1259 0.0244545 12.2238 0.0596689 12.3246 0.0704288C15.5032 0.401053 18.401 2.92769 19.0567 6.06177C19.2701 7.08103 19.2349 8.15214 19.319 9.19879C19.3327 9.36312 19.3278 9.55485 19.41 9.68494C20.0403 10.6837 19.6214 12.1186 18.2014 12.6361C17.9156 12.7408 17.8334 12.8699 17.8138 13.1536C17.6739 15.2743 16.753 16.9929 14.9611 18.1305C14.3435 18.5228 14.23 18.9385 14.2985 19.542C14.3083 19.632 14.3494 19.7651 14.415 19.7964C14.918 20.036 15.424 20.2757 15.9466 20.4664C16.0875 20.5183 16.3312 20.4557 16.4555 20.3559C17.1679 19.7827 17.9469 19.3415 18.8532 19.2016C19.501 19.1009 20.1636 19.0911 20.8066 19.0422C20.7811 18.9375 20.7195 18.7761 20.7068 18.6108C20.6451 17.8332 20.5942 17.0536 20.5463 16.2749C20.42 14.2364 20.2869 12.1969 20.1744 10.1574C20.0853 8.55026 20.1626 6.95485 20.7038 5.41911C21.1814 4.06237 21.9741 2.98149 23.3932 2.47283C23.5292 2.42393 23.6574 2.30948 23.7504 2.19405C24.3943 1.39195 25.1988 0.804062 26.1677 0.476373C26.7764 0.270955 27.4174 0.15553 28.0447 0C28.5654 0 29.087 0 29.6076 0C29.9903 0.0645598 30.3808 0.098796 30.7536 0.200527C33.0486 0.826561 34.7945 2.17449 35.9748 4.24138C36.4426 5.06109 36.7567 5.9395 36.9123 6.8717C36.9779 7.26493 36.8194 7.55936 36.4954 7.64153C36.1578 7.72663 35.8769 7.52317 35.7702 7.11429C35.7409 7.00082 35.7233 6.8854 35.6959 6.77193C35.1508 4.56222 33.8599 2.91301 31.8703 1.84093C30.4992 1.10339 29.0058 1.04567 27.4977 1.30685C26.3125 1.51226 25.3319 2.07178 24.5783 3.03235C24.4061 3.25146 24.1448 3.45003 23.8835 3.54101C23.0859 3.81881 22.5251 4.3392 22.1327 5.06305C21.5396 6.15568 21.3517 7.35394 21.3399 8.56786C21.3282 9.80232 21.4163 11.0378 21.4828 12.2722C21.5895 14.2472 21.7099 16.2211 21.8332 18.1951C21.8616 18.6509 21.9614 18.7311 22.4155 18.7331C23.4049 18.736 24.3953 18.735 25.3847 18.7331C25.4816 18.7331 25.5795 18.7204 25.6764 18.7125C25.6901 18.6803 25.7048 18.647 25.7185 18.6147C25.558 18.5081 25.3994 18.4005 25.2379 18.2958C23.4372 17.125 22.3499 15.4934 22.1924 13.3384C22.0974 12.0433 22.1405 10.7375 22.1395 9.43649C22.1395 8.74687 22.4018 8.41429 23.081 8.2392C23.9764 8.00932 24.729 7.55643 25.372 6.89811C25.9416 6.31512 26.5151 6.34055 27.0348 6.96072C27.9381 8.03867 29.0537 8.82904 30.3318 9.39834C31.4867 9.91286 32.7041 10.1623 33.9617 10.2308C34.7544 10.2748 35.1537 10.6817 35.1635 11.4623C35.1684 11.879 35.1684 12.2957 35.1615 12.7114C35.1185 15.2195 34.0087 17.1142 31.8713 18.4171C31.7715 18.4778 31.6795 18.5512 31.4857 18.6861C31.7127 18.7116 31.8096 18.7311 31.9065 18.7311C32.8832 18.7331 33.8599 18.735 34.8366 18.7311C35.277 18.7292 35.3758 18.6323 35.4013 18.1785C35.5569 15.4249 35.7096 12.6703 35.8622 9.91579C35.8857 9.49713 36.1216 9.22618 36.4622 9.23205C36.8076 9.23889 37.0278 9.50887 37.0308 9.9334C37.0308 10.0899 37.0308 10.2464 37.021 10.4019C36.8712 13.0137 36.7195 15.6244 36.5708 18.2352C36.5082 19.3376 35.9307 19.8971 34.8317 19.901C33.8814 19.9049 32.9302 19.901 31.9799 19.903C31.8527 19.903 31.7264 19.9235 31.5992 19.9343C31.5963 19.9724 31.5943 20.0106 31.5914 20.0487C31.7088 20.0859 31.8253 20.128 31.9447 20.1593C33.2267 20.4958 34.5254 20.7775 35.7869 21.1785C37.2099 21.6305 38.1631 22.6077 38.5007 24.0906C38.6446 24.7215 38.7033 25.373 38.7767 26.0186C39.085 28.7066 39.3805 31.3956 39.6878 34.0827C39.7818 34.9063 39.8943 35.728 39.998 36.5506L40 36.5516ZM16.6796 11.7949C16.6796 10.9752 16.6903 10.3892 16.6718 9.80428C16.6678 9.66831 16.6042 9.48735 16.5044 9.41007C15.7616 8.84077 15.4024 8.07193 15.329 7.16613C15.2997 6.79443 15.1548 6.69954 14.8074 6.75432C12.4997 7.11723 10.1911 7.04777 7.88341 6.75432C7.4528 6.69954 7.37842 6.76312 7.3383 7.1857C7.25511 8.0641 6.92237 8.81339 6.20697 9.36801C6.11498 9.43942 6.00537 9.56658 6.00537 9.66636C6.01711 10.9918 5.94078 12.3299 6.09638 13.6397C6.36649 15.9032 8.32968 17.7657 10.5444 18.0405C13.0067 18.3457 15.2997 17.0761 16.2333 14.8967C16.6923 13.8246 16.6943 12.6948 16.6796 11.7949ZM26.1657 7.76478C25.3994 8.53754 24.5421 9.06184 23.5351 9.32008C23.31 9.37779 23.3002 9.5167 23.2992 9.6957C23.2953 10.6064 23.2718 11.518 23.2836 12.4287C23.3139 14.7098 24.2671 16.4598 26.3145 17.5475C28.1025 18.4974 30.7047 18.1227 32.161 16.7895C33.7601 15.3251 34.1741 13.4969 33.9499 11.4114C30.8916 11.2373 28.2659 10.0977 26.1647 7.76576L26.1657 7.76478ZM18.1397 8.66177C18.2435 6.03927 17.348 3.92347 15.1685 2.37795C13.0576 0.88036 10.0629 0.743415 7.79729 2.17351C5.43089 3.66719 4.40624 5.8769 4.52857 8.78013C4.96016 8.59036 5.36435 8.48276 5.67947 8.25387C6.05528 7.98096 6.13064 7.51828 6.17272 7.06538C6.2745 5.9933 6.84603 5.51008 7.91668 5.59714C8.49996 5.64409 9.08031 5.72332 9.66359 5.78201C11.3596 5.95319 13.0429 5.79668 14.7252 5.5942C15.7508 5.47095 16.383 5.9796 16.479 6.99593C16.5837 8.09932 16.9947 8.52189 18.1378 8.65981L18.1397 8.66177ZM14.0098 38.7906H15.6285C15.6285 38.5862 15.6236 38.4062 15.6295 38.2272C15.6354 38.0453 15.6471 37.8633 15.6667 37.6824C15.7166 37.2079 15.9329 36.9849 16.3057 37.0152C16.6698 37.0446 16.8528 37.3146 16.8293 37.7851C16.8127 38.1176 16.799 38.4502 16.7833 38.7848H23.1837C23.1837 38.3769 23.1779 37.9993 23.1857 37.6237C23.1935 37.2617 23.3932 37.0309 23.7122 37.0162C24.0479 37.0006 24.2583 37.1678 24.319 37.4965C24.3542 37.6872 24.3571 37.8839 24.3708 38.0775C24.3875 38.3182 24.4012 38.5588 24.4159 38.7906H25.9739C25.8398 37.6775 25.7165 36.5936 25.5746 35.5128C25.4846 34.8251 25.0628 34.3761 24.4315 34.1551C23.906 33.9712 23.357 33.8528 22.8128 33.7256C22.7247 33.7051 22.5838 33.7589 22.5163 33.8264C21.156 35.2076 18.863 35.2164 17.487 33.8352C17.4136 33.7618 17.256 33.7119 17.1562 33.7335C16.6492 33.8459 16.1413 33.9643 15.6481 34.1228C14.9806 34.338 14.5207 34.7752 14.4228 35.4981C14.275 36.579 14.1507 37.6628 14.0118 38.7897L14.0098 38.7906ZM21.7529 24.3645C20.4034 25.8308 18.6428 26.133 16.6913 25.8014C16.6913 26.537 16.661 27.2364 16.6972 27.9329C16.7843 29.6046 18.2503 30.9906 19.9023 30.9975C21.6776 31.0053 23.171 29.6887 23.2787 27.9808C23.3266 27.2295 23.3022 26.4744 23.2963 25.7202C23.2963 25.6244 23.2327 25.5001 23.1573 25.4395C22.7052 25.0805 22.2423 24.7362 21.752 24.3645H21.7529ZM24.2926 24.6178C24.2201 22.8375 23.4675 21.471 21.8596 20.6806C20.2752 19.902 18.7338 20.1201 17.3441 21.1697C16.1961 22.0364 15.6794 23.2376 15.7029 24.6501C15.9671 24.6061 16.1951 24.5268 16.4163 24.5415C16.7383 24.563 17.0534 24.6775 17.3754 24.7078C18.8825 24.8487 20.2243 24.5806 21.1246 23.1916C21.4779 22.6468 22.2041 22.6615 22.5486 23.2396C22.9547 23.9213 23.4832 24.4075 24.2916 24.6198L24.2926 24.6178ZM4.4816 38.8024C4.60785 36.2797 4.73311 33.7677 4.85936 31.2459C3.81807 31.1374 2.84039 31.0356 1.83727 30.931C1.73059 31.8935 1.62783 32.8091 1.52801 33.7256C1.40959 34.8114 1.27943 35.8962 1.18157 36.9839C1.09055 37.9934 1.62686 38.7261 2.5282 38.7936C3.16139 38.8415 3.80045 38.8024 4.4816 38.8024ZM35.5178 38.8053C36.1881 38.8053 36.8008 38.8327 37.4095 38.7985C38.1552 38.7564 38.6367 38.3162 38.7649 37.5757C38.8178 37.2735 38.8188 36.9526 38.7894 36.6465C38.6827 35.5597 38.5535 34.4749 38.4312 33.3891C38.3402 32.5782 38.2453 31.7673 38.1494 30.9251C37.1247 31.0356 36.1363 31.1413 35.1194 31.2508C35.2525 33.7892 35.3837 36.2806 35.5168 38.8053H35.5178ZM26.9173 19.0862C26.8674 19.5978 26.8772 20.1143 26.7558 20.5965C26.6032 21.203 25.9758 21.1844 25.4973 21.3487C27.2334 23.5311 30.5295 23.1447 31.7597 21.339C31.6971 21.3184 31.6374 21.2891 31.5738 21.2793C30.4943 21.1169 30.4072 20.528 30.415 19.7494C30.417 19.5215 30.415 19.2936 30.415 19.0725C29.7858 19.1429 29.2191 19.2554 28.6515 19.2564C28.0721 19.2564 27.4928 19.1469 26.9173 19.0862ZM11.3351 21.5502C11.8068 21.1071 12.2149 20.666 12.6827 20.3011C13.1173 19.9617 13.1916 19.5636 13.0664 19.0275C11.9262 19.3396 10.7753 19.3268 9.51972 19.0207C9.58725 19.4012 9.54126 19.7925 9.71448 19.992C10.197 20.5457 10.7704 21.0201 11.3351 21.5512V21.5502ZM30.0392 23.9253C30.555 24.1678 31.0277 24.4408 31.5346 24.6149C32.2304 24.8536 32.6708 24.6178 32.9762 23.9409C33.2933 23.2386 33.3089 22.4883 33.3725 21.605C33.1602 21.7302 33.0212 21.784 32.9204 21.877C32.4927 22.2712 32.112 22.7289 31.6442 23.0654C31.1794 23.399 30.6303 23.6162 30.0392 23.9253ZM18.7945 33.3481C19.4922 33.8323 20.5335 33.8293 21.2068 33.3353C21.0963 32.9059 20.9925 32.5058 20.8956 32.1273H19.0949C18.999 32.5186 18.905 32.8991 18.7945 33.3471V33.3481ZM13.04 23.2112C13.5694 22.5333 14.0822 21.876 14.6087 21.202C14.3699 21.0866 14.1889 20.98 13.9941 20.9125C13.9061 20.8821 13.7563 20.8939 13.6927 20.9506C13.1828 21.4104 12.6867 21.8867 12.1748 22.368C12.4645 22.6497 12.7336 22.9119 13.04 23.2102V23.2112ZM8.08991 21.2431C8.59881 21.8946 9.1126 22.5509 9.62444 23.2053C9.9288 22.9119 10.1989 22.6517 10.4915 22.37C10.1099 22.01 9.74384 21.6627 9.37586 21.3165C9.00593 20.9689 8.59587 20.9245 8.14569 21.1834C8.13493 21.1893 8.12807 21.201 8.08991 21.2431ZM25.5257 24.7626C26.106 24.4789 26.658 24.208 27.2236 23.9311C26.4975 23.5487 25.8545 23.2092 25.234 22.8825C25.3211 23.445 25.4131 24.0417 25.5247 24.7636L25.5257 24.7626ZM22.9812 19.9333C23.2102 20.1201 23.3893 20.2806 23.584 20.4185C23.6701 20.4791 23.7983 20.5427 23.8893 20.5222C24.457 20.395 25.0187 20.2434 25.5824 20.1006C25.6441 20.0849 25.7048 20.0683 25.7654 20.0527L25.6744 19.9333H22.9802H22.9812ZM4.80358 9.89134C4.34752 10.086 4.11558 10.4098 4.15473 10.7541C4.19485 11.1121 4.45811 11.386 4.82315 11.4359C4.82315 10.9801 4.82315 10.5262 4.82315 10.0733C4.82315 10.0234 4.81336 9.97448 4.80456 9.89134H4.80358ZM17.8706 11.4838C18.359 11.25 18.5782 10.9272 18.4979 10.5643C18.4265 10.2386 18.2425 9.99992 17.8706 9.9021V11.4838ZM24.503 26.0675V27.075C24.9698 26.7855 24.9766 26.448 24.503 26.0675ZM15.4494 27.0995V26.0821C15.0168 26.449 15.0168 26.7434 15.4494 27.0995Z" fill="#383961"/>
</svg>
