<svg width="18" height="18" viewBox="0 0 18 18" fill="none" xmlns="http://www.w3.org/2000/svg">
<path fill-rule="evenodd" clip-rule="evenodd" d="M12.9245 3.39427C11.6995 2.40629 10.187 1.87688 8.63374 1.89238C7.08048 1.90787 5.57813 2.46737 4.37173 3.4796C3.16534 4.49183 2.32609 5.89707 1.99088 7.4661C1.65567 9.03514 1.84429 10.6754 2.52595 12.1193C3.20762 13.5632 4.34212 14.7255 5.74439 15.4167C7.14667 16.1079 8.73398 16.2872 10.2474 15.9253C11.7608 15.5635 13.1111 14.6818 14.0779 13.4241C15.0447 12.1664 15.571 10.6069 15.571 9C15.571 8.47752 15.9805 8.05397 16.4855 8.05397C16.9906 8.05397 17.4 8.47752 17.4 9C17.4 11.0346 16.7336 13.0092 15.5094 14.6017C14.2852 16.1942 12.5756 17.3106 10.6593 17.7688C8.74302 18.227 6.73319 18 4.95765 17.1248C3.18211 16.2496 1.74562 14.7778 0.882502 12.9496C0.0193833 11.1213 -0.219435 9.04449 0.205001 7.0578C0.629437 5.07111 1.69208 3.29182 3.2196 2.01014C4.74713 0.728467 6.64938 0.0200416 8.6161 0.000418869C10.5828 -0.0192038 12.4979 0.651134 14.0491 1.90209C14.4474 2.22333 14.5185 2.81778 14.208 3.22983C13.8975 3.64188 13.3229 3.7155 12.9245 3.39427Z" fill="#FF9900"/>
<path fill-rule="evenodd" clip-rule="evenodd" d="M17.7062 2.96069C18.0736 3.30706 18.1 3.89592 17.7652 4.27596L9.88409 13.2214C9.719 13.4088 9.48719 13.5185 9.2422 13.525C8.99721 13.5316 8.76022 13.4345 8.58598 13.2562L4.46703 9.04145C4.11365 8.67984 4.11054 8.09035 4.46009 7.72479C4.80964 7.35922 5.37948 7.356 5.73287 7.71761L9.18526 11.2503L16.4348 3.02167C16.7696 2.64163 17.3389 2.61433 17.7062 2.96069Z" fill="#FF9900"/>
</svg>
