<svg width="24" height="24" viewBox="0 0 24 24" fill="none" xmlns="http://www.w3.org/2000/svg">
<path fill-rule="evenodd" clip-rule="evenodd" d="M17.2327 4.52569C15.5993 3.20839 13.5826 2.5025 11.5116 2.52317C9.44062 2.54383 7.43749 3.28982 5.82896 4.63947C4.22044 5.98911 3.10145 7.86276 2.6545 9.95481C2.20756 12.0468 2.45904 14.2338 3.36793 16.159C4.27682 18.0842 5.78948 19.634 7.65918 20.5556C9.52887 21.4773 11.6453 21.7163 13.6632 21.2338C15.6811 20.7513 17.4814 19.5757 18.7705 17.8988C20.0595 16.2218 20.7613 14.1425 20.7613 12C20.7613 11.3034 21.3072 10.7386 21.9806 10.7386C22.654 10.7386 23.1999 11.3034 23.1999 12C23.1999 14.7128 22.3114 17.3456 20.6792 19.4689C19.0469 21.5922 16.7674 23.0808 14.2124 23.6917C11.6573 24.3027 8.97757 24 6.61019 22.833C4.2428 21.6661 2.32749 19.7038 1.17667 17.2661C0.0258444 14.8284 -0.292579 12.0593 0.273334 9.4104C0.839248 6.76149 2.2561 4.38909 4.29279 2.68019C6.32949 0.971289 8.86582 0.0267221 11.4881 0.000558492C14.1104 -0.025605 16.6639 0.868179 18.732 2.53613C19.2631 2.96444 19.358 3.75703 18.944 4.30644C18.5299 4.85584 17.7638 4.954 17.2327 4.52569Z" fill="#FF9900"/>
<path fill-rule="evenodd" clip-rule="evenodd" d="M23.6079 3.94734C24.0978 4.40916 24.133 5.19431 23.6865 5.70103L13.1784 17.6283C12.9583 17.8782 12.6493 18.0244 12.3226 18.0331C11.9959 18.0419 11.68 17.9124 11.4476 17.6747L5.95572 12.055C5.48454 11.5729 5.4804 10.7869 5.94647 10.2995C6.41253 9.81204 7.17232 9.80775 7.64349 10.2899L12.2467 15.0002L21.9127 4.02863C22.3591 3.52192 23.1181 3.48552 23.6079 3.94734Z" fill="#FF9900"/>
</svg>
