<svg width="30" height="30" viewBox="0 0 30 30" fill="none" xmlns="http://www.w3.org/2000/svg">
<path fill-rule="evenodd" clip-rule="evenodd" d="M21.5409 5.65711C19.4992 4.01049 16.9783 3.12813 14.3896 3.15396C11.8008 3.17979 9.29688 4.11228 7.28622 5.79934C5.27556 7.48639 3.87682 9.82845 3.31814 12.4435C2.75946 15.0586 3.07381 17.7923 4.20992 20.1988C5.34604 22.6053 7.23686 24.5425 9.57399 25.6946C11.9111 26.8466 14.5566 27.1454 17.079 26.5422C19.6014 25.9391 21.8518 24.4696 23.4631 22.3734C25.0745 20.2773 25.9517 17.6782 25.9517 15C25.9517 14.1292 26.6341 13.4233 27.4759 13.4233C28.3176 13.4233 29 14.1292 29 15C29 18.391 27.8893 21.682 25.849 24.3362C23.8087 26.9903 20.9593 28.851 17.7655 29.6147C14.5717 30.3783 11.222 30 8.26275 28.5413C5.30351 27.0826 2.90937 24.6297 1.47084 21.5826C0.0323055 18.5356 -0.365725 15.0742 0.341669 11.763C1.04906 8.45186 2.82013 5.48637 5.366 3.35024C7.91188 1.21411 11.0823 0.0334026 14.3602 0.000698115C17.638 -0.0320063 20.8299 1.08522 23.4151 3.17016C24.079 3.70555 24.1976 4.69629 23.68 5.38305C23.1625 6.0698 22.2048 6.1925 21.5409 5.65711Z" fill="#FF9900"/>
<path fill-rule="evenodd" clip-rule="evenodd" d="M29.5105 4.93413C30.1227 5.51141 30.1667 6.49285 29.6087 7.12625L16.4736 22.0354C16.1984 22.3477 15.8121 22.5304 15.4037 22.5413C14.9954 22.5523 14.6005 22.3905 14.3101 22.0933L7.44514 15.0687C6.85617 14.4661 6.85099 13.4836 7.43357 12.8743C8.01616 12.265 8.96589 12.2596 9.55486 12.8623L15.3088 18.7502L27.3914 5.03575C27.9494 4.40236 28.8982 4.35686 29.5105 4.93413Z" fill="#FF9900"/>
</svg>
