<svg width="159" height="136" viewBox="0 0 159 136" fill="none" xmlns="http://www.w3.org/2000/svg">
<mask id="path-1-inside-1_207_3918" fill="white">
<path fill-rule="evenodd" clip-rule="evenodd" d="M35.2446 135.263C54.7097 135.263 70.4892 119.483 70.4892 100.018C70.4892 80.5532 54.7097 64.7737 35.2446 64.7737C15.7795 64.7737 0 80.5532 0 100.018C0 106.975 2.01529 113.46 5.49387 118.923L1.00332 128.789C-0.0727065 131.153 2.16005 133.675 4.63703 132.893L15.749 129.384C21.3325 133.099 28.0358 135.263 35.2446 135.263Z"/>
</mask>
<path fill-rule="evenodd" clip-rule="evenodd" d="M35.2446 135.263C54.7097 135.263 70.4892 119.483 70.4892 100.018C70.4892 80.5532 54.7097 64.7737 35.2446 64.7737C15.7795 64.7737 0 80.5532 0 100.018C0 106.975 2.01529 113.46 5.49387 118.923L1.00332 128.789C-0.0727065 131.153 2.16005 133.675 4.63703 132.893L15.749 129.384C21.3325 133.099 28.0358 135.263 35.2446 135.263Z" fill="#FF9900"/>
<path d="M5.49387 118.923L9.13451 120.58L10.0335 118.605L8.86791 116.775L5.49387 118.923ZM1.00332 128.789L4.64396 130.446L1.00332 128.789ZM4.63703 132.893L5.84131 136.707H5.84132L4.63703 132.893ZM15.749 129.384L17.9645 126.054L16.3704 124.994L14.5447 125.57L15.749 129.384ZM66.4892 100.018C66.4892 117.274 52.5005 131.263 35.2446 131.263V139.263C56.9188 139.263 74.4892 121.692 74.4892 100.018H66.4892ZM35.2446 68.7737C52.5005 68.7737 66.4892 82.7624 66.4892 100.018H74.4892C74.4892 78.3441 56.9188 60.7737 35.2446 60.7737V68.7737ZM4 100.018C4 82.7624 17.9887 68.7737 35.2446 68.7737V60.7737C13.5704 60.7737 -4 78.3441 -4 100.018H4ZM8.86791 116.775C5.78598 111.935 4 106.191 4 100.018H-4C-4 107.758 -1.7554 114.986 2.11984 121.072L8.86791 116.775ZM4.64396 130.446L9.13451 120.58L1.85323 117.266L-2.63731 127.132L4.64396 130.446ZM3.43275 129.078C4.25837 128.818 5.00265 129.658 4.64396 130.446L-2.63731 127.132C-5.14807 132.649 0.0617272 138.532 5.84131 136.707L3.43275 129.078ZM14.5447 125.57L3.43274 129.078L5.84132 136.707L16.9533 133.199L14.5447 125.57ZM35.2446 131.263C28.8482 131.263 22.912 129.345 17.9645 126.054L13.5336 132.715C19.7531 136.852 27.2234 139.263 35.2446 139.263V131.263Z" fill="black" mask="url(#path-1-inside-1_207_3918)"/>
<mask id="path-3-inside-2_207_3918" fill="white">
<path fill-rule="evenodd" clip-rule="evenodd" d="M90.6071 133.588C53.7177 133.588 23.8129 103.684 23.8129 66.7942C23.8129 29.9048 53.7177 0 90.6071 0C127.497 0 157.401 29.9048 157.401 66.7942C157.401 79.9782 153.582 92.27 146.989 102.623L157.997 126.809C159.073 129.173 156.84 131.694 154.363 130.912L127.554 122.448C116.972 129.487 104.269 133.588 90.6071 133.588Z"/>
</mask>
<path fill-rule="evenodd" clip-rule="evenodd" d="M90.6071 133.588C53.7177 133.588 23.8129 103.684 23.8129 66.7942C23.8129 29.9048 53.7177 0 90.6071 0C127.497 0 157.401 29.9048 157.401 66.7942C157.401 79.9782 153.582 92.27 146.989 102.623L157.997 126.809C159.073 129.173 156.84 131.694 154.363 130.912L127.554 122.448C116.972 129.487 104.269 133.588 90.6071 133.588Z" fill="white"/>
<path d="M146.989 102.623L143.348 104.28L142.449 102.305L143.615 100.475L146.989 102.623ZM157.997 126.809L161.637 125.152H161.637L157.997 126.809ZM154.363 130.912L153.159 134.727H153.159L154.363 130.912ZM127.554 122.448L125.338 119.118L126.932 118.057L128.758 118.634L127.554 122.448ZM27.8129 66.7942C27.8129 101.475 55.9269 129.588 90.6071 129.588V137.588C51.5086 137.588 19.8129 105.893 19.8129 66.7942H27.8129ZM90.6071 4C55.9269 4 27.8129 32.1139 27.8129 66.7942H19.8129C19.8129 27.6956 51.5086 -4 90.6071 -4V4ZM153.401 66.7942C153.401 32.1139 125.287 4 90.6071 4V-4C129.706 -4 161.401 27.6956 161.401 66.7942H153.401ZM143.615 100.475C149.811 90.7444 153.401 79.1947 153.401 66.7942H161.401C161.401 80.7616 157.352 93.7956 150.363 104.772L143.615 100.475ZM154.356 128.466L143.348 104.28L150.629 100.966L161.637 125.152L154.356 128.466ZM155.567 127.098C154.741 126.837 153.997 127.678 154.356 128.466L161.637 125.152C164.148 130.668 158.938 136.552 153.159 134.727L155.567 127.098ZM128.758 118.634L155.567 127.098L153.159 134.727L126.35 126.263L128.758 118.634ZM90.6071 129.588C103.456 129.588 115.393 125.733 125.338 119.118L129.769 125.779C118.552 133.24 105.081 137.588 90.6071 137.588V129.588Z" fill="black" mask="url(#path-3-inside-2_207_3918)"/>
<rect x="58.1045" y="48.5804" width="66.679" height="5.71534" rx="2.85767" fill="black"/>
<rect x="58.1045" y="68.5841" width="66.679" height="5.71534" rx="2.85767" fill="black"/>
<rect x="58.1045" y="87.6352" width="42.865" height="5.71534" rx="2.85767" fill="black"/>
</svg>
