<svg width="100" height="80" viewBox="0 0 100 80" fill="none" xmlns="http://www.w3.org/2000/svg">
<path d="M16.5 11.2713C16.5 8.36005 18.86 6 21.7713 6H79.2287C82.14 6 84.5 8.36005 84.5 11.2713V68.7287C84.5 71.64 82.14 74 79.2287 74H21.7713C18.86 74 16.5 71.64 16.5 68.7287V11.2713Z" fill="white"/>
<path fill-rule="evenodd" clip-rule="evenodd" d="M79.2287 8.10853H21.7713C20.0246 8.10853 18.6085 9.52456 18.6085 11.2713V68.7287C18.6085 70.4754 20.0246 71.8915 21.7713 71.8915H79.2287C80.9754 71.8915 82.3915 70.4754 82.3915 68.7287V11.2713C82.3915 9.52456 80.9754 8.10853 79.2287 8.10853ZM21.7713 6C18.86 6 16.5 8.36005 16.5 11.2713V68.7287C16.5 71.64 18.86 74 21.7713 74H79.2287C82.14 74 84.5 71.64 84.5 68.7287V11.2713C84.5 8.36005 82.14 6 79.2287 6H21.7713Z" fill="black"/>
<path fill-rule="evenodd" clip-rule="evenodd" d="M83.3145 15.8839H31.5238V13.7754H83.3145V15.8839Z" fill="black"/>
<path d="M27.1736 14.3027H28.755V15.8841H27.1736V14.3027Z" fill="black"/>
<path d="M23.6157 14.3027H25.1971V15.8841H23.6157V14.3027Z" fill="black"/>
<path d="M20.0576 14.3027H21.639V15.8841H20.0576V14.3027Z" fill="black"/>
<path fill-rule="evenodd" clip-rule="evenodd" d="M72.6395 23.0001H28.7557V20.8916H72.6395V23.0001Z" fill="black"/>
<path fill-rule="evenodd" clip-rule="evenodd" d="M75.6706 32.2247H24.9342V37.1007H75.6706V32.2247ZM22.8257 30.1162V39.2092H77.7792V30.1162H22.8257Z" fill="black"/>
<path fill-rule="evenodd" clip-rule="evenodd" d="M75.6706 45.2706H24.9342V50.1466H75.6706V45.2706ZM22.8257 43.1621V52.2551H77.7792V43.1621H22.8257Z" fill="black"/>
<path fill-rule="evenodd" clip-rule="evenodd" d="M75.6706 59.1085H24.9342V63.9845H75.6706V59.1085ZM22.8257 57V66.093H77.7792V57H22.8257Z" fill="black"/>
<path fill-rule="evenodd" clip-rule="evenodd" d="M67.6387 42.6344C68.1107 42.5409 68.221 41.916 67.8096 41.6665L59.7636 36.7881C59.4166 36.5778 58.972 36.8219 58.9633 37.2276L58.7615 46.6349C58.7512 47.1159 59.3377 47.3582 59.6698 47.0102L61.4337 45.1619C61.6797 44.904 62.1055 44.9597 62.2771 45.2721L65.6481 51.4114C65.7882 51.6666 66.1087 51.7598 66.3639 51.6197L68.1093 50.6613C68.3645 50.5212 68.4578 50.2007 68.3177 49.9455L64.9768 43.8612C64.8052 43.5487 64.9868 43.1596 65.3364 43.0904L67.6387 42.6344Z" fill="white"/>
<path fill-rule="evenodd" clip-rule="evenodd" d="M58.7614 46.6353C58.7572 46.8304 58.8512 46.9862 58.9866 47.0793C59.185 47.2157 59.4723 47.2175 59.6698 47.0106L61.4336 45.1623C61.6797 44.9044 62.1054 44.9601 62.277 45.2725L65.6481 51.4118C65.7882 51.667 66.1087 51.7602 66.3638 51.6201L68.1093 50.6617C68.3645 50.5216 68.4578 50.2011 68.3176 49.9459L64.9767 43.8616C64.9665 43.8429 64.9575 43.824 64.9497 43.8049C64.8274 43.5038 65.0076 43.1559 65.3364 43.0908L67.6387 42.6348C67.8909 42.5848 68.0399 42.3831 68.0611 42.1679C68.0795 41.9806 68.0011 41.7831 67.8096 41.6669L59.7635 36.7885C59.4165 36.5782 58.9719 36.8223 58.9632 37.228L58.7614 46.6353ZM70.7559 45.6249C72.9153 43.6398 72.8918 39.8167 69.9959 38.0609L61.9499 33.1825C58.827 31.2891 54.8254 33.4863 54.7471 37.1375L54.5453 46.5449C54.471 50.0085 57.8355 52.0968 60.7147 51.1888L61.9516 53.4415C63.2127 55.7382 66.0969 56.5777 68.3936 55.3166L70.139 54.3581C72.4357 53.097 73.2752 50.2129 72.0141 47.9162L70.7559 45.6249Z" fill="white"/>
<path fill-rule="evenodd" clip-rule="evenodd" d="M67.6387 42.6344C68.1107 42.5409 68.221 41.916 67.8096 41.6665L59.7636 36.7881C59.4166 36.5778 58.972 36.8219 58.9633 37.2276L58.7615 46.6349C58.7512 47.1159 59.3377 47.3582 59.6698 47.0102L61.4337 45.1619C61.6797 44.904 62.1055 44.9597 62.2771 45.2721L65.6481 51.4114C65.7882 51.6666 66.1087 51.7598 66.3639 51.6197L68.1093 50.6613C68.3645 50.5212 68.4578 50.2007 68.3177 49.9455L64.9768 43.8612C64.8052 43.5487 64.9868 43.1596 65.3364 43.0904L67.6387 42.6344Z" fill="#FF9900"/>
<path fill-rule="evenodd" clip-rule="evenodd" d="M58.7614 46.6356C58.7511 47.1166 59.3377 47.3589 59.6698 47.0108L61.4336 45.1626C61.6797 44.9047 62.1055 44.9604 62.277 45.2728L65.6481 51.4121C65.7882 51.6672 66.1087 51.7605 66.3639 51.6204L68.1093 50.662C68.3645 50.5218 68.4578 50.2014 68.3177 49.9462L64.9767 43.8618C64.8052 43.5494 64.9867 43.1603 65.3364 43.091L67.6387 42.6351C68.1107 42.5416 68.221 41.9167 67.8096 41.6672L59.7635 36.7888C59.4166 36.5784 58.9719 36.8226 58.9632 37.2283L58.7614 46.6356ZM60.8567 34.9858L68.9028 39.8642C70.9598 41.1114 70.4081 44.2361 68.0484 44.7034L67.8644 44.7399L70.1659 48.9313C70.8665 50.2073 70.4001 51.8096 69.1242 52.5102L67.3787 53.4686C66.1028 54.1692 64.5005 53.7028 63.7999 52.4269L61.4682 48.1805L61.1952 48.4665C59.5345 50.2068 56.6018 48.9954 56.6534 46.5904L56.8552 37.1831C56.8987 35.1546 59.1218 33.9339 60.8567 34.9858Z" fill="black"/>
</svg>
