<svg width="100" height="80" viewBox="0 0 100 80" fill="none" xmlns="http://www.w3.org/2000/svg">
<path d="M3 15.8115H9.61079V22.3903H3V15.8115Z" fill="white"/>
<path fill-rule="evenodd" clip-rule="evenodd" d="M9.13523 16.2848H3.47556V21.9171H9.13523V16.2848ZM3 15.8115V22.3903H9.61079V15.8115H3Z" fill="#C2C2C2"/>
<path d="M3 34.0527H9.61079V40.6315H3V34.0527Z" fill="white"/>
<path fill-rule="evenodd" clip-rule="evenodd" d="M9.13523 34.526H3.47556V40.1583H9.13523V34.526ZM3 34.0527V40.6315H9.61079V34.0527H3Z" fill="#C2C2C2"/>
<path d="M3 22.0918H9.61079V28.3716H3V22.0918Z" fill="white"/>
<path fill-rule="evenodd" clip-rule="evenodd" d="M9.13523 22.5651H3.47556V27.8983H9.13523V22.5651ZM3 22.0918V28.3716H9.61079V22.0918H3Z" fill="#C2C2C2"/>
<path d="M3 40.334H9.61079V46.6138H3V40.334Z" fill="white"/>
<path fill-rule="evenodd" clip-rule="evenodd" d="M9.13523 40.8072H3.47556V46.1405H9.13523V40.8072ZM3 40.334V46.6138H9.61079V40.334H3Z" fill="#C2C2C2"/>
<path d="M3 52.2939H9.61079V58.5737H3V52.2939Z" fill="white"/>
<path fill-rule="evenodd" clip-rule="evenodd" d="M9.13523 52.7672H3.47556V58.1005H9.13523V52.7672ZM3 52.2939V58.5737H9.61079V52.2939H3Z" fill="#C2C2C2"/>
<path d="M3 28.0713H9.61079V34.3511H3V28.0713Z" fill="white"/>
<path fill-rule="evenodd" clip-rule="evenodd" d="M9.13523 28.5446H3.47556V33.8778H9.13523V28.5446ZM3 28.0713V34.3511H9.61079V28.0713H3Z" fill="#C2C2C2"/>
<path d="M3 46.3125H9.61079V52.5923H3V46.3125Z" fill="white"/>
<path fill-rule="evenodd" clip-rule="evenodd" d="M9.13523 46.7858H3.47556V52.119H9.13523V46.7858ZM3 46.3125V52.5923H9.61079V46.3125H3Z" fill="#C2C2C2"/>
<path d="M3 58.2744H9.61079V64.5542H3V58.2744Z" fill="white"/>
<path fill-rule="evenodd" clip-rule="evenodd" d="M9.13523 58.7477H3.47556V64.0809H9.13523V58.7477ZM3 58.2744V64.5542H9.61079V58.2744H3Z" fill="#C2C2C2"/>
<path d="M28.2411 15.8115H34.8519V22.3903H28.2411V15.8115Z" fill="white"/>
<path fill-rule="evenodd" clip-rule="evenodd" d="M34.3763 16.2848H28.7167V21.9171H34.3763V16.2848ZM28.2411 15.8115V22.3903H34.8519V15.8115H28.2411Z" fill="#C2C2C2"/>
<path d="M28.2411 34.0527H34.8519V40.6315H28.2411V34.0527Z" fill="white"/>
<path fill-rule="evenodd" clip-rule="evenodd" d="M34.3763 34.526H28.7167V40.1583H34.3763V34.526ZM28.2411 34.0527V40.6315H34.8519V34.0527H28.2411Z" fill="#C2C2C2"/>
<path d="M28.2411 22.0918H34.8519V28.3716H28.2411V22.0918Z" fill="white"/>
<path fill-rule="evenodd" clip-rule="evenodd" d="M34.3763 22.5651H28.7167V27.8983H34.3763V22.5651ZM28.2411 22.0918V28.3716H34.8519V22.0918H28.2411Z" fill="#C2C2C2"/>
<path d="M28.2411 40.334H34.8519V46.6138H28.2411V40.334Z" fill="white"/>
<path fill-rule="evenodd" clip-rule="evenodd" d="M34.3763 40.8072H28.7167V46.1405H34.3763V40.8072ZM28.2411 40.334V46.6138H34.8519V40.334H28.2411Z" fill="#C2C2C2"/>
<path d="M28.2411 52.2939H34.8519V58.5737H28.2411V52.2939Z" fill="white"/>
<path fill-rule="evenodd" clip-rule="evenodd" d="M34.3763 52.7672H28.7167V58.1005H34.3763V52.7672ZM28.2411 52.2939V58.5737H34.8519V52.2939H28.2411Z" fill="#C2C2C2"/>
<path d="M28.2411 28.0713H34.8519V34.3511H28.2411V28.0713Z" fill="white"/>
<path fill-rule="evenodd" clip-rule="evenodd" d="M34.3763 28.5446H28.7167V33.8778H34.3763V28.5446ZM28.2411 28.0713V34.3511H34.8519V28.0713H28.2411Z" fill="#C2C2C2"/>
<path d="M28.2411 46.3125H34.8519V52.5923H28.2411V46.3125Z" fill="white"/>
<path fill-rule="evenodd" clip-rule="evenodd" d="M34.3763 46.7858H28.7167V52.119H34.3763V46.7858ZM28.2411 46.3125V52.5923H34.8519V46.3125H28.2411Z" fill="#C2C2C2"/>
<path d="M28.2411 58.2744H34.8519V64.5542H28.2411V58.2744Z" fill="white"/>
<path fill-rule="evenodd" clip-rule="evenodd" d="M34.3763 58.7477H28.7167V64.0809H34.3763V58.7477ZM28.2411 58.2744V64.5542H34.8519V58.2744H28.2411Z" fill="#C2C2C2"/>
<path d="M3 15.8115H9.61079V22.3903H3V15.8115Z" fill="white"/>
<path fill-rule="evenodd" clip-rule="evenodd" d="M9.13523 16.2848H3.47556V21.9171H9.13523V16.2848ZM3 15.8115V22.3903H9.61079V15.8115H3Z" fill="#C2C2C2"/>
<path d="M3 34.0527H9.61079V40.6315H3V34.0527Z" fill="white"/>
<path fill-rule="evenodd" clip-rule="evenodd" d="M9.13523 34.526H3.47556V40.1583H9.13523V34.526ZM3 34.0527V40.6315H9.61079V34.0527H3Z" fill="#C2C2C2"/>
<path d="M3 22.0918H9.61079V28.3716H3V22.0918Z" fill="white"/>
<path fill-rule="evenodd" clip-rule="evenodd" d="M9.13523 22.5651H3.47556V27.8983H9.13523V22.5651ZM3 22.0918V28.3716H9.61079V22.0918H3Z" fill="#C2C2C2"/>
<path d="M3 40.334H9.61079V46.6138H3V40.334Z" fill="white"/>
<path fill-rule="evenodd" clip-rule="evenodd" d="M9.13523 40.8072H3.47556V46.1405H9.13523V40.8072ZM3 40.334V46.6138H9.61079V40.334H3Z" fill="#C2C2C2"/>
<path d="M3 52.2939H9.61079V58.5737H3V52.2939Z" fill="white"/>
<path fill-rule="evenodd" clip-rule="evenodd" d="M9.13523 52.7672H3.47556V58.1005H9.13523V52.7672ZM3 52.2939V58.5737H9.61079V52.2939H3Z" fill="#C2C2C2"/>
<path d="M3 28.0713H9.61079V34.3511H3V28.0713Z" fill="white"/>
<path fill-rule="evenodd" clip-rule="evenodd" d="M9.13523 28.5446H3.47556V33.8778H9.13523V28.5446ZM3 28.0713V34.3511H9.61079V28.0713H3Z" fill="#C2C2C2"/>
<path d="M3 46.3125H9.61079V52.5923H3V46.3125Z" fill="white"/>
<path fill-rule="evenodd" clip-rule="evenodd" d="M9.13523 46.7858H3.47556V52.119H9.13523V46.7858ZM3 46.3125V52.5923H9.61079V46.3125H3Z" fill="#C2C2C2"/>
<path d="M3 58.2744H9.61079V64.5542H3V58.2744Z" fill="white"/>
<path fill-rule="evenodd" clip-rule="evenodd" d="M9.13523 58.7477H3.47556V64.0809H9.13523V58.7477ZM3 58.2744V64.5542H9.61079V58.2744H3Z" fill="#C2C2C2"/>
<path d="M28.2411 15.8115H34.8519V22.3903H28.2411V15.8115Z" fill="white"/>
<path fill-rule="evenodd" clip-rule="evenodd" d="M34.3763 16.2848H28.7167V21.9171H34.3763V16.2848ZM28.2411 15.8115V22.3903H34.8519V15.8115H28.2411Z" fill="#C2C2C2"/>
<path d="M28.2411 34.0527H34.8519V40.6315H28.2411V34.0527Z" fill="white"/>
<path fill-rule="evenodd" clip-rule="evenodd" d="M34.3763 34.526H28.7167V40.1583H34.3763V34.526ZM28.2411 34.0527V40.6315H34.8519V34.0527H28.2411Z" fill="#C2C2C2"/>
<path d="M28.2411 22.0918H34.8519V28.3716H28.2411V22.0918Z" fill="white"/>
<path fill-rule="evenodd" clip-rule="evenodd" d="M34.3763 22.5651H28.7167V27.8983H34.3763V22.5651ZM28.2411 22.0918V28.3716H34.8519V22.0918H28.2411Z" fill="#C2C2C2"/>
<path d="M28.2411 40.334H34.8519V46.6138H28.2411V40.334Z" fill="white"/>
<path fill-rule="evenodd" clip-rule="evenodd" d="M34.3763 40.8072H28.7167V46.1405H34.3763V40.8072ZM28.2411 40.334V46.6138H34.8519V40.334H28.2411Z" fill="#C2C2C2"/>
<path d="M28.2411 52.2939H34.8519V58.5737H28.2411V52.2939Z" fill="white"/>
<path fill-rule="evenodd" clip-rule="evenodd" d="M34.3763 52.7672H28.7167V58.1005H34.3763V52.7672ZM28.2411 52.2939V58.5737H34.8519V52.2939H28.2411Z" fill="#C2C2C2"/>
<path d="M28.2411 28.0713H34.8519V34.3511H28.2411V28.0713Z" fill="white"/>
<path fill-rule="evenodd" clip-rule="evenodd" d="M34.3763 28.5446H28.7167V33.8778H34.3763V28.5446ZM28.2411 28.0713V34.3511H34.8519V28.0713H28.2411Z" fill="#C2C2C2"/>
<path d="M28.2411 46.3125H34.8519V52.5923H28.2411V46.3125Z" fill="white"/>
<path fill-rule="evenodd" clip-rule="evenodd" d="M34.3763 46.7858H28.7167V52.119H34.3763V46.7858ZM28.2411 46.3125V52.5923H34.8519V46.3125H28.2411Z" fill="#C2C2C2"/>
<path d="M28.2411 58.2744H34.8519V64.5542H28.2411V58.2744Z" fill="white"/>
<path fill-rule="evenodd" clip-rule="evenodd" d="M34.3763 58.7477H28.7167V64.0809H34.3763V58.7477ZM28.2411 58.2744V64.5542H34.8519V58.2744H28.2411Z" fill="#C2C2C2"/>
<path d="M3 15.8115H9.61079V22.3903H3V15.8115Z" fill="white"/>
<path fill-rule="evenodd" clip-rule="evenodd" d="M9.13523 16.2848H3.47556V21.9171H9.13523V16.2848ZM3 15.8115V22.3903H9.61079V15.8115H3Z" fill="#C2C2C2"/>
<path d="M3 34.0527H9.61079V40.6315H3V34.0527Z" fill="white"/>
<path fill-rule="evenodd" clip-rule="evenodd" d="M9.13523 34.526H3.47556V40.1583H9.13523V34.526ZM3 34.0527V40.6315H9.61079V34.0527H3Z" fill="#C2C2C2"/>
<path d="M3 22.0918H9.61079V28.3716H3V22.0918Z" fill="white"/>
<path fill-rule="evenodd" clip-rule="evenodd" d="M9.13523 22.5651H3.47556V27.8983H9.13523V22.5651ZM3 22.0918V28.3716H9.61079V22.0918H3Z" fill="#C2C2C2"/>
<path d="M3 40.334H9.61079V46.6138H3V40.334Z" fill="white"/>
<path fill-rule="evenodd" clip-rule="evenodd" d="M9.13523 40.8072H3.47556V46.1405H9.13523V40.8072ZM3 40.334V46.6138H9.61079V40.334H3Z" fill="#C2C2C2"/>
<path d="M3 52.2939H9.61079V58.5737H3V52.2939Z" fill="white"/>
<path fill-rule="evenodd" clip-rule="evenodd" d="M9.13523 52.7672H3.47556V58.1005H9.13523V52.7672ZM3 52.2939V58.5737H9.61079V52.2939H3Z" fill="#C2C2C2"/>
<path d="M3 28.0713H9.61079V34.3511H3V28.0713Z" fill="white"/>
<path fill-rule="evenodd" clip-rule="evenodd" d="M9.13523 28.5446H3.47556V33.8778H9.13523V28.5446ZM3 28.0713V34.3511H9.61079V28.0713H3Z" fill="#C2C2C2"/>
<path d="M3 46.3125H9.61079V52.5923H3V46.3125Z" fill="white"/>
<path fill-rule="evenodd" clip-rule="evenodd" d="M9.13523 46.7858H3.47556V52.119H9.13523V46.7858ZM3 46.3125V52.5923H9.61079V46.3125H3Z" fill="#C2C2C2"/>
<path d="M3 58.2744H9.61079V64.5542H3V58.2744Z" fill="white"/>
<path fill-rule="evenodd" clip-rule="evenodd" d="M9.13523 58.7477H3.47556V64.0809H9.13523V58.7477ZM3 58.2744V64.5542H9.61079V58.2744H3Z" fill="#C2C2C2"/>
<path d="M28.2411 15.8115H34.8519V22.3903H28.2411V15.8115Z" fill="white"/>
<path fill-rule="evenodd" clip-rule="evenodd" d="M34.3763 16.2848H28.7167V21.9171H34.3763V16.2848ZM28.2411 15.8115V22.3903H34.8519V15.8115H28.2411Z" fill="#C2C2C2"/>
<path d="M28.2411 34.0527H34.8519V40.6315H28.2411V34.0527Z" fill="white"/>
<path fill-rule="evenodd" clip-rule="evenodd" d="M34.3763 34.526H28.7167V40.1583H34.3763V34.526ZM28.2411 34.0527V40.6315H34.8519V34.0527H28.2411Z" fill="#C2C2C2"/>
<path d="M28.2411 22.0918H34.8519V28.3716H28.2411V22.0918Z" fill="white"/>
<path fill-rule="evenodd" clip-rule="evenodd" d="M34.3763 22.5651H28.7167V27.8983H34.3763V22.5651ZM28.2411 22.0918V28.3716H34.8519V22.0918H28.2411Z" fill="#C2C2C2"/>
<path d="M28.2411 40.334H34.8519V46.6138H28.2411V40.334Z" fill="white"/>
<path fill-rule="evenodd" clip-rule="evenodd" d="M34.3763 40.8072H28.7167V46.1405H34.3763V40.8072ZM28.2411 40.334V46.6138H34.8519V40.334H28.2411Z" fill="#C2C2C2"/>
<path d="M28.2411 52.2939H34.8519V58.5737H28.2411V52.2939Z" fill="white"/>
<path fill-rule="evenodd" clip-rule="evenodd" d="M34.3763 52.7672H28.7167V58.1005H34.3763V52.7672ZM28.2411 52.2939V58.5737H34.8519V52.2939H28.2411Z" fill="#C2C2C2"/>
<path d="M28.2411 28.0713H34.8519V34.3511H28.2411V28.0713Z" fill="white"/>
<path fill-rule="evenodd" clip-rule="evenodd" d="M34.3763 28.5446H28.7167V33.8778H34.3763V28.5446ZM28.2411 28.0713V34.3511H34.8519V28.0713H28.2411Z" fill="#C2C2C2"/>
<path d="M28.2411 46.3125H34.8519V52.5923H28.2411V46.3125Z" fill="white"/>
<path fill-rule="evenodd" clip-rule="evenodd" d="M34.3763 46.7858H28.7167V52.119H34.3763V46.7858ZM28.2411 46.3125V52.5923H34.8519V46.3125H28.2411Z" fill="#C2C2C2"/>
<path d="M28.2411 58.2744H34.8519V64.5542H28.2411V58.2744Z" fill="white"/>
<path fill-rule="evenodd" clip-rule="evenodd" d="M34.3763 58.7477H28.7167V64.0809H34.3763V58.7477ZM28.2411 58.2744V64.5542H34.8519V58.2744H28.2411Z" fill="#C2C2C2"/>
<path d="M9.31055 15.8115H15.9213V22.3903H9.31055V15.8115Z" fill="white"/>
<path fill-rule="evenodd" clip-rule="evenodd" d="M15.4458 16.2848H9.78611V21.9171H15.4458V16.2848ZM9.31055 15.8115V22.3903H15.9213V15.8115H9.31055Z" fill="#C2C2C2"/>
<path d="M9.31055 34.0527H15.9213V40.6315H9.31055V34.0527Z" fill="white"/>
<path fill-rule="evenodd" clip-rule="evenodd" d="M15.4458 34.526H9.78611V40.1583H15.4458V34.526ZM9.31055 34.0527V40.6315H15.9213V34.0527H9.31055Z" fill="#C2C2C2"/>
<path d="M9.31055 22.0918H15.9213V28.3716H9.31055V22.0918Z" fill="white"/>
<path fill-rule="evenodd" clip-rule="evenodd" d="M15.4458 22.5651H9.78611V27.8983H15.4458V22.5651ZM9.31055 22.0918V28.3716H15.9213V22.0918H9.31055Z" fill="#C2C2C2"/>
<path d="M9.31055 40.334H15.9213V46.6138H9.31055V40.334Z" fill="white"/>
<path fill-rule="evenodd" clip-rule="evenodd" d="M15.4458 40.8072H9.78611V46.1405H15.4458V40.8072ZM9.31055 40.334V46.6138H15.9213V40.334H9.31055Z" fill="#C2C2C2"/>
<path d="M9.31055 52.2939H15.9213V58.5737H9.31055V52.2939Z" fill="white"/>
<path fill-rule="evenodd" clip-rule="evenodd" d="M15.4458 52.7672H9.78611V58.1005H15.4458V52.7672ZM9.31055 52.2939V58.5737H15.9213V52.2939H9.31055Z" fill="#C2C2C2"/>
<path d="M9.31055 28.0713H15.9213V34.3511H9.31055V28.0713Z" fill="white"/>
<path fill-rule="evenodd" clip-rule="evenodd" d="M15.4458 28.5446H9.78611V33.8778H15.4458V28.5446ZM9.31055 28.0713V34.3511H15.9213V28.0713H9.31055Z" fill="#C2C2C2"/>
<path d="M9.31055 46.3125H15.9213V52.5923H9.31055V46.3125Z" fill="white"/>
<path fill-rule="evenodd" clip-rule="evenodd" d="M15.4458 46.7858H9.78611V52.119H15.4458V46.7858ZM9.31055 46.3125V52.5923H15.9213V46.3125H9.31055Z" fill="#C2C2C2"/>
<path d="M9.31055 58.2744H15.9213V64.5542H9.31055V58.2744Z" fill="white"/>
<path fill-rule="evenodd" clip-rule="evenodd" d="M15.4458 58.7477H9.78611V64.0809H15.4458V58.7477ZM9.31055 58.2744V64.5542H15.9213V58.2744H9.31055Z" fill="#C2C2C2"/>
<path d="M9.31055 15.8115H15.9213V22.3903H9.31055V15.8115Z" fill="white"/>
<path fill-rule="evenodd" clip-rule="evenodd" d="M15.4458 16.2848H9.78611V21.9171H15.4458V16.2848ZM9.31055 15.8115V22.3903H15.9213V15.8115H9.31055Z" fill="#C2C2C2"/>
<path d="M9.31055 34.0527H15.9213V40.6315H9.31055V34.0527Z" fill="white"/>
<path fill-rule="evenodd" clip-rule="evenodd" d="M15.4458 34.526H9.78611V40.1583H15.4458V34.526ZM9.31055 34.0527V40.6315H15.9213V34.0527H9.31055Z" fill="#C2C2C2"/>
<path d="M9.31055 22.0918H15.9213V28.3716H9.31055V22.0918Z" fill="white"/>
<path fill-rule="evenodd" clip-rule="evenodd" d="M15.4458 22.5651H9.78611V27.8983H15.4458V22.5651ZM9.31055 22.0918V28.3716H15.9213V22.0918H9.31055Z" fill="#C2C2C2"/>
<path d="M9.31055 40.334H15.9213V46.6138H9.31055V40.334Z" fill="white"/>
<path fill-rule="evenodd" clip-rule="evenodd" d="M15.4458 40.8072H9.78611V46.1405H15.4458V40.8072ZM9.31055 40.334V46.6138H15.9213V40.334H9.31055Z" fill="#C2C2C2"/>
<path d="M9.31055 52.2939H15.9213V58.5737H9.31055V52.2939Z" fill="white"/>
<path fill-rule="evenodd" clip-rule="evenodd" d="M15.4458 52.7672H9.78611V58.1005H15.4458V52.7672ZM9.31055 52.2939V58.5737H15.9213V52.2939H9.31055Z" fill="#C2C2C2"/>
<path d="M9.31055 28.0713H15.9213V34.3511H9.31055V28.0713Z" fill="white"/>
<path fill-rule="evenodd" clip-rule="evenodd" d="M15.4458 28.5446H9.78611V33.8778H15.4458V28.5446ZM9.31055 28.0713V34.3511H15.9213V28.0713H9.31055Z" fill="#C2C2C2"/>
<path d="M9.31055 46.3125H15.9213V52.5923H9.31055V46.3125Z" fill="white"/>
<path fill-rule="evenodd" clip-rule="evenodd" d="M15.4458 46.7858H9.78611V52.119H15.4458V46.7858ZM9.31055 46.3125V52.5923H15.9213V46.3125H9.31055Z" fill="#C2C2C2"/>
<path d="M9.31055 58.2744H15.9213V64.5542H9.31055V58.2744Z" fill="white"/>
<path fill-rule="evenodd" clip-rule="evenodd" d="M15.4458 58.7477H9.78611V64.0809H15.4458V58.7477ZM9.31055 58.2744V64.5542H15.9213V58.2744H9.31055Z" fill="#C2C2C2"/>
<path d="M34.5514 15.8115H41.1622V22.3903H34.5514V15.8115Z" fill="white"/>
<path fill-rule="evenodd" clip-rule="evenodd" d="M40.6866 16.2848H35.027V21.9171H40.6866V16.2848ZM34.5514 15.8115V22.3903H41.1622V15.8115H34.5514Z" fill="#C2C2C2"/>
<path d="M34.5514 34.0527H41.1622V40.6315H34.5514V34.0527Z" fill="white"/>
<path fill-rule="evenodd" clip-rule="evenodd" d="M40.6866 34.526H35.027V40.1583H40.6866V34.526ZM34.5514 34.0527V40.6315H41.1622V34.0527H34.5514Z" fill="#C2C2C2"/>
<path d="M34.5514 22.0918H41.1622V28.3716H34.5514V22.0918Z" fill="white"/>
<path fill-rule="evenodd" clip-rule="evenodd" d="M40.6866 22.5651H35.027V27.8983H40.6866V22.5651ZM34.5514 22.0918V28.3716H41.1622V22.0918H34.5514Z" fill="#C2C2C2"/>
<path d="M34.5514 40.334H41.1622V46.6138H34.5514V40.334Z" fill="white"/>
<path fill-rule="evenodd" clip-rule="evenodd" d="M40.6866 40.8072H35.027V46.1405H40.6866V40.8072ZM34.5514 40.334V46.6138H41.1622V40.334H34.5514Z" fill="#C2C2C2"/>
<path d="M34.5514 52.2939H41.1622V58.5737H34.5514V52.2939Z" fill="white"/>
<path fill-rule="evenodd" clip-rule="evenodd" d="M40.6866 52.7672H35.027V58.1005H40.6866V52.7672ZM34.5514 52.2939V58.5737H41.1622V52.2939H34.5514Z" fill="#C2C2C2"/>
<path d="M34.5514 28.0713H41.1622V34.3511H34.5514V28.0713Z" fill="white"/>
<path fill-rule="evenodd" clip-rule="evenodd" d="M40.6866 28.5446H35.027V33.8778H40.6866V28.5446ZM34.5514 28.0713V34.3511H41.1622V28.0713H34.5514Z" fill="#C2C2C2"/>
<path d="M34.5514 46.3125H41.1622V52.5923H34.5514V46.3125Z" fill="white"/>
<path fill-rule="evenodd" clip-rule="evenodd" d="M40.6866 46.7858H35.027V52.119H40.6866V46.7858ZM34.5514 46.3125V52.5923H41.1622V46.3125H34.5514Z" fill="#C2C2C2"/>
<path d="M34.5514 58.2744H41.1622V64.5542H34.5514V58.2744Z" fill="white"/>
<path fill-rule="evenodd" clip-rule="evenodd" d="M40.6866 58.7477H35.027V64.0809H40.6866V58.7477ZM34.5514 58.2744V64.5542H41.1622V58.2744H34.5514Z" fill="#C2C2C2"/>
<path d="M21.9309 15.8115H28.5417V22.3903H21.9309V15.8115Z" fill="white"/>
<path fill-rule="evenodd" clip-rule="evenodd" d="M28.0661 16.2848H22.4065V21.9171H28.0661V16.2848ZM21.9309 15.8115V22.3903H28.5417V15.8115H21.9309Z" fill="#C2C2C2"/>
<path d="M21.9309 34.0527H28.5417V40.6315H21.9309V34.0527Z" fill="white"/>
<path fill-rule="evenodd" clip-rule="evenodd" d="M28.0661 34.526H22.4065V40.1583H28.0661V34.526ZM21.9309 34.0527V40.6315H28.5417V34.0527H21.9309Z" fill="#C2C2C2"/>
<path d="M21.9309 22.0918H28.5417V28.3716H21.9309V22.0918Z" fill="white"/>
<path fill-rule="evenodd" clip-rule="evenodd" d="M28.0661 22.5651H22.4065V27.8983H28.0661V22.5651ZM21.9309 22.0918V28.3716H28.5417V22.0918H21.9309Z" fill="#C2C2C2"/>
<path d="M21.9309 40.334H28.5417V46.6138H21.9309V40.334Z" fill="white"/>
<path fill-rule="evenodd" clip-rule="evenodd" d="M28.0661 40.8072H22.4065V46.1405H28.0661V40.8072ZM21.9309 40.334V46.6138H28.5417V40.334H21.9309Z" fill="#C2C2C2"/>
<path d="M21.9309 52.2939H28.5417V58.5737H21.9309V52.2939Z" fill="white"/>
<path fill-rule="evenodd" clip-rule="evenodd" d="M28.0661 52.7672H22.4065V58.1005H28.0661V52.7672ZM21.9309 52.2939V58.5737H28.5417V52.2939H21.9309Z" fill="#C2C2C2"/>
<path d="M21.9309 28.0713H28.5417V34.3511H21.9309V28.0713Z" fill="white"/>
<path fill-rule="evenodd" clip-rule="evenodd" d="M28.0661 28.5446H22.4065V33.8778H28.0661V28.5446ZM21.9309 28.0713V34.3511H28.5417V28.0713H21.9309Z" fill="#C2C2C2"/>
<path d="M21.9309 46.3125H28.5417V52.5923H21.9309V46.3125Z" fill="white"/>
<path fill-rule="evenodd" clip-rule="evenodd" d="M28.0661 46.7858H22.4065V52.119H28.0661V46.7858ZM21.9309 46.3125V52.5923H28.5417V46.3125H21.9309Z" fill="#C2C2C2"/>
<path d="M21.9309 58.2744H28.5417V64.5542H21.9309V58.2744Z" fill="white"/>
<path fill-rule="evenodd" clip-rule="evenodd" d="M28.0661 58.7477H22.4065V64.0809H28.0661V58.7477ZM21.9309 58.2744V64.5542H28.5417V58.2744H21.9309Z" fill="#C2C2C2"/>
<path d="M47.1721 15.8115H53.7829V22.3903H47.1721V15.8115Z" fill="white"/>
<path fill-rule="evenodd" clip-rule="evenodd" d="M53.3073 16.2848H47.6477V21.9171H53.3073V16.2848ZM47.1721 15.8115V22.3903H53.7829V15.8115H47.1721Z" fill="#C2C2C2"/>
<path d="M47.1721 34.0527H53.7829V40.6315H47.1721V34.0527Z" fill="white"/>
<path fill-rule="evenodd" clip-rule="evenodd" d="M53.3073 34.526H47.6477V40.1583H53.3073V34.526ZM47.1721 34.0527V40.6315H53.7829V34.0527H47.1721Z" fill="#C2C2C2"/>
<path d="M47.1721 22.0918H53.7829V28.3716H47.1721V22.0918Z" fill="white"/>
<path fill-rule="evenodd" clip-rule="evenodd" d="M53.3073 22.5651H47.6477V27.8983H53.3073V22.5651ZM47.1721 22.0918V28.3716H53.7829V22.0918H47.1721Z" fill="#C2C2C2"/>
<path d="M47.1721 40.334H53.7829V46.6138H47.1721V40.334Z" fill="white"/>
<path fill-rule="evenodd" clip-rule="evenodd" d="M53.3073 40.8072H47.6477V46.1405H53.3073V40.8072ZM47.1721 40.334V46.6138H53.7829V40.334H47.1721Z" fill="#C2C2C2"/>
<path d="M47.1721 52.2939H53.7829V58.5737H47.1721V52.2939Z" fill="white"/>
<path fill-rule="evenodd" clip-rule="evenodd" d="M53.3073 52.7672H47.6477V58.1005H53.3073V52.7672ZM47.1721 52.2939V58.5737H53.7829V52.2939H47.1721Z" fill="#C2C2C2"/>
<path d="M47.1721 28.0713H53.7829V34.3511H47.1721V28.0713Z" fill="white"/>
<path fill-rule="evenodd" clip-rule="evenodd" d="M53.3073 28.5446H47.6477V33.8778H53.3073V28.5446ZM47.1721 28.0713V34.3511H53.7829V28.0713H47.1721Z" fill="#C2C2C2"/>
<path d="M47.1721 46.3125H53.7829V52.5923H47.1721V46.3125Z" fill="white"/>
<path fill-rule="evenodd" clip-rule="evenodd" d="M53.3073 46.7858H47.6477V52.119H53.3073V46.7858ZM47.1721 46.3125V52.5923H53.7829V46.3125H47.1721Z" fill="#C2C2C2"/>
<path d="M47.1721 58.2744H53.7829V64.5542H47.1721V58.2744Z" fill="white"/>
<path fill-rule="evenodd" clip-rule="evenodd" d="M53.3073 58.7477H47.6477V64.0809H53.3073V58.7477ZM47.1721 58.2744V64.5542H53.7829V58.2744H47.1721Z" fill="#C2C2C2"/>
<path d="M15.6205 15.8115H22.2313V22.3903H15.6205V15.8115Z" fill="white"/>
<path fill-rule="evenodd" clip-rule="evenodd" d="M21.7557 16.2848H16.096V21.9171H21.7557V16.2848ZM15.6205 15.8115V22.3903H22.2313V15.8115H15.6205Z" fill="#C2C2C2"/>
<path d="M15.6205 34.0527H22.2313V40.6315H15.6205V34.0527Z" fill="white"/>
<path fill-rule="evenodd" clip-rule="evenodd" d="M21.7557 34.526H16.096V40.1583H21.7557V34.526ZM15.6205 34.0527V40.6315H22.2313V34.0527H15.6205Z" fill="#C2C2C2"/>
<path d="M15.6205 22.0918H22.2313V28.3716H15.6205V22.0918Z" fill="white"/>
<path fill-rule="evenodd" clip-rule="evenodd" d="M21.7557 22.5651H16.096V27.8983H21.7557V22.5651ZM15.6205 22.0918V28.3716H22.2313V22.0918H15.6205Z" fill="#C2C2C2"/>
<path d="M15.6205 40.334H22.2313V46.6138H15.6205V40.334Z" fill="white"/>
<path fill-rule="evenodd" clip-rule="evenodd" d="M21.7557 40.8072H16.096V46.1405H21.7557V40.8072ZM15.6205 40.334V46.6138H22.2313V40.334H15.6205Z" fill="#C2C2C2"/>
<path d="M15.6205 52.2939H22.2313V58.5737H15.6205V52.2939Z" fill="white"/>
<path fill-rule="evenodd" clip-rule="evenodd" d="M21.7557 52.7672H16.096V58.1005H21.7557V52.7672ZM15.6205 52.2939V58.5737H22.2313V52.2939H15.6205Z" fill="#C2C2C2"/>
<path d="M15.6205 28.0713H22.2313V34.3511H15.6205V28.0713Z" fill="white"/>
<path fill-rule="evenodd" clip-rule="evenodd" d="M21.7557 28.5446H16.096V33.8778H21.7557V28.5446ZM15.6205 28.0713V34.3511H22.2313V28.0713H15.6205Z" fill="#C2C2C2"/>
<path d="M15.6205 46.3125H22.2313V52.5923H15.6205V46.3125Z" fill="white"/>
<path fill-rule="evenodd" clip-rule="evenodd" d="M21.7557 46.7858H16.096V52.119H21.7557V46.7858ZM15.6205 46.3125V52.5923H22.2313V46.3125H15.6205Z" fill="#C2C2C2"/>
<path d="M15.6205 58.2744H22.2313V64.5542H15.6205V58.2744Z" fill="white"/>
<path fill-rule="evenodd" clip-rule="evenodd" d="M21.7557 58.7477H16.096V64.0809H21.7557V58.7477ZM15.6205 58.2744V64.5542H22.2313V58.2744H15.6205Z" fill="#C2C2C2"/>
<path d="M40.8618 15.8115H47.4726V22.3903H40.8618V15.8115Z" fill="white"/>
<path fill-rule="evenodd" clip-rule="evenodd" d="M46.997 16.2848H41.3374V21.9171H46.997V16.2848ZM40.8618 15.8115V22.3903H47.4726V15.8115H40.8618Z" fill="#C2C2C2"/>
<path d="M53.5704 15.8115H60.1812V22.3903H53.5704V15.8115Z" fill="white"/>
<path fill-rule="evenodd" clip-rule="evenodd" d="M59.7057 16.2848H54.046V21.9171H59.7057V16.2848ZM53.5704 15.8115V22.3903H60.1812V15.8115H53.5704Z" fill="#C2C2C2"/>
<path d="M59.9314 15.8115H66.5422V22.3903H59.9314V15.8115Z" fill="white"/>
<path fill-rule="evenodd" clip-rule="evenodd" d="M66.0666 16.2848H60.407V21.9171H66.0666V16.2848ZM59.9314 15.8115V22.3903H66.5422V15.8115H59.9314Z" fill="#C2C2C2"/>
<path d="M66.2922 15.8115H72.903V22.3903H66.2922V15.8115Z" fill="white"/>
<path fill-rule="evenodd" clip-rule="evenodd" d="M72.4275 16.2848H66.7678V21.9171H72.4275V16.2848ZM66.2922 15.8115V22.3903H72.903V15.8115H66.2922Z" fill="#C2C2C2"/>
<path d="M72.6531 15.8115H79.2639V22.3903H72.6531V15.8115Z" fill="white"/>
<path fill-rule="evenodd" clip-rule="evenodd" d="M78.7883 16.2848H73.1286V21.9171H78.7883V16.2848ZM72.6531 15.8115V22.3903H79.2639V15.8115H72.6531Z" fill="#C2C2C2"/>
<path d="M40.8618 34.0527H47.4726V40.6315H40.8618V34.0527Z" fill="white"/>
<path fill-rule="evenodd" clip-rule="evenodd" d="M46.997 34.526H41.3374V40.1583H46.997V34.526ZM40.8618 34.0527V40.6315H47.4726V34.0527H40.8618Z" fill="#C2C2C2"/>
<path d="M53.5704 34.0527H60.1812V40.6315H53.5704V34.0527Z" fill="white"/>
<path fill-rule="evenodd" clip-rule="evenodd" d="M59.7057 34.526H54.046V40.1583H59.7057V34.526ZM53.5704 34.0527V40.6315H60.1812V34.0527H53.5704Z" fill="#C2C2C2"/>
<path d="M59.9314 34.0527H66.5422V40.6315H59.9314V34.0527Z" fill="white"/>
<path fill-rule="evenodd" clip-rule="evenodd" d="M66.0666 34.526H60.407V40.1583H66.0666V34.526ZM59.9314 34.0527V40.6315H66.5422V34.0527H59.9314Z" fill="#C2C2C2"/>
<path d="M66.2922 34.0527H72.903V40.6315H66.2922V34.0527Z" fill="white"/>
<path fill-rule="evenodd" clip-rule="evenodd" d="M72.4275 34.526H66.7678V40.1583H72.4275V34.526ZM66.2922 34.0527V40.6315H72.903V34.0527H66.2922Z" fill="#C2C2C2"/>
<path d="M72.6531 34.0527H79.2639V40.6315H72.6531V34.0527Z" fill="white"/>
<path fill-rule="evenodd" clip-rule="evenodd" d="M78.7883 34.526H73.1286V40.1583H78.7883V34.526ZM72.6531 34.0527V40.6315H79.2639V34.0527H72.6531Z" fill="#C2C2C2"/>
<path d="M40.8618 22.0918H47.4726V28.3716H40.8618V22.0918Z" fill="white"/>
<path fill-rule="evenodd" clip-rule="evenodd" d="M46.997 22.5651H41.3374V27.8983H46.997V22.5651ZM40.8618 22.0918V28.3716H47.4726V22.0918H40.8618Z" fill="#C2C2C2"/>
<path d="M53.5704 22.0918H60.1812V28.3716H53.5704V22.0918Z" fill="white"/>
<path fill-rule="evenodd" clip-rule="evenodd" d="M59.7057 22.5651H54.046V27.8983H59.7057V22.5651ZM53.5704 22.0918V28.3716H60.1812V22.0918H53.5704Z" fill="#C2C2C2"/>
<path d="M59.9314 22.0918H66.5422V28.3716H59.9314V22.0918Z" fill="white"/>
<path fill-rule="evenodd" clip-rule="evenodd" d="M66.0666 22.5651H60.407V27.8983H66.0666V22.5651ZM59.9314 22.0918V28.3716H66.5422V22.0918H59.9314Z" fill="#C2C2C2"/>
<path d="M66.2922 22.0918H72.903V28.3716H66.2922V22.0918Z" fill="white"/>
<path fill-rule="evenodd" clip-rule="evenodd" d="M72.4275 22.5651H66.7678V27.8983H72.4275V22.5651ZM66.2922 22.0918V28.3716H72.903V22.0918H66.2922Z" fill="#C2C2C2"/>
<path d="M72.6531 22.0918H79.2639V28.3716H72.6531V22.0918Z" fill="white"/>
<path fill-rule="evenodd" clip-rule="evenodd" d="M78.7883 22.5651H73.1286V27.8983H78.7883V22.5651ZM72.6531 22.0918V28.3716H79.2639V22.0918H72.6531Z" fill="#C2C2C2"/>
<path d="M40.8618 40.334H47.4726V46.6138H40.8618V40.334Z" fill="white"/>
<path fill-rule="evenodd" clip-rule="evenodd" d="M46.997 40.8072H41.3374V46.1405H46.997V40.8072ZM40.8618 40.334V46.6138H47.4726V40.334H40.8618Z" fill="#C2C2C2"/>
<path d="M53.5704 40.334H60.1812V46.6138H53.5704V40.334Z" fill="white"/>
<path fill-rule="evenodd" clip-rule="evenodd" d="M59.7057 40.8072H54.046V46.1405H59.7057V40.8072ZM53.5704 40.334V46.6138H60.1812V40.334H53.5704Z" fill="#C2C2C2"/>
<path d="M59.9314 40.334H66.5422V46.6138H59.9314V40.334Z" fill="white"/>
<path fill-rule="evenodd" clip-rule="evenodd" d="M66.0666 40.8072H60.407V46.1405H66.0666V40.8072ZM59.9314 40.334V46.6138H66.5422V40.334H59.9314Z" fill="#C2C2C2"/>
<path d="M66.2922 40.334H72.903V46.6138H66.2922V40.334Z" fill="white"/>
<path fill-rule="evenodd" clip-rule="evenodd" d="M72.4275 40.8072H66.7678V46.1405H72.4275V40.8072ZM66.2922 40.334V46.6138H72.903V40.334H66.2922Z" fill="#C2C2C2"/>
<path d="M72.6531 40.334H79.2639V46.6138H72.6531V40.334Z" fill="white"/>
<path fill-rule="evenodd" clip-rule="evenodd" d="M78.7883 40.8072H73.1286V46.1405H78.7883V40.8072ZM72.6531 40.334V46.6138H79.2639V40.334H72.6531Z" fill="#C2C2C2"/>
<path d="M40.8618 52.2939H47.4726V58.5737H40.8618V52.2939Z" fill="white"/>
<path fill-rule="evenodd" clip-rule="evenodd" d="M46.997 52.7672H41.3374V58.1005H46.997V52.7672ZM40.8618 52.2939V58.5737H47.4726V52.2939H40.8618Z" fill="#C2C2C2"/>
<path d="M53.5704 52.2939H60.1812V58.5737H53.5704V52.2939Z" fill="white"/>
<path fill-rule="evenodd" clip-rule="evenodd" d="M59.7057 52.7672H54.046V58.1005H59.7057V52.7672ZM53.5704 52.2939V58.5737H60.1812V52.2939H53.5704Z" fill="#C2C2C2"/>
<path d="M59.9314 52.2939H66.5422V58.5737H59.9314V52.2939Z" fill="white"/>
<path fill-rule="evenodd" clip-rule="evenodd" d="M66.0666 52.7672H60.407V58.1005H66.0666V52.7672ZM59.9314 52.2939V58.5737H66.5422V52.2939H59.9314Z" fill="#C2C2C2"/>
<path d="M66.2922 52.2939H72.903V58.5737H66.2922V52.2939Z" fill="white"/>
<path fill-rule="evenodd" clip-rule="evenodd" d="M72.4275 52.7672H66.7678V58.1005H72.4275V52.7672ZM66.2922 52.2939V58.5737H72.903V52.2939H66.2922Z" fill="#C2C2C2"/>
<path d="M72.6531 52.2939H79.2639V58.5737H72.6531V52.2939Z" fill="white"/>
<path fill-rule="evenodd" clip-rule="evenodd" d="M78.7883 52.7672H73.1286V58.1005H78.7883V52.7672ZM72.6531 52.2939V58.5737H79.2639V52.2939H72.6531Z" fill="#C2C2C2"/>
<path d="M40.8618 28.0713H47.4726V34.3511H40.8618V28.0713Z" fill="white"/>
<path fill-rule="evenodd" clip-rule="evenodd" d="M46.997 28.5446H41.3374V33.8778H46.997V28.5446ZM40.8618 28.0713V34.3511H47.4726V28.0713H40.8618Z" fill="#C2C2C2"/>
<path d="M53.5704 28.0713H60.1812V34.3511H53.5704V28.0713Z" fill="white"/>
<path fill-rule="evenodd" clip-rule="evenodd" d="M59.7057 28.5446H54.046V33.8778H59.7057V28.5446ZM53.5704 28.0713V34.3511H60.1812V28.0713H53.5704Z" fill="#C2C2C2"/>
<path d="M59.9314 28.0713H66.5422V34.3511H59.9314V28.0713Z" fill="white"/>
<path fill-rule="evenodd" clip-rule="evenodd" d="M66.0666 28.5446H60.407V33.8778H66.0666V28.5446ZM59.9314 28.0713V34.3511H66.5422V28.0713H59.9314Z" fill="#C2C2C2"/>
<path d="M66.2922 28.0713H72.903V34.3511H66.2922V28.0713Z" fill="white"/>
<path fill-rule="evenodd" clip-rule="evenodd" d="M72.4275 28.5446H66.7678V33.8778H72.4275V28.5446ZM66.2922 28.0713V34.3511H72.903V28.0713H66.2922Z" fill="#C2C2C2"/>
<path d="M72.6531 28.0713H79.2639V34.3511H72.6531V28.0713Z" fill="white"/>
<path fill-rule="evenodd" clip-rule="evenodd" d="M78.7883 28.5446H73.1286V33.8778H78.7883V28.5446ZM72.6531 28.0713V34.3511H79.2639V28.0713H72.6531Z" fill="#C2C2C2"/>
<path d="M40.8618 46.3125H47.4726V52.5923H40.8618V46.3125Z" fill="white"/>
<path fill-rule="evenodd" clip-rule="evenodd" d="M46.997 46.7858H41.3374V52.119H46.997V46.7858ZM40.8618 46.3125V52.5923H47.4726V46.3125H40.8618Z" fill="#C2C2C2"/>
<path d="M53.5704 46.3125H60.1812V52.5923H53.5704V46.3125Z" fill="white"/>
<path fill-rule="evenodd" clip-rule="evenodd" d="M59.7057 46.7858H54.046V52.119H59.7057V46.7858ZM53.5704 46.3125V52.5923H60.1812V46.3125H53.5704Z" fill="#C2C2C2"/>
<path d="M59.9314 46.3125H66.5422V52.5923H59.9314V46.3125Z" fill="white"/>
<path fill-rule="evenodd" clip-rule="evenodd" d="M66.0666 46.7858H60.407V52.119H66.0666V46.7858ZM59.9314 46.3125V52.5923H66.5422V46.3125H59.9314Z" fill="#C2C2C2"/>
<path d="M66.2922 46.3125H72.903V52.5923H66.2922V46.3125Z" fill="white"/>
<path fill-rule="evenodd" clip-rule="evenodd" d="M72.4275 46.7858H66.7678V52.119H72.4275V46.7858ZM66.2922 46.3125V52.5923H72.903V46.3125H66.2922Z" fill="#C2C2C2"/>
<path d="M72.6531 46.3125H79.2639V52.5923H72.6531V46.3125Z" fill="white"/>
<path fill-rule="evenodd" clip-rule="evenodd" d="M78.7883 46.7858H73.1286V52.119H78.7883V46.7858ZM72.6531 46.3125V52.5923H79.2639V46.3125H72.6531Z" fill="#C2C2C2"/>
<path d="M40.8618 58.2744H47.4726V64.5542H40.8618V58.2744Z" fill="white"/>
<path fill-rule="evenodd" clip-rule="evenodd" d="M46.997 58.7477H41.3374V64.0809H46.997V58.7477ZM40.8618 58.2744V64.5542H47.4726V58.2744H40.8618Z" fill="#C2C2C2"/>
<path d="M53.5704 58.2744H60.1812V64.5542H53.5704V58.2744Z" fill="white"/>
<path fill-rule="evenodd" clip-rule="evenodd" d="M59.7057 58.7477H54.046V64.0809H59.7057V58.7477ZM53.5704 58.2744V64.5542H60.1812V58.2744H53.5704Z" fill="#C2C2C2"/>
<path d="M59.9314 58.2744H66.5422V64.5542H59.9314V58.2744Z" fill="white"/>
<path fill-rule="evenodd" clip-rule="evenodd" d="M66.0666 58.7477H60.407V64.0809H66.0666V58.7477ZM59.9314 58.2744V64.5542H66.5422V58.2744H59.9314Z" fill="#C2C2C2"/>
<path d="M66.2922 58.2744H72.903V64.5542H66.2922V58.2744Z" fill="white"/>
<path fill-rule="evenodd" clip-rule="evenodd" d="M72.4275 58.7477H66.7678V64.0809H72.4275V58.7477ZM66.2922 58.2744V64.5542H72.903V58.2744H66.2922Z" fill="#C2C2C2"/>
<path d="M72.6531 58.2744H79.2639V64.5542H72.6531V58.2744Z" fill="white"/>
<path fill-rule="evenodd" clip-rule="evenodd" d="M78.7883 58.7477H73.1286V64.0809H78.7883V58.7477ZM72.6531 58.2744V64.5542H79.2639V58.2744H72.6531Z" fill="#C2C2C2"/>
<path fill-rule="evenodd" clip-rule="evenodd" d="M76.164 7.41979H6.80451C5.49128 7.41979 4.42669 8.47923 4.42669 9.78611V61.7184C4.42669 63.0252 5.49128 64.0847 6.80451 64.0847H76.164C77.4772 64.0847 78.5418 63.0252 78.5418 61.7184V9.78611C78.5418 8.47923 77.4772 7.41979 76.164 7.41979ZM6.80451 6C4.70334 6 3 7.6951 3 9.78611V61.7184C3 63.8094 4.70334 65.5045 6.80451 65.5045H76.164C78.2652 65.5045 79.9685 63.8094 79.9685 61.7184V9.78611C79.9685 7.6951 78.2652 6 76.164 6H6.80451Z" fill="black"/>
<path d="M4.42676 9.66079C4.42676 8.42319 5.47897 7.41992 6.77694 7.41992H76.2645C77.5625 7.41992 78.6147 8.42319 78.6147 9.66079V16.4119H4.42676V9.66079Z" fill="#FF9900"/>
<path d="M10.139 11.3805C10.139 12.4294 9.30517 13.2796 8.27663 13.2796C7.2481 13.2796 6.41431 12.4294 6.41431 11.3805C6.41431 10.3317 7.2481 9.48145 8.27663 9.48145C9.30517 9.48145 10.139 10.3317 10.139 11.3805Z" fill="#FF9900"/>
<path fill-rule="evenodd" clip-rule="evenodd" d="M8.27663 12.3331C8.75814 12.3331 9.18783 11.9285 9.18783 11.3805C9.18783 10.8325 8.75814 10.428 8.27663 10.428C7.79513 10.428 7.36543 10.8325 7.36543 11.3805C7.36543 11.9285 7.79513 12.3331 8.27663 12.3331ZM8.27663 13.2796C9.30517 13.2796 10.139 12.4294 10.139 11.3805C10.139 10.3317 9.30517 9.48145 8.27663 9.48145C7.2481 9.48145 6.41431 10.3317 6.41431 11.3805C6.41431 12.4294 7.2481 13.2796 8.27663 13.2796Z" fill="black"/>
<path d="M20.6924 11.3805C20.6924 12.4294 19.8586 13.2796 18.8301 13.2796C17.8016 13.2796 16.9678 12.4294 16.9678 11.3805C16.9678 10.3317 17.8016 9.48145 18.8301 9.48145C19.8586 9.48145 20.6924 10.3317 20.6924 11.3805Z" fill="#FF9900"/>
<path fill-rule="evenodd" clip-rule="evenodd" d="M18.8301 12.3331C19.3116 12.3331 19.7413 11.9285 19.7413 11.3805C19.7413 10.8325 19.3116 10.428 18.8301 10.428C18.3486 10.428 17.9189 10.8325 17.9189 11.3805C17.9189 11.9285 18.3486 12.3331 18.8301 12.3331ZM18.8301 13.2796C19.8586 13.2796 20.6924 12.4294 20.6924 11.3805C20.6924 10.3317 19.8586 9.48145 18.8301 9.48145C17.8016 9.48145 16.9678 10.3317 16.9678 11.3805C16.9678 12.4294 17.8016 13.2796 18.8301 13.2796Z" fill="black"/>
<path d="M15.4157 11.3805C15.4157 12.4294 14.5819 13.2796 13.5534 13.2796C12.5248 13.2796 11.691 12.4294 11.691 11.3805C11.691 10.3317 12.5248 9.48145 13.5534 9.48145C14.5819 9.48145 15.4157 10.3317 15.4157 11.3805Z" fill="#FF9900"/>
<path fill-rule="evenodd" clip-rule="evenodd" d="M13.5534 12.3331C14.0349 12.3331 14.4646 11.9285 14.4646 11.3805C14.4646 10.8325 14.0349 10.428 13.5534 10.428C13.0719 10.428 12.6422 10.8325 12.6422 11.3805C12.6422 11.9285 13.0719 12.3331 13.5534 12.3331ZM13.5534 13.2796C14.5819 13.2796 15.4157 12.4294 15.4157 11.3805C15.4157 10.3317 14.5819 9.48145 13.5534 9.48145C12.5248 9.48145 11.691 10.3317 11.691 11.3805C11.691 12.4294 12.5248 13.2796 13.5534 13.2796Z" fill="black"/>
<g clip-path="url(#clip0_742_5565)">
<path d="M73.7358 16.4453C74.2431 16.7444 74.4326 17.1761 74.4241 17.771C74.3968 19.6338 74.4258 21.4966 74.4019 23.3593C74.3985 23.6619 74.3182 24.0579 74.1167 24.2363C73.9066 24.4216 73.4882 24.4964 73.1961 24.4386C72.7589 24.3519 72.5915 23.9576 72.5915 23.5157C72.5915 22.2427 72.5915 20.968 72.5915 19.695C72.5915 19.0491 72.6223 18.3999 72.583 17.7574C72.5471 17.1591 72.7487 16.7257 73.2781 16.4453H73.7375H73.7358Z" fill="black"/>
<path d="M73.5341 63.8349C71.336 63.8349 69.1397 63.8383 66.9417 63.8349C65.9682 63.8332 65.7445 63.5392 65.6915 62.567C65.6232 61.3382 65.5361 60.0992 65.3107 58.8925C65.0032 57.2472 64.1254 55.9113 62.9282 54.7012C59.3434 51.0793 57.89 46.691 58.6978 41.6669C59.7567 35.0894 64.8393 30.2064 71.4949 29.2173C77.7901 28.2825 84.2595 31.6834 87.0433 37.3924C89.9211 43.2951 88.869 50.0358 84.1707 54.6298C81.9658 56.7866 81.4535 59.4108 81.3646 62.2611C81.3595 62.4327 81.3732 62.6044 81.3612 62.7744C81.3083 63.5307 81.006 63.8298 80.2409 63.8315C78.0053 63.8383 75.7697 63.8349 73.5341 63.8349ZM67.589 61.9857C67.8093 61.9857 68.0364 61.9857 68.2619 61.9857C71.7579 61.9857 75.2539 61.9857 78.7499 61.9857C79.556 61.9857 79.5441 61.9857 79.5953 61.2039C79.7302 59.1542 80.1025 57.147 81.2314 55.3964C81.8224 54.4803 82.6575 53.7239 83.3594 52.8775C87.1236 48.343 87.8119 43.375 85.3081 38.0518C82.8334 32.7899 76.405 29.8291 70.7092 31.0987C64.2586 32.5366 59.784 38.4156 60.2827 44.9302C60.5337 48.2104 61.7839 51.0454 64.1544 53.3296C65.6966 54.8151 66.6582 56.5708 67.0732 58.6341C67.2901 59.71 67.4096 60.8062 67.5855 61.9857H67.589Z" fill="black"/>
<path d="M73.4488 69.4048C71.442 69.4048 69.4353 69.4201 67.4285 69.3997C66.3338 69.3878 65.4184 68.5906 65.2476 67.5692C65.0683 66.4916 65.6182 65.4583 66.6224 65.0844C66.9708 64.9552 67.3671 64.8991 67.7428 64.8974C71.5838 64.8838 75.4265 64.8821 79.2675 64.8923C80.644 64.8957 81.6329 65.6911 81.761 66.8452C81.9164 68.2524 80.9019 69.3827 79.4127 69.4014C77.4247 69.4252 75.4368 69.4065 73.4505 69.4065L73.4488 69.4048ZM73.4761 66.6599C71.5291 66.6599 69.5805 66.648 67.6335 66.6769C67.4354 66.6803 67.116 66.8893 67.0716 67.0593C66.9794 67.4162 67.2834 67.5352 67.6027 67.5522C67.7172 67.559 67.8316 67.5556 67.946 67.5556C71.6504 67.5556 75.3531 67.5556 79.0574 67.5556C79.1906 67.5556 79.3529 67.5981 79.452 67.5386C79.6244 67.4349 79.7594 67.265 79.9097 67.1239C79.7508 66.9692 79.6074 66.7908 79.4246 66.6718C79.3307 66.6106 79.165 66.6582 79.0301 66.6582C77.1788 66.6582 75.3257 66.6582 73.4744 66.6582L73.4761 66.6599Z" fill="black"/>
<path d="M73.5085 74.8722C72.0756 74.8722 70.6427 74.896 69.2115 74.8637C68.1065 74.8399 67.2542 74.0802 67.039 73.018C66.8443 72.0611 67.3465 71.0243 68.2619 70.6079C68.6 70.4549 68.9963 70.3581 69.3652 70.3564C72.1336 70.336 74.9038 70.3207 77.6723 70.3564C79.2469 70.3768 80.2494 71.6481 79.9335 73.1063C79.7114 74.1278 78.8165 74.8518 77.6893 74.8688C76.2957 74.8892 74.9004 74.8739 73.5068 74.8739V74.8705L73.5085 74.8722ZM73.5631 72.1257C72.1866 72.1257 70.8117 72.1274 69.4352 72.124C69.1209 72.124 68.8255 72.175 68.8289 72.5557C68.8323 72.9245 69.1244 73.001 69.4386 73.0044C69.4762 73.0044 69.5155 73.0044 69.553 73.0044C72.19 73.0044 74.8269 73.0044 77.4656 73.0044C77.8072 73.0044 78.1761 72.9789 78.1539 72.5285C78.1351 72.1155 77.7798 72.1223 77.4622 72.124C76.1625 72.1274 74.8628 72.124 73.5631 72.124V72.1257Z" fill="black"/>
<path d="M63.4371 26.9258C63.227 27.1552 63.0409 27.5291 62.7625 27.6175C62.4841 27.7059 62.0845 27.5682 61.7924 27.4203C61.5977 27.3218 61.4935 27.0396 61.3603 26.8323C60.3715 25.2975 59.3877 23.7594 58.4006 22.2246C58.1581 21.849 58.0044 21.419 58.3289 21.0689C58.5304 20.8514 58.913 20.6899 59.2067 20.7018C59.4543 20.7103 59.7703 20.9533 59.9206 21.1811C61.0136 22.8297 62.0759 24.4987 63.1365 26.1677C63.2544 26.353 63.3039 26.5841 63.4371 26.9275V26.9258Z" fill="black"/>
<path d="M91.3968 35.2392C91.2038 35.0811 90.84 34.9281 90.7683 34.6885C90.6795 34.3893 90.8025 34.0137 90.8913 33.6857C90.922 33.5718 91.1116 33.4852 91.2448 33.4138C92.9885 32.4739 94.7357 31.5391 96.4828 30.6026C96.8842 30.3885 97.3282 30.3188 97.6476 30.6587C97.8372 30.861 97.9397 31.2434 97.9021 31.5204C97.8713 31.7533 97.6237 32.0286 97.3983 32.1527C95.6135 33.1367 93.8134 34.0919 92.0133 35.0488C91.8665 35.127 91.6923 35.1508 91.3985 35.2375L91.3968 35.2392Z" fill="black"/>
<path d="M55.6322 35.2588C55.2872 35.1432 55.0754 35.1058 54.8978 35.009C53.1523 34.0725 51.4103 33.1309 49.6734 32.1791C49.0705 31.8494 48.91 31.4092 49.1696 30.918C49.4258 30.4319 49.9723 30.2892 50.5547 30.6002C52.3018 31.5333 54.0387 32.4833 55.7807 33.4266C56.2453 33.6782 56.469 34.0827 56.2777 34.562C56.165 34.8458 55.8388 35.0447 55.6322 35.2588Z" fill="black"/>
<path d="M89.3456 21.7022C89.1919 22.0336 89.1219 22.2511 89.0006 22.4347C87.8956 24.0986 86.7872 25.7591 85.6703 27.4146C85.3065 27.955 84.8573 28.0825 84.4133 27.8072C83.9487 27.5182 83.8394 27.0015 84.1913 26.4679C85.3116 24.7683 86.4491 23.0805 87.5882 21.3945C87.8324 21.0325 88.1996 20.8082 88.6164 21.0189C88.8999 21.1634 89.1031 21.4659 89.3456 21.7022Z" fill="black"/>
<path d="M67.589 61.9863C67.4114 60.8068 67.2919 59.7105 67.0767 58.6347C66.6617 56.5713 65.7018 54.8156 64.1579 53.3302C61.7874 51.0476 60.5372 48.211 60.2862 44.9307C59.7875 38.4161 64.2621 32.5372 70.7127 31.0993C76.4085 29.8297 82.8369 32.7904 85.3116 38.0524C87.8153 43.3756 87.1254 48.3435 83.3629 52.8781C82.661 53.7245 81.8258 54.4825 81.2349 55.3969C80.1043 57.1458 79.732 59.153 79.5988 61.2045C79.5475 61.9846 79.5595 61.9863 78.7534 61.9863C75.2574 61.9863 71.7614 61.9863 68.2654 61.9863C68.0382 61.9863 67.8128 61.9863 67.5925 61.9863H67.589ZM85.2057 44.0027C85.093 39.152 81.4501 34.5444 76.721 33.3615C75.7117 33.1082 74.6562 33.0114 73.6161 32.9094C73.0406 32.8533 72.617 33.2731 72.5999 33.7694C72.5811 34.2606 72.9791 34.6515 73.5563 34.7042C73.6708 34.7144 73.7852 34.7127 73.8996 34.7178C78.6868 34.9251 82.5876 38.4399 83.2758 43.1733C83.3459 43.6611 83.3424 44.1591 83.4193 44.6452C83.503 45.1704 83.8975 45.4729 84.374 45.4389C84.8437 45.4066 85.1767 45.0395 85.204 44.5143C85.2126 44.3443 85.204 44.1727 85.204 44.001L85.2057 44.0027Z" fill="white"/>
<path d="M73.476 66.6602C75.3273 66.6602 77.1803 66.6602 79.0317 66.6602C79.1649 66.6602 79.3305 66.6126 79.4262 66.6738C79.6089 66.7911 79.7524 66.9712 79.9112 67.1259C79.7609 67.267 79.6277 67.4352 79.4535 67.5406C79.3545 67.6001 79.1922 67.5576 79.059 67.5576C75.3546 67.5576 71.652 67.5576 67.9476 67.5576C67.8332 67.5576 67.7187 67.561 67.6043 67.5542C67.2849 67.5372 66.9809 67.4165 67.0732 67.0613C67.1176 66.8914 67.4369 66.6823 67.635 66.6789C69.582 66.65 71.529 66.6619 73.4777 66.6619L73.476 66.6602Z" fill="white"/>
<path d="M73.5631 72.127C74.8628 72.127 76.1625 72.1287 77.4622 72.127C77.7798 72.127 78.1351 72.1185 78.1539 72.5315C78.1744 72.9819 77.8072 73.0074 77.4656 73.0074C74.8286 73.0074 72.1917 73.0074 69.553 73.0074C69.5154 73.0074 69.4762 73.0074 69.4386 73.0074C69.1243 73.0057 68.8323 72.9292 68.8289 72.5587C68.8255 72.178 69.1192 72.127 69.4352 72.127C70.8117 72.1304 72.1866 72.1287 73.5631 72.127Z" fill="white"/>
<path d="M85.2057 44.0013C85.2057 44.1729 85.2125 44.3446 85.2057 44.5145C85.1784 45.0397 84.8453 45.4051 84.3757 45.4391C83.8992 45.4731 83.5046 45.1706 83.421 44.6454C83.3441 44.1593 83.3492 43.6613 83.2775 43.1736C82.5892 38.4401 78.6884 34.9254 73.9013 34.718C73.7869 34.7129 73.6724 34.7146 73.558 34.7044C72.9807 34.6517 72.5828 34.2625 72.6016 33.7696C72.6204 33.2733 73.0422 32.8518 73.6178 32.9096C74.6579 33.0116 75.7116 33.1102 76.7227 33.3617C81.4518 34.5446 85.0964 39.1506 85.2074 44.003L85.2057 44.0013Z" fill="black"/>
</g>
<defs>
<clipPath id="clip0_742_5565">
<rect width="50.8421" height="58.1053" fill="white" transform="translate(47.4868 16.8945)"/>
</clipPath>
</defs>
</svg>
