<svg width="160" height="130" viewBox="0 0 160 130" fill="none" xmlns="http://www.w3.org/2000/svg">
<path fill-rule="evenodd" clip-rule="evenodd" d="M43.8521 107.376C57.5775 107.376 68.7042 96.2498 68.7042 82.5244C68.7042 68.7989 57.5775 57.6723 43.8521 57.6723C30.1267 57.6723 19 68.7989 19 82.5244C19 87.4295 20.421 92.0026 22.8739 95.8547L19.7075 102.812C18.9487 104.479 20.5231 106.257 22.2697 105.705L30.1051 103.231C34.0422 105.85 38.7689 107.376 43.8521 107.376Z" fill="#FF9900"/>
<path fill-rule="evenodd" clip-rule="evenodd" d="M26.0749 95.6304L22.9306 102.539L30.5433 100.135L31.6673 100.883C35.1559 103.204 39.3418 104.556 43.8521 104.556C56.0198 104.556 65.8836 94.6921 65.8836 82.5244C65.8836 70.3567 56.0198 60.4928 43.8521 60.4928C31.6844 60.4928 21.8205 70.3567 21.8205 82.5244C21.8205 86.877 23.0799 90.9269 25.253 94.3398L26.0749 95.6304ZM22.8739 95.8547L19.7075 102.812C18.9487 104.479 20.5231 106.257 22.2697 105.705L30.1051 103.231C34.0422 105.85 38.7689 107.376 43.8521 107.376C57.5775 107.376 68.7042 96.2498 68.7042 82.5244C68.7042 68.7989 57.5775 57.6723 43.8521 57.6723C30.1267 57.6723 19 68.7989 19 82.5244C19 87.4295 20.421 92.0026 22.8739 95.8547Z" fill="#232323"/>
<path fill-rule="evenodd" clip-rule="evenodd" d="M82.89 106.197C56.8781 106.197 35.7913 85.1106 35.7913 59.0987C35.7913 33.0868 56.8781 12 82.89 12C108.902 12 129.989 33.0868 129.989 59.0987C129.989 68.3951 127.295 77.0625 122.646 84.363L130.408 101.417C131.167 103.084 129.593 104.862 127.846 104.31L108.942 98.3421C101.481 103.305 92.5232 106.197 82.89 106.197Z" fill="white"/>
<path fill-rule="evenodd" clip-rule="evenodd" d="M119.445 84.1387L127.185 101.144L108.504 95.246L107.38 95.9937C100.367 100.659 91.9504 103.377 82.89 103.377C58.4358 103.377 38.6118 83.5529 38.6118 59.0987C38.6118 34.6446 58.4358 14.8205 82.89 14.8205C107.344 14.8205 127.168 34.6446 127.168 59.0987C127.168 67.8427 124.637 75.9867 120.267 82.848L119.445 84.1387ZM122.646 84.363L130.408 101.417C131.167 103.084 129.593 104.862 127.846 104.31L108.942 98.3421C101.481 103.305 92.5232 106.197 82.89 106.197C56.8781 106.197 35.7913 85.1106 35.7913 59.0987C35.7913 33.0868 56.8781 12 82.89 12C108.902 12 129.989 33.0868 129.989 59.0987C129.989 68.3951 127.295 77.0625 122.646 84.363Z" fill="black"/>
<path d="M59.9714 48.2699C59.9714 47.157 60.8736 46.2548 61.9865 46.2548H104.974C106.087 46.2548 106.989 47.157 106.989 48.2699C106.989 49.3827 106.087 50.2849 104.974 50.2849H61.9865C60.8736 50.2849 59.9714 49.3827 59.9714 48.2699Z" fill="black"/>
<path d="M59.9714 62.3747C59.9714 61.2619 60.8736 60.3597 61.9865 60.3597H104.974C106.087 60.3597 106.989 61.2619 106.989 62.3747C106.989 63.4876 106.087 64.3898 104.974 64.3898H61.9865C60.8736 64.3898 59.9714 63.4876 59.9714 62.3747Z" fill="black"/>
<path d="M59.9714 75.8086C59.9714 74.6957 60.8736 73.7935 61.9865 73.7935H88.1819C89.2948 73.7935 90.1969 74.6957 90.1969 75.8086C90.1969 76.9214 89.2948 77.8236 88.1819 77.8236H61.9865C60.8736 77.8236 59.9714 76.9214 59.9714 75.8086Z" fill="black"/>
</svg>
