<svg width="160" height="130" viewBox="0 0 160 130" fill="none" xmlns="http://www.w3.org/2000/svg">
<path d="M29.3435 26.907C29.3435 22.5401 32.8836 19 37.2505 19H123.437C127.803 19 131.344 22.5401 131.344 26.907V113.093C131.344 117.46 127.803 121 123.437 121H37.2505C32.8836 121 29.3435 117.46 29.3435 113.093V26.907Z" fill="white"/>
<path fill-rule="evenodd" clip-rule="evenodd" d="M123.437 22.1628H37.2505C34.6303 22.1628 32.5063 24.2868 32.5063 26.907V113.093C32.5063 115.713 34.6303 117.837 37.2505 117.837H123.437C126.057 117.837 128.181 115.713 128.181 113.093V26.907C128.181 24.2868 126.057 22.1628 123.437 22.1628ZM37.2505 19C32.8836 19 29.3435 22.5401 29.3435 26.907V113.093C29.3435 117.46 32.8836 121 37.2505 121H123.437C127.803 121 131.344 117.46 131.344 113.093V26.907C131.344 22.5401 127.803 19 123.437 19H37.2505Z" fill="black"/>
<path fill-rule="evenodd" clip-rule="evenodd" d="M129.565 33.8261H51.8794V30.6633H129.565V33.8261Z" fill="black"/>
<path d="M45.3542 31.4532H47.7263V33.8253H45.3542V31.4532Z" fill="black"/>
<path d="M40.0173 31.4532H42.3894V33.8253H40.0173V31.4532Z" fill="black"/>
<path d="M34.6802 31.4535H37.0523V33.8256H34.6802V31.4535Z" fill="black"/>
<path fill-rule="evenodd" clip-rule="evenodd" d="M113.826 44.1628H48V41H113.826V44.1628Z" fill="black"/>
<path fill-rule="evenodd" clip-rule="evenodd" d="M118.099 58.3378H41.9948V65.6517H118.099V58.3378ZM38.832 55.175V68.8145H121.262V55.175H38.832Z" fill="black"/>
<path fill-rule="evenodd" clip-rule="evenodd" d="M118.099 77.9065H41.9948V85.2205H118.099V77.9065ZM38.832 74.7437V88.3833H121.262V74.7437H38.832Z" fill="black"/>
<path fill-rule="evenodd" clip-rule="evenodd" d="M118.099 98.6628H41.9948V105.977H118.099V98.6628ZM38.832 95.5V109.14H121.262V95.5H38.832Z" fill="black"/>
<path fill-rule="evenodd" clip-rule="evenodd" d="M106.052 73.9508C106.76 73.8106 106.925 72.8732 106.308 72.499L94.2389 65.1814C93.7184 64.8659 93.0515 65.2321 93.0384 65.8406L92.7357 79.9516C92.7202 80.6731 93.6 81.0365 94.0982 80.5145L96.744 77.7421C97.1131 77.3553 97.7517 77.4387 98.0091 77.9074L103.066 87.1163C103.276 87.4991 103.757 87.639 104.139 87.4288L106.758 85.9912C107.14 85.781 107.28 85.3003 107.07 84.9175L102.059 75.791C101.801 75.3223 102.074 74.7386 102.598 74.6348L106.052 73.9508Z" fill="white"/>
<path fill-rule="evenodd" clip-rule="evenodd" d="M92.7356 79.9521C92.7294 80.2447 92.8703 80.4784 93.0734 80.618C93.371 80.8227 93.802 80.8253 94.0982 80.5149L96.7439 77.7425C97.113 77.3557 97.7517 77.4392 98.009 77.9079L103.066 87.1167C103.276 87.4995 103.756 87.6394 104.139 87.4293L106.757 85.9916C107.14 85.7814 107.28 85.3007 107.07 84.918L102.059 75.7914C102.043 75.7635 102.03 75.7351 102.018 75.7065C101.835 75.2548 102.105 74.7329 102.598 74.6352L106.052 73.9513C106.43 73.8763 106.653 73.5737 106.685 73.251C106.713 72.9699 106.595 72.6737 106.308 72.4995L94.2388 65.1819C93.7183 64.8663 93.0514 65.2325 93.0383 65.8411L92.7356 79.9521ZM110.727 78.4364C113.966 75.4588 113.931 69.7241 109.587 67.0905L97.5183 59.7729C92.834 56.9327 86.8317 60.2285 86.7142 65.7054L86.4115 79.8164C86.3001 85.0118 91.3467 88.1443 95.6655 86.7823L97.5209 90.1613C99.4126 93.6063 103.739 94.8656 107.184 92.9739L109.802 91.5363C113.247 89.6446 114.506 85.3184 112.615 81.8734L110.727 78.4364Z" fill="white"/>
<path fill-rule="evenodd" clip-rule="evenodd" d="M106.052 73.9508C106.76 73.8106 106.925 72.8732 106.308 72.499L94.2389 65.1814C93.7184 64.8659 93.0515 65.2321 93.0384 65.8406L92.7357 79.9516C92.7202 80.6731 93.6 81.0365 94.0982 80.5145L96.744 77.7421C97.1131 77.3553 97.7517 77.4387 98.0091 77.9074L103.066 87.1163C103.276 87.4991 103.757 87.639 104.139 87.4288L106.758 85.9912C107.14 85.781 107.28 85.3003 107.07 84.9175L102.059 75.791C101.801 75.3223 102.074 74.7386 102.598 74.6348L106.052 73.9508Z" fill="#FF9900"/>
<path fill-rule="evenodd" clip-rule="evenodd" d="M92.7354 79.9531C92.72 80.6746 93.5997 81.0381 94.098 80.516L96.7437 77.7436C97.1128 77.3568 97.7515 77.4403 98.0088 77.9089L103.065 87.1178C103.276 87.5006 103.756 87.6405 104.139 87.4303L106.757 85.9927C107.14 85.7825 107.28 85.3018 107.07 84.919L102.058 75.7925C101.801 75.3238 102.073 74.7402 102.598 74.6363L106.051 73.9523C106.759 73.8121 106.925 72.8747 106.308 72.5006L94.2386 65.183C93.7181 64.8674 93.0512 65.2336 93.0381 65.8421L92.7354 79.9531ZM95.8783 62.4785L107.947 69.7961C111.033 71.6668 110.205 76.3539 106.666 77.0549L106.39 77.1095L109.842 83.3967C110.893 85.3106 110.193 87.7141 108.28 88.765L105.661 90.2027C103.747 91.2536 101.344 90.554 100.293 88.6401L96.7955 82.2705L96.386 82.6995C93.8949 85.3099 89.496 83.4928 89.5734 79.8853L89.8761 65.7743C89.9413 62.7316 93.2759 60.9006 95.8783 62.4785Z" fill="black"/>
</svg>
