<svg width="200" height="180" viewBox="0 0 200 180" fill="none" xmlns="http://www.w3.org/2000/svg">
<rect x="29" y="18" width="143" height="143" rx="8" fill="white" stroke="black" stroke-width="4"/>
<line x1="59.4775" y1="35.3663" x2="171.437" y2="35.3663" stroke="black" stroke-width="4"/>
<rect x="50.0752" y="33.9477" width="3.4186" height="3.4186" fill="black"/>
<rect x="42.3828" y="33.9477" width="3.4186" height="3.4186" fill="black"/>
<rect x="34.6914" y="33.9477" width="3.4186" height="3.4186" fill="black"/>
<line x1="53.4941" y1="50.75" x2="148.36" y2="50.75" stroke="black" stroke-width="4"/>
<rect x="42.6748" y="70.1337" width="114.797" height="15.657" stroke="black" stroke-width="4"/>
<rect x="42.6748" y="98.3372" width="114.797" height="15.657" stroke="black" stroke-width="4"/>
<rect x="42.6748" y="128.25" width="114.797" height="15.657" stroke="black" stroke-width="4"/>
<mask id="path-10-outside-1_101_10280" maskUnits="userSpaceOnUse" x="96.6317" y="67.6761" width="55.5353" height="59.8829" fill="black">
<rect fill="white" x="96.6317" y="67.6761" width="55.5353" height="59.8829"/>
<path fill-rule="evenodd" clip-rule="evenodd" d="M133.014 94.4985C133.909 94.3212 134.118 93.1357 133.338 92.6625L118.074 83.4079C117.416 83.0088 116.572 83.4719 116.556 84.2415L116.173 102.088C116.153 103 117.266 103.46 117.896 102.8L121.243 99.2928C121.71 98.8036 122.517 98.9091 122.843 99.5018L129.238 111.149C129.504 111.633 130.112 111.81 130.596 111.544L133.907 109.726C134.391 109.46 134.568 108.852 134.302 108.368L127.964 96.8256C127.639 96.2329 127.983 95.4947 128.647 95.3634L133.014 94.4985Z"/>
</mask>
<path fill-rule="evenodd" clip-rule="evenodd" d="M133.014 94.4985C133.909 94.3212 134.118 93.1357 133.338 92.6625L118.074 83.4079C117.416 83.0088 116.572 83.4719 116.556 84.2415L116.173 102.088C116.153 103 117.266 103.46 117.896 102.8L121.243 99.2928C121.71 98.8036 122.517 98.9091 122.843 99.5018L129.238 111.149C129.504 111.633 130.112 111.81 130.596 111.544L133.907 109.726C134.391 109.46 134.568 108.852 134.302 108.368L127.964 96.8256C127.639 96.2329 127.983 95.4947 128.647 95.3634L133.014 94.4985Z" fill="white"/>
<path d="M133.907 109.726L137.758 116.738L133.907 109.726ZM129.238 111.149L122.226 114.999L129.238 111.149ZM130.596 111.544L126.745 104.532L130.596 111.544ZM116.173 102.088L108.175 101.916L116.173 102.088ZM117.896 102.8L123.684 108.323L117.896 102.8ZM133.338 92.6625L129.19 99.5033L133.338 92.6625ZM133.014 94.4985L131.459 86.651L133.014 94.4985ZM113.926 90.2487L129.19 99.5033L137.485 85.8217L122.222 76.567L113.926 90.2487ZM124.171 102.259L124.554 84.4131L108.557 84.07L108.175 101.916L124.171 102.259ZM115.455 93.7696L112.109 97.2765L123.684 108.323L127.03 104.816L115.455 93.7696ZM136.251 107.298L129.855 95.6513L115.83 103.352L122.226 114.999L136.251 107.298ZM130.057 102.714L126.745 104.532L134.446 118.557L137.758 116.738L130.057 102.714ZM120.952 100.676L127.29 112.219L141.315 104.518L134.977 92.9751L120.952 100.676ZM131.459 86.651L127.093 87.5158L130.201 103.211L134.568 102.346L131.459 86.651ZM134.977 92.9751C137.255 97.1243 134.844 102.291 130.201 103.211L127.093 87.5158C121.123 88.6981 118.023 95.3415 120.952 100.676L134.977 92.9751ZM137.758 116.738C142.115 114.346 143.707 108.875 141.315 104.518L127.29 112.219C125.429 108.83 126.668 104.574 130.057 102.714L137.758 116.738ZM122.226 114.999C124.618 119.356 130.09 120.949 134.446 118.557L126.745 104.532C130.134 102.671 134.39 103.91 136.251 107.298L122.226 114.999ZM127.03 104.816C123.762 108.24 118.109 107.501 115.83 103.352L129.855 95.6513C126.926 90.3168 119.657 89.3669 115.455 93.7696L127.03 104.816ZM108.175 101.916C107.999 110.128 118.013 114.265 123.684 108.323L112.109 97.2765C116.519 92.6546 124.308 95.8721 124.171 102.259L108.175 101.916ZM129.19 99.5033C123.727 96.191 125.192 87.8921 131.459 86.651L134.568 102.346C142.625 100.75 144.509 90.0804 137.485 85.8217L129.19 99.5033ZM122.222 76.567C116.297 72.9751 108.706 77.1433 108.557 84.07L124.554 84.4131C124.438 89.8005 118.534 93.0424 113.926 90.2487L122.222 76.567Z" fill="white" mask="url(#path-10-outside-1_101_10280)"/>
<mask id="path-12-outside-2_101_10280" maskUnits="userSpaceOnUse" x="102.063" y="73.1075" width="44.6724" height="49.02" fill="black">
<rect fill="white" x="102.063" y="73.1075" width="44.6724" height="49.02"/>
<path fill-rule="evenodd" clip-rule="evenodd" d="M133.014 94.4985C133.909 94.3212 134.118 93.1357 133.338 92.6625L118.074 83.4079C117.416 83.0088 116.572 83.4719 116.556 84.2415L116.173 102.088C116.153 103 117.266 103.46 117.896 102.8L121.243 99.2928C121.71 98.8036 122.517 98.9091 122.843 99.5018L129.238 111.149C129.504 111.633 130.112 111.81 130.596 111.544L133.907 109.726C134.391 109.46 134.568 108.852 134.302 108.368L127.964 96.8256C127.639 96.2329 127.983 95.4947 128.647 95.3634L133.014 94.4985Z"/>
</mask>
<path fill-rule="evenodd" clip-rule="evenodd" d="M133.014 94.4985C133.909 94.3212 134.118 93.1357 133.338 92.6625L118.074 83.4079C117.416 83.0088 116.572 83.4719 116.556 84.2415L116.173 102.088C116.153 103 117.266 103.46 117.896 102.8L121.243 99.2928C121.71 98.8036 122.517 98.9091 122.843 99.5018L129.238 111.149C129.504 111.633 130.112 111.81 130.596 111.544L133.907 109.726C134.391 109.46 134.568 108.852 134.302 108.368L127.964 96.8256C127.639 96.2329 127.983 95.4947 128.647 95.3634L133.014 94.4985Z" fill="#FF9900"/>
<path d="M133.907 109.726L135.832 113.232L133.907 109.726ZM129.238 111.149L125.732 113.074L129.238 111.149ZM130.596 111.544L128.671 108.038L130.596 111.544ZM116.173 102.088L112.174 102.002L116.173 102.088ZM117.896 102.8L120.79 105.561L117.896 102.8ZM133.338 92.6625L131.264 96.0829L133.338 92.6625ZM133.014 94.4985L132.236 90.5748L133.014 94.4985ZM116 86.8283L131.264 96.0829L135.412 89.2421L120.148 79.9875L116 86.8283ZM120.172 102.174L120.555 84.3273L112.557 84.1557L112.174 102.002L120.172 102.174ZM118.349 96.5312L115.002 100.038L120.79 105.561L124.136 102.054L118.349 96.5312ZM132.744 109.224L126.349 97.5766L119.336 101.427L125.732 113.074L132.744 109.224ZM131.982 106.22L128.671 108.038L132.521 115.05L135.832 113.232L131.982 106.22ZM124.458 98.7509L130.796 110.293L137.809 106.443L131.471 94.9004L124.458 98.7509ZM132.236 90.5748L127.87 91.4396L129.424 99.2872L133.791 98.4223L132.236 90.5748ZM131.471 94.9004C132.447 96.6786 131.414 98.8931 129.424 99.2872L127.87 91.4396C124.553 92.0964 122.831 95.7872 124.458 98.7509L131.471 94.9004ZM135.832 113.232C138.253 111.903 139.138 108.863 137.809 106.443L130.796 110.293C129.999 108.841 130.53 107.017 131.982 106.22L135.832 113.232ZM125.732 113.074C127.061 115.495 130.101 116.38 132.521 115.05L128.671 108.038C130.123 107.241 131.947 107.771 132.744 109.224L125.732 113.074ZM124.136 102.054C122.736 103.522 120.313 103.205 119.336 101.427L126.349 97.5766C124.722 94.613 120.683 94.0853 118.349 96.5312L124.136 102.054ZM112.174 102.002C112.076 106.564 117.639 108.863 120.79 105.561L115.002 100.038C116.893 98.0573 120.231 99.4362 120.172 102.174L112.174 102.002ZM131.264 96.0829C128.923 94.6633 129.551 91.1067 132.236 90.5748L133.791 98.4223C138.267 97.5358 139.314 91.608 135.412 89.2421L131.264 96.0829ZM120.148 79.9875C116.856 77.9919 112.639 80.3076 112.557 84.1557L120.555 84.3273C120.505 86.6362 117.975 88.0256 116 86.8283L120.148 79.9875Z" fill="black" mask="url(#path-12-outside-2_101_10280)"/>
</svg>
