<svg width="100" height="80" viewBox="0 0 100 80" fill="none" xmlns="http://www.w3.org/2000/svg">
<path fill-rule="evenodd" clip-rule="evenodd" d="M31.1423 69.0003C39.5052 69.0003 46.2846 62.234 46.2846 53.8874C46.2846 45.5407 39.5052 38.7744 31.1423 38.7744C22.7794 38.7744 16 45.5407 16 53.8874C16 56.8702 16.8658 59.6513 18.3604 61.9938L16.4311 66.2244C15.9688 67.2382 16.928 68.3194 17.9922 67.984L22.7663 66.4797C25.1652 68.0723 28.0452 69.0003 31.1423 69.0003Z" fill="#FF9900"/>
<path fill-rule="evenodd" clip-rule="evenodd" d="M20.3107 61.8574L18.3949 66.0585L23.0333 64.5969L23.7182 65.0516C25.8438 66.4628 28.3942 67.2851 31.1423 67.2851C38.556 67.2851 44.5661 61.2868 44.5661 53.8874C44.5661 46.488 38.556 40.4896 31.1423 40.4896C23.7286 40.4896 17.7185 46.488 17.7185 53.8874C17.7185 56.5343 18.4859 58.9971 19.81 61.0725L20.3107 61.8574ZM18.3604 61.9938L16.4311 66.2244C15.9688 67.2382 16.928 68.3194 17.9922 67.984L22.7663 66.4797C25.1652 68.0723 28.0452 69.0003 31.1423 69.0003C39.5052 69.0003 46.2846 62.234 46.2846 53.8874C46.2846 45.5407 39.5052 38.7744 31.1423 38.7744C22.7794 38.7744 16 45.5407 16 53.8874C16 56.8702 16.8658 59.6513 18.3604 61.9938Z" fill="#232323"/>
<path fill-rule="evenodd" clip-rule="evenodd" d="M54.928 68.283C39.079 68.283 26.2309 55.4598 26.2309 39.6415C26.2309 23.8232 39.079 11 54.928 11C70.777 11 83.6251 23.8232 83.6251 39.6415C83.6251 45.2948 81.984 50.5656 79.1514 55.0051L83.8808 65.3759C84.3431 66.3897 83.3839 67.4709 82.3197 67.1355L70.8016 63.5061C66.2554 66.5243 60.7975 68.283 54.928 68.283Z" fill="white"/>
<path fill-rule="evenodd" clip-rule="evenodd" d="M77.201 54.8687L81.917 65.21L70.5346 61.6233L69.8498 62.078C65.5768 64.9148 60.4484 66.5678 54.928 66.5678C40.0281 66.5678 27.9494 54.5125 27.9494 39.6415C27.9494 24.7705 40.0281 12.7152 54.928 12.7152C69.8279 12.7152 81.9066 24.7705 81.9066 39.6415C81.9066 44.9589 80.364 49.9114 77.7018 54.0838L77.201 54.8687ZM79.1514 55.0051L83.8808 65.3759C84.3431 66.3897 83.3839 67.4709 82.3197 67.1355L70.8016 63.5061C66.2554 66.5243 60.7975 68.283 54.928 68.283C39.079 68.283 26.2309 55.4598 26.2309 39.6415C26.2309 23.8232 39.079 11 54.928 11C70.777 11 83.6251 23.8232 83.6251 39.6415C83.6251 45.2948 81.984 50.5656 79.1514 55.0051Z" fill="black"/>
<path d="M40.9637 33.0564C40.9637 32.3797 41.5134 31.8311 42.1915 31.8311H68.3836C69.0617 31.8311 69.6113 32.3797 69.6113 33.0564C69.6113 33.7332 69.0617 34.2818 68.3836 34.2818H42.1915C41.5134 34.2818 40.9637 33.7332 40.9637 33.0564Z" fill="black"/>
<path d="M40.9637 41.6336C40.9637 40.9568 41.5134 40.4082 42.1915 40.4082H68.3836C69.0617 40.4082 69.6113 40.9568 69.6113 41.6336C69.6113 42.3103 69.0617 42.859 68.3836 42.859H42.1915C41.5134 42.859 40.9637 42.3103 40.9637 41.6336Z" fill="black"/>
<path d="M40.9637 49.8035C40.9637 49.1267 41.5134 48.5781 42.1915 48.5781H58.1523C58.8304 48.5781 59.3801 49.1267 59.3801 49.8035C59.3801 50.4803 58.8304 51.0289 58.1523 51.0289H42.1915C41.5134 51.0289 40.9637 50.4803 40.9637 49.8035Z" fill="black"/>
</svg>
