<svg width="200" height="180" viewBox="0 0 200 180" fill="none" xmlns="http://www.w3.org/2000/svg">
<rect x="5.5" y="35.0578" width="11.937" height="11.937" fill="white" stroke="#C2C2C2"/>
<rect x="5.5" y="70.9285" width="11.937" height="11.937" fill="white" stroke="#C2C2C2"/>
<rect x="5.5" y="47.4068" width="11.937" height="11.3489" fill="white" stroke="#C2C2C2"/>
<rect x="5.5" y="83.2775" width="11.937" height="11.3489" fill="white" stroke="#C2C2C2"/>
<rect x="5.5" y="106.799" width="11.937" height="11.3489" fill="white" stroke="#C2C2C2"/>
<rect x="5.5" y="59.1677" width="11.937" height="11.3489" fill="white" stroke="#C2C2C2"/>
<rect x="5.5" y="95.0383" width="11.937" height="11.3489" fill="white" stroke="#C2C2C2"/>
<rect x="5.5" y="118.56" width="11.937" height="11.3489" fill="white" stroke="#C2C2C2"/>
<rect x="54.8955" y="35.0579" width="11.937" height="11.937" fill="white" stroke="#C2C2C2"/>
<rect x="54.8955" y="70.9285" width="11.937" height="11.937" fill="white" stroke="#C2C2C2"/>
<rect x="54.8955" y="47.4068" width="11.937" height="11.3489" fill="white" stroke="#C2C2C2"/>
<rect x="54.8955" y="83.2775" width="11.937" height="11.3489" fill="white" stroke="#C2C2C2"/>
<rect x="54.8955" y="106.799" width="11.937" height="11.3489" fill="white" stroke="#C2C2C2"/>
<rect x="54.8955" y="59.1676" width="11.937" height="11.3489" fill="white" stroke="#C2C2C2"/>
<rect x="54.8955" y="95.0383" width="11.937" height="11.3489" fill="white" stroke="#C2C2C2"/>
<rect x="54.8955" y="118.56" width="11.937" height="11.3489" fill="white" stroke="#C2C2C2"/>
<rect x="5.5" y="35.0578" width="11.937" height="11.937" fill="white" stroke="#C2C2C2"/>
<rect x="5.5" y="70.9285" width="11.937" height="11.937" fill="white" stroke="#C2C2C2"/>
<rect x="5.5" y="47.4068" width="11.937" height="11.3489" fill="white" stroke="#C2C2C2"/>
<rect x="5.5" y="83.2775" width="11.937" height="11.3489" fill="white" stroke="#C2C2C2"/>
<rect x="5.5" y="106.799" width="11.937" height="11.3489" fill="white" stroke="#C2C2C2"/>
<rect x="5.5" y="59.1677" width="11.937" height="11.3489" fill="white" stroke="#C2C2C2"/>
<rect x="5.5" y="95.0383" width="11.937" height="11.3489" fill="white" stroke="#C2C2C2"/>
<rect x="5.5" y="118.56" width="11.937" height="11.3489" fill="white" stroke="#C2C2C2"/>
<rect x="54.8955" y="35.0579" width="11.937" height="11.937" fill="white" stroke="#C2C2C2"/>
<rect x="54.8955" y="70.9285" width="11.937" height="11.937" fill="white" stroke="#C2C2C2"/>
<rect x="54.8955" y="47.4068" width="11.937" height="11.3489" fill="white" stroke="#C2C2C2"/>
<rect x="54.8955" y="83.2775" width="11.937" height="11.3489" fill="white" stroke="#C2C2C2"/>
<rect x="54.8955" y="106.799" width="11.937" height="11.3489" fill="white" stroke="#C2C2C2"/>
<rect x="54.8955" y="59.1676" width="11.937" height="11.3489" fill="white" stroke="#C2C2C2"/>
<rect x="54.8955" y="95.0383" width="11.937" height="11.3489" fill="white" stroke="#C2C2C2"/>
<rect x="54.8955" y="118.56" width="11.937" height="11.3489" fill="white" stroke="#C2C2C2"/>
<rect x="5.5" y="35.0578" width="11.937" height="11.937" fill="white" stroke="#C2C2C2"/>
<rect x="5.5" y="70.9285" width="11.937" height="11.937" fill="white" stroke="#C2C2C2"/>
<rect x="5.5" y="47.4068" width="11.937" height="11.3489" fill="white" stroke="#C2C2C2"/>
<rect x="5.5" y="83.2775" width="11.937" height="11.3489" fill="white" stroke="#C2C2C2"/>
<rect x="5.5" y="106.799" width="11.937" height="11.3489" fill="white" stroke="#C2C2C2"/>
<rect x="5.5" y="59.1677" width="11.937" height="11.3489" fill="white" stroke="#C2C2C2"/>
<rect x="5.5" y="95.0383" width="11.937" height="11.3489" fill="white" stroke="#C2C2C2"/>
<rect x="5.5" y="118.56" width="11.937" height="11.3489" fill="white" stroke="#C2C2C2"/>
<rect x="54.8955" y="35.0579" width="11.937" height="11.937" fill="white" stroke="#C2C2C2"/>
<rect x="54.8955" y="70.9285" width="11.937" height="11.937" fill="white" stroke="#C2C2C2"/>
<rect x="54.8955" y="47.4068" width="11.937" height="11.3489" fill="white" stroke="#C2C2C2"/>
<rect x="54.8955" y="83.2775" width="11.937" height="11.3489" fill="white" stroke="#C2C2C2"/>
<rect x="54.8955" y="106.799" width="11.937" height="11.3489" fill="white" stroke="#C2C2C2"/>
<rect x="54.8955" y="59.1676" width="11.937" height="11.3489" fill="white" stroke="#C2C2C2"/>
<rect x="54.8955" y="95.0383" width="11.937" height="11.3489" fill="white" stroke="#C2C2C2"/>
<rect x="54.8955" y="118.56" width="11.937" height="11.3489" fill="white" stroke="#C2C2C2"/>
<rect x="17.8496" y="35.0579" width="11.937" height="11.937" fill="white" stroke="#C2C2C2"/>
<rect x="17.8496" y="70.9285" width="11.937" height="11.937" fill="white" stroke="#C2C2C2"/>
<rect x="17.8496" y="47.4068" width="11.937" height="11.3489" fill="white" stroke="#C2C2C2"/>
<rect x="17.8496" y="83.2775" width="11.937" height="11.3489" fill="white" stroke="#C2C2C2"/>
<rect x="17.8496" y="106.799" width="11.937" height="11.3489" fill="white" stroke="#C2C2C2"/>
<rect x="17.8496" y="59.1676" width="11.937" height="11.3489" fill="white" stroke="#C2C2C2"/>
<rect x="17.8496" y="95.0383" width="11.937" height="11.3489" fill="white" stroke="#C2C2C2"/>
<rect x="17.8496" y="118.56" width="11.937" height="11.3489" fill="white" stroke="#C2C2C2"/>
<rect x="17.8496" y="35.0579" width="11.937" height="11.937" fill="white" stroke="#C2C2C2"/>
<rect x="17.8496" y="70.9285" width="11.937" height="11.937" fill="white" stroke="#C2C2C2"/>
<rect x="17.8496" y="47.4068" width="11.937" height="11.3489" fill="white" stroke="#C2C2C2"/>
<rect x="17.8496" y="83.2775" width="11.937" height="11.3489" fill="white" stroke="#C2C2C2"/>
<rect x="17.8496" y="106.799" width="11.937" height="11.3489" fill="white" stroke="#C2C2C2"/>
<rect x="17.8496" y="59.1676" width="11.937" height="11.3489" fill="white" stroke="#C2C2C2"/>
<rect x="17.8496" y="95.0383" width="11.937" height="11.3489" fill="white" stroke="#C2C2C2"/>
<rect x="17.8496" y="118.56" width="11.937" height="11.3489" fill="white" stroke="#C2C2C2"/>
<rect x="67.2437" y="35.0578" width="11.937" height="11.937" fill="white" stroke="#C2C2C2"/>
<rect x="67.2437" y="70.9285" width="11.937" height="11.937" fill="white" stroke="#C2C2C2"/>
<rect x="67.2437" y="47.4068" width="11.937" height="11.3489" fill="white" stroke="#C2C2C2"/>
<rect x="67.2437" y="83.2774" width="11.937" height="11.3489" fill="white" stroke="#C2C2C2"/>
<rect x="67.2437" y="106.799" width="11.937" height="11.3489" fill="white" stroke="#C2C2C2"/>
<rect x="67.2437" y="59.1676" width="11.937" height="11.3489" fill="white" stroke="#C2C2C2"/>
<rect x="67.2437" y="95.0383" width="11.937" height="11.3489" fill="white" stroke="#C2C2C2"/>
<rect x="67.2437" y="118.56" width="11.937" height="11.3489" fill="white" stroke="#C2C2C2"/>
<rect x="42.5464" y="35.0579" width="11.937" height="11.937" fill="white" stroke="#C2C2C2"/>
<rect x="42.5464" y="70.9285" width="11.937" height="11.937" fill="white" stroke="#C2C2C2"/>
<rect x="42.5464" y="47.4068" width="11.937" height="11.3489" fill="white" stroke="#C2C2C2"/>
<rect x="42.5464" y="83.2775" width="11.937" height="11.3489" fill="white" stroke="#C2C2C2"/>
<rect x="42.5464" y="106.799" width="11.937" height="11.3489" fill="white" stroke="#C2C2C2"/>
<rect x="42.5464" y="59.1677" width="11.937" height="11.3489" fill="white" stroke="#C2C2C2"/>
<rect x="42.5464" y="95.0383" width="11.937" height="11.3489" fill="white" stroke="#C2C2C2"/>
<rect x="42.5464" y="118.56" width="11.937" height="11.3489" fill="white" stroke="#C2C2C2"/>
<rect x="91.9424" y="35.0579" width="11.937" height="11.937" fill="white" stroke="#C2C2C2"/>
<rect x="91.9424" y="70.9285" width="11.937" height="11.937" fill="white" stroke="#C2C2C2"/>
<rect x="91.9424" y="47.4068" width="11.937" height="11.3489" fill="white" stroke="#C2C2C2"/>
<rect x="91.9424" y="83.2775" width="11.937" height="11.3489" fill="white" stroke="#C2C2C2"/>
<rect x="91.9424" y="106.799" width="11.937" height="11.3489" fill="white" stroke="#C2C2C2"/>
<rect x="91.9424" y="59.1676" width="11.937" height="11.3489" fill="white" stroke="#C2C2C2"/>
<rect x="91.9424" y="95.0383" width="11.937" height="11.3489" fill="white" stroke="#C2C2C2"/>
<rect x="91.9424" y="118.56" width="11.937" height="11.3489" fill="white" stroke="#C2C2C2"/>
<rect x="30.1978" y="35.0578" width="11.937" height="11.937" fill="white" stroke="#C2C2C2"/>
<rect x="30.1978" y="70.9285" width="11.937" height="11.937" fill="white" stroke="#C2C2C2"/>
<rect x="30.1978" y="47.4068" width="11.937" height="11.3489" fill="white" stroke="#C2C2C2"/>
<rect x="30.1978" y="83.2774" width="11.937" height="11.3489" fill="white" stroke="#C2C2C2"/>
<rect x="30.1978" y="106.799" width="11.937" height="11.3489" fill="white" stroke="#C2C2C2"/>
<rect x="30.1978" y="59.1676" width="11.937" height="11.3489" fill="white" stroke="#C2C2C2"/>
<rect x="30.1978" y="95.0383" width="11.937" height="11.3489" fill="white" stroke="#C2C2C2"/>
<rect x="30.1978" y="118.56" width="11.937" height="11.3489" fill="white" stroke="#C2C2C2"/>
<rect x="79.5942" y="35.0578" width="11.937" height="11.937" fill="white" stroke="#C2C2C2"/>
<rect x="104.464" y="35.0579" width="11.937" height="11.937" fill="white" stroke="#C2C2C2"/>
<rect x="116.911" y="35.0578" width="11.937" height="11.937" fill="white" stroke="#C2C2C2"/>
<rect x="129.359" y="35.0579" width="11.937" height="11.937" fill="white" stroke="#C2C2C2"/>
<rect x="141.808" y="35.0578" width="11.937" height="11.937" fill="white" stroke="#C2C2C2"/>
<rect x="79.5942" y="70.9285" width="11.937" height="11.937" fill="white" stroke="#C2C2C2"/>
<rect x="104.464" y="70.9285" width="11.937" height="11.937" fill="white" stroke="#C2C2C2"/>
<rect x="116.911" y="70.9285" width="11.937" height="11.937" fill="white" stroke="#C2C2C2"/>
<rect x="129.359" y="70.9285" width="11.937" height="11.937" fill="white" stroke="#C2C2C2"/>
<rect x="141.808" y="70.9285" width="11.937" height="11.937" fill="white" stroke="#C2C2C2"/>
<rect x="79.5942" y="47.4067" width="11.937" height="11.3489" fill="white" stroke="#C2C2C2"/>
<rect x="104.464" y="47.4067" width="11.937" height="11.3489" fill="white" stroke="#C2C2C2"/>
<rect x="116.911" y="47.4067" width="11.937" height="11.3489" fill="white" stroke="#C2C2C2"/>
<rect x="129.359" y="47.4067" width="11.937" height="11.3489" fill="white" stroke="#C2C2C2"/>
<rect x="141.808" y="47.4067" width="11.937" height="11.3489" fill="white" stroke="#C2C2C2"/>
<rect x="79.5942" y="83.2774" width="11.937" height="11.3489" fill="white" stroke="#C2C2C2"/>
<rect x="104.464" y="83.2775" width="11.937" height="11.3489" fill="white" stroke="#C2C2C2"/>
<rect x="116.911" y="83.2774" width="11.937" height="11.3489" fill="white" stroke="#C2C2C2"/>
<rect x="129.359" y="83.2775" width="11.937" height="11.3489" fill="white" stroke="#C2C2C2"/>
<rect x="141.808" y="83.2774" width="11.937" height="11.3489" fill="white" stroke="#C2C2C2"/>
<rect x="79.5942" y="106.799" width="11.937" height="11.3489" fill="white" stroke="#C2C2C2"/>
<rect x="104.464" y="106.799" width="11.937" height="11.3489" fill="white" stroke="#C2C2C2"/>
<rect x="116.911" y="106.799" width="11.937" height="11.3489" fill="white" stroke="#C2C2C2"/>
<rect x="129.359" y="106.799" width="11.937" height="11.3489" fill="white" stroke="#C2C2C2"/>
<rect x="141.808" y="106.799" width="11.937" height="11.3489" fill="white" stroke="#C2C2C2"/>
<rect x="79.5942" y="59.1676" width="11.937" height="11.3489" fill="white" stroke="#C2C2C2"/>
<rect x="104.464" y="59.1676" width="11.937" height="11.3489" fill="white" stroke="#C2C2C2"/>
<rect x="116.911" y="59.1676" width="11.937" height="11.3489" fill="white" stroke="#C2C2C2"/>
<rect x="129.359" y="59.1677" width="11.937" height="11.3489" fill="white" stroke="#C2C2C2"/>
<rect x="141.808" y="59.1676" width="11.937" height="11.3489" fill="white" stroke="#C2C2C2"/>
<rect x="79.5942" y="95.0383" width="11.937" height="11.3489" fill="white" stroke="#C2C2C2"/>
<rect x="104.464" y="95.0383" width="11.937" height="11.3489" fill="white" stroke="#C2C2C2"/>
<rect x="116.911" y="95.0383" width="11.937" height="11.3489" fill="white" stroke="#C2C2C2"/>
<rect x="129.359" y="95.0383" width="11.937" height="11.3489" fill="white" stroke="#C2C2C2"/>
<rect x="141.808" y="95.0383" width="11.937" height="11.3489" fill="white" stroke="#C2C2C2"/>
<rect x="79.5942" y="118.56" width="11.937" height="11.3489" fill="white" stroke="#C2C2C2"/>
<rect x="104.464" y="118.56" width="11.937" height="11.3489" fill="white" stroke="#C2C2C2"/>
<rect x="116.911" y="118.56" width="11.937" height="11.3489" fill="white" stroke="#C2C2C2"/>
<rect x="129.359" y="118.56" width="11.937" height="11.3489" fill="white" stroke="#C2C2C2"/>
<rect x="141.808" y="118.56" width="11.937" height="11.3489" fill="white" stroke="#C2C2C2"/>
<rect x="6.5" y="16.7632" width="147.623" height="114.013" rx="6.5" stroke="black" stroke-width="3"/>
<path d="M7.79199 23.0551C7.79199 20.2937 10.0306 18.0551 12.792 18.0551H147.974C150.735 18.0551 152.974 20.2937 152.974 23.0551V35.7375H7.79199V23.0551Z" fill="#FF9900"/>
<path d="M17.9706 25.8441C17.9706 27.3774 16.7638 28.5786 15.3261 28.5786C13.8885 28.5786 12.6816 27.3774 12.6816 25.8441C12.6816 24.3108 13.8885 23.1096 15.3261 23.1096C16.7638 23.1096 17.9706 24.3108 17.9706 25.8441Z" fill="#FF9900" stroke="black" stroke-width="2"/>
<path d="M38.6229 25.8441C38.6229 27.3774 37.4161 28.5786 35.9785 28.5786C34.5408 28.5786 33.334 27.3774 33.334 25.8441C33.334 24.3108 34.5408 23.1096 35.9785 23.1096C37.4161 23.1096 38.6229 24.3108 38.6229 25.8441Z" fill="#FF9900" stroke="black" stroke-width="2"/>
<path d="M28.2968 25.8441C28.2968 27.3774 27.0899 28.5786 25.6523 28.5786C24.2146 28.5786 23.0078 27.3774 23.0078 25.8441C23.0078 24.3108 24.2146 23.1096 25.6523 23.1096C27.0899 23.1096 28.2968 24.3108 28.2968 25.8441Z" fill="#FF9900" stroke="black" stroke-width="2"/>
<g clip-path="url(#clip0_106_10604)">
<path d="M143.087 34.7631C144.078 35.3556 144.448 36.2106 144.432 37.3888C144.378 41.0782 144.435 44.7676 144.388 48.457C144.382 49.0562 144.225 49.8405 143.831 50.194C143.421 50.5609 142.603 50.709 142.033 50.5946C141.179 50.4229 140.852 49.6419 140.852 48.7667C140.852 46.2454 140.852 43.7207 140.852 41.1994C140.852 39.9202 140.912 38.6343 140.835 37.3619C140.765 36.177 141.159 35.3186 142.193 34.7631H143.09H143.087Z" fill="black"/>
<path d="M142.693 128.624C138.399 128.624 134.109 128.631 129.815 128.624C127.913 128.621 127.476 128.038 127.372 126.113C127.239 123.679 127.069 121.225 126.628 118.835C126.028 115.576 124.313 112.931 121.974 110.534C114.971 103.36 112.131 94.6688 113.709 84.7181C115.778 71.6908 125.707 62.0196 138.709 60.0604C151.008 58.209 163.646 64.9449 169.085 76.2521C174.706 87.943 172.651 101.294 163.473 110.392C159.165 114.664 158.164 119.862 157.991 125.507C157.981 125.847 158.008 126.187 157.984 126.523C157.881 128.021 157.29 128.614 155.795 128.617C151.428 128.631 147.061 128.624 142.693 128.624ZM131.079 124.962C131.509 124.962 131.953 124.962 132.394 124.962C139.223 124.962 146.053 124.962 152.883 124.962C154.458 124.962 154.434 124.962 154.534 123.413C154.798 119.353 155.525 115.378 157.731 111.911C158.885 110.096 160.517 108.598 161.888 106.922C169.241 97.9407 170.586 88.1012 165.695 77.5582C160.86 67.1363 148.302 61.2723 137.175 63.7869C124.573 66.6347 115.831 78.2785 116.806 91.1813C117.296 97.6782 119.738 103.293 124.369 107.817C127.382 110.759 129.261 114.237 130.071 118.323C130.495 120.454 130.729 122.625 131.072 124.962H131.079Z" fill="black"/>
<path d="M142.527 139.655C138.606 139.655 134.686 139.685 130.766 139.645C128.627 139.622 126.839 138.043 126.505 136.02C126.155 133.885 127.229 131.839 129.191 131.098C129.872 130.842 130.646 130.731 131.38 130.728C138.883 130.701 146.39 130.698 153.894 130.718C156.583 130.725 158.515 132.3 158.765 134.586C159.069 137.373 157.087 139.611 154.178 139.648C150.294 139.696 146.41 139.659 142.53 139.659L142.527 139.655ZM142.58 134.219C138.777 134.219 134.97 134.195 131.166 134.252C130.779 134.259 130.155 134.673 130.068 135.01C129.888 135.717 130.482 135.952 131.106 135.986C131.33 135.999 131.553 135.993 131.777 135.993C139.013 135.993 146.247 135.993 153.484 135.993C153.744 135.993 154.061 136.077 154.254 135.959C154.591 135.754 154.855 135.417 155.149 135.138C154.838 134.831 154.558 134.478 154.201 134.242C154.017 134.121 153.694 134.215 153.43 134.215C149.814 134.215 146.193 134.215 142.577 134.215L142.58 134.219Z" fill="black"/>
<path d="M142.643 150.484C139.844 150.484 137.045 150.531 134.249 150.468C132.09 150.42 130.425 148.916 130.005 146.812C129.624 144.917 130.605 142.863 132.394 142.038C133.054 141.735 133.828 141.544 134.549 141.54C139.957 141.5 145.369 141.47 150.777 141.54C153.854 141.581 155.812 144.099 155.195 146.987C154.761 149.01 153.013 150.444 150.811 150.478C148.088 150.518 145.362 150.488 142.64 150.488V150.481L142.643 150.484ZM142.75 145.045C140.061 145.045 137.375 145.048 134.686 145.041C134.072 145.041 133.495 145.142 133.501 145.896C133.508 146.627 134.078 146.778 134.692 146.785C134.766 146.785 134.842 146.785 134.916 146.785C140.067 146.785 145.219 146.785 150.374 146.785C151.041 146.785 151.762 146.734 151.718 145.842C151.682 145.024 150.988 145.038 150.367 145.041C147.828 145.048 145.289 145.041 142.75 145.041V145.045Z" fill="black"/>
<path d="M122.968 55.5194C122.558 55.9738 122.194 56.7144 121.65 56.8894C121.107 57.0645 120.326 56.7918 119.755 56.499C119.375 56.3037 119.171 55.7449 118.911 55.3342C116.979 52.2945 115.058 49.2481 113.129 46.2084C112.655 45.4644 112.355 44.6128 112.989 43.9193C113.383 43.4884 114.13 43.1686 114.704 43.1922C115.188 43.209 115.805 43.6904 116.099 44.1415C118.234 47.4067 120.309 50.7124 122.381 54.018C122.611 54.385 122.708 54.8428 122.968 55.5227V55.5194Z" fill="black"/>
<path d="M177.589 71.987C177.212 71.674 176.501 71.371 176.361 70.8964C176.188 70.3039 176.428 69.56 176.602 68.9103C176.662 68.6847 177.032 68.5131 177.292 68.3717C180.699 66.5102 184.112 64.6587 187.525 62.8039C188.309 62.3798 189.177 62.2418 189.801 62.915C190.171 63.3156 190.371 64.073 190.298 64.6217C190.238 65.0829 189.754 65.6282 189.313 65.8739C185.827 67.823 182.31 69.7148 178.794 71.61C178.507 71.7649 178.166 71.812 177.592 71.9837L177.589 71.987Z" fill="black"/>
<path d="M107.721 72.0274C107.047 71.7985 106.633 71.7245 106.286 71.5326C102.876 69.6778 99.473 67.8129 96.0798 65.9278C94.9021 65.2747 94.5884 64.4029 95.0956 63.43C95.596 62.4673 96.6637 62.1845 97.8014 62.8006C101.215 64.6486 104.608 66.5303 108.011 68.3986C108.918 68.8968 109.356 69.698 108.982 70.6473C108.762 71.2094 108.124 71.6033 107.721 72.0274Z" fill="black"/>
<path d="M173.582 45.1749C173.282 45.8313 173.145 46.2622 172.908 46.6258C170.75 49.9213 168.584 53.2101 166.402 56.4889C165.692 57.5593 164.814 57.8118 163.947 57.2665C163.039 56.6942 162.826 55.6709 163.513 54.6139C165.702 51.2476 167.924 47.905 170.149 44.5656C170.626 43.8486 171.344 43.4043 172.158 43.8217C172.712 44.1078 173.109 44.707 173.582 45.1749Z" fill="black"/>
<path d="M131.079 124.962C130.732 122.625 130.499 120.454 130.079 118.323C129.268 114.237 127.393 110.759 124.377 107.817C119.746 103.296 117.303 97.6782 116.813 91.1813C115.839 78.2785 124.58 66.6347 137.182 63.7869C148.309 61.2723 160.867 67.1363 165.702 77.5581C170.593 88.1012 169.245 97.9407 161.895 106.922C160.524 108.598 158.892 110.1 157.738 111.911C155.529 115.374 154.802 119.35 154.541 123.413C154.441 124.958 154.465 124.962 152.89 124.962C146.06 124.962 139.23 124.962 132.401 124.962C131.957 124.962 131.517 124.962 131.086 124.962H131.079ZM165.495 89.3433C165.275 79.7361 158.158 70.6102 148.919 68.2673C146.948 67.7657 144.886 67.5739 142.854 67.3719C141.729 67.2608 140.902 68.0923 140.869 69.0752C140.832 70.0481 141.609 70.8223 142.737 70.9266C142.961 70.9468 143.184 70.9435 143.408 70.9536C152.76 71.3643 160.38 78.3256 161.725 87.7006C161.862 88.6667 161.855 89.653 162.005 90.6158C162.168 91.656 162.939 92.2551 163.87 92.1878C164.788 92.1239 165.438 91.3968 165.492 90.3566C165.508 90.02 165.492 89.68 165.492 89.34L165.495 89.3433Z" fill="white"/>
<path d="M142.58 134.219C146.196 134.219 149.816 134.219 153.433 134.219C153.693 134.219 154.017 134.124 154.204 134.246C154.561 134.478 154.841 134.835 155.151 135.141C154.858 135.42 154.598 135.754 154.257 135.962C154.064 136.08 153.747 135.996 153.487 135.996C146.25 135.996 139.016 135.996 131.78 135.996C131.556 135.996 131.332 136.003 131.109 135.989C130.485 135.956 129.891 135.717 130.071 135.013C130.158 134.676 130.782 134.262 131.169 134.256C134.973 134.198 138.776 134.222 142.583 134.222L142.58 134.219Z" fill="white"/>
<path d="M142.75 145.048C145.289 145.048 147.828 145.051 150.367 145.048C150.988 145.048 151.682 145.031 151.719 145.849C151.759 146.741 151.041 146.792 150.374 146.792C145.222 146.792 140.071 146.792 134.916 146.792C134.843 146.792 134.766 146.792 134.693 146.792C134.079 146.788 133.508 146.637 133.502 145.903C133.495 145.149 134.069 145.048 134.686 145.048C137.375 145.055 140.061 145.051 142.75 145.048Z" fill="white"/>
<path d="M165.494 89.34C165.494 89.68 165.508 90.02 165.494 90.3566C165.441 91.3968 164.79 92.1205 163.873 92.1878C162.942 92.2552 162.171 91.656 162.008 90.6158C161.858 89.653 161.868 88.6667 161.728 87.7006C160.383 78.3257 152.762 71.3643 143.41 70.9536C143.187 70.9435 142.963 70.9469 142.74 70.9267C141.612 70.8223 140.835 70.0514 140.871 69.0752C140.908 68.0923 141.732 67.2575 142.857 67.3719C144.888 67.5739 146.947 67.7691 148.922 68.2673C158.161 70.6102 165.281 79.7327 165.498 89.3434L165.494 89.34Z" fill="black"/>
</g>
<defs>
<clipPath id="clip0_106_10604">
<rect width="114.947" height="115.974" fill="white" transform="translate(85.0527 34.7631)"/>
</clipPath>
</defs>
</svg>
