<svg width="200" height="180" viewBox="0 0 200 180" fill="none" xmlns="http://www.w3.org/2000/svg">
<mask id="path-1-inside-1_207_3918" fill="white">
<path fill-rule="evenodd" clip-rule="evenodd" d="M56.2446 157.263C75.7097 157.263 91.4892 141.483 91.4892 122.018C91.4892 102.553 75.7097 86.7737 56.2446 86.7737C36.7795 86.7737 21 102.553 21 122.018C21 128.975 23.0153 135.46 26.4939 140.923L22.0033 150.789C20.9273 153.153 23.1601 155.675 25.637 154.893L36.749 151.384C42.3325 155.099 49.0358 157.263 56.2446 157.263Z"/>
</mask>
<path fill-rule="evenodd" clip-rule="evenodd" d="M56.2446 157.263C75.7097 157.263 91.4892 141.483 91.4892 122.018C91.4892 102.553 75.7097 86.7737 56.2446 86.7737C36.7795 86.7737 21 102.553 21 122.018C21 128.975 23.0153 135.46 26.4939 140.923L22.0033 150.789C20.9273 153.153 23.1601 155.675 25.637 154.893L36.749 151.384C42.3325 155.099 49.0358 157.263 56.2446 157.263Z" fill="#FF9900"/>
<path d="M26.4939 140.923L30.1345 142.58L31.0335 140.605L29.8679 138.775L26.4939 140.923ZM22.0033 150.789L25.644 152.446L22.0033 150.789ZM25.637 154.893L26.8413 158.707H26.8413L25.637 154.893ZM36.749 151.384L38.9645 148.054L37.3704 146.994L35.5447 147.57L36.749 151.384ZM87.4892 122.018C87.4892 139.274 73.5005 153.263 56.2446 153.263V161.263C77.9188 161.263 95.4892 143.692 95.4892 122.018H87.4892ZM56.2446 90.7737C73.5005 90.7737 87.4892 104.762 87.4892 122.018H95.4892C95.4892 100.344 77.9188 82.7737 56.2446 82.7737V90.7737ZM25 122.018C25 104.762 38.9887 90.7737 56.2446 90.7737V82.7737C34.5704 82.7737 17 100.344 17 122.018H25ZM29.8679 138.775C26.786 133.935 25 128.191 25 122.018H17C17 129.758 19.2446 136.986 23.1198 143.072L29.8679 138.775ZM25.644 152.446L30.1345 142.58L22.8532 139.266L18.3627 149.132L25.644 152.446ZM24.4327 151.078C25.2584 150.818 26.0027 151.658 25.644 152.446L18.3627 149.132C15.8519 154.649 21.0617 160.532 26.8413 158.707L24.4327 151.078ZM35.5447 147.57L24.4327 151.078L26.8413 158.707L37.9533 155.199L35.5447 147.57ZM56.2446 153.263C49.8482 153.263 43.912 151.345 38.9645 148.054L34.5336 154.715C40.7531 158.852 48.2234 161.263 56.2446 161.263V153.263Z" fill="black" mask="url(#path-1-inside-1_207_3918)"/>
<mask id="path-3-inside-2_207_3918" fill="white">
<path fill-rule="evenodd" clip-rule="evenodd" d="M111.607 155.588C74.7177 155.588 44.8129 125.684 44.8129 88.7942C44.8129 51.9048 74.7177 22 111.607 22C148.497 22 178.401 51.9048 178.401 88.7942C178.401 101.978 174.582 114.27 167.989 124.623L178.997 148.809C180.073 151.173 177.84 153.694 175.363 152.912L148.554 144.448C137.972 151.487 125.269 155.588 111.607 155.588Z"/>
</mask>
<path fill-rule="evenodd" clip-rule="evenodd" d="M111.607 155.588C74.7177 155.588 44.8129 125.684 44.8129 88.7942C44.8129 51.9048 74.7177 22 111.607 22C148.497 22 178.401 51.9048 178.401 88.7942C178.401 101.978 174.582 114.27 167.989 124.623L178.997 148.809C180.073 151.173 177.84 153.694 175.363 152.912L148.554 144.448C137.972 151.487 125.269 155.588 111.607 155.588Z" fill="white"/>
<path d="M167.989 124.623L164.348 126.28L163.449 124.305L164.615 122.475L167.989 124.623ZM178.997 148.809L182.637 147.152H182.637L178.997 148.809ZM175.363 152.912L174.159 156.727H174.159L175.363 152.912ZM148.554 144.448L146.338 141.118L147.932 140.057L149.758 140.634L148.554 144.448ZM48.8129 88.7942C48.8129 123.475 76.9269 151.588 111.607 151.588V159.588C72.5086 159.588 40.8129 127.893 40.8129 88.7942H48.8129ZM111.607 26C76.9269 26 48.8129 54.1139 48.8129 88.7942H40.8129C40.8129 49.6956 72.5086 18 111.607 18V26ZM174.401 88.7942C174.401 54.1139 146.287 26 111.607 26V18C150.706 18 182.401 49.6956 182.401 88.7942H174.401ZM164.615 122.475C170.811 112.744 174.401 101.195 174.401 88.7942H182.401C182.401 102.762 178.352 115.796 171.363 126.772L164.615 122.475ZM175.356 150.466L164.348 126.28L171.629 122.966L182.637 147.152L175.356 150.466ZM176.567 149.098C175.741 148.837 174.997 149.678 175.356 150.466L182.637 147.152C185.148 152.668 179.938 158.552 174.159 156.727L176.567 149.098ZM149.758 140.634L176.567 149.098L174.159 156.727L147.35 148.263L149.758 140.634ZM111.607 151.588C124.456 151.588 136.393 147.733 146.338 141.118L150.769 147.779C139.552 155.24 126.081 159.588 111.607 159.588V151.588Z" fill="black" mask="url(#path-3-inside-2_207_3918)"/>
<rect x="79.1045" y="70.5804" width="66.679" height="5.71534" rx="2.85767" fill="black"/>
<rect x="79.1045" y="90.5841" width="66.679" height="5.71534" rx="2.85767" fill="black"/>
<rect x="79.1045" y="109.635" width="42.865" height="5.71534" rx="2.85767" fill="black"/>
</svg>
