<svg width="160" height="130" viewBox="0 0 160 130" fill="none" xmlns="http://www.w3.org/2000/svg">
<path d="M10 31.6969H20.4053V42.1022H10V31.6969Z" fill="white"/>
<path fill-rule="evenodd" clip-rule="evenodd" d="M19.6568 32.4455H10.7485V41.3537H19.6568V32.4455ZM10 31.6969V42.1022H20.4053V31.6969H10Z" fill="#C2C2C2"/>
<path d="M10 60.5483H20.4053V70.9536H10V60.5483Z" fill="white"/>
<path fill-rule="evenodd" clip-rule="evenodd" d="M19.6568 61.2968H10.7485V70.205H19.6568V61.2968ZM10 60.5483V70.9536H20.4053V60.5483H10Z" fill="#C2C2C2"/>
<path d="M10 41.6296H20.4053V51.5619H10V41.6296Z" fill="white"/>
<path fill-rule="evenodd" clip-rule="evenodd" d="M19.6568 42.3781H10.7485V50.8134H19.6568V42.3781ZM10 41.6296V51.5619H20.4053V41.6296H10Z" fill="#C2C2C2"/>
<path d="M10 70.4807H20.4053V80.413H10V70.4807Z" fill="white"/>
<path fill-rule="evenodd" clip-rule="evenodd" d="M19.6568 71.2292H10.7485V79.6645H19.6568V71.2292ZM10 70.4807V80.413H20.4053V70.4807H10Z" fill="#C2C2C2"/>
<path d="M10 89.3994H20.4053V99.3318H10V89.3994Z" fill="white"/>
<path fill-rule="evenodd" clip-rule="evenodd" d="M19.6568 90.148H10.7485V98.5832H19.6568V90.148ZM10 89.3994V99.3318H20.4053V89.3994H10Z" fill="#C2C2C2"/>
<path d="M10 51.0881H20.4053V61.0204H10V51.0881Z" fill="white"/>
<path fill-rule="evenodd" clip-rule="evenodd" d="M19.6568 51.8366H10.7485V60.2719H19.6568V51.8366ZM10 51.0881V61.0204H20.4053V51.0881H10Z" fill="#C2C2C2"/>
<path d="M10 79.9393H20.4053V89.8717H10V79.9393Z" fill="white"/>
<path fill-rule="evenodd" clip-rule="evenodd" d="M19.6568 80.6879H10.7485V89.1231H19.6568V80.6879ZM10 79.9393V89.8717H20.4053V79.9393H10Z" fill="#C2C2C2"/>
<path d="M10 98.8581H20.4053V108.79H10V98.8581Z" fill="white"/>
<path fill-rule="evenodd" clip-rule="evenodd" d="M19.6568 99.6067H10.7485V108.042H19.6568V99.6067ZM10 98.8581V108.79H20.4053V98.8581H10Z" fill="#C2C2C2"/>
<path d="M49.729 31.6969H60.1343V42.1022H49.729V31.6969Z" fill="white"/>
<path fill-rule="evenodd" clip-rule="evenodd" d="M59.3858 32.4455H50.4775V41.3537H59.3858V32.4455ZM49.729 31.6969V42.1022H60.1343V31.6969H49.729Z" fill="#C2C2C2"/>
<path d="M49.729 60.5483H60.1343V70.9536H49.729V60.5483Z" fill="white"/>
<path fill-rule="evenodd" clip-rule="evenodd" d="M59.3858 61.2968H50.4775V70.205H59.3858V61.2968ZM49.729 60.5483V70.9536H60.1343V60.5483H49.729Z" fill="#C2C2C2"/>
<path d="M49.729 41.6296H60.1343V51.5619H49.729V41.6296Z" fill="white"/>
<path fill-rule="evenodd" clip-rule="evenodd" d="M59.3858 42.3781H50.4775V50.8134H59.3858V42.3781ZM49.729 41.6296V51.5619H60.1343V41.6296H49.729Z" fill="#C2C2C2"/>
<path d="M49.729 70.4807H60.1343V80.413H49.729V70.4807Z" fill="white"/>
<path fill-rule="evenodd" clip-rule="evenodd" d="M59.3858 71.2292H50.4775V79.6645H59.3858V71.2292ZM49.729 70.4807V80.413H60.1343V70.4807H49.729Z" fill="#C2C2C2"/>
<path d="M49.729 89.3994H60.1343V99.3318H49.729V89.3994Z" fill="white"/>
<path fill-rule="evenodd" clip-rule="evenodd" d="M59.3858 90.148H50.4775V98.5832H59.3858V90.148ZM49.729 89.3994V99.3318H60.1343V89.3994H49.729Z" fill="#C2C2C2"/>
<path d="M49.729 51.0881H60.1343V61.0204H49.729V51.0881Z" fill="white"/>
<path fill-rule="evenodd" clip-rule="evenodd" d="M59.3858 51.8366H50.4775V60.2719H59.3858V51.8366ZM49.729 51.0881V61.0204H60.1343V51.0881H49.729Z" fill="#C2C2C2"/>
<path d="M49.729 79.9393H60.1343V89.8717H49.729V79.9393Z" fill="white"/>
<path fill-rule="evenodd" clip-rule="evenodd" d="M59.3858 80.6879H50.4775V89.1231H59.3858V80.6879ZM49.729 79.9393V89.8717H60.1343V79.9393H49.729Z" fill="#C2C2C2"/>
<path d="M49.729 98.8581H60.1343V108.79H49.729V98.8581Z" fill="white"/>
<path fill-rule="evenodd" clip-rule="evenodd" d="M59.3858 99.6067H50.4775V108.042H59.3858V99.6067ZM49.729 98.8581V108.79H60.1343V98.8581H49.729Z" fill="#C2C2C2"/>
<path d="M10 31.6969H20.4053V42.1022H10V31.6969Z" fill="white"/>
<path fill-rule="evenodd" clip-rule="evenodd" d="M19.6568 32.4455H10.7485V41.3537H19.6568V32.4455ZM10 31.6969V42.1022H20.4053V31.6969H10Z" fill="#C2C2C2"/>
<path d="M10 60.5483H20.4053V70.9536H10V60.5483Z" fill="white"/>
<path fill-rule="evenodd" clip-rule="evenodd" d="M19.6568 61.2968H10.7485V70.205H19.6568V61.2968ZM10 60.5483V70.9536H20.4053V60.5483H10Z" fill="#C2C2C2"/>
<path d="M10 41.6296H20.4053V51.5619H10V41.6296Z" fill="white"/>
<path fill-rule="evenodd" clip-rule="evenodd" d="M19.6568 42.3781H10.7485V50.8134H19.6568V42.3781ZM10 41.6296V51.5619H20.4053V41.6296H10Z" fill="#C2C2C2"/>
<path d="M10 70.4807H20.4053V80.413H10V70.4807Z" fill="white"/>
<path fill-rule="evenodd" clip-rule="evenodd" d="M19.6568 71.2292H10.7485V79.6645H19.6568V71.2292ZM10 70.4807V80.413H20.4053V70.4807H10Z" fill="#C2C2C2"/>
<path d="M10 89.3994H20.4053V99.3318H10V89.3994Z" fill="white"/>
<path fill-rule="evenodd" clip-rule="evenodd" d="M19.6568 90.148H10.7485V98.5832H19.6568V90.148ZM10 89.3994V99.3318H20.4053V89.3994H10Z" fill="#C2C2C2"/>
<path d="M10 51.0881H20.4053V61.0204H10V51.0881Z" fill="white"/>
<path fill-rule="evenodd" clip-rule="evenodd" d="M19.6568 51.8366H10.7485V60.2719H19.6568V51.8366ZM10 51.0881V61.0204H20.4053V51.0881H10Z" fill="#C2C2C2"/>
<path d="M10 79.9393H20.4053V89.8717H10V79.9393Z" fill="white"/>
<path fill-rule="evenodd" clip-rule="evenodd" d="M19.6568 80.6879H10.7485V89.1231H19.6568V80.6879ZM10 79.9393V89.8717H20.4053V79.9393H10Z" fill="#C2C2C2"/>
<path d="M10 98.8581H20.4053V108.79H10V98.8581Z" fill="white"/>
<path fill-rule="evenodd" clip-rule="evenodd" d="M19.6568 99.6067H10.7485V108.042H19.6568V99.6067ZM10 98.8581V108.79H20.4053V98.8581H10Z" fill="#C2C2C2"/>
<path d="M49.729 31.6969H60.1343V42.1022H49.729V31.6969Z" fill="white"/>
<path fill-rule="evenodd" clip-rule="evenodd" d="M59.3858 32.4455H50.4775V41.3537H59.3858V32.4455ZM49.729 31.6969V42.1022H60.1343V31.6969H49.729Z" fill="#C2C2C2"/>
<path d="M49.729 60.5483H60.1343V70.9536H49.729V60.5483Z" fill="white"/>
<path fill-rule="evenodd" clip-rule="evenodd" d="M59.3858 61.2968H50.4775V70.205H59.3858V61.2968ZM49.729 60.5483V70.9536H60.1343V60.5483H49.729Z" fill="#C2C2C2"/>
<path d="M49.729 41.6296H60.1343V51.5619H49.729V41.6296Z" fill="white"/>
<path fill-rule="evenodd" clip-rule="evenodd" d="M59.3858 42.3781H50.4775V50.8134H59.3858V42.3781ZM49.729 41.6296V51.5619H60.1343V41.6296H49.729Z" fill="#C2C2C2"/>
<path d="M49.729 70.4807H60.1343V80.413H49.729V70.4807Z" fill="white"/>
<path fill-rule="evenodd" clip-rule="evenodd" d="M59.3858 71.2292H50.4775V79.6645H59.3858V71.2292ZM49.729 70.4807V80.413H60.1343V70.4807H49.729Z" fill="#C2C2C2"/>
<path d="M49.729 89.3994H60.1343V99.3318H49.729V89.3994Z" fill="white"/>
<path fill-rule="evenodd" clip-rule="evenodd" d="M59.3858 90.148H50.4775V98.5832H59.3858V90.148ZM49.729 89.3994V99.3318H60.1343V89.3994H49.729Z" fill="#C2C2C2"/>
<path d="M49.729 51.0881H60.1343V61.0204H49.729V51.0881Z" fill="white"/>
<path fill-rule="evenodd" clip-rule="evenodd" d="M59.3858 51.8366H50.4775V60.2719H59.3858V51.8366ZM49.729 51.0881V61.0204H60.1343V51.0881H49.729Z" fill="#C2C2C2"/>
<path d="M49.729 79.9393H60.1343V89.8717H49.729V79.9393Z" fill="white"/>
<path fill-rule="evenodd" clip-rule="evenodd" d="M59.3858 80.6879H50.4775V89.1231H59.3858V80.6879ZM49.729 79.9393V89.8717H60.1343V79.9393H49.729Z" fill="#C2C2C2"/>
<path d="M49.729 98.8581H60.1343V108.79H49.729V98.8581Z" fill="white"/>
<path fill-rule="evenodd" clip-rule="evenodd" d="M59.3858 99.6067H50.4775V108.042H59.3858V99.6067ZM49.729 98.8581V108.79H60.1343V98.8581H49.729Z" fill="#C2C2C2"/>
<path d="M10 31.6969H20.4053V42.1022H10V31.6969Z" fill="white"/>
<path fill-rule="evenodd" clip-rule="evenodd" d="M19.6568 32.4455H10.7485V41.3537H19.6568V32.4455ZM10 31.6969V42.1022H20.4053V31.6969H10Z" fill="#C2C2C2"/>
<path d="M10 60.5483H20.4053V70.9536H10V60.5483Z" fill="white"/>
<path fill-rule="evenodd" clip-rule="evenodd" d="M19.6568 61.2968H10.7485V70.205H19.6568V61.2968ZM10 60.5483V70.9536H20.4053V60.5483H10Z" fill="#C2C2C2"/>
<path d="M10 41.6296H20.4053V51.5619H10V41.6296Z" fill="white"/>
<path fill-rule="evenodd" clip-rule="evenodd" d="M19.6568 42.3781H10.7485V50.8134H19.6568V42.3781ZM10 41.6296V51.5619H20.4053V41.6296H10Z" fill="#C2C2C2"/>
<path d="M10 70.4807H20.4053V80.413H10V70.4807Z" fill="white"/>
<path fill-rule="evenodd" clip-rule="evenodd" d="M19.6568 71.2292H10.7485V79.6645H19.6568V71.2292ZM10 70.4807V80.413H20.4053V70.4807H10Z" fill="#C2C2C2"/>
<path d="M10 89.3994H20.4053V99.3318H10V89.3994Z" fill="white"/>
<path fill-rule="evenodd" clip-rule="evenodd" d="M19.6568 90.148H10.7485V98.5832H19.6568V90.148ZM10 89.3994V99.3318H20.4053V89.3994H10Z" fill="#C2C2C2"/>
<path d="M10 51.0881H20.4053V61.0204H10V51.0881Z" fill="white"/>
<path fill-rule="evenodd" clip-rule="evenodd" d="M19.6568 51.8366H10.7485V60.2719H19.6568V51.8366ZM10 51.0881V61.0204H20.4053V51.0881H10Z" fill="#C2C2C2"/>
<path d="M10 79.9393H20.4053V89.8717H10V79.9393Z" fill="white"/>
<path fill-rule="evenodd" clip-rule="evenodd" d="M19.6568 80.6879H10.7485V89.1231H19.6568V80.6879ZM10 79.9393V89.8717H20.4053V79.9393H10Z" fill="#C2C2C2"/>
<path d="M10 98.8581H20.4053V108.79H10V98.8581Z" fill="white"/>
<path fill-rule="evenodd" clip-rule="evenodd" d="M19.6568 99.6067H10.7485V108.042H19.6568V99.6067ZM10 98.8581V108.79H20.4053V98.8581H10Z" fill="#C2C2C2"/>
<path d="M49.729 31.6969H60.1343V42.1022H49.729V31.6969Z" fill="white"/>
<path fill-rule="evenodd" clip-rule="evenodd" d="M59.3858 32.4455H50.4775V41.3537H59.3858V32.4455ZM49.729 31.6969V42.1022H60.1343V31.6969H49.729Z" fill="#C2C2C2"/>
<path d="M49.729 60.5483H60.1343V70.9536H49.729V60.5483Z" fill="white"/>
<path fill-rule="evenodd" clip-rule="evenodd" d="M59.3858 61.2968H50.4775V70.205H59.3858V61.2968ZM49.729 60.5483V70.9536H60.1343V60.5483H49.729Z" fill="#C2C2C2"/>
<path d="M49.729 41.6296H60.1343V51.5619H49.729V41.6296Z" fill="white"/>
<path fill-rule="evenodd" clip-rule="evenodd" d="M59.3858 42.3781H50.4775V50.8134H59.3858V42.3781ZM49.729 41.6296V51.5619H60.1343V41.6296H49.729Z" fill="#C2C2C2"/>
<path d="M49.729 70.4807H60.1343V80.413H49.729V70.4807Z" fill="white"/>
<path fill-rule="evenodd" clip-rule="evenodd" d="M59.3858 71.2292H50.4775V79.6645H59.3858V71.2292ZM49.729 70.4807V80.413H60.1343V70.4807H49.729Z" fill="#C2C2C2"/>
<path d="M49.729 89.3994H60.1343V99.3318H49.729V89.3994Z" fill="white"/>
<path fill-rule="evenodd" clip-rule="evenodd" d="M59.3858 90.148H50.4775V98.5832H59.3858V90.148ZM49.729 89.3994V99.3318H60.1343V89.3994H49.729Z" fill="#C2C2C2"/>
<path d="M49.729 51.0881H60.1343V61.0204H49.729V51.0881Z" fill="white"/>
<path fill-rule="evenodd" clip-rule="evenodd" d="M59.3858 51.8366H50.4775V60.2719H59.3858V51.8366ZM49.729 51.0881V61.0204H60.1343V51.0881H49.729Z" fill="#C2C2C2"/>
<path d="M49.729 79.9393H60.1343V89.8717H49.729V79.9393Z" fill="white"/>
<path fill-rule="evenodd" clip-rule="evenodd" d="M59.3858 80.6879H50.4775V89.1231H59.3858V80.6879ZM49.729 79.9393V89.8717H60.1343V79.9393H49.729Z" fill="#C2C2C2"/>
<path d="M49.729 98.8581H60.1343V108.79H49.729V98.8581Z" fill="white"/>
<path fill-rule="evenodd" clip-rule="evenodd" d="M59.3858 99.6067H50.4775V108.042H59.3858V99.6067ZM49.729 98.8581V108.79H60.1343V98.8581H49.729Z" fill="#C2C2C2"/>
<path d="M19.9326 31.6969H30.3379V42.1022H19.9326V31.6969Z" fill="white"/>
<path fill-rule="evenodd" clip-rule="evenodd" d="M29.5894 32.4455H20.6811V41.3537H29.5894V32.4455ZM19.9326 31.6969V42.1022H30.3379V31.6969H19.9326Z" fill="#C2C2C2"/>
<path d="M19.9326 60.5483H30.3379V70.9536H19.9326V60.5483Z" fill="white"/>
<path fill-rule="evenodd" clip-rule="evenodd" d="M29.5894 61.2968H20.6811V70.205H29.5894V61.2968ZM19.9326 60.5483V70.9536H30.3379V60.5483H19.9326Z" fill="#C2C2C2"/>
<path d="M19.9326 41.6296H30.3379V51.5619H19.9326V41.6296Z" fill="white"/>
<path fill-rule="evenodd" clip-rule="evenodd" d="M29.5894 42.3781H20.6811V50.8134H29.5894V42.3781ZM19.9326 41.6296V51.5619H30.3379V41.6296H19.9326Z" fill="#C2C2C2"/>
<path d="M19.9329 70.4807H30.3382V80.413H19.9329V70.4807Z" fill="white"/>
<path fill-rule="evenodd" clip-rule="evenodd" d="M29.5896 71.2292H20.6814V79.6645H29.5896V71.2292ZM19.9329 70.4807V80.413H30.3382V70.4807H19.9329Z" fill="#C2C2C2"/>
<path d="M19.9329 89.3994H30.3382V99.3318H19.9329V89.3994Z" fill="white"/>
<path fill-rule="evenodd" clip-rule="evenodd" d="M29.5896 90.148H20.6814V98.5832H29.5896V90.148ZM19.9329 89.3994V99.3318H30.3382V89.3994H19.9329Z" fill="#C2C2C2"/>
<path d="M19.9329 51.0881H30.3382V61.0204H19.9329V51.0881Z" fill="white"/>
<path fill-rule="evenodd" clip-rule="evenodd" d="M29.5896 51.8366H20.6814V60.2719H29.5896V51.8366ZM19.9329 51.0881V61.0204H30.3382V51.0881H19.9329Z" fill="#C2C2C2"/>
<path d="M19.9329 79.9393H30.3382V89.8717H19.9329V79.9393Z" fill="white"/>
<path fill-rule="evenodd" clip-rule="evenodd" d="M29.5896 80.6879H20.6814V89.1231H29.5896V80.6879ZM19.9329 79.9393V89.8717H30.3382V79.9393H19.9329Z" fill="#C2C2C2"/>
<path d="M19.9329 98.8581H30.3382V108.79H19.9329V98.8581Z" fill="white"/>
<path fill-rule="evenodd" clip-rule="evenodd" d="M29.5896 99.6067H20.6814V108.042H29.5896V99.6067ZM19.9329 98.8581V108.79H30.3382V98.8581H19.9329Z" fill="#C2C2C2"/>
<path d="M19.9326 31.6969H30.3379V42.1022H19.9326V31.6969Z" fill="white"/>
<path fill-rule="evenodd" clip-rule="evenodd" d="M29.5894 32.4455H20.6811V41.3537H29.5894V32.4455ZM19.9326 31.6969V42.1022H30.3379V31.6969H19.9326Z" fill="#C2C2C2"/>
<path d="M19.9326 60.5483H30.3379V70.9536H19.9326V60.5483Z" fill="white"/>
<path fill-rule="evenodd" clip-rule="evenodd" d="M29.5894 61.2968H20.6811V70.205H29.5894V61.2968ZM19.9326 60.5483V70.9536H30.3379V60.5483H19.9326Z" fill="#C2C2C2"/>
<path d="M19.9326 41.6296H30.3379V51.5619H19.9326V41.6296Z" fill="white"/>
<path fill-rule="evenodd" clip-rule="evenodd" d="M29.5894 42.3781H20.6811V50.8134H29.5894V42.3781ZM19.9326 41.6296V51.5619H30.3379V41.6296H19.9326Z" fill="#C2C2C2"/>
<path d="M19.9329 70.4807H30.3382V80.413H19.9329V70.4807Z" fill="white"/>
<path fill-rule="evenodd" clip-rule="evenodd" d="M29.5896 71.2292H20.6814V79.6645H29.5896V71.2292ZM19.9329 70.4807V80.413H30.3382V70.4807H19.9329Z" fill="#C2C2C2"/>
<path d="M19.9329 89.3994H30.3382V99.3318H19.9329V89.3994Z" fill="white"/>
<path fill-rule="evenodd" clip-rule="evenodd" d="M29.5896 90.148H20.6814V98.5832H29.5896V90.148ZM19.9329 89.3994V99.3318H30.3382V89.3994H19.9329Z" fill="#C2C2C2"/>
<path d="M19.9329 51.0881H30.3382V61.0204H19.9329V51.0881Z" fill="white"/>
<path fill-rule="evenodd" clip-rule="evenodd" d="M29.5896 51.8366H20.6814V60.2719H29.5896V51.8366ZM19.9329 51.0881V61.0204H30.3382V51.0881H19.9329Z" fill="#C2C2C2"/>
<path d="M19.9329 79.9393H30.3382V89.8717H19.9329V79.9393Z" fill="white"/>
<path fill-rule="evenodd" clip-rule="evenodd" d="M29.5896 80.6879H20.6814V89.1231H29.5896V80.6879ZM19.9329 79.9393V89.8717H30.3382V79.9393H19.9329Z" fill="#C2C2C2"/>
<path d="M19.9329 98.8581H30.3382V108.79H19.9329V98.8581Z" fill="white"/>
<path fill-rule="evenodd" clip-rule="evenodd" d="M29.5896 99.6067H20.6814V108.042H29.5896V99.6067ZM19.9329 98.8581V108.79H30.3382V98.8581H19.9329Z" fill="#C2C2C2"/>
<path d="M59.6616 31.6969H70.0669V42.1022H59.6616V31.6969Z" fill="white"/>
<path fill-rule="evenodd" clip-rule="evenodd" d="M69.3184 32.4455H60.4102V41.3537H69.3184V32.4455ZM59.6616 31.6969V42.1022H70.0669V31.6969H59.6616Z" fill="#C2C2C2"/>
<path d="M59.6616 60.5483H70.0669V70.9536H59.6616V60.5483Z" fill="white"/>
<path fill-rule="evenodd" clip-rule="evenodd" d="M69.3184 61.2968H60.4102V70.205H69.3184V61.2968ZM59.6616 60.5483V70.9536H70.0669V60.5483H59.6616Z" fill="#C2C2C2"/>
<path d="M59.6616 41.6296H70.0669V51.5619H59.6616V41.6296Z" fill="white"/>
<path fill-rule="evenodd" clip-rule="evenodd" d="M69.3184 42.3781H60.4102V50.8134H69.3184V42.3781ZM59.6616 41.6296V51.5619H70.0669V41.6296H59.6616Z" fill="#C2C2C2"/>
<path d="M59.6616 70.4807H70.0669V80.413H59.6616V70.4807Z" fill="white"/>
<path fill-rule="evenodd" clip-rule="evenodd" d="M69.3184 71.2292H60.4102V79.6645H69.3184V71.2292ZM59.6616 70.4807V80.413H70.0669V70.4807H59.6616Z" fill="#C2C2C2"/>
<path d="M59.6616 89.3994H70.0669V99.3318H59.6616V89.3994Z" fill="white"/>
<path fill-rule="evenodd" clip-rule="evenodd" d="M69.3184 90.148H60.4102V98.5832H69.3184V90.148ZM59.6616 89.3994V99.3318H70.0669V89.3994H59.6616Z" fill="#C2C2C2"/>
<path d="M59.6616 51.0881H70.0669V61.0204H59.6616V51.0881Z" fill="white"/>
<path fill-rule="evenodd" clip-rule="evenodd" d="M69.3184 51.8366H60.4102V60.2719H69.3184V51.8366ZM59.6616 51.0881V61.0204H70.0669V51.0881H59.6616Z" fill="#C2C2C2"/>
<path d="M59.6616 79.9393H70.0669V89.8717H59.6616V79.9393Z" fill="white"/>
<path fill-rule="evenodd" clip-rule="evenodd" d="M69.3184 80.6879H60.4102V89.1231H69.3184V80.6879ZM59.6616 79.9393V89.8717H70.0669V79.9393H59.6616Z" fill="#C2C2C2"/>
<path d="M59.6616 98.8581H70.0669V108.79H59.6616V98.8581Z" fill="white"/>
<path fill-rule="evenodd" clip-rule="evenodd" d="M69.3184 99.6067H60.4102V108.042H69.3184V99.6067ZM59.6616 98.8581V108.79H70.0669V98.8581H59.6616Z" fill="#C2C2C2"/>
<path d="M39.7971 31.6969H50.2024V42.1022H39.7971V31.6969Z" fill="white"/>
<path fill-rule="evenodd" clip-rule="evenodd" d="M49.4539 32.4455H40.5457V41.3537H49.4539V32.4455ZM39.7971 31.6969V42.1022H50.2024V31.6969H39.7971Z" fill="#C2C2C2"/>
<path d="M39.7971 60.5483H50.2024V70.9536H39.7971V60.5483Z" fill="white"/>
<path fill-rule="evenodd" clip-rule="evenodd" d="M49.4539 61.2968H40.5457V70.205H49.4539V61.2968ZM39.7971 60.5483V70.9536H50.2024V60.5483H39.7971Z" fill="#C2C2C2"/>
<path d="M39.7971 41.6296H50.2024V51.5619H39.7971V41.6296Z" fill="white"/>
<path fill-rule="evenodd" clip-rule="evenodd" d="M49.4539 42.3781H40.5457V50.8134H49.4539V42.3781ZM39.7971 41.6296V51.5619H50.2024V41.6296H39.7971Z" fill="#C2C2C2"/>
<path d="M39.7971 70.4807H50.2024V80.413H39.7971V70.4807Z" fill="white"/>
<path fill-rule="evenodd" clip-rule="evenodd" d="M49.4539 71.2292H40.5457V79.6645H49.4539V71.2292ZM39.7971 70.4807V80.413H50.2024V70.4807H39.7971Z" fill="#C2C2C2"/>
<path d="M39.7971 89.3994H50.2024V99.3318H39.7971V89.3994Z" fill="white"/>
<path fill-rule="evenodd" clip-rule="evenodd" d="M49.4539 90.148H40.5457V98.5832H49.4539V90.148ZM39.7971 89.3994V99.3318H50.2024V89.3994H39.7971Z" fill="#C2C2C2"/>
<path d="M39.7971 51.0881H50.2024V61.0204H39.7971V51.0881Z" fill="white"/>
<path fill-rule="evenodd" clip-rule="evenodd" d="M49.4539 51.8366H40.5457V60.2719H49.4539V51.8366ZM39.7971 51.0881V61.0204H50.2024V51.0881H39.7971Z" fill="#C2C2C2"/>
<path d="M39.7971 79.9393H50.2024V89.8717H39.7971V79.9393Z" fill="white"/>
<path fill-rule="evenodd" clip-rule="evenodd" d="M49.4539 80.6879H40.5457V89.1231H49.4539V80.6879ZM39.7971 79.9393V89.8717H50.2024V79.9393H39.7971Z" fill="#C2C2C2"/>
<path d="M39.7971 98.8581H50.2024V108.79H39.7971V98.8581Z" fill="white"/>
<path fill-rule="evenodd" clip-rule="evenodd" d="M49.4539 99.6067H40.5457V108.042H49.4539V99.6067ZM39.7971 98.8581V108.79H50.2024V98.8581H39.7971Z" fill="#C2C2C2"/>
<path d="M79.5264 31.6969H89.9317V42.1022H79.5264V31.6969Z" fill="white"/>
<path fill-rule="evenodd" clip-rule="evenodd" d="M89.1831 32.4455H80.2749V41.3537H89.1831V32.4455ZM79.5264 31.6969V42.1022H89.9317V31.6969H79.5264Z" fill="#C2C2C2"/>
<path d="M79.5264 60.5483H89.9317V70.9536H79.5264V60.5483Z" fill="white"/>
<path fill-rule="evenodd" clip-rule="evenodd" d="M89.1831 61.2968H80.2749V70.205H89.1831V61.2968ZM79.5264 60.5483V70.9536H89.9317V60.5483H79.5264Z" fill="#C2C2C2"/>
<path d="M79.5264 41.6296H89.9317V51.5619H79.5264V41.6296Z" fill="white"/>
<path fill-rule="evenodd" clip-rule="evenodd" d="M89.1831 42.3781H80.2749V50.8134H89.1831V42.3781ZM79.5264 41.6296V51.5619H89.9317V41.6296H79.5264Z" fill="#C2C2C2"/>
<path d="M79.5264 70.4807H89.9317V80.413H79.5264V70.4807Z" fill="white"/>
<path fill-rule="evenodd" clip-rule="evenodd" d="M89.1831 71.2292H80.2749V79.6645H89.1831V71.2292ZM79.5264 70.4807V80.413H89.9317V70.4807H79.5264Z" fill="#C2C2C2"/>
<path d="M79.5264 89.3994H89.9317V99.3318H79.5264V89.3994Z" fill="white"/>
<path fill-rule="evenodd" clip-rule="evenodd" d="M89.1831 90.148H80.2749V98.5832H89.1831V90.148ZM79.5264 89.3994V99.3318H89.9317V89.3994H79.5264Z" fill="#C2C2C2"/>
<path d="M79.5264 51.0881H89.9317V61.0204H79.5264V51.0881Z" fill="white"/>
<path fill-rule="evenodd" clip-rule="evenodd" d="M89.1831 51.8366H80.2749V60.2719H89.1831V51.8366ZM79.5264 51.0881V61.0204H89.9317V51.0881H79.5264Z" fill="#C2C2C2"/>
<path d="M79.5264 79.9393H89.9317V89.8717H79.5264V79.9393Z" fill="white"/>
<path fill-rule="evenodd" clip-rule="evenodd" d="M89.1831 80.6879H80.2749V89.1231H89.1831V80.6879ZM79.5264 79.9393V89.8717H89.9317V79.9393H79.5264Z" fill="#C2C2C2"/>
<path d="M79.5264 98.8581H89.9317V108.79H79.5264V98.8581Z" fill="white"/>
<path fill-rule="evenodd" clip-rule="evenodd" d="M89.1831 99.6067H80.2749V108.042H89.1831V99.6067ZM79.5264 98.8581V108.79H89.9317V98.8581H79.5264Z" fill="#C2C2C2"/>
<path d="M29.8645 31.6969H40.2698V42.1022H29.8645V31.6969Z" fill="white"/>
<path fill-rule="evenodd" clip-rule="evenodd" d="M39.5213 32.4455H30.613V41.3537H39.5213V32.4455ZM29.8645 31.6969V42.1022H40.2698V31.6969H29.8645Z" fill="#C2C2C2"/>
<path d="M29.8645 60.5483H40.2698V70.9536H29.8645V60.5483Z" fill="white"/>
<path fill-rule="evenodd" clip-rule="evenodd" d="M39.5213 61.2968H30.613V70.205H39.5213V61.2968ZM29.8645 60.5483V70.9536H40.2698V60.5483H29.8645Z" fill="#C2C2C2"/>
<path d="M29.8645 41.6296H40.2698V51.5619H29.8645V41.6296Z" fill="white"/>
<path fill-rule="evenodd" clip-rule="evenodd" d="M39.5213 42.3781H30.613V50.8134H39.5213V42.3781ZM29.8645 41.6296V51.5619H40.2698V41.6296H29.8645Z" fill="#C2C2C2"/>
<path d="M29.8643 70.4807H40.2696V80.413H29.8643V70.4807Z" fill="white"/>
<path fill-rule="evenodd" clip-rule="evenodd" d="M39.521 71.2292H30.6128V79.6645H39.521V71.2292ZM29.8643 70.4807V80.413H40.2696V70.4807H29.8643Z" fill="#C2C2C2"/>
<path d="M29.8643 89.3994H40.2696V99.3318H29.8643V89.3994Z" fill="white"/>
<path fill-rule="evenodd" clip-rule="evenodd" d="M39.521 90.148H30.6128V98.5832H39.521V90.148ZM29.8643 89.3994V99.3318H40.2696V89.3994H29.8643Z" fill="#C2C2C2"/>
<path d="M29.8643 51.0881H40.2696V61.0204H29.8643V51.0881Z" fill="white"/>
<path fill-rule="evenodd" clip-rule="evenodd" d="M39.521 51.8366H30.6128V60.2719H39.521V51.8366ZM29.8643 51.0881V61.0204H40.2696V51.0881H29.8643Z" fill="#C2C2C2"/>
<path d="M29.8643 79.9393H40.2696V89.8717H29.8643V79.9393Z" fill="white"/>
<path fill-rule="evenodd" clip-rule="evenodd" d="M39.521 80.6879H30.6128V89.1231H39.521V80.6879ZM29.8643 79.9393V89.8717H40.2696V79.9393H29.8643Z" fill="#C2C2C2"/>
<path d="M29.8643 98.8581H40.2696V108.79H29.8643V98.8581Z" fill="white"/>
<path fill-rule="evenodd" clip-rule="evenodd" d="M39.521 99.6067H30.6128V108.042H39.521V99.6067ZM29.8643 98.8581V108.79H40.2696V98.8581H29.8643Z" fill="#C2C2C2"/>
<path d="M69.5942 31.6969H79.9995V42.1022H69.5942V31.6969Z" fill="white"/>
<path fill-rule="evenodd" clip-rule="evenodd" d="M79.251 32.4455H70.3428V41.3537H79.251V32.4455ZM69.5942 31.6969V42.1022H79.9995V31.6969H69.5942Z" fill="#C2C2C2"/>
<path d="M89.5972 31.6969H100.002V42.1022H89.5972V31.6969Z" fill="white"/>
<path fill-rule="evenodd" clip-rule="evenodd" d="M99.2539 32.4455H90.3457V41.3537H99.2539V32.4455ZM89.5972 31.6969V42.1022H100.002V31.6969H89.5972Z" fill="#C2C2C2"/>
<path d="M99.6089 31.6969H110.014V42.1022H99.6089V31.6969Z" fill="white"/>
<path fill-rule="evenodd" clip-rule="evenodd" d="M109.266 32.4455H100.357V41.3537H109.266V32.4455ZM99.6089 31.6969V42.1022H110.014V31.6969H99.6089Z" fill="#C2C2C2"/>
<path d="M109.621 31.6969H120.026V42.1022H109.621V31.6969Z" fill="white"/>
<path fill-rule="evenodd" clip-rule="evenodd" d="M119.278 32.4455H110.37V41.3537H119.278V32.4455ZM109.621 31.6969V42.1022H120.026V31.6969H109.621Z" fill="#C2C2C2"/>
<path d="M119.633 31.6969H130.038V42.1022H119.633V31.6969Z" fill="white"/>
<path fill-rule="evenodd" clip-rule="evenodd" d="M129.29 32.4455H120.382V41.3537H129.29V32.4455ZM119.633 31.6969V42.1022H130.038V31.6969H119.633Z" fill="#C2C2C2"/>
<path d="M69.5942 60.5483H79.9995V70.9536H69.5942V60.5483Z" fill="white"/>
<path fill-rule="evenodd" clip-rule="evenodd" d="M79.251 61.2968H70.3428V70.205H79.251V61.2968ZM69.5942 60.5483V70.9536H79.9995V60.5483H69.5942Z" fill="#C2C2C2"/>
<path d="M89.5972 60.5483H100.002V70.9536H89.5972V60.5483Z" fill="white"/>
<path fill-rule="evenodd" clip-rule="evenodd" d="M99.2539 61.2968H90.3457V70.205H99.2539V61.2968ZM89.5972 60.5483V70.9536H100.002V60.5483H89.5972Z" fill="#C2C2C2"/>
<path d="M99.6089 60.5483H110.014V70.9536H99.6089V60.5483Z" fill="white"/>
<path fill-rule="evenodd" clip-rule="evenodd" d="M109.266 61.2968H100.357V70.205H109.266V61.2968ZM99.6089 60.5483V70.9536H110.014V60.5483H99.6089Z" fill="#C2C2C2"/>
<path d="M109.621 60.5483H120.026V70.9536H109.621V60.5483Z" fill="white"/>
<path fill-rule="evenodd" clip-rule="evenodd" d="M119.278 61.2968H110.37V70.205H119.278V61.2968ZM109.621 60.5483V70.9536H120.026V60.5483H109.621Z" fill="#C2C2C2"/>
<path d="M119.633 60.5483H130.038V70.9536H119.633V60.5483Z" fill="white"/>
<path fill-rule="evenodd" clip-rule="evenodd" d="M129.29 61.2968H120.382V70.205H129.29V61.2968ZM119.633 60.5483V70.9536H130.038V60.5483H119.633Z" fill="#C2C2C2"/>
<path d="M69.5942 41.6296H79.9995V51.5619H69.5942V41.6296Z" fill="white"/>
<path fill-rule="evenodd" clip-rule="evenodd" d="M79.251 42.3781H70.3428V50.8134H79.251V42.3781ZM69.5942 41.6296V51.5619H79.9995V41.6296H69.5942Z" fill="#C2C2C2"/>
<path d="M89.5972 41.6296H100.002V51.5619H89.5972V41.6296Z" fill="white"/>
<path fill-rule="evenodd" clip-rule="evenodd" d="M99.2539 42.3781H90.3457V50.8134H99.2539V42.3781ZM89.5972 41.6296V51.5619H100.002V41.6296H89.5972Z" fill="#C2C2C2"/>
<path d="M99.6089 41.6296H110.014V51.5619H99.6089V41.6296Z" fill="white"/>
<path fill-rule="evenodd" clip-rule="evenodd" d="M109.266 42.3781H100.357V50.8134H109.266V42.3781ZM99.6089 41.6296V51.5619H110.014V41.6296H99.6089Z" fill="#C2C2C2"/>
<path d="M109.621 41.6296H120.026V51.5619H109.621V41.6296Z" fill="white"/>
<path fill-rule="evenodd" clip-rule="evenodd" d="M119.278 42.3781H110.37V50.8134H119.278V42.3781ZM109.621 41.6296V51.5619H120.026V41.6296H109.621Z" fill="#C2C2C2"/>
<path d="M119.633 41.6296H130.038V51.5619H119.633V41.6296Z" fill="white"/>
<path fill-rule="evenodd" clip-rule="evenodd" d="M129.29 42.3781H120.382V50.8134H129.29V42.3781ZM119.633 41.6296V51.5619H130.038V41.6296H119.633Z" fill="#C2C2C2"/>
<path d="M69.594 70.4807H79.9993V80.413H69.594V70.4807Z" fill="white"/>
<path fill-rule="evenodd" clip-rule="evenodd" d="M79.2508 71.2292H70.3425V79.6645H79.2508V71.2292ZM69.594 70.4807V80.413H79.9993V70.4807H69.594Z" fill="#C2C2C2"/>
<path d="M89.5972 70.4807H100.002V80.413H89.5972V70.4807Z" fill="white"/>
<path fill-rule="evenodd" clip-rule="evenodd" d="M99.2539 71.2292H90.3457V79.6645H99.2539V71.2292ZM89.5972 70.4807V80.413H100.002V70.4807H89.5972Z" fill="#C2C2C2"/>
<path d="M99.6089 70.4807H110.014V80.413H99.6089V70.4807Z" fill="white"/>
<path fill-rule="evenodd" clip-rule="evenodd" d="M109.266 71.2292H100.357V79.6645H109.266V71.2292ZM99.6089 70.4807V80.413H110.014V70.4807H99.6089Z" fill="#C2C2C2"/>
<path d="M109.621 70.4807H120.026V80.413H109.621V70.4807Z" fill="white"/>
<path fill-rule="evenodd" clip-rule="evenodd" d="M119.278 71.2292H110.37V79.6645H119.278V71.2292ZM109.621 70.4807V80.413H120.026V70.4807H109.621Z" fill="#C2C2C2"/>
<path d="M119.633 70.4807H130.038V80.413H119.633V70.4807Z" fill="white"/>
<path fill-rule="evenodd" clip-rule="evenodd" d="M129.29 71.2292H120.382V79.6645H129.29V71.2292ZM119.633 70.4807V80.413H130.038V70.4807H119.633Z" fill="#C2C2C2"/>
<path d="M69.594 89.3994H79.9993V99.3318H69.594V89.3994Z" fill="white"/>
<path fill-rule="evenodd" clip-rule="evenodd" d="M79.2508 90.148H70.3425V98.5832H79.2508V90.148ZM69.594 89.3994V99.3318H79.9993V89.3994H69.594Z" fill="#C2C2C2"/>
<path d="M89.5972 89.3994H100.002V99.3318H89.5972V89.3994Z" fill="white"/>
<path fill-rule="evenodd" clip-rule="evenodd" d="M99.2539 90.148H90.3457V98.5832H99.2539V90.148ZM89.5972 89.3994V99.3318H100.002V89.3994H89.5972Z" fill="#C2C2C2"/>
<path d="M99.6089 89.3994H110.014V99.3318H99.6089V89.3994Z" fill="white"/>
<path fill-rule="evenodd" clip-rule="evenodd" d="M109.266 90.148H100.357V98.5832H109.266V90.148ZM99.6089 89.3994V99.3318H110.014V89.3994H99.6089Z" fill="#C2C2C2"/>
<path d="M109.621 89.3994H120.026V99.3318H109.621V89.3994Z" fill="white"/>
<path fill-rule="evenodd" clip-rule="evenodd" d="M119.278 90.148H110.37V98.5832H119.278V90.148ZM109.621 89.3994V99.3318H120.026V89.3994H109.621Z" fill="#C2C2C2"/>
<path d="M119.633 89.3994H130.038V99.3318H119.633V89.3994Z" fill="white"/>
<path fill-rule="evenodd" clip-rule="evenodd" d="M129.29 90.148H120.382V98.5832H129.29V90.148ZM119.633 89.3994V99.3318H130.038V89.3994H119.633Z" fill="#C2C2C2"/>
<path d="M69.594 51.0881H79.9993V61.0204H69.594V51.0881Z" fill="white"/>
<path fill-rule="evenodd" clip-rule="evenodd" d="M79.2508 51.8366H70.3425V60.2719H79.2508V51.8366ZM69.594 51.0881V61.0204H79.9993V51.0881H69.594Z" fill="#C2C2C2"/>
<path d="M89.5972 51.0881H100.002V61.0204H89.5972V51.0881Z" fill="white"/>
<path fill-rule="evenodd" clip-rule="evenodd" d="M99.2539 51.8366H90.3457V60.2719H99.2539V51.8366ZM89.5972 51.0881V61.0204H100.002V51.0881H89.5972Z" fill="#C2C2C2"/>
<path d="M99.6089 51.0881H110.014V61.0204H99.6089V51.0881Z" fill="white"/>
<path fill-rule="evenodd" clip-rule="evenodd" d="M109.266 51.8366H100.357V60.2719H109.266V51.8366ZM99.6089 51.0881V61.0204H110.014V51.0881H99.6089Z" fill="#C2C2C2"/>
<path d="M109.621 51.0881H120.026V61.0204H109.621V51.0881Z" fill="white"/>
<path fill-rule="evenodd" clip-rule="evenodd" d="M119.278 51.8366H110.37V60.2719H119.278V51.8366ZM109.621 51.0881V61.0204H120.026V51.0881H109.621Z" fill="#C2C2C2"/>
<path d="M119.633 51.0881H130.038V61.0204H119.633V51.0881Z" fill="white"/>
<path fill-rule="evenodd" clip-rule="evenodd" d="M129.29 51.8366H120.382V60.2719H129.29V51.8366ZM119.633 51.0881V61.0204H130.038V51.0881H119.633Z" fill="#C2C2C2"/>
<path d="M69.594 79.9393H79.9993V89.8717H69.594V79.9393Z" fill="white"/>
<path fill-rule="evenodd" clip-rule="evenodd" d="M79.2508 80.6879H70.3425V89.1231H79.2508V80.6879ZM69.594 79.9393V89.8717H79.9993V79.9393H69.594Z" fill="#C2C2C2"/>
<path d="M89.5972 79.9393H100.002V89.8717H89.5972V79.9393Z" fill="white"/>
<path fill-rule="evenodd" clip-rule="evenodd" d="M99.2539 80.6879H90.3457V89.1231H99.2539V80.6879ZM89.5972 79.9393V89.8717H100.002V79.9393H89.5972Z" fill="#C2C2C2"/>
<path d="M99.6089 79.9393H110.014V89.8717H99.6089V79.9393Z" fill="white"/>
<path fill-rule="evenodd" clip-rule="evenodd" d="M109.266 80.6879H100.357V89.1231H109.266V80.6879ZM99.6089 79.9393V89.8717H110.014V79.9393H99.6089Z" fill="#C2C2C2"/>
<path d="M109.621 79.9393H120.026V89.8717H109.621V79.9393Z" fill="white"/>
<path fill-rule="evenodd" clip-rule="evenodd" d="M119.278 80.6879H110.37V89.1231H119.278V80.6879ZM109.621 79.9393V89.8717H120.026V79.9393H109.621Z" fill="#C2C2C2"/>
<path d="M119.633 79.9393H130.038V89.8717H119.633V79.9393Z" fill="white"/>
<path fill-rule="evenodd" clip-rule="evenodd" d="M129.29 80.6879H120.382V89.1231H129.29V80.6879ZM119.633 79.9393V89.8717H130.038V79.9393H119.633Z" fill="#C2C2C2"/>
<path d="M69.594 98.8581H79.9993V108.79H69.594V98.8581Z" fill="white"/>
<path fill-rule="evenodd" clip-rule="evenodd" d="M79.2508 99.6067H70.3425V108.042H79.2508V99.6067ZM69.594 98.8581V108.79H79.9993V98.8581H69.594Z" fill="#C2C2C2"/>
<path d="M89.5972 98.8581H100.002V108.79H89.5972V98.8581Z" fill="white"/>
<path fill-rule="evenodd" clip-rule="evenodd" d="M99.2539 99.6067H90.3457V108.042H99.2539V99.6067ZM89.5972 98.8581V108.79H100.002V98.8581H89.5972Z" fill="#C2C2C2"/>
<path d="M99.6089 98.8581H110.014V108.79H99.6089V98.8581Z" fill="white"/>
<path fill-rule="evenodd" clip-rule="evenodd" d="M109.266 99.6067H100.357V108.042H109.266V99.6067ZM99.6089 98.8581V108.79H110.014V98.8581H99.6089Z" fill="#C2C2C2"/>
<path d="M109.621 98.8581H120.026V108.79H109.621V98.8581Z" fill="white"/>
<path fill-rule="evenodd" clip-rule="evenodd" d="M119.278 99.6067H110.37V108.042H119.278V99.6067ZM109.621 98.8581V108.79H120.026V98.8581H109.621Z" fill="#C2C2C2"/>
<path d="M119.633 98.8581H130.038V108.79H119.633V98.8581Z" fill="white"/>
<path fill-rule="evenodd" clip-rule="evenodd" d="M129.29 99.6067H120.382V108.042H129.29V99.6067ZM119.633 98.8581V108.79H130.038V98.8581H119.633Z" fill="#C2C2C2"/>
<path fill-rule="evenodd" clip-rule="evenodd" d="M125.159 18.4237H15.9882C13.9212 18.4237 12.2456 20.0993 12.2456 22.1663V104.304C12.2456 106.371 13.9212 108.047 15.9883 108.047H125.159C127.226 108.047 128.902 106.371 128.902 104.304V22.1663C128.902 20.0993 127.226 18.4237 125.159 18.4237ZM15.9882 16.1781C12.681 16.1781 10 18.8591 10 22.1663V104.304C10 107.612 12.681 110.293 15.9883 110.293H125.159C128.466 110.293 131.147 107.612 131.147 104.304V22.1663C131.147 18.8591 128.466 16.1781 125.159 16.1781H15.9882Z" fill="black"/>
<path d="M12.2456 21.9679C12.2456 20.0105 13.9018 18.4237 15.9448 18.4237H125.317C127.36 18.4237 129.016 20.0105 129.016 21.9679V32.6458H12.2456V21.9679Z" fill="#FF9900"/>
<path d="M21.2366 24.6883C21.2366 26.3471 19.9242 27.6919 18.3053 27.6919C16.6864 27.6919 15.374 26.3471 15.374 24.6883C15.374 23.0294 16.6864 21.6846 18.3053 21.6846C19.9242 21.6846 21.2366 23.0294 21.2366 24.6883Z" fill="#FF9900"/>
<path fill-rule="evenodd" clip-rule="evenodd" d="M18.3053 26.1949C19.0632 26.1949 19.7395 25.555 19.7395 24.6883C19.7395 23.8216 19.0632 23.1817 18.3053 23.1817C17.5474 23.1817 16.8711 23.8216 16.8711 24.6883C16.8711 25.555 17.5474 26.1949 18.3053 26.1949ZM18.3053 27.6919C19.9242 27.6919 21.2366 26.3471 21.2366 24.6883C21.2366 23.0294 19.9242 21.6846 18.3053 21.6846C16.6864 21.6846 15.374 23.0294 15.374 24.6883C15.374 26.3471 16.6864 27.6919 18.3053 27.6919Z" fill="black"/>
<path d="M37.8477 24.6883C37.8477 26.3471 36.5353 27.6919 34.9164 27.6919C33.2975 27.6919 31.9851 26.3471 31.9851 24.6883C31.9851 23.0294 33.2975 21.6846 34.9164 21.6846C36.5353 21.6846 37.8477 23.0294 37.8477 24.6883Z" fill="#FF9900"/>
<path fill-rule="evenodd" clip-rule="evenodd" d="M34.9164 26.1949C35.6743 26.1949 36.3506 25.555 36.3506 24.6883C36.3506 23.8216 35.6743 23.1817 34.9164 23.1817C34.1585 23.1817 33.4822 23.8216 33.4822 24.6883C33.4822 25.555 34.1585 26.1949 34.9164 26.1949ZM34.9164 27.6919C36.5353 27.6919 37.8477 26.3471 37.8477 24.6883C37.8477 23.0294 36.5353 21.6846 34.9164 21.6846C33.2975 21.6846 31.9851 23.0294 31.9851 24.6883C31.9851 26.3471 33.2975 27.6919 34.9164 27.6919Z" fill="black"/>
<path d="M29.542 24.6883C29.542 26.3471 28.2296 27.6919 26.6107 27.6919C24.9918 27.6919 23.6794 26.3471 23.6794 24.6883C23.6794 23.0294 24.9918 21.6846 26.6107 21.6846C28.2296 21.6846 29.542 23.0294 29.542 24.6883Z" fill="#FF9900"/>
<path fill-rule="evenodd" clip-rule="evenodd" d="M26.6107 26.1949C27.3686 26.1949 28.0449 25.555 28.0449 24.6883C28.0449 23.8216 27.3686 23.1817 26.6107 23.1817C25.8528 23.1817 25.1765 23.8216 25.1765 24.6883C25.1765 25.555 25.8528 26.1949 26.6107 26.1949ZM26.6107 27.6919C28.2296 27.6919 29.542 26.3471 29.542 24.6883C29.542 23.0294 28.2296 21.6846 26.6107 21.6846C24.9918 21.6846 23.6794 23.0294 23.6794 24.6883C23.6794 26.3471 24.9918 27.6919 26.6107 27.6919Z" fill="black"/>
<path d="M123.567 41.3288C124.253 41.7356 124.51 42.3228 124.498 43.1319C124.461 45.6656 124.501 48.1992 124.468 50.7329C124.464 51.1444 124.355 51.683 124.082 51.9258C123.798 52.1777 123.231 52.2795 122.836 52.2009C122.244 52.083 122.018 51.5466 122.018 50.9456C122.018 49.2141 122.018 47.4803 122.018 45.7488C122.018 44.8703 122.059 43.9873 122.006 43.1134C121.958 42.2997 122.23 41.7102 122.947 41.3288H123.569H123.567Z" fill="black"/>
<path d="M123.294 105.786C120.318 105.786 117.345 105.791 114.37 105.786C113.053 105.784 112.75 105.384 112.678 104.062C112.586 102.391 112.468 100.705 112.163 99.064C111.746 96.8262 110.558 95.0092 108.938 93.3632C104.085 88.4369 102.118 82.468 103.211 75.6345C104.645 66.6881 111.524 60.0465 120.533 58.701C129.054 57.4296 137.811 62.0554 141.579 69.8205C145.475 77.8492 144.051 87.0175 137.691 93.2661C134.707 96.1997 134.013 99.769 133.893 103.646C133.886 103.879 133.904 104.113 133.888 104.344C133.817 105.373 133.407 105.78 132.372 105.782C129.346 105.791 126.32 105.786 123.294 105.786ZM115.246 103.271C115.545 103.271 115.852 103.271 116.157 103.271C120.889 103.271 125.621 103.271 130.354 103.271C131.445 103.271 131.429 103.271 131.498 102.208C131.68 99.42 132.184 96.6898 133.713 94.3087C134.512 93.0627 135.643 92.034 136.593 90.8827C141.688 84.715 142.62 77.9578 139.231 70.7174C135.881 63.5603 127.18 59.5333 119.47 61.2601C110.738 63.2159 104.682 71.2122 105.357 80.073C105.697 84.5347 107.389 88.3907 110.597 91.4976C112.685 93.5181 113.986 95.9061 114.548 98.7126C114.842 100.176 115.004 101.667 115.242 103.271H115.246Z" fill="black"/>
<path d="M123.178 113.362C120.462 113.362 117.746 113.383 115.029 113.356C113.547 113.339 112.308 112.255 112.077 110.866C111.834 109.4 112.579 107.995 113.938 107.486C114.41 107.31 114.946 107.234 115.455 107.232C120.654 107.213 125.855 107.211 131.054 107.225C132.918 107.229 134.256 108.311 134.429 109.881C134.64 111.795 133.267 113.332 131.251 113.358C128.56 113.39 125.869 113.365 123.18 113.365L123.178 113.362ZM123.215 109.629C120.58 109.629 117.942 109.613 115.307 109.652C115.039 109.657 114.606 109.941 114.546 110.172C114.421 110.658 114.833 110.82 115.265 110.843C115.42 110.852 115.575 110.847 115.73 110.847C120.744 110.847 125.756 110.847 130.77 110.847C130.95 110.847 131.17 110.905 131.304 110.824C131.537 110.683 131.72 110.452 131.923 110.26C131.708 110.05 131.514 109.807 131.267 109.645C131.14 109.562 130.916 109.627 130.733 109.627C128.227 109.627 125.719 109.627 123.213 109.627L123.215 109.629Z" fill="black"/>
<path d="M123.259 120.799C121.319 120.799 119.38 120.832 117.442 120.788C115.947 120.755 114.793 119.722 114.502 118.277C114.238 116.976 114.918 115.566 116.157 114.999C116.615 114.791 117.151 114.659 117.65 114.657C121.398 114.629 125.147 114.608 128.895 114.657C131.026 114.685 132.383 116.414 131.955 118.397C131.655 119.787 130.444 120.772 128.918 120.795C127.031 120.822 125.143 120.802 123.256 120.802V120.797L123.259 120.799ZM123.333 117.064C121.469 117.064 119.609 117.066 117.745 117.061C117.32 117.061 116.92 117.131 116.925 117.648C116.929 118.15 117.325 118.254 117.75 118.259C117.801 118.259 117.854 118.259 117.905 118.259C121.474 118.259 125.043 118.259 128.615 118.259C129.077 118.259 129.577 118.224 129.547 117.611C129.521 117.05 129.04 117.059 128.61 117.061C126.851 117.066 125.092 117.061 123.333 117.061V117.064Z" fill="black"/>
<path d="M109.626 55.5835C109.342 55.8956 109.09 56.4042 108.713 56.5244C108.337 56.6446 107.796 56.4573 107.4 56.2562C107.137 56.1221 106.996 55.7384 106.815 55.4564C105.477 53.3689 104.145 51.2767 102.809 49.1893C102.481 48.6784 102.273 48.0935 102.712 47.6173C102.985 47.3214 103.503 47.1018 103.9 47.1179C104.236 47.1295 104.663 47.4601 104.867 47.7698C106.346 50.0122 107.784 52.2824 109.22 54.5525C109.379 54.8045 109.446 55.1189 109.626 55.5858V55.5835Z" fill="black"/>
<path d="M147.472 66.8916C147.211 66.6766 146.718 66.4686 146.621 66.1426C146.501 65.7358 146.667 65.2249 146.788 64.7787C146.829 64.6238 147.086 64.5059 147.266 64.4088C149.626 63.1304 151.991 61.859 154.356 60.5852C154.9 60.2939 155.501 60.1991 155.933 60.6615C156.189 60.9366 156.328 61.4567 156.277 61.8335C156.236 62.1503 155.901 62.5248 155.595 62.6935C153.18 64.032 150.743 65.3312 148.306 66.6327C148.108 66.739 147.872 66.7714 147.474 66.8893L147.472 66.8916Z" fill="black"/>
<path d="M99.0619 66.9192C98.5949 66.762 98.3083 66.7112 98.0679 66.5794C95.7053 65.3056 93.3473 64.0249 90.9963 62.7304C90.1802 62.2819 89.9629 61.6831 90.3143 61.015C90.6611 60.3539 91.4008 60.1597 92.1891 60.5828C94.554 61.8519 96.9051 63.1442 99.263 64.4272C99.8918 64.7693 100.195 65.3195 99.9358 65.9714C99.7832 66.3575 99.3416 66.6279 99.0619 66.9192Z" fill="black"/>
<path d="M144.696 48.479C144.488 48.9298 144.393 49.2257 144.229 49.4753C142.733 51.7385 141.233 53.9971 139.721 56.2487C139.229 56.9838 138.621 57.1572 138.02 56.7827C137.391 56.3897 137.243 55.687 137.719 54.9611C139.236 52.6493 140.775 50.3538 142.317 48.0605C142.648 47.5681 143.145 47.263 143.709 47.5496C144.092 47.7461 144.368 48.1576 144.696 48.479Z" fill="black"/>
<path d="M115.247 103.272C115.006 101.668 114.844 100.177 114.553 98.7136C113.991 95.9071 112.692 93.5191 110.602 91.4986C107.394 88.394 105.701 84.5357 105.362 80.074C104.687 71.2131 110.743 63.2169 119.475 61.2611C127.184 59.5343 135.886 63.5613 139.235 70.7184C142.624 77.9588 141.691 84.716 136.598 90.8837C135.648 92.035 134.517 93.066 133.717 94.3097C132.187 96.6885 131.683 99.4186 131.503 102.209C131.433 103.27 131.45 103.272 130.358 103.272C125.626 103.272 120.894 103.272 116.162 103.272C115.855 103.272 115.549 103.272 115.251 103.272H115.247ZM139.092 78.8118C138.94 72.2141 134.009 65.947 127.607 64.338C126.241 63.9936 124.813 63.8618 123.405 63.7231C122.626 63.6468 122.052 64.2178 122.029 64.8929C122.004 65.561 122.542 66.0927 123.324 66.1643C123.479 66.1782 123.634 66.1759 123.788 66.1828C130.268 66.4648 135.548 71.2455 136.48 77.6837C136.575 78.3472 136.57 79.0245 136.674 79.6857C136.787 80.4 137.321 80.8115 137.966 80.7652C138.602 80.7213 139.053 80.222 139.09 79.5077C139.101 79.2765 139.09 79.043 139.09 78.8095L139.092 78.8118Z" fill="white"/>
<path d="M123.215 109.629C125.721 109.629 128.229 109.629 130.735 109.629C130.915 109.629 131.14 109.564 131.269 109.648C131.516 109.807 131.711 110.052 131.926 110.262C131.722 110.454 131.542 110.683 131.306 110.827C131.172 110.907 130.952 110.85 130.772 110.85C125.758 110.85 120.746 110.85 115.732 110.85C115.577 110.85 115.422 110.854 115.267 110.845C114.835 110.822 114.423 110.658 114.548 110.175C114.608 109.943 115.041 109.659 115.309 109.654C117.944 109.615 120.58 109.631 123.217 109.631L123.215 109.629Z" fill="white"/>
<path d="M123.333 117.066C125.092 117.066 126.851 117.068 128.61 117.066C129.04 117.066 129.521 117.054 129.547 117.616C129.574 118.229 129.077 118.263 128.615 118.263C125.046 118.263 121.476 118.263 117.905 118.263C117.854 118.263 117.801 118.263 117.75 118.263C117.325 118.261 116.929 118.157 116.925 117.653C116.92 117.135 117.318 117.066 117.745 117.066C119.609 117.07 121.469 117.068 123.333 117.066Z" fill="white"/>
<path d="M139.092 78.809C139.092 79.0424 139.101 79.2759 139.092 79.5071C139.055 80.2214 138.604 80.7184 137.968 80.7647C137.324 80.8109 136.79 80.3994 136.676 79.6851C136.572 79.0239 136.579 78.3466 136.482 77.6831C135.55 71.245 130.27 66.4643 123.791 66.1823C123.636 66.1753 123.481 66.1776 123.326 66.1638C122.545 66.0921 122.006 65.5627 122.031 64.8923C122.057 64.2173 122.628 63.644 123.407 63.7226C124.815 63.8613 126.241 63.9953 127.61 64.3375C134.011 65.9465 138.944 72.2113 139.094 78.8113L139.092 78.809Z" fill="black"/>
</svg>
