<svg width="210" height="146" viewBox="0 0 210 146" fill="none" xmlns="http://www.w3.org/2000/svg">
<rect x="0.5" y="21.2324" width="12.901" height="12.901" fill="white" stroke="#C2C2C2"/>
<rect x="0.5" y="59.776" width="12.901" height="12.901" fill="white" stroke="#C2C2C2"/>
<rect x="0.5" y="34.5016" width="12.901" height="12.2691" fill="white" stroke="#C2C2C2"/>
<rect x="0.5" y="73.0451" width="12.901" height="12.2691" fill="white" stroke="#C2C2C2"/>
<rect x="0.5" y="98.3196" width="12.901" height="12.2691" fill="white" stroke="#C2C2C2"/>
<rect x="0.5" y="47.1388" width="12.901" height="12.2691" fill="white" stroke="#C2C2C2"/>
<rect x="0.5" y="85.6824" width="12.901" height="12.2691" fill="white" stroke="#C2C2C2"/>
<rect x="0.5" y="110.957" width="12.901" height="12.2691" fill="white" stroke="#C2C2C2"/>
<rect x="53.5762" y="21.2325" width="12.901" height="12.901" fill="white" stroke="#C2C2C2"/>
<rect x="53.5762" y="59.776" width="12.901" height="12.901" fill="white" stroke="#C2C2C2"/>
<rect x="53.5762" y="34.5016" width="12.901" height="12.2691" fill="white" stroke="#C2C2C2"/>
<rect x="53.5762" y="73.0451" width="12.901" height="12.2691" fill="white" stroke="#C2C2C2"/>
<rect x="53.5762" y="98.3196" width="12.901" height="12.2691" fill="white" stroke="#C2C2C2"/>
<rect x="53.5762" y="47.1388" width="12.901" height="12.2691" fill="white" stroke="#C2C2C2"/>
<rect x="53.5762" y="85.6823" width="12.901" height="12.2691" fill="white" stroke="#C2C2C2"/>
<rect x="53.5762" y="110.957" width="12.901" height="12.2691" fill="white" stroke="#C2C2C2"/>
<rect x="0.5" y="21.2324" width="12.901" height="12.901" fill="white" stroke="#C2C2C2"/>
<rect x="0.5" y="59.776" width="12.901" height="12.901" fill="white" stroke="#C2C2C2"/>
<rect x="0.5" y="34.5016" width="12.901" height="12.2691" fill="white" stroke="#C2C2C2"/>
<rect x="0.5" y="73.0451" width="12.901" height="12.2691" fill="white" stroke="#C2C2C2"/>
<rect x="0.5" y="98.3196" width="12.901" height="12.2691" fill="white" stroke="#C2C2C2"/>
<rect x="0.5" y="47.1388" width="12.901" height="12.2691" fill="white" stroke="#C2C2C2"/>
<rect x="0.5" y="85.6824" width="12.901" height="12.2691" fill="white" stroke="#C2C2C2"/>
<rect x="0.5" y="110.957" width="12.901" height="12.2691" fill="white" stroke="#C2C2C2"/>
<rect x="53.5762" y="21.2325" width="12.901" height="12.901" fill="white" stroke="#C2C2C2"/>
<rect x="53.5762" y="59.776" width="12.901" height="12.901" fill="white" stroke="#C2C2C2"/>
<rect x="53.5762" y="34.5016" width="12.901" height="12.2691" fill="white" stroke="#C2C2C2"/>
<rect x="53.5762" y="73.0451" width="12.901" height="12.2691" fill="white" stroke="#C2C2C2"/>
<rect x="53.5762" y="98.3196" width="12.901" height="12.2691" fill="white" stroke="#C2C2C2"/>
<rect x="53.5762" y="47.1388" width="12.901" height="12.2691" fill="white" stroke="#C2C2C2"/>
<rect x="53.5762" y="85.6823" width="12.901" height="12.2691" fill="white" stroke="#C2C2C2"/>
<rect x="53.5762" y="110.957" width="12.901" height="12.2691" fill="white" stroke="#C2C2C2"/>
<rect x="0.5" y="21.2324" width="12.901" height="12.901" fill="white" stroke="#C2C2C2"/>
<rect x="0.5" y="59.776" width="12.901" height="12.901" fill="white" stroke="#C2C2C2"/>
<rect x="0.5" y="34.5016" width="12.901" height="12.2691" fill="white" stroke="#C2C2C2"/>
<rect x="0.5" y="73.0451" width="12.901" height="12.2691" fill="white" stroke="#C2C2C2"/>
<rect x="0.5" y="98.3196" width="12.901" height="12.2691" fill="white" stroke="#C2C2C2"/>
<rect x="0.5" y="47.1388" width="12.901" height="12.2691" fill="white" stroke="#C2C2C2"/>
<rect x="0.5" y="85.6824" width="12.901" height="12.2691" fill="white" stroke="#C2C2C2"/>
<rect x="0.5" y="110.957" width="12.901" height="12.2691" fill="white" stroke="#C2C2C2"/>
<rect x="53.5762" y="21.2325" width="12.901" height="12.901" fill="white" stroke="#C2C2C2"/>
<rect x="53.5762" y="59.776" width="12.901" height="12.901" fill="white" stroke="#C2C2C2"/>
<rect x="53.5762" y="34.5016" width="12.901" height="12.2691" fill="white" stroke="#C2C2C2"/>
<rect x="53.5762" y="73.0451" width="12.901" height="12.2691" fill="white" stroke="#C2C2C2"/>
<rect x="53.5762" y="98.3196" width="12.901" height="12.2691" fill="white" stroke="#C2C2C2"/>
<rect x="53.5762" y="47.1388" width="12.901" height="12.2691" fill="white" stroke="#C2C2C2"/>
<rect x="53.5762" y="85.6823" width="12.901" height="12.2691" fill="white" stroke="#C2C2C2"/>
<rect x="53.5762" y="110.957" width="12.901" height="12.2691" fill="white" stroke="#C2C2C2"/>
<rect x="13.7695" y="21.2325" width="12.901" height="12.901" fill="white" stroke="#C2C2C2"/>
<rect x="13.7695" y="59.776" width="12.901" height="12.901" fill="white" stroke="#C2C2C2"/>
<rect x="13.7695" y="34.5016" width="12.901" height="12.2691" fill="white" stroke="#C2C2C2"/>
<rect x="13.7695" y="73.0451" width="12.901" height="12.2691" fill="white" stroke="#C2C2C2"/>
<rect x="13.7695" y="98.3196" width="12.901" height="12.2691" fill="white" stroke="#C2C2C2"/>
<rect x="13.7695" y="47.1388" width="12.901" height="12.2691" fill="white" stroke="#C2C2C2"/>
<rect x="13.7695" y="85.6823" width="12.901" height="12.2691" fill="white" stroke="#C2C2C2"/>
<rect x="13.7695" y="110.957" width="12.901" height="12.2691" fill="white" stroke="#C2C2C2"/>
<rect x="13.7695" y="21.2325" width="12.901" height="12.901" fill="white" stroke="#C2C2C2"/>
<rect x="13.7695" y="59.776" width="12.901" height="12.901" fill="white" stroke="#C2C2C2"/>
<rect x="13.7695" y="34.5016" width="12.901" height="12.2691" fill="white" stroke="#C2C2C2"/>
<rect x="13.7695" y="73.0451" width="12.901" height="12.2691" fill="white" stroke="#C2C2C2"/>
<rect x="13.7695" y="98.3196" width="12.901" height="12.2691" fill="white" stroke="#C2C2C2"/>
<rect x="13.7695" y="47.1388" width="12.901" height="12.2691" fill="white" stroke="#C2C2C2"/>
<rect x="13.7695" y="85.6823" width="12.901" height="12.2691" fill="white" stroke="#C2C2C2"/>
<rect x="13.7695" y="110.957" width="12.901" height="12.2691" fill="white" stroke="#C2C2C2"/>
<rect x="66.8447" y="21.2324" width="12.901" height="12.901" fill="white" stroke="#C2C2C2"/>
<rect x="66.8447" y="59.776" width="12.901" height="12.901" fill="white" stroke="#C2C2C2"/>
<rect x="66.8447" y="34.5016" width="12.901" height="12.2691" fill="white" stroke="#C2C2C2"/>
<rect x="66.8447" y="73.0451" width="12.901" height="12.2691" fill="white" stroke="#C2C2C2"/>
<rect x="66.8447" y="98.3196" width="12.901" height="12.2691" fill="white" stroke="#C2C2C2"/>
<rect x="66.8447" y="47.1388" width="12.901" height="12.2691" fill="white" stroke="#C2C2C2"/>
<rect x="66.8447" y="85.6824" width="12.901" height="12.2691" fill="white" stroke="#C2C2C2"/>
<rect x="66.8447" y="110.957" width="12.901" height="12.2691" fill="white" stroke="#C2C2C2"/>
<rect x="40.3076" y="21.2325" width="12.901" height="12.901" fill="white" stroke="#C2C2C2"/>
<rect x="40.3076" y="59.776" width="12.901" height="12.901" fill="white" stroke="#C2C2C2"/>
<rect x="40.3076" y="34.5016" width="12.901" height="12.2691" fill="white" stroke="#C2C2C2"/>
<rect x="40.3076" y="73.0451" width="12.901" height="12.2691" fill="white" stroke="#C2C2C2"/>
<rect x="40.3076" y="98.3196" width="12.901" height="12.2691" fill="white" stroke="#C2C2C2"/>
<rect x="40.3076" y="47.1388" width="12.901" height="12.2691" fill="white" stroke="#C2C2C2"/>
<rect x="40.3076" y="85.6824" width="12.901" height="12.2691" fill="white" stroke="#C2C2C2"/>
<rect x="40.3076" y="110.957" width="12.901" height="12.2691" fill="white" stroke="#C2C2C2"/>
<rect x="93.3838" y="21.2325" width="12.901" height="12.901" fill="white" stroke="#C2C2C2"/>
<rect x="93.3838" y="59.776" width="12.901" height="12.901" fill="white" stroke="#C2C2C2"/>
<rect x="93.3838" y="34.5016" width="12.901" height="12.2691" fill="white" stroke="#C2C2C2"/>
<rect x="93.3838" y="73.0451" width="12.901" height="12.2691" fill="white" stroke="#C2C2C2"/>
<rect x="93.3838" y="98.3196" width="12.901" height="12.2691" fill="white" stroke="#C2C2C2"/>
<rect x="93.3838" y="47.1388" width="12.901" height="12.2691" fill="white" stroke="#C2C2C2"/>
<rect x="93.3838" y="85.6823" width="12.901" height="12.2691" fill="white" stroke="#C2C2C2"/>
<rect x="93.3838" y="110.957" width="12.901" height="12.2691" fill="white" stroke="#C2C2C2"/>
<rect x="27.0381" y="21.2324" width="12.901" height="12.901" fill="white" stroke="#C2C2C2"/>
<rect x="27.0381" y="59.776" width="12.901" height="12.901" fill="white" stroke="#C2C2C2"/>
<rect x="27.0381" y="34.5016" width="12.901" height="12.2691" fill="white" stroke="#C2C2C2"/>
<rect x="27.0381" y="73.0451" width="12.901" height="12.2691" fill="white" stroke="#C2C2C2"/>
<rect x="27.0381" y="98.3196" width="12.901" height="12.2691" fill="white" stroke="#C2C2C2"/>
<rect x="27.0381" y="47.1388" width="12.901" height="12.2691" fill="white" stroke="#C2C2C2"/>
<rect x="27.0381" y="85.6823" width="12.901" height="12.2691" fill="white" stroke="#C2C2C2"/>
<rect x="27.0381" y="110.957" width="12.901" height="12.2691" fill="white" stroke="#C2C2C2"/>
<rect x="80.1152" y="21.2324" width="12.901" height="12.901" fill="white" stroke="#C2C2C2"/>
<rect x="106.838" y="21.2325" width="12.901" height="12.901" fill="white" stroke="#C2C2C2"/>
<rect x="120.213" y="21.2324" width="12.901" height="12.901" fill="white" stroke="#C2C2C2"/>
<rect x="133.589" y="21.2325" width="12.901" height="12.901" fill="white" stroke="#C2C2C2"/>
<rect x="146.965" y="21.2324" width="12.901" height="12.901" fill="white" stroke="#C2C2C2"/>
<rect x="80.1152" y="59.776" width="12.901" height="12.901" fill="white" stroke="#C2C2C2"/>
<rect x="106.838" y="59.776" width="12.901" height="12.901" fill="white" stroke="#C2C2C2"/>
<rect x="120.213" y="59.776" width="12.901" height="12.901" fill="white" stroke="#C2C2C2"/>
<rect x="133.589" y="59.776" width="12.901" height="12.901" fill="white" stroke="#C2C2C2"/>
<rect x="146.965" y="59.776" width="12.901" height="12.901" fill="white" stroke="#C2C2C2"/>
<rect x="80.1152" y="34.5015" width="12.901" height="12.2691" fill="white" stroke="#C2C2C2"/>
<rect x="106.838" y="34.5015" width="12.901" height="12.2691" fill="white" stroke="#C2C2C2"/>
<rect x="120.213" y="34.5015" width="12.901" height="12.2691" fill="white" stroke="#C2C2C2"/>
<rect x="133.589" y="34.5015" width="12.901" height="12.2691" fill="white" stroke="#C2C2C2"/>
<rect x="146.965" y="34.5015" width="12.901" height="12.2691" fill="white" stroke="#C2C2C2"/>
<rect x="80.1152" y="73.0451" width="12.901" height="12.2691" fill="white" stroke="#C2C2C2"/>
<rect x="106.838" y="73.0451" width="12.901" height="12.2691" fill="white" stroke="#C2C2C2"/>
<rect x="120.213" y="73.0451" width="12.901" height="12.2691" fill="white" stroke="#C2C2C2"/>
<rect x="133.589" y="73.0451" width="12.901" height="12.2691" fill="white" stroke="#C2C2C2"/>
<rect x="146.965" y="73.0451" width="12.901" height="12.2691" fill="white" stroke="#C2C2C2"/>
<rect x="80.1152" y="98.3196" width="12.901" height="12.2691" fill="white" stroke="#C2C2C2"/>
<rect x="106.838" y="98.3196" width="12.901" height="12.2691" fill="white" stroke="#C2C2C2"/>
<rect x="120.213" y="98.3196" width="12.901" height="12.2691" fill="white" stroke="#C2C2C2"/>
<rect x="133.589" y="98.3196" width="12.901" height="12.2691" fill="white" stroke="#C2C2C2"/>
<rect x="146.965" y="98.3196" width="12.901" height="12.2691" fill="white" stroke="#C2C2C2"/>
<rect x="80.1152" y="47.1388" width="12.901" height="12.2691" fill="white" stroke="#C2C2C2"/>
<rect x="106.838" y="47.1388" width="12.901" height="12.2691" fill="white" stroke="#C2C2C2"/>
<rect x="120.213" y="47.1388" width="12.901" height="12.2691" fill="white" stroke="#C2C2C2"/>
<rect x="133.589" y="47.1388" width="12.901" height="12.2691" fill="white" stroke="#C2C2C2"/>
<rect x="146.965" y="47.1388" width="12.901" height="12.2691" fill="white" stroke="#C2C2C2"/>
<rect x="80.1152" y="85.6823" width="12.901" height="12.2691" fill="white" stroke="#C2C2C2"/>
<rect x="106.838" y="85.6823" width="12.901" height="12.2691" fill="white" stroke="#C2C2C2"/>
<rect x="120.213" y="85.6824" width="12.901" height="12.2691" fill="white" stroke="#C2C2C2"/>
<rect x="133.589" y="85.6824" width="12.901" height="12.2691" fill="white" stroke="#C2C2C2"/>
<rect x="146.965" y="85.6823" width="12.901" height="12.2691" fill="white" stroke="#C2C2C2"/>
<rect x="80.1152" y="110.957" width="12.901" height="12.2691" fill="white" stroke="#C2C2C2"/>
<rect x="106.838" y="110.957" width="12.901" height="12.2691" fill="white" stroke="#C2C2C2"/>
<rect x="120.213" y="110.957" width="12.901" height="12.2691" fill="white" stroke="#C2C2C2"/>
<rect x="133.589" y="110.957" width="12.901" height="12.2691" fill="white" stroke="#C2C2C2"/>
<rect x="146.965" y="110.957" width="12.901" height="12.2691" fill="white" stroke="#C2C2C2"/>
<rect x="1.5" y="1.50001" width="158.847" height="122.732" rx="6.5" stroke="black" stroke-width="3"/>
<path d="M2.00586 7.00635C2.00586 4.24493 4.24444 2.00636 7.00586 2.00636H154.84C157.601 2.00636 159.84 4.24493 159.84 7.00636V22.07H2.00586V7.00635Z" fill="#FF9900"/>
<path d="M14.0118 11.3694C14.0118 13.0564 12.6834 14.3821 11.0957 14.3821C9.5081 14.3821 8.17969 13.0564 8.17969 11.3694C8.17969 9.68238 9.5081 8.35667 11.0957 8.35667C12.6834 8.35667 14.0118 9.68238 14.0118 11.3694Z" fill="#FF9900" stroke="black" stroke-width="2"/>
<path d="M36.2032 11.3694C36.2032 13.0564 34.8748 14.3821 33.2871 14.3821C31.6995 14.3821 30.3711 13.0564 30.3711 11.3694C30.3711 9.68238 31.6995 8.35667 33.2871 8.35667C34.8748 8.35667 36.2032 9.68238 36.2032 11.3694Z" fill="#FF9900" stroke="black" stroke-width="2"/>
<path d="M25.1075 11.3694C25.1075 13.0564 23.7791 14.3821 22.1914 14.3821C20.6038 14.3821 19.2754 13.0564 19.2754 11.3694C19.2754 9.68238 20.6038 8.35667 22.1914 8.35667C23.7791 8.35667 25.1075 9.68238 25.1075 11.3694Z" fill="#FF9900" stroke="black" stroke-width="2"/>
<g clip-path="url(#clip0_106_10604)">
<path d="M148.741 22.07C149.808 22.7021 150.206 23.6143 150.188 24.8712C150.131 28.8072 150.192 32.7433 150.142 36.6793C150.135 37.3185 149.966 38.1553 149.542 38.5324C149.1 38.9238 148.22 39.0818 147.606 38.9597C146.687 38.7766 146.335 37.9434 146.335 37.0097C146.335 34.3198 146.335 31.6264 146.335 28.9365C146.335 27.5718 146.4 26.2 146.317 24.8425C146.242 23.5784 146.665 22.6626 147.779 22.07H148.745H148.741Z" fill="black"/>
<path d="M148.317 122.205C143.695 122.205 139.077 122.212 134.455 122.205C132.408 122.201 131.937 121.58 131.826 119.526C131.682 116.929 131.499 114.311 131.025 111.762C130.379 108.285 128.533 105.463 126.015 102.906C118.477 95.2526 115.421 85.98 117.12 75.3643C119.346 61.4661 130.034 51.1484 144.029 49.0583C157.266 47.0831 170.87 54.2692 176.724 66.3323C182.775 78.8047 180.563 93.0476 170.683 102.755C166.047 107.312 164.97 112.857 164.783 118.88C164.772 119.242 164.801 119.605 164.776 119.964C164.664 121.562 164.029 122.194 162.42 122.198C157.719 122.212 153.018 122.205 148.317 122.205ZM135.816 118.298C136.279 118.298 136.757 118.298 137.231 118.298C144.582 118.298 151.933 118.298 159.285 118.298C160.98 118.298 160.955 118.298 161.062 116.646C161.346 112.315 162.129 108.073 164.503 104.374C165.745 102.439 167.502 100.841 168.978 99.0522C176.893 89.4707 178.34 78.9735 173.075 67.7257C167.871 56.6071 154.354 50.3512 142.377 53.0338C128.813 56.072 119.404 68.4942 120.452 82.2595C120.98 89.1906 123.609 95.1808 128.594 100.007C131.837 103.146 133.859 106.856 134.731 111.216C135.187 113.489 135.439 115.805 135.809 118.298H135.816Z" fill="black"/>
<path d="M148.138 133.974C143.918 133.974 139.698 134.006 135.478 133.963C133.176 133.938 131.252 132.253 130.892 130.095C130.515 127.818 131.672 125.635 133.783 124.845C134.516 124.572 135.349 124.453 136.139 124.45C144.216 124.421 152.296 124.417 160.373 124.439C163.268 124.446 165.347 126.127 165.616 128.565C165.943 131.539 163.81 133.927 160.678 133.966C156.498 134.017 152.318 133.977 148.141 133.977L148.138 133.974ZM148.195 128.174C144.101 128.174 140.003 128.149 135.909 128.21C135.493 128.217 134.821 128.658 134.728 129.018C134.534 129.772 135.173 130.023 135.845 130.059C136.085 130.073 136.326 130.066 136.567 130.066C144.356 130.066 152.142 130.066 159.931 130.066C160.211 130.066 160.553 130.156 160.761 130.03C161.124 129.811 161.407 129.452 161.723 129.154C161.389 128.827 161.088 128.45 160.703 128.199C160.506 128.07 160.158 128.17 159.874 128.17C155.981 128.17 152.084 128.17 148.192 128.17L148.195 128.174Z" fill="black"/>
<path d="M148.263 145.527C145.25 145.527 142.237 145.577 139.227 145.509C136.904 145.458 135.112 143.853 134.659 141.609C134.25 139.587 135.306 137.396 137.231 136.516C137.942 136.193 138.775 135.988 139.551 135.985C145.372 135.942 151.197 135.909 157.018 135.985C160.33 136.028 162.438 138.714 161.773 141.795C161.306 143.954 159.425 145.484 157.054 145.519C154.124 145.563 151.19 145.53 148.259 145.53V145.523L148.263 145.527ZM148.378 139.723C145.483 139.723 142.592 139.727 139.698 139.72C139.037 139.72 138.416 139.827 138.423 140.632C138.43 141.411 139.044 141.573 139.705 141.58C139.784 141.58 139.867 141.58 139.946 141.58C145.49 141.58 151.035 141.58 156.584 141.58C157.302 141.58 158.078 141.526 158.031 140.574C157.992 139.702 157.245 139.716 156.577 139.72C153.844 139.727 151.111 139.72 148.378 139.72V139.723Z" fill="black"/>
<path d="M127.086 44.2137C126.644 44.6985 126.252 45.4886 125.667 45.6754C125.082 45.8621 124.241 45.5712 123.627 45.2588C123.218 45.0505 122.999 44.4543 122.719 44.0162C120.639 40.7733 118.571 37.5232 116.495 34.2803C115.985 33.4866 115.662 32.5781 116.344 31.8383C116.768 31.3786 117.572 31.0374 118.19 31.0625C118.711 31.0805 119.375 31.5941 119.691 32.0753C121.99 35.5588 124.223 39.0854 126.454 42.612C126.701 43.0035 126.806 43.4919 127.086 44.2173V44.2137Z" fill="black"/>
<path d="M185.878 61.7821C185.472 61.4482 184.707 61.1249 184.556 60.6186C184.37 59.9865 184.628 59.1929 184.815 58.4997C184.88 58.2591 185.278 58.076 185.558 57.9251C189.225 55.9392 192.899 53.964 196.573 51.9852C197.417 51.5327 198.35 51.3855 199.022 52.1037C199.421 52.5311 199.636 53.3391 199.557 53.9245C199.492 54.4165 198.972 54.9983 198.498 55.2604C194.745 57.3398 190.96 59.358 187.174 61.3799C186.866 61.5451 186.499 61.5954 185.882 61.7786L185.878 61.7821Z" fill="black"/>
<path d="M110.673 61.8252C109.948 61.581 109.503 61.502 109.129 61.2973C105.459 59.3185 101.796 57.329 98.1435 55.3179C96.8758 54.6212 96.5383 53.691 97.0841 52.6532C97.6228 51.6261 98.772 51.3244 99.9966 51.9816C103.67 53.9532 107.323 55.9607 110.986 57.9539C111.963 58.4854 112.433 59.3401 112.031 60.3528C111.794 60.9526 111.108 61.3727 110.673 61.8252Z" fill="black"/>
<path d="M181.565 33.1778C181.242 33.8781 181.095 34.3378 180.84 34.7256C178.516 38.2415 176.185 41.7501 173.837 45.248C173.072 46.39 172.127 46.6594 171.193 46.0776C170.217 45.4671 169.987 44.3753 170.727 43.2477C173.082 39.6564 175.474 36.0903 177.87 32.5278C178.383 31.7628 179.155 31.2888 180.032 31.7341C180.628 32.0394 181.055 32.6786 181.565 33.1778Z" fill="black"/>
<path d="M135.816 118.298C135.443 115.805 135.191 113.489 134.739 111.216C133.866 106.856 131.848 103.146 128.601 100.007C123.617 95.1844 120.988 89.1906 120.46 82.2595C119.411 68.4942 128.82 56.072 142.385 53.0338C154.361 50.3512 167.879 56.6071 173.083 67.7257C178.347 78.9735 176.897 89.4707 168.985 99.0522C167.509 100.841 165.753 102.442 164.51 104.374C162.133 108.07 161.35 112.311 161.07 116.646C160.962 118.294 160.987 118.298 159.292 118.298C151.941 118.298 144.59 118.298 137.238 118.298C136.761 118.298 136.287 118.298 135.823 118.298H135.816ZM172.86 80.2986C172.623 70.0492 164.963 60.3133 155.019 57.8138C152.896 57.2787 150.677 57.074 148.49 56.8585C147.28 56.74 146.389 57.627 146.353 58.6757C146.313 59.7136 147.15 60.5396 148.364 60.6509C148.605 60.6724 148.845 60.6688 149.086 60.6796C159.152 61.1178 167.355 68.5445 168.802 78.5461C168.949 79.5768 168.942 80.629 169.104 81.6561C169.28 82.7658 170.109 83.4051 171.111 83.3333C172.099 83.265 172.799 82.4893 172.856 81.3796C172.874 81.0205 172.856 80.6578 172.856 80.2951L172.86 80.2986Z" fill="white"/>
<path d="M148.195 128.174C152.088 128.174 155.984 128.174 159.877 128.174C160.157 128.174 160.505 128.073 160.707 128.202C161.091 128.45 161.393 128.831 161.727 129.158C161.41 129.456 161.13 129.811 160.764 130.034C160.556 130.16 160.215 130.07 159.934 130.07C152.145 130.07 144.359 130.07 136.57 130.07C136.329 130.07 136.089 130.077 135.848 130.063C135.176 130.027 134.537 129.772 134.731 129.021C134.824 128.662 135.496 128.22 135.913 128.213C140.007 128.152 144.101 128.177 148.198 128.177L148.195 128.174Z" fill="white"/>
<path d="M148.378 139.727C151.111 139.727 153.844 139.73 156.577 139.727C157.245 139.727 157.992 139.709 158.031 140.581C158.074 141.533 157.302 141.587 156.584 141.587C151.039 141.587 145.494 141.587 139.946 141.587C139.867 141.587 139.784 141.587 139.705 141.587C139.044 141.583 138.43 141.422 138.423 140.639C138.416 139.834 139.033 139.727 139.698 139.727C142.592 139.734 145.483 139.73 148.378 139.727Z" fill="white"/>
<path d="M172.86 80.2951C172.86 80.6578 172.874 81.0205 172.86 81.3796C172.802 82.4893 172.102 83.2614 171.114 83.3333C170.112 83.4051 169.283 82.7659 169.107 81.6562C168.945 80.6291 168.956 79.5768 168.805 78.5461C167.358 68.5445 159.156 61.1178 149.089 60.6796C148.849 60.6689 148.608 60.6724 148.367 60.6509C147.154 60.5396 146.317 59.7172 146.356 58.6757C146.396 57.6271 147.283 56.7364 148.493 56.8585C150.68 57.074 152.896 57.2823 155.022 57.8138C164.966 60.3133 172.63 70.0456 172.863 80.2987L172.86 80.2951Z" fill="black"/>
</g>
<defs>
<clipPath id="clip0_106_10604">
<rect width="123.726" height="123.726" fill="white" transform="translate(86.2744 22.07)"/>
</clipPath>
</defs>
</svg>
